<?xml version="1.0" standalone="no"?>
 <!DOCTYPE svg PUBLIC "-//W3C//DTD SVG 1.1//EN" 
 "http://www.w3.org/Graphics/SVG/1.1/DTD/svg11.dtd"> 
<svg xmlns="http://www.w3.org/2000/svg" version="1.1" 
    width="29.7002cm" height="21.0007cm" viewBox="0 0 116930 82680 ">
<title>SVG Picture created as alligator-adaptor-B.Cu.svg date 2016/08/19 13:07:45 </title>
  <desc>Picture generated by PCBNEW </desc>
<g style="fill:#000000; fill-opacity:1;stroke:#000000; stroke-opacity:1;
stroke-linecap:round; stroke-linejoin:round; "
 transform="translate(0 0) scale(1 1)">
</g>
<g style="fill:#000000; fill-opacity:0.0; 
stroke:#000000; stroke-width:-0.000393701; stroke-opacity:1; 
stroke-linecap:round; stroke-linejoin:round;">
</g>
<g style="fill:#000000; fill-opacity:1.0; 
stroke:#000000; stroke-width:0; stroke-opacity:1; 
stroke-linecap:round; stroke-linejoin:round;">
<circle cx="43307.1" cy="14173.2" r="492.126" /> 
</g>
<g style="fill:#000000; fill-opacity:1.0; 
stroke:#000000; stroke-width:39.3701; stroke-opacity:1; 
stroke-linecap:round; stroke-linejoin:round;">
</g>
<g style="fill:#000000; fill-opacity:1.0; 
stroke:#000000; stroke-width:0; stroke-opacity:1; 
stroke-linecap:round; stroke-linejoin:round;">
<circle cx="43307.1" cy="16141.7" r="492.126" /> 
</g>
<g style="fill:#000000; fill-opacity:1.0; 
stroke:#000000; stroke-width:39.3701; stroke-opacity:1; 
stroke-linecap:round; stroke-linejoin:round;">
</g>
<g style="fill:#000000; fill-opacity:1.0; 
stroke:#000000; stroke-width:0; stroke-opacity:1; 
stroke-linecap:round; stroke-linejoin:round;">
<polyline style="fill-rule:evenodd;"
points="43799,20570
42814,20570
42814,19586
43799,19586
43799,20570
" /> 
<circle cx="43307.1" cy="18110.2" r="492.126" /> 
</g>
<g style="fill:#000000; fill-opacity:1.0; 
stroke:#000000; stroke-width:39.3701; stroke-opacity:1; 
stroke-linecap:round; stroke-linejoin:round;">
</g>
<g style="fill:#000000; fill-opacity:1.0; 
stroke:#000000; stroke-width:0; stroke-opacity:1; 
stroke-linecap:round; stroke-linejoin:round;">
<polyline style="fill-rule:evenodd;"
points="27740,41950
27060,41950
27060,41150
27740,41150
27740,41950
" /> 
</g>
<g style="fill:#000000; fill-opacity:1.0; 
stroke:#000000; stroke-width:680; stroke-opacity:1; 
stroke-linecap:round; stroke-linejoin:round;">
</g>
<g style="fill:#000000; fill-opacity:0.0; 
stroke:#000000; stroke-width:680; stroke-opacity:1; 
stroke-linecap:round; stroke-linejoin:round;">
<path d="M28400 41610
L28400 41490
" />
<path d="M29400 41610
L29400 41490
" />
<path d="M30400 41610
L30400 41490
" />
</g>
<g style="fill:#000000; fill-opacity:0.0; 
stroke:#000000; stroke-width:0; stroke-opacity:1; 
stroke-linecap:round; stroke-linejoin:round;">
</g>
<g style="fill:#000000; fill-opacity:1.0; 
stroke:#000000; stroke-width:0; stroke-opacity:1; 
stroke-linecap:round; stroke-linejoin:round;">
<polyline style="fill-rule:evenodd;"
points="28906,39906
28493,39906
28493,39493
28906,39493
28906,39906
" /> 
<circle cx="28200" cy="39700" r="206.693" /> 
</g>
<g style="fill:#000000; fill-opacity:1.0; 
stroke:#000000; stroke-width:39.3701; stroke-opacity:1; 
stroke-linecap:round; stroke-linejoin:round;">
</g>
<g style="fill:#000000; fill-opacity:1.0; 
stroke:#000000; stroke-width:0; stroke-opacity:1; 
stroke-linecap:round; stroke-linejoin:round;">
<circle cx="27700" cy="39700" r="206.693" /> 
</g>
<g style="fill:#000000; fill-opacity:1.0; 
stroke:#000000; stroke-width:39.3701; stroke-opacity:1; 
stroke-linecap:round; stroke-linejoin:round;">
</g>
<g style="fill:#000000; fill-opacity:1.0; 
stroke:#000000; stroke-width:0; stroke-opacity:1; 
stroke-linecap:round; stroke-linejoin:round;">
<circle cx="27200" cy="39700" r="206.693" /> 
</g>
<g style="fill:#000000; fill-opacity:1.0; 
stroke:#000000; stroke-width:39.3701; stroke-opacity:1; 
stroke-linecap:round; stroke-linejoin:round;">
</g>
<g style="fill:#000000; fill-opacity:1.0; 
stroke:#000000; stroke-width:0; stroke-opacity:1; 
stroke-linecap:round; stroke-linejoin:round;">
<circle cx="28200" cy="39200" r="206.693" /> 
</g>
<g style="fill:#000000; fill-opacity:1.0; 
stroke:#000000; stroke-width:39.3701; stroke-opacity:1; 
stroke-linecap:round; stroke-linejoin:round;">
</g>
<g style="fill:#000000; fill-opacity:1.0; 
stroke:#000000; stroke-width:0; stroke-opacity:1; 
stroke-linecap:round; stroke-linejoin:round;">
<circle cx="27700" cy="39200" r="206.693" /> 
</g>
<g style="fill:#000000; fill-opacity:1.0; 
stroke:#000000; stroke-width:39.3701; stroke-opacity:1; 
stroke-linecap:round; stroke-linejoin:round;">
</g>
<g style="fill:#000000; fill-opacity:1.0; 
stroke:#000000; stroke-width:0; stroke-opacity:1; 
stroke-linecap:round; stroke-linejoin:round;">
<circle cx="27200" cy="39200" r="206.693" /> 
</g>
<g style="fill:#000000; fill-opacity:1.0; 
stroke:#000000; stroke-width:39.3701; stroke-opacity:1; 
stroke-linecap:round; stroke-linejoin:round;">
</g>
<g style="fill:#000000; fill-opacity:1.0; 
stroke:#000000; stroke-width:0; stroke-opacity:1; 
stroke-linecap:round; stroke-linejoin:round;">
<circle cx="28700" cy="39200" r="206.693" /> 
</g>
<g style="fill:#000000; fill-opacity:1.0; 
stroke:#000000; stroke-width:39.3701; stroke-opacity:1; 
stroke-linecap:round; stroke-linejoin:round;">
</g>
<g style="fill:#000000; fill-opacity:1.0; 
stroke:#000000; stroke-width:0; stroke-opacity:1; 
stroke-linecap:round; stroke-linejoin:round;">
<polyline style="fill-rule:evenodd;"
points="30060,36900
30740,36900
30740,37700
30060,37700
30060,36900
" /> 
</g>
<g style="fill:#000000; fill-opacity:1.0; 
stroke:#000000; stroke-width:680; stroke-opacity:1; 
stroke-linecap:round; stroke-linejoin:round;">
</g>
<g style="fill:#000000; fill-opacity:0.0; 
stroke:#000000; stroke-width:680; stroke-opacity:1; 
stroke-linecap:round; stroke-linejoin:round;">
<path d="M29400 37240
L29400 37360
" />
<path d="M28400 37240
L28400 37360
" />
<path d="M27400 37240
L27400 37360
" />
</g>
<g style="fill:#000000; fill-opacity:1.0; 
stroke:#000000; stroke-width:0; stroke-opacity:1; 
stroke-linecap:round; stroke-linejoin:round;">
<circle cx="36811" cy="18110.2" r="492" /> 
</g>
<g style="fill:#000000; fill-opacity:1.0; 
stroke:#000000; stroke-width:39.3701; stroke-opacity:1; 
stroke-linecap:round; stroke-linejoin:round;">
</g>
<g style="fill:#000000; fill-opacity:1.0; 
stroke:#000000; stroke-width:0; stroke-opacity:1; 
stroke-linecap:round; stroke-linejoin:round;">
<circle cx="29921.3" cy="18110.2" r="492" /> 
</g>
<g style="fill:#000000; fill-opacity:1.0; 
stroke:#000000; stroke-width:39.3701; stroke-opacity:1; 
stroke-linecap:round; stroke-linejoin:round;">
</g>
<g style="fill:#000000; fill-opacity:1.0; 
stroke:#000000; stroke-width:0; stroke-opacity:1; 
stroke-linecap:round; stroke-linejoin:round;">
<circle cx="36811" cy="33858.3" r="492" /> 
</g>
<g style="fill:#000000; fill-opacity:1.0; 
stroke:#000000; stroke-width:39.3701; stroke-opacity:1; 
stroke-linecap:round; stroke-linejoin:round;">
</g>
<g style="fill:#000000; fill-opacity:1.0; 
stroke:#000000; stroke-width:0; stroke-opacity:1; 
stroke-linecap:round; stroke-linejoin:round;">
<circle cx="29921.3" cy="33858.3" r="492" /> 
</g>
<g style="fill:#000000; fill-opacity:1.0; 
stroke:#000000; stroke-width:39.3701; stroke-opacity:1; 
stroke-linecap:round; stroke-linejoin:round;">
</g>
<g style="fill:#000000; fill-opacity:1.0; 
stroke:#000000; stroke-width:0; stroke-opacity:1; 
stroke-linecap:round; stroke-linejoin:round;">
<circle cx="43307.1" cy="23622" r="492.126" /> 
</g>
<g style="fill:#000000; fill-opacity:1.0; 
stroke:#000000; stroke-width:39.3701; stroke-opacity:1; 
stroke-linecap:round; stroke-linejoin:round;">
</g>
<g style="fill:#000000; fill-opacity:1.0; 
stroke:#000000; stroke-width:0; stroke-opacity:1; 
stroke-linecap:round; stroke-linejoin:round;">
<circle cx="43307.1" cy="25590.6" r="492.126" /> 
</g>
<g style="fill:#000000; fill-opacity:1.0; 
stroke:#000000; stroke-width:39.3701; stroke-opacity:1; 
stroke-linecap:round; stroke-linejoin:round;">
</g>
<g style="fill:#000000; fill-opacity:1.0; 
stroke:#000000; stroke-width:0; stroke-opacity:1; 
stroke-linecap:round; stroke-linejoin:round;">
<polyline style="fill-rule:evenodd;"
points="43799,30019
42814,30019
42814,29035
43799,29035
43799,30019
" /> 
<circle cx="43307.1" cy="27559.1" r="492.126" /> 
</g>
<g style="fill:#000000; fill-opacity:1.0; 
stroke:#000000; stroke-width:39.3701; stroke-opacity:1; 
stroke-linecap:round; stroke-linejoin:round;">
</g>
<g style="fill:#000000; fill-opacity:1.0; 
stroke:#000000; stroke-width:0; stroke-opacity:1; 
stroke-linecap:round; stroke-linejoin:round;">
<circle cx="43307.1" cy="31889.8" r="492.126" /> 
</g>
<g style="fill:#000000; fill-opacity:1.0; 
stroke:#000000; stroke-width:39.3701; stroke-opacity:1; 
stroke-linecap:round; stroke-linejoin:round;">
</g>
<g style="fill:#000000; fill-opacity:1.0; 
stroke:#000000; stroke-width:0; stroke-opacity:1; 
stroke-linecap:round; stroke-linejoin:round;">
<circle cx="43307.1" cy="33858.3" r="492.126" /> 
</g>
<g style="fill:#000000; fill-opacity:1.0; 
stroke:#000000; stroke-width:39.3701; stroke-opacity:1; 
stroke-linecap:round; stroke-linejoin:round;">
</g>
<g style="fill:#000000; fill-opacity:1.0; 
stroke:#000000; stroke-width:0; stroke-opacity:1; 
stroke-linecap:round; stroke-linejoin:round;">
<polyline style="fill-rule:evenodd;"
points="43799,38287
42814,38287
42814,37303
43799,37303
43799,38287
" /> 
<circle cx="43307.1" cy="35826.8" r="492.126" /> 
</g>
<g style="fill:#000000; fill-opacity:1.0; 
stroke:#000000; stroke-width:39.3701; stroke-opacity:1; 
stroke-linecap:round; stroke-linejoin:round;">
</g>
<g style="fill:#000000; fill-opacity:1.0; 
stroke:#000000; stroke-width:0; stroke-opacity:1; 
stroke-linecap:round; stroke-linejoin:round;">
<circle cx="43307.1" cy="40157.5" r="492.126" /> 
</g>
<g style="fill:#000000; fill-opacity:1.0; 
stroke:#000000; stroke-width:39.3701; stroke-opacity:1; 
stroke-linecap:round; stroke-linejoin:round;">
</g>
<g style="fill:#000000; fill-opacity:1.0; 
stroke:#000000; stroke-width:0; stroke-opacity:1; 
stroke-linecap:round; stroke-linejoin:round;">
<circle cx="43307.1" cy="42126" r="492.126" /> 
</g>
<g style="fill:#000000; fill-opacity:1.0; 
stroke:#000000; stroke-width:39.3701; stroke-opacity:1; 
stroke-linecap:round; stroke-linejoin:round;">
</g>
<g style="fill:#000000; fill-opacity:1.0; 
stroke:#000000; stroke-width:0; stroke-opacity:1; 
stroke-linecap:round; stroke-linejoin:round;">
<polyline style="fill-rule:evenodd;"
points="43799,46555
42814,46555
42814,45570
43799,45570
43799,46555
" /> 
<circle cx="43307.1" cy="44094.5" r="492.126" /> 
</g>
<g style="fill:#000000; fill-opacity:1.0; 
stroke:#000000; stroke-width:39.3701; stroke-opacity:1; 
stroke-linecap:round; stroke-linejoin:round;">
</g>
<g style="fill:#000000; fill-opacity:1.0; 
stroke:#000000; stroke-width:0; stroke-opacity:1; 
stroke-linecap:round; stroke-linejoin:round;">
<circle cx="22440.9" cy="36614.2" r="492.126" /> 
</g>
<g style="fill:#000000; fill-opacity:1.0; 
stroke:#000000; stroke-width:39.3701; stroke-opacity:1; 
stroke-linecap:round; stroke-linejoin:round;">
</g>
<g style="fill:#000000; fill-opacity:1.0; 
stroke:#000000; stroke-width:0; stroke-opacity:1; 
stroke-linecap:round; stroke-linejoin:round;">
<circle cx="22440.9" cy="34645.7" r="492.126" /> 
</g>
<g style="fill:#000000; fill-opacity:1.0; 
stroke:#000000; stroke-width:39.3701; stroke-opacity:1; 
stroke-linecap:round; stroke-linejoin:round;">
</g>
<g style="fill:#000000; fill-opacity:1.0; 
stroke:#000000; stroke-width:0; stroke-opacity:1; 
stroke-linecap:round; stroke-linejoin:round;">
<polyline style="fill-rule:evenodd;"
points="21948,30216
22933,30216
22933,31200
21948,31200
21948,30216
" /> 
<circle cx="22440.9" cy="32677.2" r="492.126" /> 
</g>
<g style="fill:#000000; fill-opacity:1.0; 
stroke:#000000; stroke-width:39.3701; stroke-opacity:1; 
stroke-linecap:round; stroke-linejoin:round;">
</g>
<g style="fill:#000000; fill-opacity:1.0; 
stroke:#000000; stroke-width:0; stroke-opacity:1; 
stroke-linecap:round; stroke-linejoin:round;">
<circle cx="22440.9" cy="28346.5" r="492.126" /> 
</g>
<g style="fill:#000000; fill-opacity:1.0; 
stroke:#000000; stroke-width:39.3701; stroke-opacity:1; 
stroke-linecap:round; stroke-linejoin:round;">
</g>
<g style="fill:#000000; fill-opacity:1.0; 
stroke:#000000; stroke-width:0; stroke-opacity:1; 
stroke-linecap:round; stroke-linejoin:round;">
<circle cx="22440.9" cy="26378" r="492.126" /> 
</g>
<g style="fill:#000000; fill-opacity:1.0; 
stroke:#000000; stroke-width:39.3701; stroke-opacity:1; 
stroke-linecap:round; stroke-linejoin:round;">
</g>
<g style="fill:#000000; fill-opacity:1.0; 
stroke:#000000; stroke-width:0; stroke-opacity:1; 
stroke-linecap:round; stroke-linejoin:round;">
<polyline style="fill-rule:evenodd;"
points="21948,21948
22933,21948
22933,22933
21948,22933
21948,21948
" /> 
<circle cx="22440.9" cy="24409.4" r="492.126" /> 
</g>
<g style="fill:#000000; fill-opacity:1.0; 
stroke:#000000; stroke-width:39.3701; stroke-opacity:1; 
stroke-linecap:round; stroke-linejoin:round;">
</g>
<g style="fill:#000000; fill-opacity:1.0; 
stroke:#000000; stroke-width:0; stroke-opacity:1; 
stroke-linecap:round; stroke-linejoin:round;">
<circle cx="22440.9" cy="20078.7" r="492.126" /> 
</g>
<g style="fill:#000000; fill-opacity:1.0; 
stroke:#000000; stroke-width:39.3701; stroke-opacity:1; 
stroke-linecap:round; stroke-linejoin:round;">
</g>
<g style="fill:#000000; fill-opacity:1.0; 
stroke:#000000; stroke-width:0; stroke-opacity:1; 
stroke-linecap:round; stroke-linejoin:round;">
<circle cx="22440.9" cy="18110.2" r="492.126" /> 
</g>
<g style="fill:#000000; fill-opacity:1.0; 
stroke:#000000; stroke-width:39.3701; stroke-opacity:1; 
stroke-linecap:round; stroke-linejoin:round;">
</g>
<g style="fill:#000000; fill-opacity:1.0; 
stroke:#000000; stroke-width:0; stroke-opacity:1; 
stroke-linecap:round; stroke-linejoin:round;">
<polyline style="fill-rule:evenodd;"
points="21948,13681
22933,13681
22933,14665
21948,14665
21948,13681
" /> 
<circle cx="22440.9" cy="16141.7" r="492.126" /> 
</g>
<g style="fill:#000000; fill-opacity:1.0; 
stroke:#000000; stroke-width:39.3701; stroke-opacity:1; 
stroke-linecap:round; stroke-linejoin:round;">
</g>
<g style="fill:#000000; fill-opacity:1.0; 
stroke:#000000; stroke-width:0; stroke-opacity:1; 
stroke-linecap:round; stroke-linejoin:round;">
<circle cx="35826.8" cy="45669.3" r="492.126" /> 
</g>
<g style="fill:#000000; fill-opacity:1.0; 
stroke:#000000; stroke-width:39.3701; stroke-opacity:1; 
stroke-linecap:round; stroke-linejoin:round;">
</g>
<g style="fill:#000000; fill-opacity:1.0; 
stroke:#000000; stroke-width:0; stroke-opacity:1; 
stroke-linecap:round; stroke-linejoin:round;">
<circle cx="33858.3" cy="45669.3" r="492.126" /> 
</g>
<g style="fill:#000000; fill-opacity:1.0; 
stroke:#000000; stroke-width:39.3701; stroke-opacity:1; 
stroke-linecap:round; stroke-linejoin:round;">
</g>
<g style="fill:#000000; fill-opacity:1.0; 
stroke:#000000; stroke-width:0; stroke-opacity:1; 
stroke-linecap:round; stroke-linejoin:round;">
<polyline style="fill-rule:evenodd;"
points="29429,46161
29429,45177
30413,45177
30413,46161
29429,46161
" /> 
<circle cx="31889.8" cy="45669.3" r="492.126" /> 
</g>
<g style="fill:#000000; fill-opacity:1.0; 
stroke:#000000; stroke-width:39.3701; stroke-opacity:1; 
stroke-linecap:round; stroke-linejoin:round;">
</g>
<g style="fill:#000000; fill-opacity:1.0; 
stroke:#000000; stroke-width:0; stroke-opacity:1; 
stroke-linecap:round; stroke-linejoin:round;">
<circle cx="27559.1" cy="45669.3" r="492.126" /> 
</g>
<g style="fill:#000000; fill-opacity:1.0; 
stroke:#000000; stroke-width:39.3701; stroke-opacity:1; 
stroke-linecap:round; stroke-linejoin:round;">
</g>
<g style="fill:#000000; fill-opacity:1.0; 
stroke:#000000; stroke-width:0; stroke-opacity:1; 
stroke-linecap:round; stroke-linejoin:round;">
<circle cx="25590.6" cy="45669.3" r="492.126" /> 
</g>
<g style="fill:#000000; fill-opacity:1.0; 
stroke:#000000; stroke-width:39.3701; stroke-opacity:1; 
stroke-linecap:round; stroke-linejoin:round;">
</g>
<g style="fill:#000000; fill-opacity:1.0; 
stroke:#000000; stroke-width:0; stroke-opacity:1; 
stroke-linecap:round; stroke-linejoin:round;">
<polyline style="fill-rule:evenodd;"
points="21161,46161
21161,45177
22145,45177
22145,46161
21161,46161
" /> 
<circle cx="23622" cy="45669.3" r="492.126" /> 
</g>
<g style="fill:#000000; fill-opacity:1.0; 
stroke:#000000; stroke-width:39.3701; stroke-opacity:1; 
stroke-linecap:round; stroke-linejoin:round;">
</g>
<g style="fill:#000000; fill-opacity:1.0; 
stroke:#000000; stroke-width:0; stroke-opacity:1; 
stroke-linecap:round; stroke-linejoin:round;">
<circle cx="29400" cy="14550" r="206.693" /> 
</g>
<g style="fill:#000000; fill-opacity:1.0; 
stroke:#000000; stroke-width:39.3701; stroke-opacity:1; 
stroke-linecap:round; stroke-linejoin:round;">
</g>
<g style="fill:#000000; fill-opacity:1.0; 
stroke:#000000; stroke-width:0; stroke-opacity:1; 
stroke-linecap:round; stroke-linejoin:round;">
<circle cx="29400" cy="14050" r="206.693" /> 
</g>
<g style="fill:#000000; fill-opacity:1.0; 
stroke:#000000; stroke-width:39.3701; stroke-opacity:1; 
stroke-linecap:round; stroke-linejoin:round;">
</g>
<g style="fill:#000000; fill-opacity:1.0; 
stroke:#000000; stroke-width:0; stroke-opacity:1; 
stroke-linecap:round; stroke-linejoin:round;">
<circle cx="29900" cy="14550" r="206.693" /> 
</g>
<g style="fill:#000000; fill-opacity:1.0; 
stroke:#000000; stroke-width:39.3701; stroke-opacity:1; 
stroke-linecap:round; stroke-linejoin:round;">
</g>
<g style="fill:#000000; fill-opacity:1.0; 
stroke:#000000; stroke-width:0; stroke-opacity:1; 
stroke-linecap:round; stroke-linejoin:round;">
<circle cx="29900" cy="14050" r="206.693" /> 
</g>
<g style="fill:#000000; fill-opacity:1.0; 
stroke:#000000; stroke-width:39.3701; stroke-opacity:1; 
stroke-linecap:round; stroke-linejoin:round;">
</g>
<g style="fill:#000000; fill-opacity:1.0; 
stroke:#000000; stroke-width:0; stroke-opacity:1; 
stroke-linecap:round; stroke-linejoin:round;">
<circle cx="30400" cy="14550" r="206.693" /> 
</g>
<g style="fill:#000000; fill-opacity:1.0; 
stroke:#000000; stroke-width:39.3701; stroke-opacity:1; 
stroke-linecap:round; stroke-linejoin:round;">
</g>
<g style="fill:#000000; fill-opacity:1.0; 
stroke:#000000; stroke-width:0; stroke-opacity:1; 
stroke-linecap:round; stroke-linejoin:round;">
<circle cx="30400" cy="14050" r="206.693" /> 
</g>
<g style="fill:#000000; fill-opacity:1.0; 
stroke:#000000; stroke-width:39.3701; stroke-opacity:1; 
stroke-linecap:round; stroke-linejoin:round;">
</g>
<g style="fill:#000000; fill-opacity:1.0; 
stroke:#000000; stroke-width:0; stroke-opacity:1; 
stroke-linecap:round; stroke-linejoin:round;">
<circle cx="30900" cy="14050" r="206.693" /> 
</g>
<g style="fill:#000000; fill-opacity:1.0; 
stroke:#000000; stroke-width:39.3701; stroke-opacity:1; 
stroke-linecap:round; stroke-linejoin:round;">
</g>
<g style="fill:#000000; fill-opacity:1.0; 
stroke:#000000; stroke-width:0; stroke-opacity:1; 
stroke-linecap:round; stroke-linejoin:round;">
<circle cx="28900" cy="14550" r="206.693" /> 
</g>
<g style="fill:#000000; fill-opacity:1.0; 
stroke:#000000; stroke-width:39.3701; stroke-opacity:1; 
stroke-linecap:round; stroke-linejoin:round;">
</g>
<g style="fill:#000000; fill-opacity:1.0; 
stroke:#000000; stroke-width:0; stroke-opacity:1; 
stroke-linecap:round; stroke-linejoin:round;">
<circle cx="28900" cy="14050" r="206.693" /> 
</g>
<g style="fill:#000000; fill-opacity:1.0; 
stroke:#000000; stroke-width:39.3701; stroke-opacity:1; 
stroke-linecap:round; stroke-linejoin:round;">
</g>
<g style="fill:#000000; fill-opacity:1.0; 
stroke:#000000; stroke-width:0; stroke-opacity:1; 
stroke-linecap:round; stroke-linejoin:round;">
<circle cx="30900" cy="14550" r="206.693" /> 
</g>
<g style="fill:#000000; fill-opacity:1.0; 
stroke:#000000; stroke-width:39.3701; stroke-opacity:1; 
stroke-linecap:round; stroke-linejoin:round;">
</g>
<g style="fill:#000000; fill-opacity:1.0; 
stroke:#000000; stroke-width:0; stroke-opacity:1; 
stroke-linecap:round; stroke-linejoin:round;">
<circle cx="31400" cy="14050" r="206.693" /> 
</g>
<g style="fill:#000000; fill-opacity:1.0; 
stroke:#000000; stroke-width:39.3701; stroke-opacity:1; 
stroke-linecap:round; stroke-linejoin:round;">
</g>
<g style="fill:#000000; fill-opacity:1.0; 
stroke:#000000; stroke-width:0; stroke-opacity:1; 
stroke-linecap:round; stroke-linejoin:round;">
<circle cx="31400" cy="14550" r="206.693" /> 
</g>
<g style="fill:#000000; fill-opacity:1.0; 
stroke:#000000; stroke-width:39.3701; stroke-opacity:1; 
stroke-linecap:round; stroke-linejoin:round;">
</g>
<g style="fill:#000000; fill-opacity:1.0; 
stroke:#000000; stroke-width:0; stroke-opacity:1; 
stroke-linecap:round; stroke-linejoin:round;">
<circle cx="31400" cy="14550" r="206.693" /> 
</g>
<g style="fill:#000000; fill-opacity:1.0; 
stroke:#000000; stroke-width:39.3701; stroke-opacity:1; 
stroke-linecap:round; stroke-linejoin:round;">
</g>
<g style="fill:#000000; fill-opacity:1.0; 
stroke:#000000; stroke-width:0; stroke-opacity:1; 
stroke-linecap:round; stroke-linejoin:round;">
<circle cx="31400" cy="14550" r="206.693" /> 
</g>
<g style="fill:#000000; fill-opacity:1.0; 
stroke:#000000; stroke-width:39.3701; stroke-opacity:1; 
stroke-linecap:round; stroke-linejoin:round;">
</g>
<g style="fill:#000000; fill-opacity:1.0; 
stroke:#000000; stroke-width:0; stroke-opacity:1; 
stroke-linecap:round; stroke-linejoin:round;">
<circle cx="31400" cy="14550" r="206.693" /> 
</g>
<g style="fill:#000000; fill-opacity:1.0; 
stroke:#000000; stroke-width:39.3701; stroke-opacity:1; 
stroke-linecap:round; stroke-linejoin:round;">
</g>
<g style="fill:#000000; fill-opacity:1.0; 
stroke:#000000; stroke-width:0; stroke-opacity:1; 
stroke-linecap:round; stroke-linejoin:round;">
<circle cx="31400" cy="14550" r="206.693" /> 
</g>
<g style="fill:#000000; fill-opacity:1.0; 
stroke:#000000; stroke-width:39.3701; stroke-opacity:1; 
stroke-linecap:round; stroke-linejoin:round;">
</g>
<g style="fill:#000000; fill-opacity:1.0; 
stroke:#000000; stroke-width:0; stroke-opacity:1; 
stroke-linecap:round; stroke-linejoin:round;">
<circle cx="31400" cy="14550" r="206.693" /> 
</g>
<g style="fill:#000000; fill-opacity:1.0; 
stroke:#000000; stroke-width:39.3701; stroke-opacity:1; 
stroke-linecap:round; stroke-linejoin:round;">
</g>
<g style="fill:#000000; fill-opacity:1.0; 
stroke:#000000; stroke-width:0; stroke-opacity:1; 
stroke-linecap:round; stroke-linejoin:round;">
<circle cx="31400" cy="14550" r="206.693" /> 
</g>
<g style="fill:#000000; fill-opacity:1.0; 
stroke:#000000; stroke-width:39.3701; stroke-opacity:1; 
stroke-linecap:round; stroke-linejoin:round;">
</g>
<g style="fill:#000000; fill-opacity:1.0; 
stroke:#000000; stroke-width:0; stroke-opacity:1; 
stroke-linecap:round; stroke-linejoin:round;">
<polyline style="fill-rule:evenodd;"
points="33606,14756
33193,14756
33193,14343
33606,14343
33606,14756
" /> 
<circle cx="32900" cy="14550" r="206.693" /> 
</g>
<g style="fill:#000000; fill-opacity:1.0; 
stroke:#000000; stroke-width:39.3701; stroke-opacity:1; 
stroke-linecap:round; stroke-linejoin:round;">
</g>
<g style="fill:#000000; fill-opacity:1.0; 
stroke:#000000; stroke-width:0; stroke-opacity:1; 
stroke-linecap:round; stroke-linejoin:round;">
<circle cx="32400" cy="14550" r="206.693" /> 
</g>
<g style="fill:#000000; fill-opacity:1.0; 
stroke:#000000; stroke-width:39.3701; stroke-opacity:1; 
stroke-linecap:round; stroke-linejoin:round;">
</g>
<g style="fill:#000000; fill-opacity:1.0; 
stroke:#000000; stroke-width:0; stroke-opacity:1; 
stroke-linecap:round; stroke-linejoin:round;">
<circle cx="31900" cy="14550" r="206.693" /> 
</g>
<g style="fill:#000000; fill-opacity:1.0; 
stroke:#000000; stroke-width:39.3701; stroke-opacity:1; 
stroke-linecap:round; stroke-linejoin:round;">
</g>
<g style="fill:#000000; fill-opacity:1.0; 
stroke:#000000; stroke-width:0; stroke-opacity:1; 
stroke-linecap:round; stroke-linejoin:round;">
<circle cx="31400" cy="14550" r="206.693" /> 
</g>
<g style="fill:#000000; fill-opacity:1.0; 
stroke:#000000; stroke-width:39.3701; stroke-opacity:1; 
stroke-linecap:round; stroke-linejoin:round;">
</g>
<g style="fill:#000000; fill-opacity:1.0; 
stroke:#000000; stroke-width:0; stroke-opacity:1; 
stroke-linecap:round; stroke-linejoin:round;">
<circle cx="32900" cy="14050" r="206.693" /> 
</g>
<g style="fill:#000000; fill-opacity:1.0; 
stroke:#000000; stroke-width:39.3701; stroke-opacity:1; 
stroke-linecap:round; stroke-linejoin:round;">
</g>
<g style="fill:#000000; fill-opacity:1.0; 
stroke:#000000; stroke-width:0; stroke-opacity:1; 
stroke-linecap:round; stroke-linejoin:round;">
<circle cx="32400" cy="14050" r="206.693" /> 
</g>
<g style="fill:#000000; fill-opacity:1.0; 
stroke:#000000; stroke-width:39.3701; stroke-opacity:1; 
stroke-linecap:round; stroke-linejoin:round;">
</g>
<g style="fill:#000000; fill-opacity:1.0; 
stroke:#000000; stroke-width:0; stroke-opacity:1; 
stroke-linecap:round; stroke-linejoin:round;">
<circle cx="31900" cy="14050" r="206.693" /> 
</g>
<g style="fill:#000000; fill-opacity:1.0; 
stroke:#000000; stroke-width:39.3701; stroke-opacity:1; 
stroke-linecap:round; stroke-linejoin:round;">
</g>
<g style="fill:#000000; fill-opacity:1.0; 
stroke:#000000; stroke-width:0; stroke-opacity:1; 
stroke-linecap:round; stroke-linejoin:round;">
<circle cx="31400" cy="14050" r="206.693" /> 
</g>
<g style="fill:#000000; fill-opacity:1.0; 
stroke:#000000; stroke-width:39.3701; stroke-opacity:1; 
stroke-linecap:round; stroke-linejoin:round;">
</g>
<g style="fill:#000000; fill-opacity:1.0; 
stroke:#000000; stroke-width:0; stroke-opacity:1; 
stroke-linecap:round; stroke-linejoin:round;">
<circle cx="33400" cy="14050" r="206.693" /> 
</g>
<g style="fill:#000000; fill-opacity:1.0; 
stroke:#000000; stroke-width:39.3701; stroke-opacity:1; 
stroke-linecap:round; stroke-linejoin:round;">
</g>
<g style="fill:#000000; fill-opacity:1.0; 
stroke:#000000; stroke-width:0; stroke-opacity:1; 
stroke-linecap:round; stroke-linejoin:round;">
<circle cx="25350" cy="40600" r="1259.84" /> 
</g>
<g style="fill:#000000; fill-opacity:1.0; 
stroke:#000000; stroke-width:39.3701; stroke-opacity:1; 
stroke-linecap:round; stroke-linejoin:round;">
</g>
<g style="fill:#000000; fill-opacity:1.0; 
stroke:#000000; stroke-width:0; stroke-opacity:1; 
stroke-linecap:round; stroke-linejoin:round;">
<circle cx="26500" cy="15500" r="1259.84" /> 
</g>
<g style="fill:#000000; fill-opacity:1.0; 
stroke:#000000; stroke-width:39.3701; stroke-opacity:1; 
stroke-linecap:round; stroke-linejoin:round;">
</g>
<g style="fill:#000000; fill-opacity:1.0; 
stroke:#000000; stroke-width:0; stroke-opacity:1; 
stroke-linecap:round; stroke-linejoin:round;">
<circle cx="39600" cy="15500" r="1259.84" /> 
</g>
<g style="fill:#000000; fill-opacity:1.0; 
stroke:#000000; stroke-width:39.3701; stroke-opacity:1; 
stroke-linecap:round; stroke-linejoin:round;">
</g>
<g style="fill:#000000; fill-opacity:1.0; 
stroke:#000000; stroke-width:0; stroke-opacity:1; 
stroke-linecap:round; stroke-linejoin:round;">
<circle cx="36318.9" cy="20078.7" r="1181.1" /> 
</g>
<g style="fill:#000000; fill-opacity:1.0; 
stroke:#000000; stroke-width:39.3701; stroke-opacity:1; 
stroke-linecap:round; stroke-linejoin:round;">
</g>
<g style="fill:#000000; fill-opacity:1.0; 
stroke:#000000; stroke-width:0; stroke-opacity:1; 
stroke-linecap:round; stroke-linejoin:round;">
<circle cx="30413.4" cy="31889.8" r="1181.1" /> 
</g>
<g style="fill:#000000; fill-opacity:1.0; 
stroke:#000000; stroke-width:39.3701; stroke-opacity:1; 
stroke-linecap:round; stroke-linejoin:round;">
</g>
<g style="fill:#000000; fill-opacity:1.0; 
stroke:#000000; stroke-width:0; stroke-opacity:1; 
stroke-linecap:round; stroke-linejoin:round;">
<circle cx="39300" cy="45800" r="1259.84" /> 
</g>
<g style="fill:#000000; fill-opacity:1.0; 
stroke:#000000; stroke-width:39.3701; stroke-opacity:1; 
stroke-linecap:round; stroke-linejoin:round;">
</g>
<g style="fill:#000000; fill-opacity:1.0; 
stroke:#000000; stroke-width:0; stroke-opacity:1; 
stroke-linecap:round; stroke-linejoin:round;">
<circle cx="34155.7" cy="26463.5" r="118.11" /> 
</g>
<g style="fill:#000000; fill-opacity:1.0; 
stroke:#000000; stroke-width:39.3701; stroke-opacity:1; 
stroke-linecap:round; stroke-linejoin:round;">
</g>
<g style="fill:#000000; fill-opacity:1.0; 
stroke:#000000; stroke-width:0; stroke-opacity:1; 
stroke-linecap:round; stroke-linejoin:round;">
<circle cx="26653.7" cy="23948.8" r="118.11" /> 
</g>
<g style="fill:#000000; fill-opacity:1.0; 
stroke:#000000; stroke-width:39.3701; stroke-opacity:1; 
stroke-linecap:round; stroke-linejoin:round;">
</g>
<g style="fill:#000000; fill-opacity:1.0; 
stroke:#000000; stroke-width:0; stroke-opacity:1; 
stroke-linecap:round; stroke-linejoin:round;">
<circle cx="28079.4" cy="15801.3" r="118.11" /> 
</g>
<g style="fill:#000000; fill-opacity:1.0; 
stroke:#000000; stroke-width:39.3701; stroke-opacity:1; 
stroke-linecap:round; stroke-linejoin:round;">
</g>
<g style="fill:#000000; fill-opacity:1.0; 
stroke:#000000; stroke-width:984.252; stroke-opacity:1; 
stroke-linecap:round; stroke-linejoin:round;">
</g>
<g style="fill:#000000; fill-opacity:0.0; 
stroke:#000000; stroke-width:984.252; stroke-opacity:1; 
stroke-linecap:round; stroke-linejoin:round;">
<path d="M40926 14173
L43307 14173
" />
<path d="M39600 15500
L40926 14173
" />
<path d="M21338 29448
L22440 28346
" />
<path d="M21338 35511
L21338 29448
" />
<path d="M22440 36614
L21338 35511
" />
<path d="M29921 32381
L29921 33858
" />
<path d="M30413 31889
L29921 32381
" />
<path d="M24033 36614
L25350 37930
" />
<path d="M22440 36614
L24033 36614
" />
<path d="M25350 37930
L25350 40600
" />
<path d="M29422 33858
L29921 33858
" />
<path d="M25350 37930
L29422 33858
" />
<path d="M42379 40157
L39300 43237
" />
<path d="M43307 40157
L42379 40157
" />
<path d="M29921 33858
L39300 43237
" />
<path d="M39300 43237
L39300 45800
" />
<path d="M22440 20078
L26759 15759
" />
<path d="M26500 15500
L26759 15759
" />
<path d="M29110 18110
L29921 18110
" />
<path d="M26759 15759
L29110 18110
" />
<path d="M40964 24724
L42204 24724
" />
<path d="M36318 20078
L40964 24724
" />
<path d="M42204 30787
L42204 24724
" />
<path d="M43307 31889
L42204 30787
" />
<path d="M42204 24724
L43307 23622
" />
<path d="M43307 18110
L43307 16141
" />
<path d="M43307 20078
L42204 20078
" />
<path d="M24154 30097
L23543 30708
" />
<path d="M34610 30097
L24154 30097
" />
<path d="M42204 37691
L34610 30097
" />
<path d="M42204 37795
L42204 37691
" />
<path d="M43307 37795
L42204 37795
" />
<path d="M22440 30708
L23543 30708
" />
<path d="M39513 20078
L42204 20078
" />
<path d="M37545 18110
L39513 20078
" />
<path d="M36811 18110
L37545 18110
" />
</g>
<g style="fill:#000000; fill-opacity:0.0; 
stroke:#000000; stroke-width:236.22; stroke-opacity:1; 
stroke-linecap:round; stroke-linejoin:round;">
<path d="M28993 40143
L30400 41550
" />
<path d="M28700 40143
L28993 40143
" />
<path d="M28700 39700
L28700 40143
" />
<path d="M29336 37936
L29400 37936
" />
<path d="M28200 39072
L29336 37936
" />
<path d="M28200 39200
L28200 39072
" />
<path d="M29400 37300
L29400 37936
" />
<path d="M27700 38636
L28400 37936
" />
<path d="M27700 39200
L27700 38636
" />
<path d="M28400 37300
L28400 37936
" />
<path d="M27200 38136
L27400 37936
" />
<path d="M27200 39200
L27200 38136
" />
<path d="M27400 37300
L27400 37936
" />
<path d="M29963 37936
L30400 37936
" />
<path d="M28700 39200
L29963 37936
" />
<path d="M30400 37300
L30400 37936
" />
<path d="M21653 45669
L23622 45669
" />
<path d="M23622 45669
L25590 45669
" />
<path d="M25590 45669
L27559 45669
" />
<path d="M27559 45669
L29921 45669
" />
<path d="M33858 45669
L35826 45669
" />
<path d="M29921 45669
L31889 45669
" />
<path d="M35902 14050
L33400 14050
" />
<path d="M40691 18838
L35902 14050
" />
<path d="M43898 18838
L40691 18838
" />
<path d="M44397 19337
L43898 18838
" />
<path d="M44397 26469
L44397 19337
" />
<path d="M43307 27559
L44397 26469
" />
<path d="M32900 14805
L32900 14550
" />
<path d="M34280 16185
L32900 14805
" />
<path d="M37035 16185
L34280 16185
" />
<path d="M40121 19271
L37035 16185
" />
<path d="M43829 19271
L40121 19271
" />
<path d="M44035 19477
L43829 19271
" />
<path d="M44035 24862
L44035 19477
" />
<path d="M43307 25590
L44035 24862
" />
<path d="M43307 35614
L43307 35826
" />
<path d="M34155 26463
L43307 35614
" />
<path d="M32400 13918
L32400 14050
" />
<path d="M32896 13422
L32400 13918
" />
<path d="M43594 13422
L32896 13422
" />
<path d="M44754 14582
L43594 13422
" />
<path d="M44754 32411
L44754 14582
" />
<path d="M43307 33858
L44754 32411
" />
<path d="M44037 43364
L43307 44094
" />
<path d="M44037 35497
L44037 43364
" />
<path d="M43382 34842
L44037 35497
" />
<path d="M43231 34842
L43382 34842
" />
<path d="M31900 23511
L43231 34842
" />
<path d="M31900 14550
L31900 23511
" />
<path d="M31400 19202
L26653 23948
" />
<path d="M31400 14550
L31400 19202
" />
<path d="M24653 24409
L22440 24409
" />
<path d="M30900 18163
L24653 24409
" />
<path d="M30900 14550
L30900 18163
" />
<path d="M21707 25644
L22440 26377
" />
<path d="M21707 13586
L21707 25644
" />
<path d="M21848 13444
L21707 13586
" />
<path d="M30446 13444
L21848 13444
" />
<path d="M30900 13898
L30446 13444
" />
<path d="M30900 14050
L30900 13898
" />
<path d="M28793 15801
L28079 15801
" />
<path d="M29900 14695
L28793 15801
" />
<path d="M29900 14550
L29900 14695
" />
<path d="M29400 14683
L29400 14550
" />
<path d="M29090 14993
L29400 14683
" />
<path d="M28482 14993
L29090 14993
" />
<path d="M27484 13996
L28482 14993
" />
<path d="M25883 13996
L27484 13996
" />
<path d="M22440 17438
L25883 13996
" />
<path d="M22440 18110
L22440 17438
" />
</g>
<g style="fill:#000000; fill-opacity:1.0; 
stroke:#000000; stroke-width:100; stroke-opacity:1; 
stroke-linecap:round; stroke-linejoin:round;">
<polyline style="fill-rule:evenodd;"
points="21297,13416
21263,13586
21263,25644
21297,25813
21393,25957
21631,26195
21623,26214
21623,26539
21747,26840
21977,27070
22277,27195
22602,27195
22903,27071
23133,26841
23258,26541
23258,26216
23134,25915
22904,25685
22604,25560
22279,25560
22258,25568
22150,25460
22150,25174
22277,25227
22602,25227
22903,25103
23133,24873
23142,24853
24653,24853
24823,24819
24967,24723
30956,18734
30956,19018
26340,23634
26277,23697
26210,23860
26209,24036
26277,24199
26402,24324
26565,24392
26741,24392
26904,24325
27029,24200
27029,24200
31456,19773
31456,23511
31490,23681
31586,23825
33876,26115
33779,26211
33712,26374
33711,26551
33779,26714
33904,26839
33904,26839
42559,35494
42489,35663
42489,35988
42613,36289
42843,36519
43143,36644
43469,36644
43593,36593
43593,36971
42814,36971
42781,36977
42646,36977
35188,29519
34922,29341
34610,29279
24154,29279
23841,29341
23576,29519
23204,29890
22964,29890
22933,29884
21948,29884
21828,29907
21717,29978
21643,30087
21616,30216
21616,31200
21639,31321
21710,31432
21819,31506
21948,31532
22933,31532
22966,31526
23543,31526
23856,31464
24121,31286
24493,30915
29367,30915
29391,30938
29204,31073
28983,31597
28980,32167
29196,32694
29204,32706
29391,32841
30342,31889
30337,31884
30407,31813
30413,31819
30418,31813
30489,31884
30484,31889
31435,32841
31622,32706
31843,32181
31845,31612
31630,31085
31622,31073
31435,30938
31458,30915
34271,30915
36470,33114
36348,33164
36118,33394
35993,33694
35993,34020
36117,34320
36347,34550
36647,34675
36972,34676
37273,34551
37503,34322
37554,34198
41445,38089
41449,38108
41626,38373
41891,38550
42204,38612
42783,38612
42814,38619
43593,38619
43593,39472
43434,39411
43139,39419
42903,39517
42852,39632
43307,40086
43312,40081
43383,40151
43377,40157
43383,40163
43312,40233
43307,40228
42852,40682
42903,40797
43179,40903
43474,40895
43593,40846
43593,41359
43470,41308
43145,41308
42844,41432
42614,41662
42489,41962
42489,42287
42613,42588
42843,42818
43143,42943
43469,42943
43593,42892
43593,43180
43489,43284
43470,43276
43145,43276
42844,43400
42614,43630
42489,43931
42489,44256
42613,44557
42843,44787
43143,44912
43469,44912
43769,44788
43999,44558
44124,44257
44124,43932
44116,43912
44351,43677
44447,43534
44481,43364
44481,35497
44447,35328
44447,35328
44351,35184
43733,34566
43769,34551
43999,34322
44124,34021
44124,33696
44116,33676
44920,32872
44920,47282
39661,47282
40146,47085
40163,47074
40308,46879
39300,45870
38291,46879
38436,47074
38930,47282
20827,47282
20827,45177
20829,45177
20829,46161
20852,46282
20923,46392
21032,46467
21161,46493
22145,46493
22266,46470
22377,46399
22451,46290
22477,46161
22477,46112
22920,46112
22928,46131
23158,46362
23458,46486
23783,46487
24084,46362
24314,46133
24323,46112
24889,46112
24896,46131
25126,46362
25427,46486
25752,46487
26053,46362
26283,46133
26291,46112
26857,46112
26865,46131
27095,46362
27395,46486
27720,46487
28021,46362
28251,46133
28260,46112
29097,46112
29097,46161
29119,46282
29191,46392
29299,46467
29429,46493
30413,46493
30534,46470
30644,46399
30719,46290
30745,46161
30745,46112
31188,46112
31196,46131
31425,46362
31726,46486
32051,46487
32352,46362
32582,46133
32707,45832
32707,45831
33040,45831
33164,46131
33394,46362
33694,46486
34020,46487
34320,46362
34551,46133
34559,46112
35125,46112
35133,46131
35362,46362
35663,46486
35988,46487
36289,46362
36519,46133
36537,46090
37788,46090
38014,46646
38025,46663
38220,46808
39229,45800
39370,45800
40379,46808
40574,46663
40807,46110
40811,45570
42482,45570
42482,46555
42505,46675
42577,46786
42685,46860
42814,46887
43799,46887
43919,46864
44030,46793
44105,46684
44131,46555
44131,45570
44108,45450
44037,45339
43928,45265
43799,45238
42814,45238
42694,45261
42583,45332
42509,45441
42482,45570
40811,45570
40811,45509
40585,44953
40574,44936
40379,44791
39370,45800
39229,45800
38220,44791
38025,44936
37792,45489
37788,46090
36537,46090
36644,45832
36644,45507
36520,45206
36290,44976
35990,44851
35664,44851
35364,44975
35133,45205
35125,45225
34559,45225
34551,45206
34322,44976
34021,44851
33696,44851
33395,44975
33165,45205
33040,45505
33040,45831
32707,45831
32707,45507
32583,45206
32353,44976
32053,44851
31727,44851
31427,44975
31196,45205
31188,45225
30745,45225
30745,45177
30722,45056
30651,44945
30542,44871
30413,44845
29429,44845
29308,44867
29197,44939
29123,45048
29097,45177
29097,45225
28260,45225
28252,45206
28022,44976
27722,44851
27397,44851
27096,44975
26866,45205
26857,45225
26291,45225
26284,45206
26054,44976
25753,44851
25428,44851
25127,44975
24897,45205
24889,45225
24323,45225
24315,45206
24085,44976
23785,44851
23460,44851
23159,44975
22929,45205
22920,45225
22477,45225
22477,45177
22454,45056
22383,44945
22274,44871
22145,44845
21161,44845
21040,44867
20929,44939
20855,45048
20829,45177
20827,45177
20827,44720
38291,44720
39300,45729
40308,44720
40163,44525
39610,44292
39009,44288
38453,44514
38436,44525
38291,44720
20827,44720
20827,41679
24341,41679
24486,41874
25039,42107
25640,42111
26196,41885
26213,41874
26358,41679
25350,40670
24341,41679
20827,41679
20827,40890
23838,40890
24064,41446
24075,41463
24270,41608
25279,40600
25420,40600
26429,41608
26624,41463
26728,41217
26728,41950
26750,42070
26822,42181
26930,42255
27060,42281
27740,42281
27860,42259
27971,42187
28001,42143
28145,42239
28400,42289
28654,42239
28870,42094
28900,42050
28929,42094
29145,42239
29400,42289
29654,42239
29870,42094
29900,42050
29929,42094
30145,42239
30400,42289
30654,42239
30870,42094
31014,41878
31065,41624
31065,41475
31014,41221
30870,41005
30654,40860
30400,40810
30306,40828
29507,40029
42561,40029
42569,40324
42666,40560
42782,40611
43236,40157
42782,39703
42666,39754
42561,40029
29507,40029
29306,39829
29238,39783
29238,39493
29215,39372
29209,39361
29232,39306
29232,39295
30147,38380
30400,38380
30569,38346
30713,38250
30809,38106
30827,38015
30860,38009
30971,37937
31045,37829
31071,37700
31071,36900
31049,36779
30977,36668
30869,36594
30740,36568
30060,36568
29939,36590
29828,36662
29798,36706
29654,36610
29400,36560
29145,36610
28929,36755
28900,36799
28870,36755
28654,36610
28400,36560
28145,36610
27929,36755
27900,36799
27870,36755
27654,36610
27400,36560
27145,36610
26929,36755
26785,36971
26734,37225
26734,37374
26785,37628
26903,37805
26886,37822
26790,37966
26756,38136
26756,38890
26749,38898
26667,39093
26667,39305
26727,39450
26667,39593
26667,39805
26748,40001
26898,40150
27093,40232
27305,40232
27450,40172
27593,40232
27805,40232
27950,40172
28093,40232
28274,40232
28290,40312
28386,40456
28530,40552
28700,40586
28809,40586
29108,40885
28929,41005
28900,41049
28870,41005
28654,40860
28400,40810
28145,40860
28002,40956
27977,40918
27869,40844
27740,40818
27060,40818
26939,40840
26857,40893
26861,40309
26635,39753
26624,39736
26429,39591
25420,40600
25279,40600
24270,39591
24075,39736
23842,40289
23838,40890
20827,40890
20827,39520
24341,39520
25350,40529
26358,39520
26213,39325
25660,39092
25059,39088
24503,39314
24486,39325
24341,39520
20827,39520
20827,37139
21986,37139
22037,37254
22313,37359
22608,37352
22844,37254
22895,37139
22440,36684
21986,37139
20827,37139
20827,36486
21695,36486
21703,36781
21800,37017
21916,37068
22370,36614
22511,36614
22965,37068
23081,37017
23186,36741
23178,36446
23081,36210
22965,36159
22511,36614
22370,36614
21916,36159
21800,36210
21695,36486
20827,36486
20827,36089
21986,36089
22440,36543
22895,36089
22844,35973
22568,35868
22273,35876
22037,35973
21986,36089
20827,36089
20827,34807
21623,34807
21747,35108
21977,35338
22277,35463
22602,35463
22903,35339
23133,35109
23258,34809
23258,34483
23217,34383
29467,34383
29518,34498
29793,34603
30088,34596
30324,34498
30375,34383
29921,33928
29467,34383
23217,34383
23134,34183
22904,33952
22604,33828
22279,33827
21978,33952
21748,34181
21623,34482
21623,34807
20827,34807
20827,33730
29175,33730
29183,34025
29281,34261
29396,34312
29850,33858
29991,33858
30446,34312
30561,34261
30666,33985
30659,33690
30561,33455
30446,33404
29991,33858
29850,33858
29396,33404
29281,33455
29175,33730
20827,33730
20827,32839
21623,32839
21747,33139
21977,33369
22277,33494
22602,33495
22903,33370
23133,33140
23228,32912
29461,32912
29596,33098
29700,33142
29518,33218
29467,33333
29921,33787
30375,33333
30369,33320
30690,33322
31217,33107
31230,33098
31364,32912
30413,31960
29461,32912
23228,32912
23258,32840
23258,32515
23134,32214
22904,31984
22604,31859
22279,31859
21978,31983
21748,32213
21623,32513
21623,32839
20827,32839
20827,28871
21986,28871
22037,28986
22313,29092
22608,29084
22844,28986
22895,28871
22440,28417
21986,28871
20827,28871
20827,28218
21695,28218
21703,28513
21800,28749
21916,28800
22370,28346
22511,28346
22965,28800
23081,28749
23186,28474
23178,28178
23081,27943
22965,27892
22511,28346
22370,28346
21916,27892
21800,27943
21695,28218
20827,28218
20827,27821
21986,27821
22440,28275
22895,27821
22844,27706
22568,27600
22273,27608
22037,27706
21986,27821
20827,27821
20827,13347
21343,13347
21297,13416
" /> 
<polyline style="fill-rule:evenodd;"
points="32586,15119
33966,16499
34110,16595
34280,16629
36852,16629
37515,17292
36811,17292
36810,17292
36649,17292
36498,17354
36498,17354
36497,17355
36348,17416
36233,17531
36232,17532
36232,17532
36118,17646
36055,17796
36055,17797
36055,17797
35993,17946
35993,18109
35993,18110
35993,18110
35993,18272
36055,18422
36055,18423
36055,18423
36117,18572
36191,18646
36041,18646
35514,18861
35502,18869
35367,19056
36318,20008
36324,20002
36395,20073
36389,20078
37341,21030
37528,20895
37748,20370
37751,19801
37536,19274
37528,19262
37341,19127
37373,19094
38935,20656
39201,20834
39513,20896
42783,20896
42814,20902
43591,20902
43591,22936
43434,22876
43139,22884
42903,22981
42852,23097
43307,23551
43312,23545
43383,23616
43377,23622
43383,23627
43312,23698
43307,23692
42852,24146
42903,24262
43179,24367
43474,24359
43591,24311
43591,24678
43489,24780
43470,24772
43145,24772
42844,24896
42614,25126
42489,25427
42489,25752
42613,26053
42843,26283
43143,26408
43469,26408
43769,26284
43953,26100
43953,26285
43489,26749
43470,26741
43145,26741
42844,26865
42614,27095
42489,27395
42489,27720
42613,28021
42843,28251
43143,28376
43469,28376
43769,28252
43999,28022
44124,27722
44124,27397
44116,27376
44310,27183
44310,32227
43489,33048
43470,33040
43145,33040
42844,33164
42614,33394
42554,33538
41430,32414
42852,32414
42903,32529
43179,32635
43474,32627
43710,32529
43761,32414
43307,31960
42852,32414
41430,32414
40778,31762
42561,31762
42569,32057
42666,32293
42782,32343
43236,31889
43377,31889
43832,32343
43947,32293
44052,32017
44044,31722
43947,31486
43832,31435
43377,31889
43236,31889
42782,31435
42666,31486
42561,31762
40778,31762
40380,31364
42852,31364
43307,31819
43761,31364
43710,31249
43434,31143
43139,31151
42903,31249
42852,31364
40380,31364
38051,29035
42482,29035
42482,30019
42505,30140
42577,30251
42685,30325
42814,30351
43799,30351
43919,30328
44030,30257
44105,30148
44131,30019
44131,29035
44108,28914
44037,28803
43928,28729
43799,28703
42814,28703
42694,28726
42583,28797
42509,28906
42482,29035
38051,29035
32510,23494
42561,23494
42569,23789
42666,24025
42782,24076
43236,23622
42782,23167
42666,23218
42561,23494
32510,23494
32343,23327
32343,21101
35367,21101
35502,21287
36027,21508
36596,21511
37123,21296
37135,21287
37270,21101
36318,20149
35367,21101
32343,21101
32343,20356
34886,20356
35101,20883
35109,20895
35296,21030
36248,20078
35296,19127
35109,19262
34889,19786
34886,20356
32343,20356
32343,15082
32505,15082
32549,15064
32586,15119
" /> 
<polyline style="fill-rule:evenodd;"
points="30293,15082
30456,15082
30456,17660
30446,17656
29991,18110
29997,18115
29926,18186
29921,18180
29467,18635
29518,18750
29638,18796
24469,23965
23142,23965
23134,23946
22904,23716
22604,23591
22279,23591
22150,23644
22150,23265
22933,23265
23053,23242
23164,23171
23238,23062
23265,22933
23265,21948
23242,21828
23171,21717
23062,21643
22933,21616
22150,21616
22150,20762
22313,20824
22608,20816
22844,20718
22895,20603
22440,20149
22435,20155
22364,20084
22370,20078
22511,20078
22965,20532
23081,20482
23186,20206
23178,19911
23081,19675
22965,19624
22511,20078
22370,20078
22364,20073
22435,20002
22440,20008
22895,19553
22844,19438
22568,19332
22273,19340
22150,19391
22150,18875
22277,18927
22602,18928
22903,18803
23133,18574
23258,18273
23258,17982
29175,17982
29183,18277
29281,18513
29396,18564
29850,18110
29396,17656
29281,17706
29175,17982
23258,17982
23258,17948
23134,17647
23072,17585
29467,17585
29921,18039
30375,17585
30324,17470
30048,17364
29753,17372
29518,17470
29467,17585
23072,17585
22996,17509
23927,16579
25491,16579
25636,16774
26189,17007
26790,17011
27346,16785
27363,16774
27508,16579
26500,15570
25491,16579
23927,16579
24990,15516
24988,15790
25214,16346
25225,16363
25420,16508
26429,15500
26423,15494
26494,15423
26500,15429
26505,15423
26576,15494
26570,15500
27579,16508
27774,16363
27849,16186
27990,16244
28167,16245
28167,16245
28793,16245
28963,16211
29107,16115
30185,15037
30293,15082
" /> 
<polyline style="fill-rule:evenodd;"
points="42561,14045
42569,14340
42666,14576
42782,14627
43236,14173
43230,14167
43301,14096
43307,14102
43312,14096
43383,14167
43377,14173
43832,14627
43947,14576
43995,14450
44310,14766
44310,18623
44211,18524
44067,18428
44060,18427
44124,18273
44124,17948
44124,17947
44124,16142
44124,15979
44000,15679
43770,15448
43470,15324
43145,15323
42844,15448
42614,15677
42489,15978
42489,16303
42489,16304
42489,18109
42489,18272
42539,18395
40875,18395
39489,17009
39890,17011
40446,16785
40463,16774
40608,16579
39600,15570
39594,15576
39523,15505
39529,15500
39670,15500
40679,16508
40874,16363
41107,15810
41111,15209
40903,14698
42852,14698
42903,14813
43179,14919
43474,14911
43710,14813
43761,14698
43307,14243
42852,14698
40903,14698
40885,14653
40874,14636
40679,14491
39670,15500
39529,15500
38520,14491
38325,14636
38092,15189
38089,15609
36901,14420
38591,14420
39600,15429
40608,14420
40463,14225
39910,13992
39309,13988
38753,14214
38736,14225
38591,14420
36901,14420
36346,13865
42630,13865
42561,14045
" /> 
</g> 
</svg>
