<?xml version="1.0" standalone="no"?>
 <!DOCTYPE svg PUBLIC "-//W3C//DTD SVG 1.1//EN" 
 "http://www.w3.org/Graphics/SVG/1.1/DTD/svg11.dtd"> 
<svg xmlns="http://www.w3.org/2000/svg" version="1.1" 
    width="29.7002cm" height="21.0007cm" viewBox="0 0 116930 82680 ">
<title>SVG Picture created as alligator-adaptor-B.SilkS.svg date 2016/08/18 14:21:08 </title>
  <desc>Picture generated by PCBNEW </desc>
<g style="fill:#000000; fill-opacity:1;stroke:#000000; stroke-opacity:1;
stroke-linecap:round; stroke-linejoin:round; "
 transform="translate(0 0) scale(1 1)">
</g>
<g style="fill:#000000; fill-opacity:0.0; 
stroke:#000000; stroke-width:-0.000393701; stroke-opacity:1; 
stroke-linecap:round; stroke-linejoin:round;">
</g>
<g style="fill:#000000; fill-opacity:0.0; 
stroke:#000000; stroke-width:59.0551; stroke-opacity:1; 
stroke-linecap:round; stroke-linejoin:round;">
<path d="M29014 38723
L29014 39038
" />
<path d="M26888 38723
L29014 38723
" />
<path d="M26888 38723
L26888 39884
" />
<path d="M26888 39884
L28188 39884
" />
<path d="M29014 39353
L29014 39884
" />
<path d="M29014 39884
L28503 39884
" />
<path d="M33714 13373
L33714 13688
" />
<path d="M28596 13373
L33695 13373
" />
<path d="M28596 13373
L28596 14534
" />
<path d="M28596 14534
L32888 14534
" />
<path d="M33714 14003
L33714 14534
" />
<path d="M33714 14534
L33203 14534
" />
<path d="M29527 39003
L29134 39003
L29134 39153
L29152 39190
L29171 39209
L29208 39228
L29265 39228
L29302 39209
L29321 39190
L29340 39153
L29340 39003
" />
<path d="M29134 39584
L29134 39397
L29321 39378
L29302 39397
L29283 39434
L29283 39528
L29302 39565
L29321 39584
L29358 39603
L29452 39603
L29490 39584
L29508 39565
L29527 39528
L29527 39434
L29508 39397
L29490 39378
" />
<path d="M34247 13505
L33853 13505
L33853 13655
L33872 13692
L33891 13711
L33928 13730
L33984 13730
L34022 13711
L34041 13692
L34059 13655
L34059 13505
" />
<path d="M34247 14105
L34247 13880
" />
<path d="M34247 13992
L33853 13992
L33909 13955
L33947 13917
L33966 13880
" />
<path d="M34247 14480
L34247 14255
" />
<path d="M34247 14367
L33853 14367
L33909 14330
L33947 14292
L33966 14255
" />
</g> 
</svg>
