<?xml version="1.0" standalone="no"?>
 <!DOCTYPE svg PUBLIC "-//W3C//DTD SVG 1.1//EN" 
 "http://www.w3.org/Graphics/SVG/1.1/DTD/svg11.dtd"> 
<svg xmlns="http://www.w3.org/2000/svg" version="1.1" 
    width="29.7002cm" height="21.0007cm" viewBox="0 0 116930 82680 ">
<title>SVG Picture created as alligator-adaptor-B.Cu.svg date 2016/08/18 14:21:08 </title>
  <desc>Picture generated by PCBNEW </desc>
<g style="fill:#000000; fill-opacity:1;stroke:#000000; stroke-opacity:1;
stroke-linecap:round; stroke-linejoin:round; "
 transform="translate(0 0) scale(1 1)">
</g>
<g style="fill:#000000; fill-opacity:0.0; 
stroke:#000000; stroke-width:-0.000393701; stroke-opacity:1; 
stroke-linecap:round; stroke-linejoin:round;">
</g>
<g style="fill:#000000; fill-opacity:1.0; 
stroke:#000000; stroke-width:0; stroke-opacity:1; 
stroke-linecap:round; stroke-linejoin:round;">
<circle cx="43450" cy="10194.5" r="492.126" /> 
</g>
<g style="fill:#000000; fill-opacity:1.0; 
stroke:#000000; stroke-width:39.3701; stroke-opacity:1; 
stroke-linecap:round; stroke-linejoin:round;">
</g>
<g style="fill:#000000; fill-opacity:1.0; 
stroke:#000000; stroke-width:0; stroke-opacity:1; 
stroke-linecap:round; stroke-linejoin:round;">
<circle cx="43450" cy="12163" r="492.126" /> 
</g>
<g style="fill:#000000; fill-opacity:1.0; 
stroke:#000000; stroke-width:39.3701; stroke-opacity:1; 
stroke-linecap:round; stroke-linejoin:round;">
</g>
<g style="fill:#000000; fill-opacity:1.0; 
stroke:#000000; stroke-width:0; stroke-opacity:1; 
stroke-linecap:round; stroke-linejoin:round;">
<polyline style="fill-rule:evenodd;"
points="43942,16592
42957,16592
42957,15607
43942,15607
43942,16592
" /> 
<circle cx="43450" cy="14131.5" r="492.126" /> 
</g>
<g style="fill:#000000; fill-opacity:1.0; 
stroke:#000000; stroke-width:39.3701; stroke-opacity:1; 
stroke-linecap:round; stroke-linejoin:round;">
</g>
<g style="fill:#000000; fill-opacity:1.0; 
stroke:#000000; stroke-width:0; stroke-opacity:1; 
stroke-linecap:round; stroke-linejoin:round;">
<polyline style="fill-rule:evenodd;"
points="27740,41950
27060,41950
27060,41150
27740,41150
27740,41950
" /> 
</g>
<g style="fill:#000000; fill-opacity:1.0; 
stroke:#000000; stroke-width:680; stroke-opacity:1; 
stroke-linecap:round; stroke-linejoin:round;">
</g>
<g style="fill:#000000; fill-opacity:0.0; 
stroke:#000000; stroke-width:680; stroke-opacity:1; 
stroke-linecap:round; stroke-linejoin:round;">
<path d="M28400 41610
L28400 41490
" />
<path d="M29400 41610
L29400 41490
" />
<path d="M30400 41610
L30400 41490
" />
</g>
<g style="fill:#000000; fill-opacity:0.0; 
stroke:#000000; stroke-width:0; stroke-opacity:1; 
stroke-linecap:round; stroke-linejoin:round;">
</g>
<g style="fill:#000000; fill-opacity:1.0; 
stroke:#000000; stroke-width:0; stroke-opacity:1; 
stroke-linecap:round; stroke-linejoin:round;">
<polyline style="fill-rule:evenodd;"
points="28906,39756
28493,39756
28493,39343
28906,39343
28906,39756
" /> 
<circle cx="28200" cy="39550" r="206.693" /> 
</g>
<g style="fill:#000000; fill-opacity:1.0; 
stroke:#000000; stroke-width:39.3701; stroke-opacity:1; 
stroke-linecap:round; stroke-linejoin:round;">
</g>
<g style="fill:#000000; fill-opacity:1.0; 
stroke:#000000; stroke-width:0; stroke-opacity:1; 
stroke-linecap:round; stroke-linejoin:round;">
<circle cx="27700" cy="39550" r="206.693" /> 
</g>
<g style="fill:#000000; fill-opacity:1.0; 
stroke:#000000; stroke-width:39.3701; stroke-opacity:1; 
stroke-linecap:round; stroke-linejoin:round;">
</g>
<g style="fill:#000000; fill-opacity:1.0; 
stroke:#000000; stroke-width:0; stroke-opacity:1; 
stroke-linecap:round; stroke-linejoin:round;">
<circle cx="27200" cy="39550" r="206.693" /> 
</g>
<g style="fill:#000000; fill-opacity:1.0; 
stroke:#000000; stroke-width:39.3701; stroke-opacity:1; 
stroke-linecap:round; stroke-linejoin:round;">
</g>
<g style="fill:#000000; fill-opacity:1.0; 
stroke:#000000; stroke-width:0; stroke-opacity:1; 
stroke-linecap:round; stroke-linejoin:round;">
<circle cx="28200" cy="39050" r="206.693" /> 
</g>
<g style="fill:#000000; fill-opacity:1.0; 
stroke:#000000; stroke-width:39.3701; stroke-opacity:1; 
stroke-linecap:round; stroke-linejoin:round;">
</g>
<g style="fill:#000000; fill-opacity:1.0; 
stroke:#000000; stroke-width:0; stroke-opacity:1; 
stroke-linecap:round; stroke-linejoin:round;">
<circle cx="27700" cy="39050" r="206.693" /> 
</g>
<g style="fill:#000000; fill-opacity:1.0; 
stroke:#000000; stroke-width:39.3701; stroke-opacity:1; 
stroke-linecap:round; stroke-linejoin:round;">
</g>
<g style="fill:#000000; fill-opacity:1.0; 
stroke:#000000; stroke-width:0; stroke-opacity:1; 
stroke-linecap:round; stroke-linejoin:round;">
<circle cx="27200" cy="39050" r="206.693" /> 
</g>
<g style="fill:#000000; fill-opacity:1.0; 
stroke:#000000; stroke-width:39.3701; stroke-opacity:1; 
stroke-linecap:round; stroke-linejoin:round;">
</g>
<g style="fill:#000000; fill-opacity:1.0; 
stroke:#000000; stroke-width:0; stroke-opacity:1; 
stroke-linecap:round; stroke-linejoin:round;">
<circle cx="28700" cy="39050" r="206.693" /> 
</g>
<g style="fill:#000000; fill-opacity:1.0; 
stroke:#000000; stroke-width:39.3701; stroke-opacity:1; 
stroke-linecap:round; stroke-linejoin:round;">
</g>
<g style="fill:#000000; fill-opacity:1.0; 
stroke:#000000; stroke-width:0; stroke-opacity:1; 
stroke-linecap:round; stroke-linejoin:round;">
<polyline style="fill-rule:evenodd;"
points="30060,36900
30740,36900
30740,37700
30060,37700
30060,36900
" /> 
</g>
<g style="fill:#000000; fill-opacity:1.0; 
stroke:#000000; stroke-width:680; stroke-opacity:1; 
stroke-linecap:round; stroke-linejoin:round;">
</g>
<g style="fill:#000000; fill-opacity:0.0; 
stroke:#000000; stroke-width:680; stroke-opacity:1; 
stroke-linecap:round; stroke-linejoin:round;">
<path d="M29400 37240
L29400 37360
" />
<path d="M28400 37240
L28400 37360
" />
<path d="M27400 37240
L27400 37360
" />
</g>
<g style="fill:#000000; fill-opacity:1.0; 
stroke:#000000; stroke-width:0; stroke-opacity:1; 
stroke-linecap:round; stroke-linejoin:round;">
<circle cx="36811" cy="18110.2" r="492" /> 
</g>
<g style="fill:#000000; fill-opacity:1.0; 
stroke:#000000; stroke-width:39.3701; stroke-opacity:1; 
stroke-linecap:round; stroke-linejoin:round;">
</g>
<g style="fill:#000000; fill-opacity:1.0; 
stroke:#000000; stroke-width:0; stroke-opacity:1; 
stroke-linecap:round; stroke-linejoin:round;">
<circle cx="29921.3" cy="18110.2" r="492" /> 
</g>
<g style="fill:#000000; fill-opacity:1.0; 
stroke:#000000; stroke-width:39.3701; stroke-opacity:1; 
stroke-linecap:round; stroke-linejoin:round;">
</g>
<g style="fill:#000000; fill-opacity:1.0; 
stroke:#000000; stroke-width:0; stroke-opacity:1; 
stroke-linecap:round; stroke-linejoin:round;">
<circle cx="36811" cy="33858.3" r="492" /> 
</g>
<g style="fill:#000000; fill-opacity:1.0; 
stroke:#000000; stroke-width:39.3701; stroke-opacity:1; 
stroke-linecap:round; stroke-linejoin:round;">
</g>
<g style="fill:#000000; fill-opacity:1.0; 
stroke:#000000; stroke-width:0; stroke-opacity:1; 
stroke-linecap:round; stroke-linejoin:round;">
<circle cx="29921.3" cy="33858.3" r="492" /> 
</g>
<g style="fill:#000000; fill-opacity:1.0; 
stroke:#000000; stroke-width:39.3701; stroke-opacity:1; 
stroke-linecap:round; stroke-linejoin:round;">
</g>
<g style="fill:#000000; fill-opacity:1.0; 
stroke:#000000; stroke-width:0; stroke-opacity:1; 
stroke-linecap:round; stroke-linejoin:round;">
<circle cx="43450" cy="18694.5" r="492.126" /> 
</g>
<g style="fill:#000000; fill-opacity:1.0; 
stroke:#000000; stroke-width:39.3701; stroke-opacity:1; 
stroke-linecap:round; stroke-linejoin:round;">
</g>
<g style="fill:#000000; fill-opacity:1.0; 
stroke:#000000; stroke-width:0; stroke-opacity:1; 
stroke-linecap:round; stroke-linejoin:round;">
<circle cx="43450" cy="20663" r="492.126" /> 
</g>
<g style="fill:#000000; fill-opacity:1.0; 
stroke:#000000; stroke-width:39.3701; stroke-opacity:1; 
stroke-linecap:round; stroke-linejoin:round;">
</g>
<g style="fill:#000000; fill-opacity:1.0; 
stroke:#000000; stroke-width:0; stroke-opacity:1; 
stroke-linecap:round; stroke-linejoin:round;">
<polyline style="fill-rule:evenodd;"
points="43942,25092
42957,25092
42957,24107
43942,24107
43942,25092
" /> 
<circle cx="43450" cy="22631.5" r="492.126" /> 
</g>
<g style="fill:#000000; fill-opacity:1.0; 
stroke:#000000; stroke-width:39.3701; stroke-opacity:1; 
stroke-linecap:round; stroke-linejoin:round;">
</g>
<g style="fill:#000000; fill-opacity:1.0; 
stroke:#000000; stroke-width:0; stroke-opacity:1; 
stroke-linecap:round; stroke-linejoin:round;">
<circle cx="43450" cy="27194.5" r="492.126" /> 
</g>
<g style="fill:#000000; fill-opacity:1.0; 
stroke:#000000; stroke-width:39.3701; stroke-opacity:1; 
stroke-linecap:round; stroke-linejoin:round;">
</g>
<g style="fill:#000000; fill-opacity:1.0; 
stroke:#000000; stroke-width:0; stroke-opacity:1; 
stroke-linecap:round; stroke-linejoin:round;">
<circle cx="43450" cy="29163" r="492.126" /> 
</g>
<g style="fill:#000000; fill-opacity:1.0; 
stroke:#000000; stroke-width:39.3701; stroke-opacity:1; 
stroke-linecap:round; stroke-linejoin:round;">
</g>
<g style="fill:#000000; fill-opacity:1.0; 
stroke:#000000; stroke-width:0; stroke-opacity:1; 
stroke-linecap:round; stroke-linejoin:round;">
<polyline style="fill-rule:evenodd;"
points="43942,33592
42957,33592
42957,32607
43942,32607
43942,33592
" /> 
<circle cx="43450" cy="31131.5" r="492.126" /> 
</g>
<g style="fill:#000000; fill-opacity:1.0; 
stroke:#000000; stroke-width:39.3701; stroke-opacity:1; 
stroke-linecap:round; stroke-linejoin:round;">
</g>
<g style="fill:#000000; fill-opacity:1.0; 
stroke:#000000; stroke-width:0; stroke-opacity:1; 
stroke-linecap:round; stroke-linejoin:round;">
<circle cx="43450" cy="35694.5" r="492.126" /> 
</g>
<g style="fill:#000000; fill-opacity:1.0; 
stroke:#000000; stroke-width:39.3701; stroke-opacity:1; 
stroke-linecap:round; stroke-linejoin:round;">
</g>
<g style="fill:#000000; fill-opacity:1.0; 
stroke:#000000; stroke-width:0; stroke-opacity:1; 
stroke-linecap:round; stroke-linejoin:round;">
<circle cx="43450" cy="37663" r="492.126" /> 
</g>
<g style="fill:#000000; fill-opacity:1.0; 
stroke:#000000; stroke-width:39.3701; stroke-opacity:1; 
stroke-linecap:round; stroke-linejoin:round;">
</g>
<g style="fill:#000000; fill-opacity:1.0; 
stroke:#000000; stroke-width:0; stroke-opacity:1; 
stroke-linecap:round; stroke-linejoin:round;">
<polyline style="fill-rule:evenodd;"
points="43942,42092
42957,42092
42957,41107
43942,41107
43942,42092
" /> 
<circle cx="43450" cy="39631.5" r="492.126" /> 
</g>
<g style="fill:#000000; fill-opacity:1.0; 
stroke:#000000; stroke-width:39.3701; stroke-opacity:1; 
stroke-linecap:round; stroke-linejoin:round;">
</g>
<g style="fill:#000000; fill-opacity:1.0; 
stroke:#000000; stroke-width:0; stroke-opacity:1; 
stroke-linecap:round; stroke-linejoin:round;">
<circle cx="43450" cy="44294.5" r="492.126" /> 
</g>
<g style="fill:#000000; fill-opacity:1.0; 
stroke:#000000; stroke-width:39.3701; stroke-opacity:1; 
stroke-linecap:round; stroke-linejoin:round;">
</g>
<g style="fill:#000000; fill-opacity:1.0; 
stroke:#000000; stroke-width:0; stroke-opacity:1; 
stroke-linecap:round; stroke-linejoin:round;">
<circle cx="43450" cy="46263" r="492.126" /> 
</g>
<g style="fill:#000000; fill-opacity:1.0; 
stroke:#000000; stroke-width:39.3701; stroke-opacity:1; 
stroke-linecap:round; stroke-linejoin:round;">
</g>
<g style="fill:#000000; fill-opacity:1.0; 
stroke:#000000; stroke-width:0; stroke-opacity:1; 
stroke-linecap:round; stroke-linejoin:round;">
<polyline style="fill-rule:evenodd;"
points="43942,50692
42957,50692
42957,49707
43942,49707
43942,50692
" /> 
<circle cx="43450" cy="48231.5" r="492.126" /> 
</g>
<g style="fill:#000000; fill-opacity:1.0; 
stroke:#000000; stroke-width:39.3701; stroke-opacity:1; 
stroke-linecap:round; stroke-linejoin:round;">
</g>
<g style="fill:#000000; fill-opacity:1.0; 
stroke:#000000; stroke-width:0; stroke-opacity:1; 
stroke-linecap:round; stroke-linejoin:round;">
<circle cx="21800" cy="42705.5" r="492.126" /> 
</g>
<g style="fill:#000000; fill-opacity:1.0; 
stroke:#000000; stroke-width:39.3701; stroke-opacity:1; 
stroke-linecap:round; stroke-linejoin:round;">
</g>
<g style="fill:#000000; fill-opacity:1.0; 
stroke:#000000; stroke-width:0; stroke-opacity:1; 
stroke-linecap:round; stroke-linejoin:round;">
<circle cx="21800" cy="40737" r="492.126" /> 
</g>
<g style="fill:#000000; fill-opacity:1.0; 
stroke:#000000; stroke-width:39.3701; stroke-opacity:1; 
stroke-linecap:round; stroke-linejoin:round;">
</g>
<g style="fill:#000000; fill-opacity:1.0; 
stroke:#000000; stroke-width:0; stroke-opacity:1; 
stroke-linecap:round; stroke-linejoin:round;">
<polyline style="fill-rule:evenodd;"
points="21307,36307
22292,36307
22292,37292
21307,37292
21307,36307
" /> 
<circle cx="21800" cy="38768.5" r="492.126" /> 
</g>
<g style="fill:#000000; fill-opacity:1.0; 
stroke:#000000; stroke-width:39.3701; stroke-opacity:1; 
stroke-linecap:round; stroke-linejoin:round;">
</g>
<g style="fill:#000000; fill-opacity:1.0; 
stroke:#000000; stroke-width:0; stroke-opacity:1; 
stroke-linecap:round; stroke-linejoin:round;">
<circle cx="21800" cy="33905.5" r="492.126" /> 
</g>
<g style="fill:#000000; fill-opacity:1.0; 
stroke:#000000; stroke-width:39.3701; stroke-opacity:1; 
stroke-linecap:round; stroke-linejoin:round;">
</g>
<g style="fill:#000000; fill-opacity:1.0; 
stroke:#000000; stroke-width:0; stroke-opacity:1; 
stroke-linecap:round; stroke-linejoin:round;">
<circle cx="21800" cy="31937" r="492.126" /> 
</g>
<g style="fill:#000000; fill-opacity:1.0; 
stroke:#000000; stroke-width:39.3701; stroke-opacity:1; 
stroke-linecap:round; stroke-linejoin:round;">
</g>
<g style="fill:#000000; fill-opacity:1.0; 
stroke:#000000; stroke-width:0; stroke-opacity:1; 
stroke-linecap:round; stroke-linejoin:round;">
<polyline style="fill-rule:evenodd;"
points="21307,27507
22292,27507
22292,28492
21307,28492
21307,27507
" /> 
<circle cx="21800" cy="29968.5" r="492.126" /> 
</g>
<g style="fill:#000000; fill-opacity:1.0; 
stroke:#000000; stroke-width:39.3701; stroke-opacity:1; 
stroke-linecap:round; stroke-linejoin:round;">
</g>
<g style="fill:#000000; fill-opacity:1.0; 
stroke:#000000; stroke-width:0; stroke-opacity:1; 
stroke-linecap:round; stroke-linejoin:round;">
<circle cx="21800" cy="25005.5" r="492.126" /> 
</g>
<g style="fill:#000000; fill-opacity:1.0; 
stroke:#000000; stroke-width:39.3701; stroke-opacity:1; 
stroke-linecap:round; stroke-linejoin:round;">
</g>
<g style="fill:#000000; fill-opacity:1.0; 
stroke:#000000; stroke-width:0; stroke-opacity:1; 
stroke-linecap:round; stroke-linejoin:round;">
<circle cx="21800" cy="23037" r="492.126" /> 
</g>
<g style="fill:#000000; fill-opacity:1.0; 
stroke:#000000; stroke-width:39.3701; stroke-opacity:1; 
stroke-linecap:round; stroke-linejoin:round;">
</g>
<g style="fill:#000000; fill-opacity:1.0; 
stroke:#000000; stroke-width:0; stroke-opacity:1; 
stroke-linecap:round; stroke-linejoin:round;">
<polyline style="fill-rule:evenodd;"
points="21307,18607
22292,18607
22292,19592
21307,19592
21307,18607
" /> 
<circle cx="21800" cy="21068.5" r="492.126" /> 
</g>
<g style="fill:#000000; fill-opacity:1.0; 
stroke:#000000; stroke-width:39.3701; stroke-opacity:1; 
stroke-linecap:round; stroke-linejoin:round;">
</g>
<g style="fill:#000000; fill-opacity:1.0; 
stroke:#000000; stroke-width:0; stroke-opacity:1; 
stroke-linecap:round; stroke-linejoin:round;">
<circle cx="21800" cy="16005.5" r="492.126" /> 
</g>
<g style="fill:#000000; fill-opacity:1.0; 
stroke:#000000; stroke-width:39.3701; stroke-opacity:1; 
stroke-linecap:round; stroke-linejoin:round;">
</g>
<g style="fill:#000000; fill-opacity:1.0; 
stroke:#000000; stroke-width:0; stroke-opacity:1; 
stroke-linecap:round; stroke-linejoin:round;">
<circle cx="21800" cy="14037" r="492.126" /> 
</g>
<g style="fill:#000000; fill-opacity:1.0; 
stroke:#000000; stroke-width:39.3701; stroke-opacity:1; 
stroke-linecap:round; stroke-linejoin:round;">
</g>
<g style="fill:#000000; fill-opacity:1.0; 
stroke:#000000; stroke-width:0; stroke-opacity:1; 
stroke-linecap:round; stroke-linejoin:round;">
<polyline style="fill-rule:evenodd;"
points="21307,9607
22292,9607
22292,10592
21307,10592
21307,9607
" /> 
<circle cx="21800" cy="12068.5" r="492.126" /> 
</g>
<g style="fill:#000000; fill-opacity:1.0; 
stroke:#000000; stroke-width:39.3701; stroke-opacity:1; 
stroke-linecap:round; stroke-linejoin:round;">
</g>
<g style="fill:#000000; fill-opacity:1.0; 
stroke:#000000; stroke-width:0; stroke-opacity:1; 
stroke-linecap:round; stroke-linejoin:round;">
<circle cx="29400" cy="14200" r="206.693" /> 
</g>
<g style="fill:#000000; fill-opacity:1.0; 
stroke:#000000; stroke-width:39.3701; stroke-opacity:1; 
stroke-linecap:round; stroke-linejoin:round;">
</g>
<g style="fill:#000000; fill-opacity:1.0; 
stroke:#000000; stroke-width:0; stroke-opacity:1; 
stroke-linecap:round; stroke-linejoin:round;">
<circle cx="29400" cy="13700" r="206.693" /> 
</g>
<g style="fill:#000000; fill-opacity:1.0; 
stroke:#000000; stroke-width:39.3701; stroke-opacity:1; 
stroke-linecap:round; stroke-linejoin:round;">
</g>
<g style="fill:#000000; fill-opacity:1.0; 
stroke:#000000; stroke-width:0; stroke-opacity:1; 
stroke-linecap:round; stroke-linejoin:round;">
<circle cx="29900" cy="14200" r="206.693" /> 
</g>
<g style="fill:#000000; fill-opacity:1.0; 
stroke:#000000; stroke-width:39.3701; stroke-opacity:1; 
stroke-linecap:round; stroke-linejoin:round;">
</g>
<g style="fill:#000000; fill-opacity:1.0; 
stroke:#000000; stroke-width:0; stroke-opacity:1; 
stroke-linecap:round; stroke-linejoin:round;">
<circle cx="29900" cy="13700" r="206.693" /> 
</g>
<g style="fill:#000000; fill-opacity:1.0; 
stroke:#000000; stroke-width:39.3701; stroke-opacity:1; 
stroke-linecap:round; stroke-linejoin:round;">
</g>
<g style="fill:#000000; fill-opacity:1.0; 
stroke:#000000; stroke-width:0; stroke-opacity:1; 
stroke-linecap:round; stroke-linejoin:round;">
<circle cx="30400" cy="14200" r="206.693" /> 
</g>
<g style="fill:#000000; fill-opacity:1.0; 
stroke:#000000; stroke-width:39.3701; stroke-opacity:1; 
stroke-linecap:round; stroke-linejoin:round;">
</g>
<g style="fill:#000000; fill-opacity:1.0; 
stroke:#000000; stroke-width:0; stroke-opacity:1; 
stroke-linecap:round; stroke-linejoin:round;">
<circle cx="30400" cy="13700" r="206.693" /> 
</g>
<g style="fill:#000000; fill-opacity:1.0; 
stroke:#000000; stroke-width:39.3701; stroke-opacity:1; 
stroke-linecap:round; stroke-linejoin:round;">
</g>
<g style="fill:#000000; fill-opacity:1.0; 
stroke:#000000; stroke-width:0; stroke-opacity:1; 
stroke-linecap:round; stroke-linejoin:round;">
<circle cx="30900" cy="13700" r="206.693" /> 
</g>
<g style="fill:#000000; fill-opacity:1.0; 
stroke:#000000; stroke-width:39.3701; stroke-opacity:1; 
stroke-linecap:round; stroke-linejoin:round;">
</g>
<g style="fill:#000000; fill-opacity:1.0; 
stroke:#000000; stroke-width:0; stroke-opacity:1; 
stroke-linecap:round; stroke-linejoin:round;">
<circle cx="28900" cy="14200" r="206.693" /> 
</g>
<g style="fill:#000000; fill-opacity:1.0; 
stroke:#000000; stroke-width:39.3701; stroke-opacity:1; 
stroke-linecap:round; stroke-linejoin:round;">
</g>
<g style="fill:#000000; fill-opacity:1.0; 
stroke:#000000; stroke-width:0; stroke-opacity:1; 
stroke-linecap:round; stroke-linejoin:round;">
<circle cx="28900" cy="13700" r="206.693" /> 
</g>
<g style="fill:#000000; fill-opacity:1.0; 
stroke:#000000; stroke-width:39.3701; stroke-opacity:1; 
stroke-linecap:round; stroke-linejoin:round;">
</g>
<g style="fill:#000000; fill-opacity:1.0; 
stroke:#000000; stroke-width:0; stroke-opacity:1; 
stroke-linecap:round; stroke-linejoin:round;">
<circle cx="30900" cy="14200" r="206.693" /> 
</g>
<g style="fill:#000000; fill-opacity:1.0; 
stroke:#000000; stroke-width:39.3701; stroke-opacity:1; 
stroke-linecap:round; stroke-linejoin:round;">
</g>
<g style="fill:#000000; fill-opacity:1.0; 
stroke:#000000; stroke-width:0; stroke-opacity:1; 
stroke-linecap:round; stroke-linejoin:round;">
<circle cx="31400" cy="13700" r="206.693" /> 
</g>
<g style="fill:#000000; fill-opacity:1.0; 
stroke:#000000; stroke-width:39.3701; stroke-opacity:1; 
stroke-linecap:round; stroke-linejoin:round;">
</g>
<g style="fill:#000000; fill-opacity:1.0; 
stroke:#000000; stroke-width:0; stroke-opacity:1; 
stroke-linecap:round; stroke-linejoin:round;">
<circle cx="31400" cy="14200" r="206.693" /> 
</g>
<g style="fill:#000000; fill-opacity:1.0; 
stroke:#000000; stroke-width:39.3701; stroke-opacity:1; 
stroke-linecap:round; stroke-linejoin:round;">
</g>
<g style="fill:#000000; fill-opacity:1.0; 
stroke:#000000; stroke-width:0; stroke-opacity:1; 
stroke-linecap:round; stroke-linejoin:round;">
<circle cx="31400" cy="14200" r="206.693" /> 
</g>
<g style="fill:#000000; fill-opacity:1.0; 
stroke:#000000; stroke-width:39.3701; stroke-opacity:1; 
stroke-linecap:round; stroke-linejoin:round;">
</g>
<g style="fill:#000000; fill-opacity:1.0; 
stroke:#000000; stroke-width:0; stroke-opacity:1; 
stroke-linecap:round; stroke-linejoin:round;">
<circle cx="31400" cy="14200" r="206.693" /> 
</g>
<g style="fill:#000000; fill-opacity:1.0; 
stroke:#000000; stroke-width:39.3701; stroke-opacity:1; 
stroke-linecap:round; stroke-linejoin:round;">
</g>
<g style="fill:#000000; fill-opacity:1.0; 
stroke:#000000; stroke-width:0; stroke-opacity:1; 
stroke-linecap:round; stroke-linejoin:round;">
<circle cx="31400" cy="14200" r="206.693" /> 
</g>
<g style="fill:#000000; fill-opacity:1.0; 
stroke:#000000; stroke-width:39.3701; stroke-opacity:1; 
stroke-linecap:round; stroke-linejoin:round;">
</g>
<g style="fill:#000000; fill-opacity:1.0; 
stroke:#000000; stroke-width:0; stroke-opacity:1; 
stroke-linecap:round; stroke-linejoin:round;">
<circle cx="31400" cy="14200" r="206.693" /> 
</g>
<g style="fill:#000000; fill-opacity:1.0; 
stroke:#000000; stroke-width:39.3701; stroke-opacity:1; 
stroke-linecap:round; stroke-linejoin:round;">
</g>
<g style="fill:#000000; fill-opacity:1.0; 
stroke:#000000; stroke-width:0; stroke-opacity:1; 
stroke-linecap:round; stroke-linejoin:round;">
<circle cx="31400" cy="14200" r="206.693" /> 
</g>
<g style="fill:#000000; fill-opacity:1.0; 
stroke:#000000; stroke-width:39.3701; stroke-opacity:1; 
stroke-linecap:round; stroke-linejoin:round;">
</g>
<g style="fill:#000000; fill-opacity:1.0; 
stroke:#000000; stroke-width:0; stroke-opacity:1; 
stroke-linecap:round; stroke-linejoin:round;">
<circle cx="31400" cy="14200" r="206.693" /> 
</g>
<g style="fill:#000000; fill-opacity:1.0; 
stroke:#000000; stroke-width:39.3701; stroke-opacity:1; 
stroke-linecap:round; stroke-linejoin:round;">
</g>
<g style="fill:#000000; fill-opacity:1.0; 
stroke:#000000; stroke-width:0; stroke-opacity:1; 
stroke-linecap:round; stroke-linejoin:round;">
<polyline style="fill-rule:evenodd;"
points="33606,14406
33193,14406
33193,13993
33606,13993
33606,14406
" /> 
<circle cx="32900" cy="14200" r="206.693" /> 
</g>
<g style="fill:#000000; fill-opacity:1.0; 
stroke:#000000; stroke-width:39.3701; stroke-opacity:1; 
stroke-linecap:round; stroke-linejoin:round;">
</g>
<g style="fill:#000000; fill-opacity:1.0; 
stroke:#000000; stroke-width:0; stroke-opacity:1; 
stroke-linecap:round; stroke-linejoin:round;">
<circle cx="32400" cy="14200" r="206.693" /> 
</g>
<g style="fill:#000000; fill-opacity:1.0; 
stroke:#000000; stroke-width:39.3701; stroke-opacity:1; 
stroke-linecap:round; stroke-linejoin:round;">
</g>
<g style="fill:#000000; fill-opacity:1.0; 
stroke:#000000; stroke-width:0; stroke-opacity:1; 
stroke-linecap:round; stroke-linejoin:round;">
<circle cx="31900" cy="14200" r="206.693" /> 
</g>
<g style="fill:#000000; fill-opacity:1.0; 
stroke:#000000; stroke-width:39.3701; stroke-opacity:1; 
stroke-linecap:round; stroke-linejoin:round;">
</g>
<g style="fill:#000000; fill-opacity:1.0; 
stroke:#000000; stroke-width:0; stroke-opacity:1; 
stroke-linecap:round; stroke-linejoin:round;">
<circle cx="31400" cy="14200" r="206.693" /> 
</g>
<g style="fill:#000000; fill-opacity:1.0; 
stroke:#000000; stroke-width:39.3701; stroke-opacity:1; 
stroke-linecap:round; stroke-linejoin:round;">
</g>
<g style="fill:#000000; fill-opacity:1.0; 
stroke:#000000; stroke-width:0; stroke-opacity:1; 
stroke-linecap:round; stroke-linejoin:round;">
<circle cx="32900" cy="13700" r="206.693" /> 
</g>
<g style="fill:#000000; fill-opacity:1.0; 
stroke:#000000; stroke-width:39.3701; stroke-opacity:1; 
stroke-linecap:round; stroke-linejoin:round;">
</g>
<g style="fill:#000000; fill-opacity:1.0; 
stroke:#000000; stroke-width:0; stroke-opacity:1; 
stroke-linecap:round; stroke-linejoin:round;">
<circle cx="32400" cy="13700" r="206.693" /> 
</g>
<g style="fill:#000000; fill-opacity:1.0; 
stroke:#000000; stroke-width:39.3701; stroke-opacity:1; 
stroke-linecap:round; stroke-linejoin:round;">
</g>
<g style="fill:#000000; fill-opacity:1.0; 
stroke:#000000; stroke-width:0; stroke-opacity:1; 
stroke-linecap:round; stroke-linejoin:round;">
<circle cx="31900" cy="13700" r="206.693" /> 
</g>
<g style="fill:#000000; fill-opacity:1.0; 
stroke:#000000; stroke-width:39.3701; stroke-opacity:1; 
stroke-linecap:round; stroke-linejoin:round;">
</g>
<g style="fill:#000000; fill-opacity:1.0; 
stroke:#000000; stroke-width:0; stroke-opacity:1; 
stroke-linecap:round; stroke-linejoin:round;">
<circle cx="31400" cy="13700" r="206.693" /> 
</g>
<g style="fill:#000000; fill-opacity:1.0; 
stroke:#000000; stroke-width:39.3701; stroke-opacity:1; 
stroke-linecap:round; stroke-linejoin:round;">
</g>
<g style="fill:#000000; fill-opacity:1.0; 
stroke:#000000; stroke-width:0; stroke-opacity:1; 
stroke-linecap:round; stroke-linejoin:round;">
<circle cx="33400" cy="13700" r="206.693" /> 
</g>
<g style="fill:#000000; fill-opacity:1.0; 
stroke:#000000; stroke-width:39.3701; stroke-opacity:1; 
stroke-linecap:round; stroke-linejoin:round;">
</g>
<g style="fill:#000000; fill-opacity:1.0; 
stroke:#000000; stroke-width:0; stroke-opacity:1; 
stroke-linecap:round; stroke-linejoin:round;">
<circle cx="25350" cy="40600" r="1259.84" /> 
</g>
<g style="fill:#000000; fill-opacity:1.0; 
stroke:#000000; stroke-width:39.3701; stroke-opacity:1; 
stroke-linecap:round; stroke-linejoin:round;">
</g>
<g style="fill:#000000; fill-opacity:1.0; 
stroke:#000000; stroke-width:0; stroke-opacity:1; 
stroke-linecap:round; stroke-linejoin:round;">
<circle cx="26500" cy="15500" r="1259.84" /> 
</g>
<g style="fill:#000000; fill-opacity:1.0; 
stroke:#000000; stroke-width:39.3701; stroke-opacity:1; 
stroke-linecap:round; stroke-linejoin:round;">
</g>
<g style="fill:#000000; fill-opacity:1.0; 
stroke:#000000; stroke-width:0; stroke-opacity:1; 
stroke-linecap:round; stroke-linejoin:round;">
<circle cx="39600" cy="15500" r="1259.84" /> 
</g>
<g style="fill:#000000; fill-opacity:1.0; 
stroke:#000000; stroke-width:39.3701; stroke-opacity:1; 
stroke-linecap:round; stroke-linejoin:round;">
</g>
<g style="fill:#000000; fill-opacity:1.0; 
stroke:#000000; stroke-width:0; stroke-opacity:1; 
stroke-linecap:round; stroke-linejoin:round;">
<circle cx="36318.9" cy="20078.7" r="1181.1" /> 
</g>
<g style="fill:#000000; fill-opacity:1.0; 
stroke:#000000; stroke-width:39.3701; stroke-opacity:1; 
stroke-linecap:round; stroke-linejoin:round;">
</g>
<g style="fill:#000000; fill-opacity:1.0; 
stroke:#000000; stroke-width:0; stroke-opacity:1; 
stroke-linecap:round; stroke-linejoin:round;">
<circle cx="30413.4" cy="31889.8" r="1181.1" /> 
</g>
<g style="fill:#000000; fill-opacity:1.0; 
stroke:#000000; stroke-width:39.3701; stroke-opacity:1; 
stroke-linecap:round; stroke-linejoin:round;">
</g>
<g style="fill:#000000; fill-opacity:1.0; 
stroke:#000000; stroke-width:0; stroke-opacity:1; 
stroke-linecap:round; stroke-linejoin:round;">
<circle cx="39300" cy="45800" r="1259.84" /> 
</g>
<g style="fill:#000000; fill-opacity:1.0; 
stroke:#000000; stroke-width:39.3701; stroke-opacity:1; 
stroke-linecap:round; stroke-linejoin:round;">
</g>
<g style="fill:#000000; fill-opacity:1.0; 
stroke:#000000; stroke-width:0; stroke-opacity:1; 
stroke-linecap:round; stroke-linejoin:round;">
<circle cx="32545.6" cy="14643" r="118.11" /> 
</g>
<g style="fill:#000000; fill-opacity:1.0; 
stroke:#000000; stroke-width:39.3701; stroke-opacity:1; 
stroke-linecap:round; stroke-linejoin:round;">
</g>
<g style="fill:#000000; fill-opacity:1.0; 
stroke:#000000; stroke-width:0; stroke-opacity:1; 
stroke-linecap:round; stroke-linejoin:round;">
<circle cx="34342.6" cy="19187.6" r="118.11" /> 
</g>
<g style="fill:#000000; fill-opacity:1.0; 
stroke:#000000; stroke-width:39.3701; stroke-opacity:1; 
stroke-linecap:round; stroke-linejoin:round;">
</g>
<g style="fill:#000000; fill-opacity:1.0; 
stroke:#000000; stroke-width:0; stroke-opacity:1; 
stroke-linecap:round; stroke-linejoin:round;">
<circle cx="40075.2" cy="43270.9" r="118.11" /> 
</g>
<g style="fill:#000000; fill-opacity:1.0; 
stroke:#000000; stroke-width:39.3701; stroke-opacity:1; 
stroke-linecap:round; stroke-linejoin:round;">
</g>
<g style="fill:#000000; fill-opacity:1.0; 
stroke:#000000; stroke-width:0; stroke-opacity:1; 
stroke-linecap:round; stroke-linejoin:round;">
<circle cx="23246.6" cy="28733.9" r="118.11" /> 
</g>
<g style="fill:#000000; fill-opacity:1.0; 
stroke:#000000; stroke-width:39.3701; stroke-opacity:1; 
stroke-linecap:round; stroke-linejoin:round;">
</g>
<g style="fill:#000000; fill-opacity:1.0; 
stroke:#000000; stroke-width:984.252; stroke-opacity:1; 
stroke-linecap:round; stroke-linejoin:round;">
</g>
<g style="fill:#000000; fill-opacity:0.0; 
stroke:#000000; stroke-width:984.252; stroke-opacity:1; 
stroke-linecap:round; stroke-linejoin:round;">
<path d="M40805 44294
L43450 44294
" />
<path d="M39300 45800
L40805 44294
" />
<path d="M42794 18694
L43450 18694
" />
<path d="M39600 15500
L42794 18694
" />
<path d="M23244 42705
L21800 42705
" />
<path d="M25350 40600
L23244 42705
" />
<path d="M25350 33905
L21800 33905
" />
<path d="M25397 33858
L25350 33905
" />
<path d="M29921 33858
L25397 33858
" />
<path d="M25350 33905
L25350 40600
" />
<path d="M27311 15500
L29921 18110
" />
<path d="M26500 15500
L27311 15500
" />
<path d="M34350 18110
L36318 20078
" />
<path d="M29921 18110
L34350 18110
" />
<path d="M21800 36800
L21800 35697
" />
<path d="M42347 23572
L42347 24600
" />
<path d="M36885 18110
L42347 23572
" />
<path d="M36811 18110
L36885 18110
" />
<path d="M43450 24600
L42347 24600
" />
<path d="M43450 33100
L43450 34202
" />
<path d="M20697 29102
L21800 28000
" />
<path d="M20697 34595
L20697 29102
" />
<path d="M21800 35697
L20697 34595
" />
<path d="M37247 28000
L42347 33100
" />
<path d="M21800 28000
L37247 28000
" />
<path d="M43450 33100
L42347 33100
" />
<path d="M41811 40496
L42346 40496
" />
<path d="M37427 44881
L41811 40496
" />
<path d="M37427 46590
L37427 44881
" />
<path d="M41036 50200
L37427 46590
" />
<path d="M43450 50200
L41036 50200
" />
<path d="M42346 35237
L42346 40496
" />
<path d="M43381 34202
L42346 35237
" />
<path d="M43450 34202
L43381 34202
" />
<path d="M42346 40496
L43450 41600
" />
</g>
<g style="fill:#000000; fill-opacity:0.0; 
stroke:#000000; stroke-width:236.22; stroke-opacity:1; 
stroke-linecap:round; stroke-linejoin:round;">
<path d="M28843 39993
L30400 41550
" />
<path d="M28700 39993
L28843 39993
" />
<path d="M28700 39550
L28700 39993
" />
<path d="M28200 38500
L29400 37300
" />
<path d="M28200 39050
L28200 38500
" />
<path d="M27200 38136
L27400 37936
" />
<path d="M27200 39050
L27200 38136
" />
<path d="M27400 37300
L27400 37936
" />
<path d="M29813 37936
L30400 37936
" />
<path d="M28700 39050
L29813 37936
" />
<path d="M30400 37300
L30400 37936
" />
<path d="M21839 12108
L21839 13997
" />
<path d="M21800 12068
L21839 12108
" />
<path d="M21839 13997
L21800 14037
" />
<path d="M28593 14643
L32545 14643
" />
<path d="M27947 13997
L28593 14643
" />
<path d="M21839 13997
L27947 13997
" />
<path d="M44182 21899
L43450 22631
" />
<path d="M44182 18177
L44182 21899
" />
<path d="M42614 16609
L44182 18177
" />
<path d="M42614 16390
L42614 16609
" />
<path d="M39923 13700
L42614 16390
" />
<path d="M33400 13700
L39923 13700
" />
<path d="M39783 16996
L43450 20662
" />
<path d="M35442 16996
L39783 16996
" />
<path d="M32900 14453
L35442 16996
" />
<path d="M32900 14200
L32900 14453
" />
<path d="M44536 30044
L43450 31131
" />
<path d="M44536 15864
L44536 30044
" />
<path d="M43895 15223
L44536 15864
" />
<path d="M42579 15223
L43895 15223
" />
<path d="M40607 13251
L42579 15223
" />
<path d="M33195 13251
L40607 13251
" />
<path d="M32900 13546
L33195 13251
" />
<path d="M32900 13700
L32900 13546
" />
<path d="M43395 29162
L43450 29162
" />
<path d="M34342 20110
L43395 29162
" />
<path d="M34342 19187
L34342 20110
" />
<path d="M43113 43270
L40075 43270
" />
<path d="M44178 42205
L43113 43270
" />
<path d="M44178 40360
L44178 42205
" />
<path d="M43450 39631
L44178 40360
" />
<path d="M44894 36218
L43450 37662
" />
<path d="M44894 15721
L44894 36218
" />
<path d="M44033 14860
L44894 15721
" />
<path d="M42785 14860
L44033 14860
" />
<path d="M40822 12896
L42785 14860
" />
<path d="M32567 12896
L40822 12896
" />
<path d="M31900 13563
L32567 12896
" />
<path d="M31900 13700
L31900 13563
" />
<path d="M23034 28733
L21800 29968
" />
<path d="M23246 28733
L23034 28733
" />
</g>
<g style="fill:#000000; fill-opacity:1.0; 
stroke:#000000; stroke-width:100; stroke-opacity:1; 
stroke-linecap:round; stroke-linejoin:round;">
<polyline style="fill-rule:evenodd;"
points="21002,9478
20975,9607
20975,10592
20998,10712
21069,10823
21178,10897
21307,10924
22292,10924
22412,10901
22523,10830
22597,10721
22624,10592
22624,9607
22601,9487
22548,9405
43219,9405
42987,9500
42757,9730
42632,10031
42632,10356
42756,10657
42986,10887
43286,11012
43611,11012
43912,10888
44142,10658
44267,10357
44267,10032
44143,9731
43913,9501
43681,9405
44944,9405
44944,15144
44347,14546
44203,14450
44267,14294
44267,13969
44143,13668
43913,13438
43613,13313
43288,13313
42987,13437
42757,13667
42632,13968
42632,14079
41136,12582
40992,12486
40822,12452
32567,12452
32397,12486
32253,12582
31620,13215
31506,13167
31294,13167
31149,13227
31006,13167
30794,13167
30649,13227
30506,13167
30294,13167
30149,13227
30006,13167
29794,13167
29649,13227
29506,13167
29294,13167
29149,13227
29006,13167
28794,13167
28598,13248
28449,13398
28367,13593
28367,13789
28261,13683
28117,13587
27947,13553
22473,13553
22283,13363
22283,12741
22492,12532
22578,12324
42632,12324
42756,12625
42986,12855
43286,12980
43611,12980
43912,12856
44142,12626
44267,12326
44267,12001
44143,11700
43913,11470
43613,11345
43288,11345
42987,11469
42757,11699
42632,11999
42632,12324
22578,12324
22617,12231
22617,11906
22493,11605
22263,11375
21963,11250
21638,11250
21337,11374
21107,11604
20982,11905
20982,12230
21106,12531
21336,12761
21395,12786
21395,13319
21337,13343
21107,13573
20982,13873
20982,14198
21106,14499
21336,14729
21636,14854
21961,14854
22262,14730
22492,14500
22517,14441
25316,14441
25156,14600
24914,15183
24914,15813
25155,16396
25600,16843
26183,17085
26813,17085
27396,16844
27448,16793
29343,18688
29343,18688
29457,18802
29607,18865
29608,18865
29608,18865
29757,18927
29920,18927
29921,18927
30065,18927
30083,18927
30083,18927
33974,18927
33966,18935
33899,19098
33898,19275
33898,19275
33898,20110
33932,20280
34028,20424
42632,29027
42632,29324
42756,29625
42986,29855
43286,29980
43611,29980
43912,29856
44092,29676
44092,29861
43632,30321
43613,30313
43288,30313
42987,30437
42757,30667
42632,30968
42632,31293
42756,31594
42986,31824
43286,31949
43611,31949
43912,31825
44142,31595
44267,31294
44267,30969
44259,30949
44450,30758
44450,36034
43632,36853
43613,36845
43288,36845
42987,36969
42757,37199
42632,37499
42632,37824
42756,38125
42986,38355
43286,38480
43611,38480
43912,38356
44142,38126
44267,37826
44267,37501
44259,37480
44944,36795
44944,50894
44092,50894
44154,50833
44192,50741
44192,50312
44129,50250
43500,50250
43500,50257
43400,50257
43400,50250
42770,50250
42707,50312
42707,50741
42745,50833
42807,50894
20255,50894
20255,49658
42707,49658
42707,50087
42770,50150
43400,50150
43400,49520
43500,49520
43500,50150
44129,50150
44192,50087
44192,49658
44154,49566
44083,49495
43991,49457
43562,49457
43500,49520
43400,49520
43337,49457
42908,49457
42816,49495
42745,49566
42707,49658
20255,49658
20255,48393
42632,48393
42756,48694
42986,48924
43286,49049
43611,49049
43912,48925
44142,48695
44267,48394
44267,48069
44143,47768
43913,47538
43613,47413
43288,47413
42987,47537
42757,47767
42632,48068
42632,48393
20255,48393
20255,46113
37714,46113
37955,46696
38400,47143
38983,47385
39613,47385
40196,47144
40643,46699
40757,46424
42632,46424
42756,46725
42986,46955
43286,47080
43611,47080
43912,46956
44142,46726
44267,46426
44267,46101
44143,45800
43913,45570
43613,45445
43288,45445
42987,45569
42757,45799
42632,46099
42632,46424
40757,46424
40885,46116
40885,45486
40851,45404
41144,45112
43449,45112
43611,45112
43912,44988
44142,44758
44267,44457
44267,44132
44143,43831
43913,43601
43613,43476
43534,43476
44492,42519
44588,42375
44595,42342
44622,42205
44622,40360
44588,40190
44525,40095
44492,40046
44259,39813
44267,39794
44267,39469
44143,39168
43913,38938
43613,38813
43288,38813
42987,38937
42757,39167
42632,39468
42632,39793
42756,40094
42986,40324
43286,40449
43611,40449
43632,40441
43734,40543
43734,40857
43562,40857
43500,40920
43500,41550
43507,41550
43507,41650
43500,41650
43500,41657
43400,41657
43400,41650
42770,41650
42707,41712
42707,42141
42745,42233
42816,42304
42908,42342
43337,42342
43399,42279
43399,42342
43414,42342
42929,42827
40075,42827
39987,42827
39824,42894
39699,43019
39631,43182
39631,43358
39698,43521
39823,43646
39986,43714
40163,43714
40163,43714
40229,43714
40227,43716
39695,44247
39616,44214
38986,44214
38403,44455
37956,44900
37714,45483
37714,46113
20255,46113
20255,40898
20982,40898
21106,41199
21336,41429
21636,41554
21961,41554
22262,41430
22492,41200
22617,40900
22617,40575
22493,40274
22263,40044
21963,39919
21638,39919
21337,40043
21107,40273
20982,40573
20982,40898
20255,40898
20255,38930
20982,38930
21106,39231
21336,39461
21636,39586
21961,39586
22262,39462
22492,39232
22617,38931
22617,38606
22493,38305
22263,38075
21963,37950
21638,37950
21337,38074
21107,38304
20982,38605
20982,38930
20255,38930
20255,36912
21057,36912
21057,37341
21095,37433
21166,37504
21258,37542
21687,37542
21750,37479
21750,36850
21850,36850
21850,37479
21912,37542
22341,37542
22433,37504
22504,37433
22542,37341
22542,36912
22479,36850
21850,36850
21750,36850
21120,36850
21057,36912
20255,36912
20255,36258
21057,36258
21057,36687
21120,36750
21750,36750
21750,36120
21850,36120
21850,36750
22479,36750
22542,36687
22542,36258
22504,36166
22433,36095
22341,36057
21912,36057
21850,36120
21750,36120
21687,36057
21258,36057
21166,36095
21095,36166
21057,36258
20255,36258
20255,34067
20982,34067
21106,34368
21336,34598
21636,34723
21961,34723
21962,34723
24532,34723
24532,39222
24453,39255
24006,39700
23764,40283
23764,40913
23798,40995
22905,41887
21800,41887
21638,41887
21337,42011
21107,42241
20982,42542
20982,42867
21106,43168
21336,43398
21636,43523
21961,43523
21962,43523
23244,43523
23557,43460
23822,43283
24954,42152
25033,42185
25663,42185
26246,41944
26693,41499
26728,41415
26728,41950
26750,42070
26822,42181
26930,42255
27060,42281
27740,42281
27860,42259
27971,42187
28001,42143
28145,42239
28400,42289
28654,42239
28870,42094
28900,42050
28929,42094
29145,42239
29400,42289
29654,42239
29870,42094
29900,42050
29929,42094
30145,42239
30400,42289
30654,42239
30870,42094
31014,41878
31065,41624
31065,41475
31014,41221
30906,41058
42707,41058
42707,41487
42770,41550
43400,41550
43400,40920
43337,40857
42908,40857
42816,40895
42745,40966
42707,41058
30906,41058
30870,41005
30654,40860
30400,40810
30306,40828
29237,39760
29238,39756
29238,39343
29215,39222
29209,39211
29232,39156
29232,39145
29997,38380
30400,38380
30569,38346
30713,38250
30809,38106
30827,38015
30860,38009
30971,37937
31045,37829
31071,37700
31071,36900
31049,36779
30977,36668
30869,36594
30740,36568
30060,36568
29939,36590
29828,36662
29798,36706
29654,36610
29400,36560
29145,36610
28929,36755
28900,36799
28870,36755
28654,36610
28400,36560
28145,36610
27929,36755
27900,36799
27870,36755
27654,36610
27400,36560
27145,36610
26929,36755
26785,36971
26734,37225
26734,37374
26785,37628
26903,37805
26886,37822
26790,37966
26756,38136
26756,38740
26749,38748
26667,38943
26667,39155
26727,39300
26667,39443
26667,39655
26682,39690
26249,39256
26167,39222
26167,35856
42632,35856
42756,36157
42986,36387
43286,36512
43611,36512
43912,36388
44142,36158
44267,35857
44267,35532
44143,35231
43913,35001
43613,34876
43288,34876
42987,35000
42757,35230
42632,35531
42632,35856
26167,35856
26167,34675
29921,34675
29921,34675
30083,34676
30233,34613
30234,34613
30234,34613
30383,34551
30498,34436
30499,34436
30499,34435
30613,34322
30676,34171
30676,34171
30676,34170
30738,34021
30738,34020
35993,34020
36117,34320
36347,34550
36647,34675
36972,34676
37273,34551
37503,34322
37628,34021
37628,33696
37504,33395
37321,33212
42707,33212
42707,33641
42745,33733
42816,33804
42908,33842
43337,33842
43400,33779
43400,33150
43500,33150
43500,33779
43562,33842
43991,33842
44083,33804
44154,33733
44192,33641
44192,33212
44129,33150
43500,33150
43400,33150
42770,33150
42707,33212
37321,33212
37274,33165
36974,33040
36649,33040
36348,33164
36118,33394
35993,33694
35993,34020
30738,34020
30738,33858
30738,33858
30738,33857
30738,33696
30676,33545
30676,33545
30676,33544
30615,33396
30711,33396
31265,33167
31689,32744
31767,32558
42707,32558
42707,32987
42770,33050
43400,33050
43400,32420
43500,32420
43500,33050
44129,33050
44192,32987
44192,32558
44154,32466
44083,32395
43991,32357
43562,32357
43500,32420
43400,32420
43337,32357
42908,32357
42816,32395
42745,32466
42707,32558
31767,32558
31919,32190
31920,31591
31691,31037
31267,30613
30714,30383
30115,30382
29561,30611
29136,31035
28906,31588
28906,32188
29135,32742
29433,33040
25397,33040
25397,33040
25159,33087
21800,33087
21638,33087
21337,33211
21107,33441
20982,33742
20982,34067
20255,34067
20255,32098
20982,32098
21106,32399
21336,32629
21636,32754
21961,32754
22262,32630
22492,32400
22617,32100
22617,31775
22493,31474
22263,31244
21963,31119
21638,31119
21337,31243
21107,31473
20982,31773
20982,32098
20255,32098
20255,30130
20982,30130
21106,30431
21336,30661
21636,30786
21961,30786
22262,30662
22492,30432
22617,30131
22617,29806
22609,29786
23218,29177
23246,29177
23334,29177
23497,29110
23622,28985
23690,28822
23690,28645
23622,28482
23498,28357
23335,28290
23158,28290
23158,28290
23034,28290
22864,28323
22720,28420
21982,29158
21963,29150
21638,29150
21337,29274
21107,29504
20982,29805
20982,30130
20255,30130
20255,28112
21057,28112
21057,28541
21095,28633
21166,28704
21258,28742
21687,28742
21750,28679
21750,28050
21850,28050
21850,28679
21912,28742
22341,28742
22433,28704
22504,28633
22542,28541
22542,28112
22479,28050
21850,28050
21750,28050
21120,28050
21057,28112
20255,28112
20255,27458
21057,27458
21057,27887
21120,27950
21750,27950
21750,27320
21850,27320
21850,27950
22479,27950
22542,27887
22542,27458
22504,27366
22433,27295
22341,27257
21912,27257
21850,27320
21750,27320
21687,27257
21258,27257
21166,27295
21095,27366
21057,27458
20255,27458
20255,25167
20982,25167
21106,25468
21336,25698
21636,25823
21961,25823
22262,25699
22492,25469
22617,25168
22617,24843
22493,24542
22263,24312
21963,24187
21638,24187
21337,24311
21107,24541
20982,24842
20982,25167
20255,25167
20255,23198
20982,23198
21106,23499
21336,23729
21636,23854
21961,23854
22262,23730
22492,23500
22617,23200
22617,22875
22493,22574
22263,22344
21963,22219
21638,22219
21337,22343
21107,22573
20982,22873
20982,23198
20255,23198
20255,21230
20982,21230
21106,21531
21336,21761
21636,21886
21961,21886
22262,21762
22492,21532
22617,21231
22617,20906
22493,20605
22263,20375
21963,20250
21638,20250
21337,20374
21107,20604
20982,20905
20982,21230
20255,21230
20255,18607
20975,18607
20975,19592
20998,19712
21069,19823
21178,19897
21307,19924
22292,19924
22412,19901
22523,19830
22597,19721
22624,19592
22624,18607
22601,18487
22530,18376
22421,18302
22292,18275
21307,18275
21187,18298
21076,18369
21002,18478
20975,18607
20255,18607
20255,16167
20982,16167
21106,16468
21336,16698
21636,16823
21961,16823
22262,16699
22492,16469
22617,16168
22617,15843
22493,15542
22263,15312
21963,15187
21638,15187
21337,15311
21107,15541
20982,15842
20982,16167
20255,16167
20255,9405
21052,9405
21002,9478
" /> 
<polyline style="fill-rule:evenodd;"
points="28279,14956
28423,15052
28593,15086
32545,15086
32633,15086
32796,15019
32817,14998
35129,17309
35272,17406
35442,17439
36480,17439
36407,17470
36356,17585
36811,18039
37265,17585
37214,17470
37135,17439
39599,17439
42640,20480
42632,20499
42632,20824
42756,21125
42986,21355
43286,21480
43611,21480
43738,21428
43738,21715
43632,21821
43613,21813
43288,21813
42987,21937
42757,22167
42632,22468
42632,22793
42756,23094
42986,23324
43286,23449
43611,23449
43912,23325
44092,23145
44092,23905
44083,23895
43991,23857
43562,23857
43500,23920
43500,24550
43507,24550
43507,24650
43500,24650
43500,25279
43562,25342
43991,25342
44083,25304
44092,25294
44092,26681
43913,26501
43613,26376
43288,26376
42987,26500
42757,26730
42632,27031
42632,27356
42756,27657
42986,27887
43286,28012
43611,28012
43912,27888
44092,27708
44092,28649
43913,28470
43613,28345
43288,28345
43229,28369
39572,24712
42707,24712
42707,25141
42745,25233
42816,25304
42908,25342
43337,25342
43400,25279
43400,24650
42770,24650
42707,24712
39572,24712
38917,24058
42707,24058
42707,24487
42770,24550
43400,24550
43400,23920
43337,23857
42908,23857
42816,23895
42745,23966
42707,24058
38917,24058
36445,21585
36617,21585
37171,21356
37595,20933
37825,20379
37825,19780
37596,19226
37173,18802
37131,18784
37214,18750
37265,18635
36811,18180
36805,18186
36734,18115
36740,18110
36881,18110
37335,18564
37451,18513
37556,18237
37548,17942
37451,17706
37335,17656
36881,18110
36740,18110
36286,17656
36170,17706
36065,17982
36073,18277
36170,18513
36286,18564
36278,18572
36020,18571
35983,18587
34928,17532
34663,17354
34350,17292
30259,17292
28037,15070
27844,14603
27683,14441
27763,14441
28279,14956
" /> 
<polyline style="fill-rule:evenodd;"
points="43500,16050
43507,16050
43507,16150
43500,16150
43500,16157
43400,16157
43400,16150
43392,16150
43392,16050
43400,16050
43400,16042
43500,16042
43500,16050
" /> 
</g> 
</svg>
