<?xml version="1.0" standalone="no"?>
 <!DOCTYPE svg PUBLIC "-//W3C//DTD SVG 1.1//EN" 
 "http://www.w3.org/Graphics/SVG/1.1/DTD/svg11.dtd"> 
<svg xmlns="http://www.w3.org/2000/svg" version="1.1" 
    width="29.7002cm" height="21.0007cm" viewBox="0 0 116930 82680 ">
<title>SVG Picture created as alligator-adaptor-F.Cu.svg date 2016/08/19 13:07:45 </title>
  <desc>Picture generated by PCBNEW </desc>
<g style="fill:#000000; fill-opacity:1;stroke:#000000; stroke-opacity:1;
stroke-linecap:round; stroke-linejoin:round; "
 transform="translate(0 0) scale(1 1)">
</g>
<g style="fill:#000000; fill-opacity:0.0; 
stroke:#000000; stroke-width:-0.000393701; stroke-opacity:1; 
stroke-linecap:round; stroke-linejoin:round;">
</g>
<g style="fill:#000000; fill-opacity:1.0; 
stroke:#000000; stroke-width:0; stroke-opacity:1; 
stroke-linecap:round; stroke-linejoin:round;">
<circle cx="43307.1" cy="14173.2" r="492.126" /> 
</g>
<g style="fill:#000000; fill-opacity:1.0; 
stroke:#000000; stroke-width:39.3701; stroke-opacity:1; 
stroke-linecap:round; stroke-linejoin:round;">
</g>
<g style="fill:#000000; fill-opacity:1.0; 
stroke:#000000; stroke-width:0; stroke-opacity:1; 
stroke-linecap:round; stroke-linejoin:round;">
<circle cx="43307.1" cy="16141.7" r="492.126" /> 
</g>
<g style="fill:#000000; fill-opacity:1.0; 
stroke:#000000; stroke-width:39.3701; stroke-opacity:1; 
stroke-linecap:round; stroke-linejoin:round;">
</g>
<g style="fill:#000000; fill-opacity:1.0; 
stroke:#000000; stroke-width:0; stroke-opacity:1; 
stroke-linecap:round; stroke-linejoin:round;">
<polyline style="fill-rule:evenodd;"
points="43799,20570
42814,20570
42814,19586
43799,19586
43799,20570
" /> 
<circle cx="43307.1" cy="18110.2" r="492.126" /> 
</g>
<g style="fill:#000000; fill-opacity:1.0; 
stroke:#000000; stroke-width:39.3701; stroke-opacity:1; 
stroke-linecap:round; stroke-linejoin:round;">
</g>
<g style="fill:#000000; fill-opacity:1.0; 
stroke:#000000; stroke-width:0; stroke-opacity:1; 
stroke-linecap:round; stroke-linejoin:round;">
<polyline style="fill-rule:evenodd;"
points="27740,41950
27060,41950
27060,41150
27740,41150
27740,41950
" /> 
</g>
<g style="fill:#000000; fill-opacity:1.0; 
stroke:#000000; stroke-width:680; stroke-opacity:1; 
stroke-linecap:round; stroke-linejoin:round;">
</g>
<g style="fill:#000000; fill-opacity:0.0; 
stroke:#000000; stroke-width:680; stroke-opacity:1; 
stroke-linecap:round; stroke-linejoin:round;">
<path d="M28400 41610
L28400 41490
" />
<path d="M29400 41610
L29400 41490
" />
<path d="M30400 41610
L30400 41490
" />
</g>
<g style="fill:#000000; fill-opacity:0.0; 
stroke:#000000; stroke-width:0; stroke-opacity:1; 
stroke-linecap:round; stroke-linejoin:round;">
</g>
<g style="fill:#000000; fill-opacity:1.0; 
stroke:#000000; stroke-width:0; stroke-opacity:1; 
stroke-linecap:round; stroke-linejoin:round;">
<polyline style="fill-rule:evenodd;"
points="28906,39906
28493,39906
28493,39493
28906,39493
28906,39906
" /> 
<circle cx="28200" cy="39700" r="206.693" /> 
</g>
<g style="fill:#000000; fill-opacity:1.0; 
stroke:#000000; stroke-width:39.3701; stroke-opacity:1; 
stroke-linecap:round; stroke-linejoin:round;">
</g>
<g style="fill:#000000; fill-opacity:1.0; 
stroke:#000000; stroke-width:0; stroke-opacity:1; 
stroke-linecap:round; stroke-linejoin:round;">
<circle cx="27700" cy="39700" r="206.693" /> 
</g>
<g style="fill:#000000; fill-opacity:1.0; 
stroke:#000000; stroke-width:39.3701; stroke-opacity:1; 
stroke-linecap:round; stroke-linejoin:round;">
</g>
<g style="fill:#000000; fill-opacity:1.0; 
stroke:#000000; stroke-width:0; stroke-opacity:1; 
stroke-linecap:round; stroke-linejoin:round;">
<circle cx="27200" cy="39700" r="206.693" /> 
</g>
<g style="fill:#000000; fill-opacity:1.0; 
stroke:#000000; stroke-width:39.3701; stroke-opacity:1; 
stroke-linecap:round; stroke-linejoin:round;">
</g>
<g style="fill:#000000; fill-opacity:1.0; 
stroke:#000000; stroke-width:0; stroke-opacity:1; 
stroke-linecap:round; stroke-linejoin:round;">
<circle cx="28200" cy="39200" r="206.693" /> 
</g>
<g style="fill:#000000; fill-opacity:1.0; 
stroke:#000000; stroke-width:39.3701; stroke-opacity:1; 
stroke-linecap:round; stroke-linejoin:round;">
</g>
<g style="fill:#000000; fill-opacity:1.0; 
stroke:#000000; stroke-width:0; stroke-opacity:1; 
stroke-linecap:round; stroke-linejoin:round;">
<circle cx="27700" cy="39200" r="206.693" /> 
</g>
<g style="fill:#000000; fill-opacity:1.0; 
stroke:#000000; stroke-width:39.3701; stroke-opacity:1; 
stroke-linecap:round; stroke-linejoin:round;">
</g>
<g style="fill:#000000; fill-opacity:1.0; 
stroke:#000000; stroke-width:0; stroke-opacity:1; 
stroke-linecap:round; stroke-linejoin:round;">
<circle cx="27200" cy="39200" r="206.693" /> 
</g>
<g style="fill:#000000; fill-opacity:1.0; 
stroke:#000000; stroke-width:39.3701; stroke-opacity:1; 
stroke-linecap:round; stroke-linejoin:round;">
</g>
<g style="fill:#000000; fill-opacity:1.0; 
stroke:#000000; stroke-width:0; stroke-opacity:1; 
stroke-linecap:round; stroke-linejoin:round;">
<circle cx="28700" cy="39200" r="206.693" /> 
</g>
<g style="fill:#000000; fill-opacity:1.0; 
stroke:#000000; stroke-width:39.3701; stroke-opacity:1; 
stroke-linecap:round; stroke-linejoin:round;">
</g>
<g style="fill:#000000; fill-opacity:1.0; 
stroke:#000000; stroke-width:0; stroke-opacity:1; 
stroke-linecap:round; stroke-linejoin:round;">
<polyline style="fill-rule:evenodd;"
points="30060,36900
30740,36900
30740,37700
30060,37700
30060,36900
" /> 
</g>
<g style="fill:#000000; fill-opacity:1.0; 
stroke:#000000; stroke-width:680; stroke-opacity:1; 
stroke-linecap:round; stroke-linejoin:round;">
</g>
<g style="fill:#000000; fill-opacity:0.0; 
stroke:#000000; stroke-width:680; stroke-opacity:1; 
stroke-linecap:round; stroke-linejoin:round;">
<path d="M29400 37240
L29400 37360
" />
<path d="M28400 37240
L28400 37360
" />
<path d="M27400 37240
L27400 37360
" />
</g>
<g style="fill:#000000; fill-opacity:1.0; 
stroke:#000000; stroke-width:0; stroke-opacity:1; 
stroke-linecap:round; stroke-linejoin:round;">
<circle cx="36811" cy="18110.2" r="492" /> 
</g>
<g style="fill:#000000; fill-opacity:1.0; 
stroke:#000000; stroke-width:39.3701; stroke-opacity:1; 
stroke-linecap:round; stroke-linejoin:round;">
</g>
<g style="fill:#000000; fill-opacity:1.0; 
stroke:#000000; stroke-width:0; stroke-opacity:1; 
stroke-linecap:round; stroke-linejoin:round;">
<circle cx="29921.3" cy="18110.2" r="492" /> 
</g>
<g style="fill:#000000; fill-opacity:1.0; 
stroke:#000000; stroke-width:39.3701; stroke-opacity:1; 
stroke-linecap:round; stroke-linejoin:round;">
</g>
<g style="fill:#000000; fill-opacity:1.0; 
stroke:#000000; stroke-width:0; stroke-opacity:1; 
stroke-linecap:round; stroke-linejoin:round;">
<circle cx="36811" cy="33858.3" r="492" /> 
</g>
<g style="fill:#000000; fill-opacity:1.0; 
stroke:#000000; stroke-width:39.3701; stroke-opacity:1; 
stroke-linecap:round; stroke-linejoin:round;">
</g>
<g style="fill:#000000; fill-opacity:1.0; 
stroke:#000000; stroke-width:0; stroke-opacity:1; 
stroke-linecap:round; stroke-linejoin:round;">
<circle cx="29921.3" cy="33858.3" r="492" /> 
</g>
<g style="fill:#000000; fill-opacity:1.0; 
stroke:#000000; stroke-width:39.3701; stroke-opacity:1; 
stroke-linecap:round; stroke-linejoin:round;">
</g>
<g style="fill:#000000; fill-opacity:1.0; 
stroke:#000000; stroke-width:0; stroke-opacity:1; 
stroke-linecap:round; stroke-linejoin:round;">
<circle cx="43307.1" cy="23622" r="492.126" /> 
</g>
<g style="fill:#000000; fill-opacity:1.0; 
stroke:#000000; stroke-width:39.3701; stroke-opacity:1; 
stroke-linecap:round; stroke-linejoin:round;">
</g>
<g style="fill:#000000; fill-opacity:1.0; 
stroke:#000000; stroke-width:0; stroke-opacity:1; 
stroke-linecap:round; stroke-linejoin:round;">
<circle cx="43307.1" cy="25590.6" r="492.126" /> 
</g>
<g style="fill:#000000; fill-opacity:1.0; 
stroke:#000000; stroke-width:39.3701; stroke-opacity:1; 
stroke-linecap:round; stroke-linejoin:round;">
</g>
<g style="fill:#000000; fill-opacity:1.0; 
stroke:#000000; stroke-width:0; stroke-opacity:1; 
stroke-linecap:round; stroke-linejoin:round;">
<polyline style="fill-rule:evenodd;"
points="43799,30019
42814,30019
42814,29035
43799,29035
43799,30019
" /> 
<circle cx="43307.1" cy="27559.1" r="492.126" /> 
</g>
<g style="fill:#000000; fill-opacity:1.0; 
stroke:#000000; stroke-width:39.3701; stroke-opacity:1; 
stroke-linecap:round; stroke-linejoin:round;">
</g>
<g style="fill:#000000; fill-opacity:1.0; 
stroke:#000000; stroke-width:0; stroke-opacity:1; 
stroke-linecap:round; stroke-linejoin:round;">
<circle cx="43307.1" cy="31889.8" r="492.126" /> 
</g>
<g style="fill:#000000; fill-opacity:1.0; 
stroke:#000000; stroke-width:39.3701; stroke-opacity:1; 
stroke-linecap:round; stroke-linejoin:round;">
</g>
<g style="fill:#000000; fill-opacity:1.0; 
stroke:#000000; stroke-width:0; stroke-opacity:1; 
stroke-linecap:round; stroke-linejoin:round;">
<circle cx="43307.1" cy="33858.3" r="492.126" /> 
</g>
<g style="fill:#000000; fill-opacity:1.0; 
stroke:#000000; stroke-width:39.3701; stroke-opacity:1; 
stroke-linecap:round; stroke-linejoin:round;">
</g>
<g style="fill:#000000; fill-opacity:1.0; 
stroke:#000000; stroke-width:0; stroke-opacity:1; 
stroke-linecap:round; stroke-linejoin:round;">
<polyline style="fill-rule:evenodd;"
points="43799,38287
42814,38287
42814,37303
43799,37303
43799,38287
" /> 
<circle cx="43307.1" cy="35826.8" r="492.126" /> 
</g>
<g style="fill:#000000; fill-opacity:1.0; 
stroke:#000000; stroke-width:39.3701; stroke-opacity:1; 
stroke-linecap:round; stroke-linejoin:round;">
</g>
<g style="fill:#000000; fill-opacity:1.0; 
stroke:#000000; stroke-width:0; stroke-opacity:1; 
stroke-linecap:round; stroke-linejoin:round;">
<circle cx="43307.1" cy="40157.5" r="492.126" /> 
</g>
<g style="fill:#000000; fill-opacity:1.0; 
stroke:#000000; stroke-width:39.3701; stroke-opacity:1; 
stroke-linecap:round; stroke-linejoin:round;">
</g>
<g style="fill:#000000; fill-opacity:1.0; 
stroke:#000000; stroke-width:0; stroke-opacity:1; 
stroke-linecap:round; stroke-linejoin:round;">
<circle cx="43307.1" cy="42126" r="492.126" /> 
</g>
<g style="fill:#000000; fill-opacity:1.0; 
stroke:#000000; stroke-width:39.3701; stroke-opacity:1; 
stroke-linecap:round; stroke-linejoin:round;">
</g>
<g style="fill:#000000; fill-opacity:1.0; 
stroke:#000000; stroke-width:0; stroke-opacity:1; 
stroke-linecap:round; stroke-linejoin:round;">
<polyline style="fill-rule:evenodd;"
points="43799,46555
42814,46555
42814,45570
43799,45570
43799,46555
" /> 
<circle cx="43307.1" cy="44094.5" r="492.126" /> 
</g>
<g style="fill:#000000; fill-opacity:1.0; 
stroke:#000000; stroke-width:39.3701; stroke-opacity:1; 
stroke-linecap:round; stroke-linejoin:round;">
</g>
<g style="fill:#000000; fill-opacity:1.0; 
stroke:#000000; stroke-width:0; stroke-opacity:1; 
stroke-linecap:round; stroke-linejoin:round;">
<circle cx="22440.9" cy="36614.2" r="492.126" /> 
</g>
<g style="fill:#000000; fill-opacity:1.0; 
stroke:#000000; stroke-width:39.3701; stroke-opacity:1; 
stroke-linecap:round; stroke-linejoin:round;">
</g>
<g style="fill:#000000; fill-opacity:1.0; 
stroke:#000000; stroke-width:0; stroke-opacity:1; 
stroke-linecap:round; stroke-linejoin:round;">
<circle cx="22440.9" cy="34645.7" r="492.126" /> 
</g>
<g style="fill:#000000; fill-opacity:1.0; 
stroke:#000000; stroke-width:39.3701; stroke-opacity:1; 
stroke-linecap:round; stroke-linejoin:round;">
</g>
<g style="fill:#000000; fill-opacity:1.0; 
stroke:#000000; stroke-width:0; stroke-opacity:1; 
stroke-linecap:round; stroke-linejoin:round;">
<polyline style="fill-rule:evenodd;"
points="21948,30216
22933,30216
22933,31200
21948,31200
21948,30216
" /> 
<circle cx="22440.9" cy="32677.2" r="492.126" /> 
</g>
<g style="fill:#000000; fill-opacity:1.0; 
stroke:#000000; stroke-width:39.3701; stroke-opacity:1; 
stroke-linecap:round; stroke-linejoin:round;">
</g>
<g style="fill:#000000; fill-opacity:1.0; 
stroke:#000000; stroke-width:0; stroke-opacity:1; 
stroke-linecap:round; stroke-linejoin:round;">
<circle cx="22440.9" cy="28346.5" r="492.126" /> 
</g>
<g style="fill:#000000; fill-opacity:1.0; 
stroke:#000000; stroke-width:39.3701; stroke-opacity:1; 
stroke-linecap:round; stroke-linejoin:round;">
</g>
<g style="fill:#000000; fill-opacity:1.0; 
stroke:#000000; stroke-width:0; stroke-opacity:1; 
stroke-linecap:round; stroke-linejoin:round;">
<circle cx="22440.9" cy="26378" r="492.126" /> 
</g>
<g style="fill:#000000; fill-opacity:1.0; 
stroke:#000000; stroke-width:39.3701; stroke-opacity:1; 
stroke-linecap:round; stroke-linejoin:round;">
</g>
<g style="fill:#000000; fill-opacity:1.0; 
stroke:#000000; stroke-width:0; stroke-opacity:1; 
stroke-linecap:round; stroke-linejoin:round;">
<polyline style="fill-rule:evenodd;"
points="21948,21948
22933,21948
22933,22933
21948,22933
21948,21948
" /> 
<circle cx="22440.9" cy="24409.4" r="492.126" /> 
</g>
<g style="fill:#000000; fill-opacity:1.0; 
stroke:#000000; stroke-width:39.3701; stroke-opacity:1; 
stroke-linecap:round; stroke-linejoin:round;">
</g>
<g style="fill:#000000; fill-opacity:1.0; 
stroke:#000000; stroke-width:0; stroke-opacity:1; 
stroke-linecap:round; stroke-linejoin:round;">
<circle cx="22440.9" cy="20078.7" r="492.126" /> 
</g>
<g style="fill:#000000; fill-opacity:1.0; 
stroke:#000000; stroke-width:39.3701; stroke-opacity:1; 
stroke-linecap:round; stroke-linejoin:round;">
</g>
<g style="fill:#000000; fill-opacity:1.0; 
stroke:#000000; stroke-width:0; stroke-opacity:1; 
stroke-linecap:round; stroke-linejoin:round;">
<circle cx="22440.9" cy="18110.2" r="492.126" /> 
</g>
<g style="fill:#000000; fill-opacity:1.0; 
stroke:#000000; stroke-width:39.3701; stroke-opacity:1; 
stroke-linecap:round; stroke-linejoin:round;">
</g>
<g style="fill:#000000; fill-opacity:1.0; 
stroke:#000000; stroke-width:0; stroke-opacity:1; 
stroke-linecap:round; stroke-linejoin:round;">
<polyline style="fill-rule:evenodd;"
points="21948,13681
22933,13681
22933,14665
21948,14665
21948,13681
" /> 
<circle cx="22440.9" cy="16141.7" r="492.126" /> 
</g>
<g style="fill:#000000; fill-opacity:1.0; 
stroke:#000000; stroke-width:39.3701; stroke-opacity:1; 
stroke-linecap:round; stroke-linejoin:round;">
</g>
<g style="fill:#000000; fill-opacity:1.0; 
stroke:#000000; stroke-width:0; stroke-opacity:1; 
stroke-linecap:round; stroke-linejoin:round;">
<circle cx="35826.8" cy="45669.3" r="492.126" /> 
</g>
<g style="fill:#000000; fill-opacity:1.0; 
stroke:#000000; stroke-width:39.3701; stroke-opacity:1; 
stroke-linecap:round; stroke-linejoin:round;">
</g>
<g style="fill:#000000; fill-opacity:1.0; 
stroke:#000000; stroke-width:0; stroke-opacity:1; 
stroke-linecap:round; stroke-linejoin:round;">
<circle cx="33858.3" cy="45669.3" r="492.126" /> 
</g>
<g style="fill:#000000; fill-opacity:1.0; 
stroke:#000000; stroke-width:39.3701; stroke-opacity:1; 
stroke-linecap:round; stroke-linejoin:round;">
</g>
<g style="fill:#000000; fill-opacity:1.0; 
stroke:#000000; stroke-width:0; stroke-opacity:1; 
stroke-linecap:round; stroke-linejoin:round;">
<polyline style="fill-rule:evenodd;"
points="29429,46161
29429,45177
30413,45177
30413,46161
29429,46161
" /> 
<circle cx="31889.8" cy="45669.3" r="492.126" /> 
</g>
<g style="fill:#000000; fill-opacity:1.0; 
stroke:#000000; stroke-width:39.3701; stroke-opacity:1; 
stroke-linecap:round; stroke-linejoin:round;">
</g>
<g style="fill:#000000; fill-opacity:1.0; 
stroke:#000000; stroke-width:0; stroke-opacity:1; 
stroke-linecap:round; stroke-linejoin:round;">
<circle cx="27559.1" cy="45669.3" r="492.126" /> 
</g>
<g style="fill:#000000; fill-opacity:1.0; 
stroke:#000000; stroke-width:39.3701; stroke-opacity:1; 
stroke-linecap:round; stroke-linejoin:round;">
</g>
<g style="fill:#000000; fill-opacity:1.0; 
stroke:#000000; stroke-width:0; stroke-opacity:1; 
stroke-linecap:round; stroke-linejoin:round;">
<circle cx="25590.6" cy="45669.3" r="492.126" /> 
</g>
<g style="fill:#000000; fill-opacity:1.0; 
stroke:#000000; stroke-width:39.3701; stroke-opacity:1; 
stroke-linecap:round; stroke-linejoin:round;">
</g>
<g style="fill:#000000; fill-opacity:1.0; 
stroke:#000000; stroke-width:0; stroke-opacity:1; 
stroke-linecap:round; stroke-linejoin:round;">
<polyline style="fill-rule:evenodd;"
points="21161,46161
21161,45177
22145,45177
22145,46161
21161,46161
" /> 
<circle cx="23622" cy="45669.3" r="492.126" /> 
</g>
<g style="fill:#000000; fill-opacity:1.0; 
stroke:#000000; stroke-width:39.3701; stroke-opacity:1; 
stroke-linecap:round; stroke-linejoin:round;">
</g>
<g style="fill:#000000; fill-opacity:1.0; 
stroke:#000000; stroke-width:0; stroke-opacity:1; 
stroke-linecap:round; stroke-linejoin:round;">
<circle cx="29400" cy="14550" r="206.693" /> 
</g>
<g style="fill:#000000; fill-opacity:1.0; 
stroke:#000000; stroke-width:39.3701; stroke-opacity:1; 
stroke-linecap:round; stroke-linejoin:round;">
</g>
<g style="fill:#000000; fill-opacity:1.0; 
stroke:#000000; stroke-width:0; stroke-opacity:1; 
stroke-linecap:round; stroke-linejoin:round;">
<circle cx="29400" cy="14050" r="206.693" /> 
</g>
<g style="fill:#000000; fill-opacity:1.0; 
stroke:#000000; stroke-width:39.3701; stroke-opacity:1; 
stroke-linecap:round; stroke-linejoin:round;">
</g>
<g style="fill:#000000; fill-opacity:1.0; 
stroke:#000000; stroke-width:0; stroke-opacity:1; 
stroke-linecap:round; stroke-linejoin:round;">
<circle cx="29900" cy="14550" r="206.693" /> 
</g>
<g style="fill:#000000; fill-opacity:1.0; 
stroke:#000000; stroke-width:39.3701; stroke-opacity:1; 
stroke-linecap:round; stroke-linejoin:round;">
</g>
<g style="fill:#000000; fill-opacity:1.0; 
stroke:#000000; stroke-width:0; stroke-opacity:1; 
stroke-linecap:round; stroke-linejoin:round;">
<circle cx="29900" cy="14050" r="206.693" /> 
</g>
<g style="fill:#000000; fill-opacity:1.0; 
stroke:#000000; stroke-width:39.3701; stroke-opacity:1; 
stroke-linecap:round; stroke-linejoin:round;">
</g>
<g style="fill:#000000; fill-opacity:1.0; 
stroke:#000000; stroke-width:0; stroke-opacity:1; 
stroke-linecap:round; stroke-linejoin:round;">
<circle cx="30400" cy="14550" r="206.693" /> 
</g>
<g style="fill:#000000; fill-opacity:1.0; 
stroke:#000000; stroke-width:39.3701; stroke-opacity:1; 
stroke-linecap:round; stroke-linejoin:round;">
</g>
<g style="fill:#000000; fill-opacity:1.0; 
stroke:#000000; stroke-width:0; stroke-opacity:1; 
stroke-linecap:round; stroke-linejoin:round;">
<circle cx="30400" cy="14050" r="206.693" /> 
</g>
<g style="fill:#000000; fill-opacity:1.0; 
stroke:#000000; stroke-width:39.3701; stroke-opacity:1; 
stroke-linecap:round; stroke-linejoin:round;">
</g>
<g style="fill:#000000; fill-opacity:1.0; 
stroke:#000000; stroke-width:0; stroke-opacity:1; 
stroke-linecap:round; stroke-linejoin:round;">
<circle cx="30900" cy="14050" r="206.693" /> 
</g>
<g style="fill:#000000; fill-opacity:1.0; 
stroke:#000000; stroke-width:39.3701; stroke-opacity:1; 
stroke-linecap:round; stroke-linejoin:round;">
</g>
<g style="fill:#000000; fill-opacity:1.0; 
stroke:#000000; stroke-width:0; stroke-opacity:1; 
stroke-linecap:round; stroke-linejoin:round;">
<circle cx="28900" cy="14550" r="206.693" /> 
</g>
<g style="fill:#000000; fill-opacity:1.0; 
stroke:#000000; stroke-width:39.3701; stroke-opacity:1; 
stroke-linecap:round; stroke-linejoin:round;">
</g>
<g style="fill:#000000; fill-opacity:1.0; 
stroke:#000000; stroke-width:0; stroke-opacity:1; 
stroke-linecap:round; stroke-linejoin:round;">
<circle cx="28900" cy="14050" r="206.693" /> 
</g>
<g style="fill:#000000; fill-opacity:1.0; 
stroke:#000000; stroke-width:39.3701; stroke-opacity:1; 
stroke-linecap:round; stroke-linejoin:round;">
</g>
<g style="fill:#000000; fill-opacity:1.0; 
stroke:#000000; stroke-width:0; stroke-opacity:1; 
stroke-linecap:round; stroke-linejoin:round;">
<circle cx="30900" cy="14550" r="206.693" /> 
</g>
<g style="fill:#000000; fill-opacity:1.0; 
stroke:#000000; stroke-width:39.3701; stroke-opacity:1; 
stroke-linecap:round; stroke-linejoin:round;">
</g>
<g style="fill:#000000; fill-opacity:1.0; 
stroke:#000000; stroke-width:0; stroke-opacity:1; 
stroke-linecap:round; stroke-linejoin:round;">
<circle cx="31400" cy="14050" r="206.693" /> 
</g>
<g style="fill:#000000; fill-opacity:1.0; 
stroke:#000000; stroke-width:39.3701; stroke-opacity:1; 
stroke-linecap:round; stroke-linejoin:round;">
</g>
<g style="fill:#000000; fill-opacity:1.0; 
stroke:#000000; stroke-width:0; stroke-opacity:1; 
stroke-linecap:round; stroke-linejoin:round;">
<circle cx="31400" cy="14550" r="206.693" /> 
</g>
<g style="fill:#000000; fill-opacity:1.0; 
stroke:#000000; stroke-width:39.3701; stroke-opacity:1; 
stroke-linecap:round; stroke-linejoin:round;">
</g>
<g style="fill:#000000; fill-opacity:1.0; 
stroke:#000000; stroke-width:0; stroke-opacity:1; 
stroke-linecap:round; stroke-linejoin:round;">
<circle cx="31400" cy="14550" r="206.693" /> 
</g>
<g style="fill:#000000; fill-opacity:1.0; 
stroke:#000000; stroke-width:39.3701; stroke-opacity:1; 
stroke-linecap:round; stroke-linejoin:round;">
</g>
<g style="fill:#000000; fill-opacity:1.0; 
stroke:#000000; stroke-width:0; stroke-opacity:1; 
stroke-linecap:round; stroke-linejoin:round;">
<circle cx="31400" cy="14550" r="206.693" /> 
</g>
<g style="fill:#000000; fill-opacity:1.0; 
stroke:#000000; stroke-width:39.3701; stroke-opacity:1; 
stroke-linecap:round; stroke-linejoin:round;">
</g>
<g style="fill:#000000; fill-opacity:1.0; 
stroke:#000000; stroke-width:0; stroke-opacity:1; 
stroke-linecap:round; stroke-linejoin:round;">
<circle cx="31400" cy="14550" r="206.693" /> 
</g>
<g style="fill:#000000; fill-opacity:1.0; 
stroke:#000000; stroke-width:39.3701; stroke-opacity:1; 
stroke-linecap:round; stroke-linejoin:round;">
</g>
<g style="fill:#000000; fill-opacity:1.0; 
stroke:#000000; stroke-width:0; stroke-opacity:1; 
stroke-linecap:round; stroke-linejoin:round;">
<circle cx="31400" cy="14550" r="206.693" /> 
</g>
<g style="fill:#000000; fill-opacity:1.0; 
stroke:#000000; stroke-width:39.3701; stroke-opacity:1; 
stroke-linecap:round; stroke-linejoin:round;">
</g>
<g style="fill:#000000; fill-opacity:1.0; 
stroke:#000000; stroke-width:0; stroke-opacity:1; 
stroke-linecap:round; stroke-linejoin:round;">
<circle cx="31400" cy="14550" r="206.693" /> 
</g>
<g style="fill:#000000; fill-opacity:1.0; 
stroke:#000000; stroke-width:39.3701; stroke-opacity:1; 
stroke-linecap:round; stroke-linejoin:round;">
</g>
<g style="fill:#000000; fill-opacity:1.0; 
stroke:#000000; stroke-width:0; stroke-opacity:1; 
stroke-linecap:round; stroke-linejoin:round;">
<circle cx="31400" cy="14550" r="206.693" /> 
</g>
<g style="fill:#000000; fill-opacity:1.0; 
stroke:#000000; stroke-width:39.3701; stroke-opacity:1; 
stroke-linecap:round; stroke-linejoin:round;">
</g>
<g style="fill:#000000; fill-opacity:1.0; 
stroke:#000000; stroke-width:0; stroke-opacity:1; 
stroke-linecap:round; stroke-linejoin:round;">
<polyline style="fill-rule:evenodd;"
points="33606,14756
33193,14756
33193,14343
33606,14343
33606,14756
" /> 
<circle cx="32900" cy="14550" r="206.693" /> 
</g>
<g style="fill:#000000; fill-opacity:1.0; 
stroke:#000000; stroke-width:39.3701; stroke-opacity:1; 
stroke-linecap:round; stroke-linejoin:round;">
</g>
<g style="fill:#000000; fill-opacity:1.0; 
stroke:#000000; stroke-width:0; stroke-opacity:1; 
stroke-linecap:round; stroke-linejoin:round;">
<circle cx="32400" cy="14550" r="206.693" /> 
</g>
<g style="fill:#000000; fill-opacity:1.0; 
stroke:#000000; stroke-width:39.3701; stroke-opacity:1; 
stroke-linecap:round; stroke-linejoin:round;">
</g>
<g style="fill:#000000; fill-opacity:1.0; 
stroke:#000000; stroke-width:0; stroke-opacity:1; 
stroke-linecap:round; stroke-linejoin:round;">
<circle cx="31900" cy="14550" r="206.693" /> 
</g>
<g style="fill:#000000; fill-opacity:1.0; 
stroke:#000000; stroke-width:39.3701; stroke-opacity:1; 
stroke-linecap:round; stroke-linejoin:round;">
</g>
<g style="fill:#000000; fill-opacity:1.0; 
stroke:#000000; stroke-width:0; stroke-opacity:1; 
stroke-linecap:round; stroke-linejoin:round;">
<circle cx="31400" cy="14550" r="206.693" /> 
</g>
<g style="fill:#000000; fill-opacity:1.0; 
stroke:#000000; stroke-width:39.3701; stroke-opacity:1; 
stroke-linecap:round; stroke-linejoin:round;">
</g>
<g style="fill:#000000; fill-opacity:1.0; 
stroke:#000000; stroke-width:0; stroke-opacity:1; 
stroke-linecap:round; stroke-linejoin:round;">
<circle cx="32900" cy="14050" r="206.693" /> 
</g>
<g style="fill:#000000; fill-opacity:1.0; 
stroke:#000000; stroke-width:39.3701; stroke-opacity:1; 
stroke-linecap:round; stroke-linejoin:round;">
</g>
<g style="fill:#000000; fill-opacity:1.0; 
stroke:#000000; stroke-width:0; stroke-opacity:1; 
stroke-linecap:round; stroke-linejoin:round;">
<circle cx="32400" cy="14050" r="206.693" /> 
</g>
<g style="fill:#000000; fill-opacity:1.0; 
stroke:#000000; stroke-width:39.3701; stroke-opacity:1; 
stroke-linecap:round; stroke-linejoin:round;">
</g>
<g style="fill:#000000; fill-opacity:1.0; 
stroke:#000000; stroke-width:0; stroke-opacity:1; 
stroke-linecap:round; stroke-linejoin:round;">
<circle cx="31900" cy="14050" r="206.693" /> 
</g>
<g style="fill:#000000; fill-opacity:1.0; 
stroke:#000000; stroke-width:39.3701; stroke-opacity:1; 
stroke-linecap:round; stroke-linejoin:round;">
</g>
<g style="fill:#000000; fill-opacity:1.0; 
stroke:#000000; stroke-width:0; stroke-opacity:1; 
stroke-linecap:round; stroke-linejoin:round;">
<circle cx="31400" cy="14050" r="206.693" /> 
</g>
<g style="fill:#000000; fill-opacity:1.0; 
stroke:#000000; stroke-width:39.3701; stroke-opacity:1; 
stroke-linecap:round; stroke-linejoin:round;">
</g>
<g style="fill:#000000; fill-opacity:1.0; 
stroke:#000000; stroke-width:0; stroke-opacity:1; 
stroke-linecap:round; stroke-linejoin:round;">
<circle cx="33400" cy="14050" r="206.693" /> 
</g>
<g style="fill:#000000; fill-opacity:1.0; 
stroke:#000000; stroke-width:39.3701; stroke-opacity:1; 
stroke-linecap:round; stroke-linejoin:round;">
</g>
<g style="fill:#000000; fill-opacity:1.0; 
stroke:#000000; stroke-width:0; stroke-opacity:1; 
stroke-linecap:round; stroke-linejoin:round;">
<circle cx="25350" cy="40600" r="1259.84" /> 
</g>
<g style="fill:#000000; fill-opacity:1.0; 
stroke:#000000; stroke-width:39.3701; stroke-opacity:1; 
stroke-linecap:round; stroke-linejoin:round;">
</g>
<g style="fill:#000000; fill-opacity:1.0; 
stroke:#000000; stroke-width:0; stroke-opacity:1; 
stroke-linecap:round; stroke-linejoin:round;">
<circle cx="26500" cy="15500" r="1259.84" /> 
</g>
<g style="fill:#000000; fill-opacity:1.0; 
stroke:#000000; stroke-width:39.3701; stroke-opacity:1; 
stroke-linecap:round; stroke-linejoin:round;">
</g>
<g style="fill:#000000; fill-opacity:1.0; 
stroke:#000000; stroke-width:0; stroke-opacity:1; 
stroke-linecap:round; stroke-linejoin:round;">
<circle cx="39600" cy="15500" r="1259.84" /> 
</g>
<g style="fill:#000000; fill-opacity:1.0; 
stroke:#000000; stroke-width:39.3701; stroke-opacity:1; 
stroke-linecap:round; stroke-linejoin:round;">
</g>
<g style="fill:#000000; fill-opacity:1.0; 
stroke:#000000; stroke-width:0; stroke-opacity:1; 
stroke-linecap:round; stroke-linejoin:round;">
<circle cx="36318.9" cy="20078.7" r="1181.1" /> 
</g>
<g style="fill:#000000; fill-opacity:1.0; 
stroke:#000000; stroke-width:39.3701; stroke-opacity:1; 
stroke-linecap:round; stroke-linejoin:round;">
</g>
<g style="fill:#000000; fill-opacity:1.0; 
stroke:#000000; stroke-width:0; stroke-opacity:1; 
stroke-linecap:round; stroke-linejoin:round;">
<circle cx="30413.4" cy="31889.8" r="1181.1" /> 
</g>
<g style="fill:#000000; fill-opacity:1.0; 
stroke:#000000; stroke-width:39.3701; stroke-opacity:1; 
stroke-linecap:round; stroke-linejoin:round;">
</g>
<g style="fill:#000000; fill-opacity:1.0; 
stroke:#000000; stroke-width:0; stroke-opacity:1; 
stroke-linecap:round; stroke-linejoin:round;">
<circle cx="39300" cy="45800" r="1259.84" /> 
</g>
<g style="fill:#000000; fill-opacity:1.0; 
stroke:#000000; stroke-width:39.3701; stroke-opacity:1; 
stroke-linecap:round; stroke-linejoin:round;">
</g>
<g style="fill:#000000; fill-opacity:1.0; 
stroke:#000000; stroke-width:0; stroke-opacity:1; 
stroke-linecap:round; stroke-linejoin:round;">
<circle cx="34155.7" cy="26463.5" r="118.11" /> 
</g>
<g style="fill:#000000; fill-opacity:1.0; 
stroke:#000000; stroke-width:39.3701; stroke-opacity:1; 
stroke-linecap:round; stroke-linejoin:round;">
</g>
<g style="fill:#000000; fill-opacity:1.0; 
stroke:#000000; stroke-width:0; stroke-opacity:1; 
stroke-linecap:round; stroke-linejoin:round;">
<circle cx="26653.7" cy="23948.8" r="118.11" /> 
</g>
<g style="fill:#000000; fill-opacity:1.0; 
stroke:#000000; stroke-width:39.3701; stroke-opacity:1; 
stroke-linecap:round; stroke-linejoin:round;">
</g>
<g style="fill:#000000; fill-opacity:1.0; 
stroke:#000000; stroke-width:0; stroke-opacity:1; 
stroke-linecap:round; stroke-linejoin:round;">
<circle cx="28079.4" cy="15801.3" r="118.11" /> 
</g>
<g style="fill:#000000; fill-opacity:1.0; 
stroke:#000000; stroke-width:39.3701; stroke-opacity:1; 
stroke-linecap:round; stroke-linejoin:round;">
</g>
<g style="fill:#000000; fill-opacity:1.0; 
stroke:#000000; stroke-width:984.252; stroke-opacity:1; 
stroke-linecap:round; stroke-linejoin:round;">
</g>
<g style="fill:#000000; fill-opacity:0.0; 
stroke:#000000; stroke-width:984.252; stroke-opacity:1; 
stroke-linecap:round; stroke-linejoin:round;">
<path d="M39600 16887
L39600 15500
" />
<path d="M36408 20078
L39600 16887
" />
<path d="M36318 20078
L36408 20078
" />
<path d="M23543 21181
L22440 20078
" />
<path d="M23543 27243
L23543 21181
" />
<path d="M22440 28346
L23543 27243
" />
<path d="M42199 32997
L43307 31889
" />
<path d="M42199 39049
L42199 32997
" />
<path d="M43307 40157
L42199 39049
" />
<path d="M36811 24606
L43307 18110
" />
<path d="M36811 33858
L36811 24606
" />
<path d="M21338 21338
L22440 22440
" />
<path d="M21338 15275
L21338 21338
" />
<path d="M22440 14173
L21338 15275
" />
<path d="M43307 20078
L43307 21181
" />
<path d="M44409 44960
L43307 46062
" />
<path d="M44409 38897
L44409 44960
" />
<path d="M43307 37795
L44409 38897
" />
<path d="M42202 28423
L43307 29527
" />
<path d="M42202 22285
L42202 28423
" />
<path d="M43307 21181
L42202 22285
" />
<path d="M44422 36680
L43307 37795
" />
<path d="M44422 31435
L44422 36680
" />
<path d="M43617 30630
L44422 31435
" />
<path d="M43307 30630
L43617 30630
" />
<path d="M43307 29527
L43307 30630
" />
<path d="M21338 23543
L22440 22440
" />
<path d="M21338 28813
L21338 23543
" />
<path d="M22130 29606
L21338 28813
" />
<path d="M22440 29606
L22130 29606
" />
<path d="M22440 30708
L22440 29606
" />
</g>
<g style="fill:#000000; fill-opacity:0.0; 
stroke:#000000; stroke-width:236.22; stroke-opacity:1; 
stroke-linecap:round; stroke-linejoin:round;">
<path d="M27200 40713
L27400 40913
" />
<path d="M27200 39700
L27200 40713
" />
<path d="M27400 41550
L27400 40913
" />
<path d="M27700 40213
L28400 40913
" />
<path d="M27700 39700
L27700 40213
" />
<path d="M28400 41550
L28400 40913
" />
<path d="M29161 40913
L29400 40913
" />
<path d="M28200 39952
L29161 40913
" />
<path d="M28200 39700
L28200 39952
" />
<path d="M29400 41550
L29400 40913
" />
<path d="M32348 45211
L31889 45669
" />
<path d="M33400 45211
L32348 45211
" />
<path d="M33400 14550
L33400 45211
" />
<path d="M33400 45211
L33858 45669
" />
<path d="M34155 14148
L34155 26463
" />
<path d="M33603 13596
L34155 14148
" />
<path d="M33219 13596
L33603 13596
" />
<path d="M32900 13916
L33219 13596
" />
<path d="M32900 14050
L32900 13916
" />
<path d="M31900 13905
L31900 14050
" />
<path d="M32573 13232
L31900 13905
" />
<path d="M33740 13232
L32573 13232
" />
<path d="M34510 14001
L33740 13232
" />
<path d="M34510 33329
L34510 14001
" />
<path d="M43307 42125
L34510 33329
" />
<path d="M26653 28464
L22440 32677
" />
<path d="M26653 23948
L26653 28464
" />
<path d="M31400 13918
L31400 14050
" />
<path d="M31076 13595
L31400 13918
" />
<path d="M28726 13595
L31076 13595
" />
<path d="M28433 13888
L28726 13595
" />
<path d="M28433 28652
L28433 13888
" />
<path d="M22440 34645
L28433 28652
" />
<path d="M23304 17005
L22440 16141
" />
<path d="M27112 17005
L23304 17005
" />
<path d="M28079 16037
L27112 17005
" />
<path d="M28079 15801
L28079 16037
" />
</g>
<g style="fill:#000000; fill-opacity:1.0; 
stroke:#000000; stroke-width:100; stroke-opacity:1; 
stroke-linecap:round; stroke-linejoin:round;">
<polyline style="fill-rule:evenodd;"
points="28120,13574
28023,13718
27990,13888
27990,14954
27844,14603
27399,14156
26816,13914
26186,13914
25603,14155
25156,14600
24914,15183
24914,15813
25155,16396
25319,16561
23488,16561
23250,16323
23258,16305
23258,15979
23134,15679
22904,15448
22604,15324
22279,15323
21978,15448
21748,15677
21623,15978
21623,16303
21747,16604
21977,16834
22277,16959
22602,16959
22623,16951
22990,17318
23134,17415
23304,17448
27112,17448
27281,17415
27425,17318
27990,16754
27990,28468
22623,33835
22604,33828
22279,33827
21978,33952
21748,34181
21623,34482
21623,34807
21747,35108
21977,35338
22277,35463
22602,35463
22903,35339
23133,35109
23258,34809
23258,34483
23250,34463
25525,32188
28906,32188
29135,32742
29528,33135
29458,33164
29228,33394
29103,33694
29103,34020
29227,34320
29457,34550
29757,34675
30083,34676
30383,34551
30613,34322
30738,34021
30738,33696
30615,33396
30711,33396
31265,33167
31689,32744
31919,32190
31920,31591
31691,31037
31267,30613
30714,30383
30115,30382
29561,30611
29136,31035
28906,31588
28906,32188
25525,32188
28747,28966
28843,28822
28877,28652
28877,18272
29103,18272
29227,18572
29457,18802
29757,18927
30083,18927
30383,18803
30613,18573
30738,18273
30738,17948
30614,17647
30384,17417
30084,17292
29759,17292
29458,17416
29228,17646
29103,17946
29103,18272
28877,18272
28877,15082
29005,15082
29150,15022
29293,15082
29505,15082
29650,15022
29793,15082
30005,15082
30150,15022
30293,15082
30505,15082
30650,15022
30793,15082
31005,15082
31150,15022
31293,15082
31505,15082
31650,15022
31793,15082
32005,15082
32150,15022
32293,15082
32505,15082
32650,15022
32793,15082
32956,15082
32956,44767
32348,44767
32178,44801
32083,44864
32053,44851
31727,44851
31427,44975
31196,45205
31072,45505
31071,45831
31196,46131
31425,46362
31726,46486
32051,46487
32352,46362
32582,46133
32707,45832
32707,45654
33040,45654
33040,45831
33164,46131
33394,46362
33694,46486
34020,46487
34320,46362
34551,46133
34675,45832
34675,45831
35008,45831
35133,46131
35362,46362
35663,46486
35988,46487
36289,46362
36519,46133
36644,45832
36644,45507
36520,45206
36290,44976
35990,44851
35664,44851
35364,44975
35133,45205
35009,45505
35008,45831
34675,45831
34676,45507
34551,45206
34322,44976
34021,44851
33843,44851
33843,26778
33904,26839
34066,26906
34066,33329
34100,33498
34196,33642
42497,41943
42489,41962
42489,42287
42613,42588
42843,42818
43143,42943
43469,42943
43769,42819
43999,42589
44124,42289
44124,41964
44000,41663
43770,41433
43470,41308
43145,41308
43125,41316
36368,34559
36497,34613
36498,34613
36498,34613
36647,34675
36810,34675
36811,34675
36811,34675
36972,34676
37123,34613
37123,34613
37124,34613
37273,34551
37388,34436
37389,34436
37389,34435
37503,34322
37566,34171
37566,34171
37566,34170
37628,34021
37628,33858
37628,33858
37628,33714
37628,33696
37628,33696
37628,32997
41381,32997
41381,39049
41443,39362
41621,39628
42728,40735
42843,40850
43143,40975
43469,40975
43769,40851
43999,40621
44124,40320
44124,39995
44000,39694
43770,39464
43770,39464
43017,38711
43017,38537
43194,38537
43257,38474
43257,37845
43357,37845
43357,38474
43419,38537
43848,38537
43940,38499
44011,38429
44049,38337
44049,37907
43986,37845
43357,37845
43257,37845
43249,37845
43249,37745
43257,37745
43257,37115
43357,37115
43357,37745
43986,37745
44049,37682
44049,37253
44011,37161
43940,37091
43848,37053
43419,37053
43357,37115
43257,37115
43194,37053
43017,37053
43017,36591
43143,36644
43469,36644
43769,36520
43999,36290
44124,35990
44124,35664
44000,35364
43770,35133
43470,35009
43145,35008
43017,35061
43017,34623
43143,34675
43469,34676
43769,34551
43999,34322
44124,34021
44124,33696
44000,33395
43770,33165
43470,33040
43312,33040
43885,32468
43999,32353
44124,32053
44124,31727
44000,31427
43770,31196
43470,31072
43145,31071
42844,31196
42614,31425
42614,31426
41621,32419
41443,32684
41439,32707
41381,32997
37628,32997
37628,29640
42564,29640
42564,30069
42603,30161
42673,30231
42765,30269
43194,30269
43257,30207
43257,29577
43357,29577
43357,30207
43419,30269
43848,30269
43940,30231
44011,30161
44049,30069
44049,29640
43986,29577
43357,29577
43257,29577
42627,29577
42564,29640
37628,29640
37628,28985
42564,28985
42564,29415
42627,29477
43257,29477
43257,28847
43357,28847
43357,29477
43986,29477
44049,29415
44049,28985
44011,28893
43940,28823
43848,28785
43419,28785
43357,28847
43257,28847
43194,28785
42765,28785
42673,28823
42603,28893
42564,28985
37628,28985
37628,27720
42489,27720
42613,28021
42843,28251
43143,28376
43469,28376
43769,28252
43999,28022
44124,27722
44124,27397
44000,27096
43770,26866
43470,26741
43145,26741
42844,26865
42614,27095
42489,27395
42489,27720
37628,27720
37628,25752
42489,25752
42613,26053
42843,26283
43143,26408
43469,26408
43769,26284
43999,26054
44124,25753
44124,25428
44000,25127
43770,24897
43470,24772
43145,24772
42844,24896
42614,25126
42489,25427
42489,25752
37628,25752
37628,24945
38789,23783
42489,23783
42613,24084
42843,24314
43143,24439
43469,24439
43769,24315
43999,24085
44124,23785
44124,23460
44000,23159
43770,22929
43470,22804
43145,22804
42844,22928
42614,23158
42489,23458
42489,23783
38789,23783
42382,20191
42564,20191
42564,20620
42603,20712
42673,20782
42765,20820
43194,20820
43257,20758
43257,20128
43357,20128
43357,20758
43419,20820
43848,20820
43940,20782
44011,20712
44049,20620
44049,20191
43986,20128
43357,20128
43257,20128
42627,20128
42564,20191
42382,20191
42586,19987
42627,20028
43257,20028
43257,19399
43357,19399
43357,20028
43986,20028
44049,19966
44049,19536
44011,19445
43940,19374
43848,19336
43419,19336
43357,19399
43257,19399
43215,19357
43885,18688
43999,18574
44124,18273
44124,17948
44000,17647
43770,17417
43470,17292
43145,17292
42844,17416
42614,17646
42614,17646
36232,24028
36055,24293
36026,24439
35993,24606
35993,33858
35993,33858
35993,34020
36055,34170
36055,34171
36055,34171
36109,34300
34953,33145
34953,20720
35040,20931
35464,21355
36017,21585
36617,21585
37171,21356
37595,20933
37825,20379
37825,19817
40178,17465
40210,17417
40355,17199
40417,16887
40417,16877
40496,16844
40943,16399
40982,16303
42489,16303
42613,16604
42843,16834
43143,16959
43469,16959
43769,16835
43999,16605
44124,16305
44124,15979
44000,15679
43770,15448
43470,15324
43145,15323
42844,15448
42614,15677
42489,15978
42489,16303
40982,16303
41185,15816
41185,15186
40944,14603
40677,14335
42489,14335
42613,14635
42843,14866
43143,14990
43469,14991
43769,14866
43999,14637
44124,14336
44124,14011
44000,13710
43770,13480
43470,13355
43145,13355
42844,13479
42614,13709
42489,14009
42489,14335
40677,14335
40499,14156
39916,13914
39286,13914
38703,14155
38256,14600
38014,15183
38014,15813
38255,16396
38594,16736
37501,17828
37451,17706
37335,17656
36881,18110
36887,18115
36816,18186
36811,18180
36805,18186
36734,18115
36740,18110
36286,17656
36170,17706
36065,17982
36073,18277
36170,18513
36286,18564
36278,18572
36020,18571
35466,18800
35042,19224
34953,19437
34953,17585
36356,17585
36811,18039
37265,17585
37214,17470
36938,17364
36643,17372
36407,17470
36356,17585
34953,17585
34953,14001
34920,13832
34823,13688
34483,13347
44920,13347
44920,47282
39863,47282
40196,47144
40643,46699
40860,46175
42564,46175
42564,46604
42603,46696
42673,46767
42765,46805
43194,46805
43257,46742
43257,46112
43357,46112
43357,46742
43419,46805
43848,46805
43940,46767
44011,46696
44049,46604
44049,46175
43986,46112
43357,46112
43257,46112
42627,46112
42564,46175
40860,46175
40885,46116
40885,45521
42564,45521
42564,45950
42627,46012
43257,46012
43257,45383
43357,45383
43357,46012
43986,46012
44049,45950
44049,45521
44011,45429
43940,45358
43848,45320
43419,45320
43357,45383
43257,45383
43194,45320
42765,45320
42673,45358
42603,45429
42564,45521
40885,45521
40885,45486
40644,44903
40199,44456
39716,44256
42489,44256
42613,44557
42843,44787
43143,44912
43469,44912
43769,44788
43999,44558
44124,44257
44124,43932
44000,43631
43770,43401
43470,43276
43145,43276
42844,43400
42614,43630
42489,43931
42489,44256
39716,44256
39616,44214
38986,44214
38403,44455
37956,44900
37714,45483
37714,46113
37955,46696
38400,47143
38736,47282
20827,47282
20827,45177
20829,45177
20829,46161
20852,46282
20923,46392
21032,46467
21161,46493
22145,46493
22266,46470
22377,46399
22451,46290
22477,46161
22477,45831
22804,45831
22928,46131
23158,46362
23458,46486
23783,46487
24084,46362
24314,46133
24439,45832
24439,45831
24772,45831
24896,46131
25126,46362
25427,46486
25752,46487
26053,46362
26283,46133
26408,45832
26408,45831
26741,45831
26865,46131
27095,46362
27395,46486
27720,46487
28021,46362
28251,46133
28376,45832
28376,45507
28252,45206
28223,45177
29097,45177
29097,46161
29119,46282
29191,46392
29299,46467
29429,46493
30413,46493
30534,46470
30644,46399
30719,46290
30745,46161
30745,45177
30722,45056
30651,44945
30542,44871
30413,44845
29429,44845
29308,44867
29197,44939
29123,45048
29097,45177
28223,45177
28022,44976
27722,44851
27397,44851
27096,44975
26866,45205
26741,45505
26741,45831
26408,45831
26408,45507
26284,45206
26054,44976
25753,44851
25428,44851
25127,44975
24897,45205
24772,45505
24772,45831
24439,45831
24439,45507
24315,45206
24085,44976
23785,44851
23460,44851
23159,44975
22929,45205
22804,45505
22804,45831
22477,45831
22477,45177
22454,45056
22383,44945
22274,44871
22145,44845
21161,44845
21040,44867
20929,44939
20855,45048
20829,45177
20827,45177
20827,40913
23764,40913
24005,41496
24450,41943
25033,42185
25663,42185
26246,41944
26693,41499
26728,41415
26728,41950
26750,42070
26822,42181
26930,42255
27060,42281
27740,42281
27860,42259
27971,42187
28001,42143
28145,42239
28400,42289
28654,42239
28870,42094
28900,42050
28929,42094
29145,42239
29400,42289
29654,42239
29870,42094
29900,42050
29929,42094
30145,42239
30400,42289
30654,42239
30870,42094
31014,41878
31065,41624
31065,41475
31014,41221
30870,41005
30654,40860
30400,40810
30145,40860
29929,41005
29900,41049
29870,41005
29843,40987
29843,40913
29809,40743
29713,40599
29569,40503
29400,40469
29344,40469
29066,40191
29138,40144
29212,40035
29238,39906
29238,39493
29215,39372
29209,39361
29232,39306
29232,39094
29151,38898
29001,38749
28806,38667
28594,38667
28449,38727
28306,38667
28094,38667
27949,38727
27806,38667
27594,38667
27449,38727
27306,38667
27094,38667
26898,38748
26749,38898
26667,39093
26667,39305
26727,39450
26667,39593
26667,39675
26249,39256
25666,39014
25036,39014
24453,39255
24006,39700
23764,40283
23764,40913
20827,40913
20827,36776
21623,36776
21747,37076
21977,37306
22277,37431
22602,37432
22903,37307
22985,37225
26734,37225
26734,37374
26785,37628
26929,37844
27145,37989
27400,38039
27654,37989
27870,37844
27900,37800
27929,37844
28145,37989
28400,38039
28654,37989
28870,37844
28900,37800
28929,37844
29145,37989
29400,38039
29654,37989
29797,37893
29822,37931
29930,38005
30060,38031
30740,38031
30860,38009
30971,37937
31045,37829
31071,37700
31071,36900
31049,36779
30977,36668
30869,36594
30740,36568
30060,36568
29939,36590
29828,36662
29798,36706
29654,36610
29400,36560
29145,36610
28929,36755
28900,36799
28870,36755
28654,36610
28400,36560
28145,36610
27929,36755
27900,36799
27870,36755
27654,36610
27400,36560
27145,36610
26929,36755
26785,36971
26734,37225
22985,37225
23133,37077
23258,36777
23258,36452
23134,36151
22904,35921
22604,35796
22279,35796
21978,35920
21748,36150
21623,36450
21623,36776
20827,36776
20827,32839
21623,32839
21747,33139
21977,33369
22277,33494
22602,33495
22903,33370
23133,33140
23258,32840
23258,32515
23250,32495
26967,28778
27063,28634
27097,28464
27097,23948
27097,23860
27030,23697
26905,23572
26742,23505
26565,23505
26402,23572
26277,23697
26210,23860
26209,24036
26210,24036
26210,28280
22623,31867
22604,31859
22279,31859
21978,31983
21748,32213
21623,32513
21623,32839
20827,32839
20827,30821
21698,30821
21698,31250
21736,31342
21807,31412
21899,31450
22328,31450
22390,31388
22390,30758
22490,30758
22490,31388
22553,31450
22982,31450
23074,31412
23145,31342
23183,31250
23183,30821
23120,30758
22490,30758
22390,30758
21761,30758
21698,30821
20827,30821
20827,30166
21698,30166
21698,30596
21761,30658
22390,30658
22390,30029
22490,30029
22490,30658
23120,30658
23183,30596
23183,30166
23145,30074
23074,30004
22982,29966
22553,29966
22490,30029
22390,30029
22328,29966
21899,29966
21807,30004
21736,30074
21698,30166
20827,30166
20827,22553
21698,22553
21698,22982
21736,23074
21807,23145
21899,23183
22328,23183
22390,23120
22390,22490
21761,22490
21698,22553
20827,22553
20827,21899
21698,21899
21698,22328
21761,22390
22390,22390
22390,21761
22328,21698
21899,21698
21807,21736
21736,21807
21698,21899
20827,21899
20827,20240
21623,20240
21747,20541
21977,20771
21977,20771
22725,21519
22725,21698
22553,21698
22490,21761
22490,22390
22498,22390
22498,22490
22490,22490
22490,23120
22553,23183
22725,23183
22725,23642
22604,23591
22279,23591
21978,23715
21748,23945
21623,24246
21623,24571
21747,24872
21977,25102
22277,25227
22602,25227
22725,25176
22725,25610
22604,25560
22279,25560
21978,25684
21748,25914
21623,26214
21623,26539
21747,26840
21977,27070
22277,27195
22435,27195
21862,27768
21748,27882
21623,28183
21623,28508
21747,28809
21977,29039
22277,29164
22602,29164
22903,29040
23133,28810
23133,28809
24121,27822
24298,27556
24361,27243
24361,27243
24361,21181
24361,21181
24298,20868
24121,20603
23019,19500
22904,19385
22604,19261
22279,19260
21978,19385
21748,19614
21623,19915
21623,20240
20827,20240
20827,18272
21623,18272
21747,18572
21977,18803
22277,18927
22602,18928
22903,18803
23133,18574
23258,18273
23258,17948
23134,17647
22904,17417
22604,17292
22279,17292
21978,17416
21748,17646
21623,17946
21623,18272
20827,18272
20827,14285
21698,14285
21698,14715
21736,14806
21807,14877
21899,14915
22328,14915
22390,14852
22390,14223
22490,14223
22490,14852
22553,14915
22982,14915
23074,14877
23145,14806
23183,14715
23183,14285
23120,14223
22490,14223
22390,14223
21761,14223
21698,14285
20827,14285
20827,13631
21698,13631
21698,14060
21761,14123
22390,14123
22390,13493
22490,13493
22490,14123
23120,14123
23183,14060
23183,13631
23145,13539
23074,13469
22982,13431
22553,13431
22490,13493
22390,13493
22328,13431
21899,13431
21807,13469
21736,13539
21698,13631
20827,13631
20827,13347
28347,13347
28120,13574
" /> 
</g> 
</svg>
