<?xml version="1.0" standalone="no"?>
 <!DOCTYPE svg PUBLIC "-//W3C//DTD SVG 1.1//EN" 
 "http://www.w3.org/Graphics/SVG/1.1/DTD/svg11.dtd"> 
<svg xmlns="http://www.w3.org/2000/svg" version="1.1" 
    width="29.7002cm" height="21.0007cm" viewBox="0 0 116930 82680 ">
<title>SVG Picture created as alligator-adaptor-B.SilkS.svg date 2016/08/19 13:07:45 </title>
  <desc>Picture generated by PCBNEW </desc>
<g style="fill:#000000; fill-opacity:1;stroke:#000000; stroke-opacity:1;
stroke-linecap:round; stroke-linejoin:round; "
 transform="translate(0 0) scale(1 1)">
</g>
<g style="fill:#000000; fill-opacity:0.0; 
stroke:#000000; stroke-width:-0.000393701; stroke-opacity:1; 
stroke-linecap:round; stroke-linejoin:round;">
</g>
<g style="fill:#000000; fill-opacity:0.0; 
stroke:#000000; stroke-width:59.0551; stroke-opacity:1; 
stroke-linecap:round; stroke-linejoin:round;">
<path d="M29014 38873
L29014 39188
" />
<path d="M26888 38873
L29014 38873
" />
<path d="M26888 38873
L26888 40034
" />
<path d="M26888 40034
L28188 40034
" />
<path d="M29014 39503
L29014 40034
" />
<path d="M29014 40034
L28503 40034
" />
<path d="M33714 13723
L33714 14038
" />
<path d="M28596 13723
L33695 13723
" />
<path d="M28596 13723
L28596 14884
" />
<path d="M28596 14884
L32888 14884
" />
<path d="M33714 14353
L33714 14884
" />
<path d="M33714 14884
L33203 14884
" />
<path d="M29527 39153
L29134 39153
L29134 39303
L29152 39340
L29171 39359
L29208 39378
L29265 39378
L29302 39359
L29321 39340
L29340 39303
L29340 39153
" />
<path d="M29134 39734
L29134 39547
L29321 39528
L29302 39547
L29283 39584
L29283 39678
L29302 39715
L29321 39734
L29358 39753
L29452 39753
L29490 39734
L29508 39715
L29527 39678
L29527 39584
L29508 39547
L29490 39528
" />
<path d="M34247 13855
L33853 13855
L33853 14005
L33872 14042
L33891 14061
L33928 14080
L33984 14080
L34022 14061
L34041 14042
L34059 14005
L34059 13855
" />
<path d="M34247 14455
L34247 14230
" />
<path d="M34247 14342
L33853 14342
L33909 14305
L33947 14267
L33966 14230
" />
<path d="M34247 14830
L34247 14605
" />
<path d="M34247 14717
L33853 14717
L33909 14680
L33947 14642
L33966 14605
" />
</g> 
</svg>
