<?xml version="1.0" standalone="no"?>
 <!DOCTYPE svg PUBLIC "-//W3C//DTD SVG 1.1//EN" 
 "http://www.w3.org/Graphics/SVG/1.1/DTD/svg11.dtd"> 
<svg xmlns="http://www.w3.org/2000/svg" version="1.1" 
    width="29.7002cm" height="21.0007cm" viewBox="0 0 116930 82680 ">
<title>SVG Picture created as alligator-adaptor-F.SilkS.svg date 2016/08/19 13:07:45 </title>
  <desc>Picture generated by PCBNEW </desc>
<g style="fill:#000000; fill-opacity:1;stroke:#000000; stroke-opacity:1;
stroke-linecap:round; stroke-linejoin:round; "
 transform="translate(0 0) scale(1 1)">
</g>
<g style="fill:#000000; fill-opacity:0.0; 
stroke:#000000; stroke-width:-0.000393701; stroke-opacity:1; 
stroke-linecap:round; stroke-linejoin:round;">
</g>
<g style="fill:#000000; fill-opacity:0.0; 
stroke:#000000; stroke-width:59.0551; stroke-opacity:1; 
stroke-linecap:round; stroke-linejoin:round;">
<path d="M44921 15157
L45118 15157
" />
<circle cx="43346.5" cy="14173.2" r="787.402" /> 
<circle cx="43346.5" cy="16141.7" r="787.402" /> 
<path d="M44921 17125
L45118 17125
" />
<path d="M44921 19094
L45118 19094
" />
<circle cx="43346.5" cy="18110.2" r="787.402" /> 
<circle cx="43346.5" cy="20078.7" r="787.402" /> 
<path d="M44330 21062
L44330 13188
" />
<path d="M42401 21062
L42401 13188
" />
<path d="M44921 21062
L44921 13188
" />
<path d="M45118 21062
L45118 13188
" />
<path d="M45118 13188
L41259 13188
" />
<path d="M41259 13188
L41259 21062
" />
<path d="M41259 21062
L45118 21062
" />
<path d="M27900 42050
L30900 42050
" />
<path d="M27900 41050
L30900 41050
" />
<path d="M26789 40939
L27400 40939
" />
<path d="M30900 42050
L30900 41050
" />
<path d="M27900 41050
L27900 42050
" />
<path d="M27400 42160
L26789 42160
" />
<path d="M26789 42160
L26789 40939
" />
<path d="M29900 36800
L26900 36800
" />
<path d="M29900 37800
L26900 37800
" />
<path d="M31010 37910
L30400 37910
" />
<path d="M26900 36800
L26900 37800
" />
<path d="M29900 37800
L29900 36800
" />
<path d="M30400 36689
L31010 36689
" />
<path d="M31010 36689
L31010 37910
" />
<path d="M44921 24606
L45118 24606
" />
<circle cx="43346.5" cy="23622" r="787.402" /> 
<circle cx="43346.5" cy="25590.6" r="787.402" /> 
<path d="M44921 26574
L45118 26574
" />
<path d="M44921 28543
L45118 28543
" />
<circle cx="43346.5" cy="27559.1" r="787.402" /> 
<circle cx="43346.5" cy="29527.6" r="787.402" /> 
<path d="M44330 30511
L44330 22637
" />
<path d="M42401 30511
L42401 22637
" />
<path d="M44921 30511
L44921 22637
" />
<path d="M45118 30511
L45118 22637
" />
<path d="M45118 22637
L41259 22637
" />
<path d="M41259 22637
L41259 30511
" />
<path d="M41259 30511
L45118 30511
" />
<path d="M44921 32874
L45118 32874
" />
<circle cx="43346.5" cy="31889.8" r="787.402" /> 
<circle cx="43346.5" cy="33858.3" r="787.402" /> 
<path d="M44921 34842
L45118 34842
" />
<path d="M44921 36811
L45118 36811
" />
<circle cx="43346.5" cy="35826.8" r="787.402" /> 
<circle cx="43346.5" cy="37795.3" r="787.402" /> 
<path d="M44330 38779
L44330 30905
" />
<path d="M42401 38779
L42401 30905
" />
<path d="M44921 38779
L44921 30905
" />
<path d="M45118 38779
L45118 30905
" />
<path d="M45118 30905
L41259 30905
" />
<path d="M41259 30905
L41259 38779
" />
<path d="M41259 38779
L45118 38779
" />
<path d="M44921 41141
L45118 41141
" />
<circle cx="43346.5" cy="40157.5" r="787.402" /> 
<circle cx="43346.5" cy="42126" r="787.402" /> 
<path d="M44921 43110
L45118 43110
" />
<path d="M44921 45078
L45118 45078
" />
<circle cx="43346.5" cy="44094.5" r="787.402" /> 
<circle cx="43346.5" cy="46063" r="787.402" /> 
<path d="M44330 47047
L44330 39173
" />
<path d="M42401 47047
L42401 39173
" />
<path d="M44921 47047
L44921 39173
" />
<path d="M45118 47047
L45118 39173
" />
<path d="M45118 39173
L41259 39173
" />
<path d="M41259 39173
L41259 47047
" />
<path d="M41259 47047
L45118 47047
" />
<path d="M20826 35629
L20629 35629
" />
<circle cx="22401.6" cy="36614.2" r="787.402" /> 
<circle cx="22401.6" cy="34645.7" r="787.402" /> 
<path d="M20826 33661
L20629 33661
" />
<path d="M20826 31692
L20629 31692
" />
<circle cx="22401.6" cy="32677.2" r="787.402" /> 
<circle cx="22401.6" cy="30708.7" r="787.402" /> 
<path d="M21417 29724
L21417 37598
" />
<path d="M23346 29724
L23346 37598
" />
<path d="M20826 29724
L20826 37598
" />
<path d="M20629 29724
L20629 37598
" />
<path d="M20629 37598
L24488 37598
" />
<path d="M24488 37598
L24488 29724
" />
<path d="M24488 29724
L20629 29724
" />
<path d="M20826 27362
L20629 27362
" />
<circle cx="22401.6" cy="28346.5" r="787.402" /> 
<circle cx="22401.6" cy="26378" r="787.402" /> 
<path d="M20826 25393
L20629 25393
" />
<path d="M20826 23425
L20629 23425
" />
<circle cx="22401.6" cy="24409.4" r="787.402" /> 
<circle cx="22401.6" cy="22440.9" r="787.402" /> 
<path d="M21417 21456
L21417 29330
" />
<path d="M23346 21456
L23346 29330
" />
<path d="M20826 21456
L20826 29330
" />
<path d="M20629 21456
L20629 29330
" />
<path d="M20629 29330
L24488 29330
" />
<path d="M24488 29330
L24488 21456
" />
<path d="M24488 21456
L20629 21456
" />
<path d="M20826 19094
L20629 19094
" />
<circle cx="22401.6" cy="20078.7" r="787.402" /> 
<circle cx="22401.6" cy="18110.2" r="787.402" /> 
<path d="M20826 17125
L20629 17125
" />
<path d="M20826 15157
L20629 15157
" />
<circle cx="22401.6" cy="16141.7" r="787.402" /> 
<circle cx="22401.6" cy="14173.2" r="787.402" /> 
<path d="M21417 13188
L21417 21062
" />
<path d="M23346 13188
L23346 21062
" />
<path d="M20826 13188
L20826 21062
" />
<path d="M20629 13188
L20629 21062
" />
<path d="M20629 21062
L24488 21062
" />
<path d="M24488 21062
L24488 13188
" />
<path d="M24488 13188
L20629 13188
" />
<path d="M34842 47283
L34842 47480
" />
<circle cx="35826.8" cy="45708.7" r="787.402" /> 
<circle cx="33858.3" cy="45708.7" r="787.402" /> 
<path d="M32874 47283
L32874 47480
" />
<path d="M30905 47283
L30905 47480
" />
<circle cx="31889.8" cy="45708.7" r="787.402" /> 
<circle cx="29921.3" cy="45708.7" r="787.402" /> 
<path d="M28937 46692
L36811 46692
" />
<path d="M28937 44763
L36811 44763
" />
<path d="M28937 47283
L36811 47283
" />
<path d="M28937 47480
L36811 47480
" />
<path d="M36811 47480
L36811 43622
" />
<path d="M36811 43622
L28937 43622
" />
<path d="M28937 43622
L28937 47480
" />
<path d="M26574 47283
L26574 47480
" />
<circle cx="27559.1" cy="45708.7" r="787.402" /> 
<circle cx="25590.6" cy="45708.7" r="787.402" /> 
<path d="M24606 47283
L24606 47480
" />
<path d="M22637 47283
L22637 47480
" />
<circle cx="23622" cy="45708.7" r="787.402" /> 
<circle cx="21653.5" cy="45708.7" r="787.402" /> 
<path d="M20669 46692
L28543 46692
" />
<path d="M20669 44763
L28543 44763
" />
<path d="M20669 47283
L28543 47283
" />
<path d="M20669 47480
L28543 47480
" />
<path d="M28543 47480
L28543 43622
" />
<path d="M28543 43622
L20669 43622
" />
<path d="M20669 43622
L20669 47480
" />
<path d="M45808 17416
L45414 17416
L45414 17266
L45433 17229
L45451 17210
L45489 17191
L45545 17191
L45583 17210
L45601 17229
L45620 17266
L45620 17416
" />
<path d="M45808 16816
L45808 17041
" />
<path d="M45808 16929
L45414 16929
L45470 16966
L45508 17004
L45526 17041
" />
<path d="M25570 41840
L25176 41840
L25176 41690
L25195 41653
L25214 41634
L25251 41615
L25307 41615
L25345 41634
L25364 41653
L25382 41690
L25382 41840
" />
<path d="M25214 41465
L25195 41446
L25176 41409
L25176 41315
L25195 41278
L25214 41259
L25251 41240
L25289 41240
L25345 41259
L25570 41484
L25570 41240
" />
<path d="M32585 37590
L32192 37590
L32192 37440
L32211 37403
L32229 37384
L32267 37365
L32323 37365
L32361 37384
L32379 37403
L32398 37440
L32398 37590
" />
<path d="M32361 37140
L32342 37178
L32323 37196
L32286 37215
L32267 37215
L32229 37196
L32211 37178
L32192 37140
L32192 37065
L32211 37028
L32229 37009
L32267 36990
L32286 36990
L32323 37009
L32342 37028
L32361 37065
L32361 37140
L32379 37178
L32398 37196
L32435 37215
L32510 37215
L32548 37196
L32567 37178
L32585 37140
L32585 37065
L32567 37028
L32548 37009
L32510 36990
L32435 36990
L32398 37009
L32379 37028
L32361 37065
" />
<path d="M36520 16788
L36520 16394
L36670 16394
L36707 16413
L36726 16432
L36745 16469
L36745 16525
L36726 16563
L36707 16582
L36670 16600
L36520 16600
" />
<path d="M36932 16788
L37007 16788
L37045 16769
L37064 16750
L37101 16694
L37120 16619
L37120 16469
L37101 16432
L37082 16413
L37045 16394
L36970 16394
L36932 16413
L36914 16432
L36895 16469
L36895 16563
L36914 16600
L36932 16619
L36970 16638
L37045 16638
L37082 16619
L37101 16600
L37120 16563
" />
<path d="M29443 16788
L29443 16394
L29593 16394
L29630 16413
L29649 16432
L29668 16469
L29668 16525
L29649 16563
L29630 16582
L29593 16600
L29443 16600
" />
<path d="M30043 16788
L29818 16788
" />
<path d="M29930 16788
L29930 16394
L29893 16450
L29855 16488
L29818 16507
" />
<path d="M30286 16394
L30324 16394
L30361 16413
L30380 16432
L30399 16469
L30418 16544
L30418 16638
L30399 16713
L30380 16750
L30361 16769
L30324 16788
L30286 16788
L30249 16769
L30230 16750
L30211 16713
L30193 16638
L30193 16544
L30211 16469
L30230 16432
L30249 16413
L30286 16394
" />
<path d="M36332 32536
L36332 32142
L36482 32142
L36520 32161
L36539 32180
L36557 32217
L36557 32273
L36539 32311
L36520 32330
L36482 32348
L36332 32348
" />
<path d="M36932 32536
L36707 32536
" />
<path d="M36820 32536
L36820 32142
L36782 32198
L36745 32236
L36707 32255
" />
<path d="M37082 32180
L37101 32161
L37139 32142
L37232 32142
L37270 32161
L37289 32180
L37307 32217
L37307 32255
L37289 32311
L37064 32536
L37307 32536
" />
<path d="M29443 32536
L29443 32142
L29593 32142
L29630 32161
L29649 32180
L29668 32217
L29668 32273
L29649 32311
L29630 32330
L29593 32348
L29443 32348
" />
<path d="M30043 32536
L29818 32536
" />
<path d="M29930 32536
L29930 32142
L29893 32198
L29855 32236
L29818 32255
" />
<path d="M30174 32142
L30418 32142
L30286 32292
L30343 32292
L30380 32311
L30399 32330
L30418 32367
L30418 32461
L30399 32498
L30380 32517
L30343 32536
L30230 32536
L30193 32517
L30174 32498
" />
<path d="M45808 27052
L45414 27052
L45414 26902
L45433 26865
L45451 26846
L45489 26827
L45545 26827
L45583 26846
L45601 26865
L45620 26902
L45620 27052
" />
<path d="M45808 26452
L45808 26677
" />
<path d="M45808 26565
L45414 26565
L45470 26602
L45508 26640
L45526 26677
" />
<path d="M45545 26115
L45808 26115
" />
<path d="M45395 26209
L45676 26302
L45676 26059
" />
<path d="M45808 35320
L45414 35320
L45414 35170
L45433 35133
L45451 35114
L45489 35095
L45545 35095
L45583 35114
L45601 35133
L45620 35170
L45620 35320
" />
<path d="M45808 34720
L45808 34945
" />
<path d="M45808 34833
L45414 34833
L45470 34870
L45508 34908
L45526 34945
" />
<path d="M45414 34364
L45414 34551
L45601 34570
L45583 34551
L45564 34514
L45564 34420
L45583 34383
L45601 34364
L45639 34345
L45733 34345
L45770 34364
L45789 34383
L45808 34420
L45808 34514
L45789 34551
L45770 34570
" />
<path d="M45808 43588
L45414 43588
L45414 43438
L45433 43400
L45451 43382
L45489 43363
L45545 43363
L45583 43382
L45601 43400
L45620 43438
L45620 43588
" />
<path d="M45808 42988
L45808 43213
" />
<path d="M45808 43100
L45414 43100
L45470 43138
L45508 43175
L45526 43213
" />
<path d="M45414 42650
L45414 42725
L45433 42763
L45451 42782
L45508 42819
L45583 42838
L45733 42838
L45770 42819
L45789 42800
L45808 42763
L45808 42688
L45789 42650
L45770 42632
L45733 42613
L45639 42613
L45601 42632
L45583 42650
L45564 42688
L45564 42763
L45583 42800
L45601 42819
L45639 42838
" />
<path d="M20296 34139
L19902 34139
L19902 33989
L19921 33952
L19940 33933
L19977 33914
L20033 33914
L20071 33933
L20089 33952
L20108 33989
L20108 34139
" />
<path d="M20296 33539
L20296 33764
" />
<path d="M20296 33652
L19902 33652
L19958 33689
L19996 33727
L20014 33764
" />
<path d="M19902 33408
L19902 33145
L20296 33314
" />
<path d="M20296 25871
L19902 25871
L19902 25721
L19921 25684
L19940 25665
L19977 25646
L20033 25646
L20071 25665
L20089 25684
L20108 25721
L20108 25871
" />
<path d="M20296 25271
L20296 25496
" />
<path d="M20296 25384
L19902 25384
L19958 25421
L19996 25459
L20014 25496
" />
<path d="M20071 25046
L20052 25084
L20033 25103
L19996 25121
L19977 25121
L19940 25103
L19921 25084
L19902 25046
L19902 24971
L19921 24934
L19940 24915
L19977 24896
L19996 24896
L20033 24915
L20052 24934
L20071 24971
L20071 25046
L20089 25084
L20108 25103
L20146 25121
L20221 25121
L20258 25103
L20277 25084
L20296 25046
L20296 24971
L20277 24934
L20258 24915
L20221 24896
L20146 24896
L20108 24915
L20089 24934
L20071 24971
" />
<path d="M20296 17604
L19902 17604
L19902 17454
L19921 17416
L19940 17397
L19977 17379
L20033 17379
L20071 17397
L20089 17416
L20108 17454
L20108 17604
" />
<path d="M20296 17004
L20296 17229
" />
<path d="M20296 17116
L19902 17116
L19958 17154
L19996 17191
L20014 17229
" />
<path d="M20296 16816
L20296 16741
L20277 16704
L20258 16685
L20202 16647
L20127 16629
L19977 16629
L19940 16647
L19921 16666
L19902 16704
L19902 16779
L19921 16816
L19940 16835
L19977 16854
L20071 16854
L20108 16835
L20127 16816
L20146 16779
L20146 16704
L20127 16666
L20108 16647
L20071 16629
" />
<path d="M32395 48170
L32395 47776
L32545 47776
L32583 47795
L32602 47814
L32620 47851
L32620 47907
L32602 47945
L32583 47964
L32545 47982
L32395 47982
" />
<path d="M32770 47814
L32789 47795
L32827 47776
L32920 47776
L32958 47795
L32977 47814
L32995 47851
L32995 47889
L32977 47945
L32752 48170
L32995 48170
" />
<path d="M33239 47776
L33277 47776
L33314 47795
L33333 47814
L33352 47851
L33370 47926
L33370 48020
L33352 48095
L33333 48132
L33314 48151
L33277 48170
L33239 48170
L33202 48151
L33183 48132
L33164 48095
L33145 48020
L33145 47926
L33164 47851
L33183 47814
L33202 47795
L33239 47776
" />
<path d="M24128 48170
L24128 47776
L24278 47776
L24315 47795
L24334 47814
L24353 47851
L24353 47907
L24334 47945
L24315 47964
L24278 47982
L24128 47982
" />
<path d="M24503 47814
L24521 47795
L24559 47776
L24653 47776
L24690 47795
L24709 47814
L24728 47851
L24728 47889
L24709 47945
L24484 48170
L24728 48170
" />
<path d="M25103 48170
L24878 48170
" />
<path d="M24990 48170
L24990 47776
L24953 47832
L24915 47870
L24878 47889
" />
<path d="M25059 39124
L25059 38730
L25209 38730
L25246 38749
L25265 38768
L25284 38805
L25284 38862
L25265 38899
L25246 38918
L25209 38937
L25059 38937
" />
<path d="M25415 38730
L25659 38730
L25528 38880
L25584 38880
L25621 38899
L25640 38918
L25659 38955
L25659 39049
L25640 39087
L25621 39105
L25584 39124
L25471 39124
L25434 39105
L25415 39087
" />
<path d="M26209 14024
L26209 13630
L26359 13630
L26396 13649
L26415 13668
L26434 13705
L26434 13762
L26415 13799
L26396 13818
L26359 13837
L26209 13837
" />
<path d="M26771 13630
L26696 13630
L26659 13649
L26640 13668
L26603 13724
L26584 13799
L26584 13949
L26603 13987
L26621 14005
L26659 14024
L26734 14024
L26771 14005
L26790 13987
L26809 13949
L26809 13855
L26790 13818
L26771 13799
L26734 13780
L26659 13780
L26621 13799
L26603 13818
L26584 13855
" />
<path d="M39309 14024
L39309 13630
L39459 13630
L39496 13649
L39515 13668
L39534 13705
L39534 13762
L39515 13799
L39496 13818
L39459 13837
L39309 13837
" />
<path d="M39665 13630
L39928 13630
L39759 14024
" />
<path d="M35840 18682
L35840 18288
L35990 18288
L36028 18307
L36047 18325
L36065 18363
L36065 18419
L36047 18457
L36028 18475
L35990 18494
L35840 18494
" />
<path d="M36215 18325
L36234 18307
L36272 18288
L36365 18288
L36403 18307
L36422 18325
L36440 18363
L36440 18400
L36422 18457
L36197 18682
L36440 18682
" />
<path d="M36590 18325
L36609 18307
L36646 18288
L36740 18288
L36778 18307
L36796 18325
L36815 18363
L36815 18400
L36796 18457
L36571 18682
L36815 18682
" />
<path d="M29935 30493
L29935 30099
L30085 30099
L30122 30118
L30141 30136
L30160 30174
L30160 30230
L30141 30268
L30122 30286
L30085 30305
L29935 30305
" />
<path d="M30310 30136
L30329 30118
L30366 30099
L30460 30099
L30497 30118
L30516 30136
L30535 30174
L30535 30211
L30516 30268
L30291 30493
L30535 30493
" />
<path d="M30666 30099
L30910 30099
L30778 30249
L30835 30249
L30872 30268
L30891 30286
L30910 30324
L30910 30418
L30891 30455
L30872 30474
L30835 30493
L30722 30493
L30685 30474
L30666 30455
" />
<path d="M39009 44324
L39009 43930
L39159 43930
L39196 43949
L39215 43968
L39234 44005
L39234 44062
L39215 44099
L39196 44118
L39159 44137
L39009 44137
" />
<path d="M39571 44062
L39571 44324
" />
<path d="M39478 43912
L39384 44193
L39628 44193
" />
</g> 
</svg>
