<?xml version="1.0" standalone="no"?>
 <!DOCTYPE svg PUBLIC "-//W3C//DTD SVG 1.1//EN" 
 "http://www.w3.org/Graphics/SVG/1.1/DTD/svg11.dtd"> 
<svg xmlns="http://www.w3.org/2000/svg" version="1.1" 
    width="29.7002cm" height="21.0007cm" viewBox="0 0 116930 82680 ">
<title>SVG Picture created as alligator-adaptor-F.Cu.svg date 2016/08/18 14:21:08 </title>
  <desc>Picture generated by PCBNEW </desc>
<g style="fill:#000000; fill-opacity:1;stroke:#000000; stroke-opacity:1;
stroke-linecap:round; stroke-linejoin:round; "
 transform="translate(0 0) scale(1 1)">
</g>
<g style="fill:#000000; fill-opacity:0.0; 
stroke:#000000; stroke-width:-0.000393701; stroke-opacity:1; 
stroke-linecap:round; stroke-linejoin:round;">
</g>
<g style="fill:#000000; fill-opacity:1.0; 
stroke:#000000; stroke-width:0; stroke-opacity:1; 
stroke-linecap:round; stroke-linejoin:round;">
<circle cx="43450" cy="10194.5" r="492.126" /> 
</g>
<g style="fill:#000000; fill-opacity:1.0; 
stroke:#000000; stroke-width:39.3701; stroke-opacity:1; 
stroke-linecap:round; stroke-linejoin:round;">
</g>
<g style="fill:#000000; fill-opacity:1.0; 
stroke:#000000; stroke-width:0; stroke-opacity:1; 
stroke-linecap:round; stroke-linejoin:round;">
<circle cx="43450" cy="12163" r="492.126" /> 
</g>
<g style="fill:#000000; fill-opacity:1.0; 
stroke:#000000; stroke-width:39.3701; stroke-opacity:1; 
stroke-linecap:round; stroke-linejoin:round;">
</g>
<g style="fill:#000000; fill-opacity:1.0; 
stroke:#000000; stroke-width:0; stroke-opacity:1; 
stroke-linecap:round; stroke-linejoin:round;">
<polyline style="fill-rule:evenodd;"
points="43942,16592
42957,16592
42957,15607
43942,15607
43942,16592
" /> 
<circle cx="43450" cy="14131.5" r="492.126" /> 
</g>
<g style="fill:#000000; fill-opacity:1.0; 
stroke:#000000; stroke-width:39.3701; stroke-opacity:1; 
stroke-linecap:round; stroke-linejoin:round;">
</g>
<g style="fill:#000000; fill-opacity:1.0; 
stroke:#000000; stroke-width:0; stroke-opacity:1; 
stroke-linecap:round; stroke-linejoin:round;">
<polyline style="fill-rule:evenodd;"
points="27740,41950
27060,41950
27060,41150
27740,41150
27740,41950
" /> 
</g>
<g style="fill:#000000; fill-opacity:1.0; 
stroke:#000000; stroke-width:680; stroke-opacity:1; 
stroke-linecap:round; stroke-linejoin:round;">
</g>
<g style="fill:#000000; fill-opacity:0.0; 
stroke:#000000; stroke-width:680; stroke-opacity:1; 
stroke-linecap:round; stroke-linejoin:round;">
<path d="M28400 41610
L28400 41490
" />
<path d="M29400 41610
L29400 41490
" />
<path d="M30400 41610
L30400 41490
" />
</g>
<g style="fill:#000000; fill-opacity:0.0; 
stroke:#000000; stroke-width:0; stroke-opacity:1; 
stroke-linecap:round; stroke-linejoin:round;">
</g>
<g style="fill:#000000; fill-opacity:1.0; 
stroke:#000000; stroke-width:0; stroke-opacity:1; 
stroke-linecap:round; stroke-linejoin:round;">
<polyline style="fill-rule:evenodd;"
points="28906,39756
28493,39756
28493,39343
28906,39343
28906,39756
" /> 
<circle cx="28200" cy="39550" r="206.693" /> 
</g>
<g style="fill:#000000; fill-opacity:1.0; 
stroke:#000000; stroke-width:39.3701; stroke-opacity:1; 
stroke-linecap:round; stroke-linejoin:round;">
</g>
<g style="fill:#000000; fill-opacity:1.0; 
stroke:#000000; stroke-width:0; stroke-opacity:1; 
stroke-linecap:round; stroke-linejoin:round;">
<circle cx="27700" cy="39550" r="206.693" /> 
</g>
<g style="fill:#000000; fill-opacity:1.0; 
stroke:#000000; stroke-width:39.3701; stroke-opacity:1; 
stroke-linecap:round; stroke-linejoin:round;">
</g>
<g style="fill:#000000; fill-opacity:1.0; 
stroke:#000000; stroke-width:0; stroke-opacity:1; 
stroke-linecap:round; stroke-linejoin:round;">
<circle cx="27200" cy="39550" r="206.693" /> 
</g>
<g style="fill:#000000; fill-opacity:1.0; 
stroke:#000000; stroke-width:39.3701; stroke-opacity:1; 
stroke-linecap:round; stroke-linejoin:round;">
</g>
<g style="fill:#000000; fill-opacity:1.0; 
stroke:#000000; stroke-width:0; stroke-opacity:1; 
stroke-linecap:round; stroke-linejoin:round;">
<circle cx="28200" cy="39050" r="206.693" /> 
</g>
<g style="fill:#000000; fill-opacity:1.0; 
stroke:#000000; stroke-width:39.3701; stroke-opacity:1; 
stroke-linecap:round; stroke-linejoin:round;">
</g>
<g style="fill:#000000; fill-opacity:1.0; 
stroke:#000000; stroke-width:0; stroke-opacity:1; 
stroke-linecap:round; stroke-linejoin:round;">
<circle cx="27700" cy="39050" r="206.693" /> 
</g>
<g style="fill:#000000; fill-opacity:1.0; 
stroke:#000000; stroke-width:39.3701; stroke-opacity:1; 
stroke-linecap:round; stroke-linejoin:round;">
</g>
<g style="fill:#000000; fill-opacity:1.0; 
stroke:#000000; stroke-width:0; stroke-opacity:1; 
stroke-linecap:round; stroke-linejoin:round;">
<circle cx="27200" cy="39050" r="206.693" /> 
</g>
<g style="fill:#000000; fill-opacity:1.0; 
stroke:#000000; stroke-width:39.3701; stroke-opacity:1; 
stroke-linecap:round; stroke-linejoin:round;">
</g>
<g style="fill:#000000; fill-opacity:1.0; 
stroke:#000000; stroke-width:0; stroke-opacity:1; 
stroke-linecap:round; stroke-linejoin:round;">
<circle cx="28700" cy="39050" r="206.693" /> 
</g>
<g style="fill:#000000; fill-opacity:1.0; 
stroke:#000000; stroke-width:39.3701; stroke-opacity:1; 
stroke-linecap:round; stroke-linejoin:round;">
</g>
<g style="fill:#000000; fill-opacity:1.0; 
stroke:#000000; stroke-width:0; stroke-opacity:1; 
stroke-linecap:round; stroke-linejoin:round;">
<polyline style="fill-rule:evenodd;"
points="30060,36900
30740,36900
30740,37700
30060,37700
30060,36900
" /> 
</g>
<g style="fill:#000000; fill-opacity:1.0; 
stroke:#000000; stroke-width:680; stroke-opacity:1; 
stroke-linecap:round; stroke-linejoin:round;">
</g>
<g style="fill:#000000; fill-opacity:0.0; 
stroke:#000000; stroke-width:680; stroke-opacity:1; 
stroke-linecap:round; stroke-linejoin:round;">
<path d="M29400 37240
L29400 37360
" />
<path d="M28400 37240
L28400 37360
" />
<path d="M27400 37240
L27400 37360
" />
</g>
<g style="fill:#000000; fill-opacity:1.0; 
stroke:#000000; stroke-width:0; stroke-opacity:1; 
stroke-linecap:round; stroke-linejoin:round;">
<circle cx="36811" cy="18110.2" r="492" /> 
</g>
<g style="fill:#000000; fill-opacity:1.0; 
stroke:#000000; stroke-width:39.3701; stroke-opacity:1; 
stroke-linecap:round; stroke-linejoin:round;">
</g>
<g style="fill:#000000; fill-opacity:1.0; 
stroke:#000000; stroke-width:0; stroke-opacity:1; 
stroke-linecap:round; stroke-linejoin:round;">
<circle cx="29921.3" cy="18110.2" r="492" /> 
</g>
<g style="fill:#000000; fill-opacity:1.0; 
stroke:#000000; stroke-width:39.3701; stroke-opacity:1; 
stroke-linecap:round; stroke-linejoin:round;">
</g>
<g style="fill:#000000; fill-opacity:1.0; 
stroke:#000000; stroke-width:0; stroke-opacity:1; 
stroke-linecap:round; stroke-linejoin:round;">
<circle cx="36811" cy="33858.3" r="492" /> 
</g>
<g style="fill:#000000; fill-opacity:1.0; 
stroke:#000000; stroke-width:39.3701; stroke-opacity:1; 
stroke-linecap:round; stroke-linejoin:round;">
</g>
<g style="fill:#000000; fill-opacity:1.0; 
stroke:#000000; stroke-width:0; stroke-opacity:1; 
stroke-linecap:round; stroke-linejoin:round;">
<circle cx="29921.3" cy="33858.3" r="492" /> 
</g>
<g style="fill:#000000; fill-opacity:1.0; 
stroke:#000000; stroke-width:39.3701; stroke-opacity:1; 
stroke-linecap:round; stroke-linejoin:round;">
</g>
<g style="fill:#000000; fill-opacity:1.0; 
stroke:#000000; stroke-width:0; stroke-opacity:1; 
stroke-linecap:round; stroke-linejoin:round;">
<circle cx="43450" cy="18694.5" r="492.126" /> 
</g>
<g style="fill:#000000; fill-opacity:1.0; 
stroke:#000000; stroke-width:39.3701; stroke-opacity:1; 
stroke-linecap:round; stroke-linejoin:round;">
</g>
<g style="fill:#000000; fill-opacity:1.0; 
stroke:#000000; stroke-width:0; stroke-opacity:1; 
stroke-linecap:round; stroke-linejoin:round;">
<circle cx="43450" cy="20663" r="492.126" /> 
</g>
<g style="fill:#000000; fill-opacity:1.0; 
stroke:#000000; stroke-width:39.3701; stroke-opacity:1; 
stroke-linecap:round; stroke-linejoin:round;">
</g>
<g style="fill:#000000; fill-opacity:1.0; 
stroke:#000000; stroke-width:0; stroke-opacity:1; 
stroke-linecap:round; stroke-linejoin:round;">
<polyline style="fill-rule:evenodd;"
points="43942,25092
42957,25092
42957,24107
43942,24107
43942,25092
" /> 
<circle cx="43450" cy="22631.5" r="492.126" /> 
</g>
<g style="fill:#000000; fill-opacity:1.0; 
stroke:#000000; stroke-width:39.3701; stroke-opacity:1; 
stroke-linecap:round; stroke-linejoin:round;">
</g>
<g style="fill:#000000; fill-opacity:1.0; 
stroke:#000000; stroke-width:0; stroke-opacity:1; 
stroke-linecap:round; stroke-linejoin:round;">
<circle cx="43450" cy="27194.5" r="492.126" /> 
</g>
<g style="fill:#000000; fill-opacity:1.0; 
stroke:#000000; stroke-width:39.3701; stroke-opacity:1; 
stroke-linecap:round; stroke-linejoin:round;">
</g>
<g style="fill:#000000; fill-opacity:1.0; 
stroke:#000000; stroke-width:0; stroke-opacity:1; 
stroke-linecap:round; stroke-linejoin:round;">
<circle cx="43450" cy="29163" r="492.126" /> 
</g>
<g style="fill:#000000; fill-opacity:1.0; 
stroke:#000000; stroke-width:39.3701; stroke-opacity:1; 
stroke-linecap:round; stroke-linejoin:round;">
</g>
<g style="fill:#000000; fill-opacity:1.0; 
stroke:#000000; stroke-width:0; stroke-opacity:1; 
stroke-linecap:round; stroke-linejoin:round;">
<polyline style="fill-rule:evenodd;"
points="43942,33592
42957,33592
42957,32607
43942,32607
43942,33592
" /> 
<circle cx="43450" cy="31131.5" r="492.126" /> 
</g>
<g style="fill:#000000; fill-opacity:1.0; 
stroke:#000000; stroke-width:39.3701; stroke-opacity:1; 
stroke-linecap:round; stroke-linejoin:round;">
</g>
<g style="fill:#000000; fill-opacity:1.0; 
stroke:#000000; stroke-width:0; stroke-opacity:1; 
stroke-linecap:round; stroke-linejoin:round;">
<circle cx="43450" cy="35694.5" r="492.126" /> 
</g>
<g style="fill:#000000; fill-opacity:1.0; 
stroke:#000000; stroke-width:39.3701; stroke-opacity:1; 
stroke-linecap:round; stroke-linejoin:round;">
</g>
<g style="fill:#000000; fill-opacity:1.0; 
stroke:#000000; stroke-width:0; stroke-opacity:1; 
stroke-linecap:round; stroke-linejoin:round;">
<circle cx="43450" cy="37663" r="492.126" /> 
</g>
<g style="fill:#000000; fill-opacity:1.0; 
stroke:#000000; stroke-width:39.3701; stroke-opacity:1; 
stroke-linecap:round; stroke-linejoin:round;">
</g>
<g style="fill:#000000; fill-opacity:1.0; 
stroke:#000000; stroke-width:0; stroke-opacity:1; 
stroke-linecap:round; stroke-linejoin:round;">
<polyline style="fill-rule:evenodd;"
points="43942,42092
42957,42092
42957,41107
43942,41107
43942,42092
" /> 
<circle cx="43450" cy="39631.5" r="492.126" /> 
</g>
<g style="fill:#000000; fill-opacity:1.0; 
stroke:#000000; stroke-width:39.3701; stroke-opacity:1; 
stroke-linecap:round; stroke-linejoin:round;">
</g>
<g style="fill:#000000; fill-opacity:1.0; 
stroke:#000000; stroke-width:0; stroke-opacity:1; 
stroke-linecap:round; stroke-linejoin:round;">
<circle cx="43450" cy="44294.5" r="492.126" /> 
</g>
<g style="fill:#000000; fill-opacity:1.0; 
stroke:#000000; stroke-width:39.3701; stroke-opacity:1; 
stroke-linecap:round; stroke-linejoin:round;">
</g>
<g style="fill:#000000; fill-opacity:1.0; 
stroke:#000000; stroke-width:0; stroke-opacity:1; 
stroke-linecap:round; stroke-linejoin:round;">
<circle cx="43450" cy="46263" r="492.126" /> 
</g>
<g style="fill:#000000; fill-opacity:1.0; 
stroke:#000000; stroke-width:39.3701; stroke-opacity:1; 
stroke-linecap:round; stroke-linejoin:round;">
</g>
<g style="fill:#000000; fill-opacity:1.0; 
stroke:#000000; stroke-width:0; stroke-opacity:1; 
stroke-linecap:round; stroke-linejoin:round;">
<polyline style="fill-rule:evenodd;"
points="43942,50692
42957,50692
42957,49707
43942,49707
43942,50692
" /> 
<circle cx="43450" cy="48231.5" r="492.126" /> 
</g>
<g style="fill:#000000; fill-opacity:1.0; 
stroke:#000000; stroke-width:39.3701; stroke-opacity:1; 
stroke-linecap:round; stroke-linejoin:round;">
</g>
<g style="fill:#000000; fill-opacity:1.0; 
stroke:#000000; stroke-width:0; stroke-opacity:1; 
stroke-linecap:round; stroke-linejoin:round;">
<circle cx="21800" cy="42705.5" r="492.126" /> 
</g>
<g style="fill:#000000; fill-opacity:1.0; 
stroke:#000000; stroke-width:39.3701; stroke-opacity:1; 
stroke-linecap:round; stroke-linejoin:round;">
</g>
<g style="fill:#000000; fill-opacity:1.0; 
stroke:#000000; stroke-width:0; stroke-opacity:1; 
stroke-linecap:round; stroke-linejoin:round;">
<circle cx="21800" cy="40737" r="492.126" /> 
</g>
<g style="fill:#000000; fill-opacity:1.0; 
stroke:#000000; stroke-width:39.3701; stroke-opacity:1; 
stroke-linecap:round; stroke-linejoin:round;">
</g>
<g style="fill:#000000; fill-opacity:1.0; 
stroke:#000000; stroke-width:0; stroke-opacity:1; 
stroke-linecap:round; stroke-linejoin:round;">
<polyline style="fill-rule:evenodd;"
points="21307,36307
22292,36307
22292,37292
21307,37292
21307,36307
" /> 
<circle cx="21800" cy="38768.5" r="492.126" /> 
</g>
<g style="fill:#000000; fill-opacity:1.0; 
stroke:#000000; stroke-width:39.3701; stroke-opacity:1; 
stroke-linecap:round; stroke-linejoin:round;">
</g>
<g style="fill:#000000; fill-opacity:1.0; 
stroke:#000000; stroke-width:0; stroke-opacity:1; 
stroke-linecap:round; stroke-linejoin:round;">
<circle cx="21800" cy="33905.5" r="492.126" /> 
</g>
<g style="fill:#000000; fill-opacity:1.0; 
stroke:#000000; stroke-width:39.3701; stroke-opacity:1; 
stroke-linecap:round; stroke-linejoin:round;">
</g>
<g style="fill:#000000; fill-opacity:1.0; 
stroke:#000000; stroke-width:0; stroke-opacity:1; 
stroke-linecap:round; stroke-linejoin:round;">
<circle cx="21800" cy="31937" r="492.126" /> 
</g>
<g style="fill:#000000; fill-opacity:1.0; 
stroke:#000000; stroke-width:39.3701; stroke-opacity:1; 
stroke-linecap:round; stroke-linejoin:round;">
</g>
<g style="fill:#000000; fill-opacity:1.0; 
stroke:#000000; stroke-width:0; stroke-opacity:1; 
stroke-linecap:round; stroke-linejoin:round;">
<polyline style="fill-rule:evenodd;"
points="21307,27507
22292,27507
22292,28492
21307,28492
21307,27507
" /> 
<circle cx="21800" cy="29968.5" r="492.126" /> 
</g>
<g style="fill:#000000; fill-opacity:1.0; 
stroke:#000000; stroke-width:39.3701; stroke-opacity:1; 
stroke-linecap:round; stroke-linejoin:round;">
</g>
<g style="fill:#000000; fill-opacity:1.0; 
stroke:#000000; stroke-width:0; stroke-opacity:1; 
stroke-linecap:round; stroke-linejoin:round;">
<circle cx="21800" cy="25005.5" r="492.126" /> 
</g>
<g style="fill:#000000; fill-opacity:1.0; 
stroke:#000000; stroke-width:39.3701; stroke-opacity:1; 
stroke-linecap:round; stroke-linejoin:round;">
</g>
<g style="fill:#000000; fill-opacity:1.0; 
stroke:#000000; stroke-width:0; stroke-opacity:1; 
stroke-linecap:round; stroke-linejoin:round;">
<circle cx="21800" cy="23037" r="492.126" /> 
</g>
<g style="fill:#000000; fill-opacity:1.0; 
stroke:#000000; stroke-width:39.3701; stroke-opacity:1; 
stroke-linecap:round; stroke-linejoin:round;">
</g>
<g style="fill:#000000; fill-opacity:1.0; 
stroke:#000000; stroke-width:0; stroke-opacity:1; 
stroke-linecap:round; stroke-linejoin:round;">
<polyline style="fill-rule:evenodd;"
points="21307,18607
22292,18607
22292,19592
21307,19592
21307,18607
" /> 
<circle cx="21800" cy="21068.5" r="492.126" /> 
</g>
<g style="fill:#000000; fill-opacity:1.0; 
stroke:#000000; stroke-width:39.3701; stroke-opacity:1; 
stroke-linecap:round; stroke-linejoin:round;">
</g>
<g style="fill:#000000; fill-opacity:1.0; 
stroke:#000000; stroke-width:0; stroke-opacity:1; 
stroke-linecap:round; stroke-linejoin:round;">
<circle cx="21800" cy="16005.5" r="492.126" /> 
</g>
<g style="fill:#000000; fill-opacity:1.0; 
stroke:#000000; stroke-width:39.3701; stroke-opacity:1; 
stroke-linecap:round; stroke-linejoin:round;">
</g>
<g style="fill:#000000; fill-opacity:1.0; 
stroke:#000000; stroke-width:0; stroke-opacity:1; 
stroke-linecap:round; stroke-linejoin:round;">
<circle cx="21800" cy="14037" r="492.126" /> 
</g>
<g style="fill:#000000; fill-opacity:1.0; 
stroke:#000000; stroke-width:39.3701; stroke-opacity:1; 
stroke-linecap:round; stroke-linejoin:round;">
</g>
<g style="fill:#000000; fill-opacity:1.0; 
stroke:#000000; stroke-width:0; stroke-opacity:1; 
stroke-linecap:round; stroke-linejoin:round;">
<polyline style="fill-rule:evenodd;"
points="21307,9607
22292,9607
22292,10592
21307,10592
21307,9607
" /> 
<circle cx="21800" cy="12068.5" r="492.126" /> 
</g>
<g style="fill:#000000; fill-opacity:1.0; 
stroke:#000000; stroke-width:39.3701; stroke-opacity:1; 
stroke-linecap:round; stroke-linejoin:round;">
</g>
<g style="fill:#000000; fill-opacity:1.0; 
stroke:#000000; stroke-width:0; stroke-opacity:1; 
stroke-linecap:round; stroke-linejoin:round;">
<circle cx="29400" cy="14200" r="206.693" /> 
</g>
<g style="fill:#000000; fill-opacity:1.0; 
stroke:#000000; stroke-width:39.3701; stroke-opacity:1; 
stroke-linecap:round; stroke-linejoin:round;">
</g>
<g style="fill:#000000; fill-opacity:1.0; 
stroke:#000000; stroke-width:0; stroke-opacity:1; 
stroke-linecap:round; stroke-linejoin:round;">
<circle cx="29400" cy="13700" r="206.693" /> 
</g>
<g style="fill:#000000; fill-opacity:1.0; 
stroke:#000000; stroke-width:39.3701; stroke-opacity:1; 
stroke-linecap:round; stroke-linejoin:round;">
</g>
<g style="fill:#000000; fill-opacity:1.0; 
stroke:#000000; stroke-width:0; stroke-opacity:1; 
stroke-linecap:round; stroke-linejoin:round;">
<circle cx="29900" cy="14200" r="206.693" /> 
</g>
<g style="fill:#000000; fill-opacity:1.0; 
stroke:#000000; stroke-width:39.3701; stroke-opacity:1; 
stroke-linecap:round; stroke-linejoin:round;">
</g>
<g style="fill:#000000; fill-opacity:1.0; 
stroke:#000000; stroke-width:0; stroke-opacity:1; 
stroke-linecap:round; stroke-linejoin:round;">
<circle cx="29900" cy="13700" r="206.693" /> 
</g>
<g style="fill:#000000; fill-opacity:1.0; 
stroke:#000000; stroke-width:39.3701; stroke-opacity:1; 
stroke-linecap:round; stroke-linejoin:round;">
</g>
<g style="fill:#000000; fill-opacity:1.0; 
stroke:#000000; stroke-width:0; stroke-opacity:1; 
stroke-linecap:round; stroke-linejoin:round;">
<circle cx="30400" cy="14200" r="206.693" /> 
</g>
<g style="fill:#000000; fill-opacity:1.0; 
stroke:#000000; stroke-width:39.3701; stroke-opacity:1; 
stroke-linecap:round; stroke-linejoin:round;">
</g>
<g style="fill:#000000; fill-opacity:1.0; 
stroke:#000000; stroke-width:0; stroke-opacity:1; 
stroke-linecap:round; stroke-linejoin:round;">
<circle cx="30400" cy="13700" r="206.693" /> 
</g>
<g style="fill:#000000; fill-opacity:1.0; 
stroke:#000000; stroke-width:39.3701; stroke-opacity:1; 
stroke-linecap:round; stroke-linejoin:round;">
</g>
<g style="fill:#000000; fill-opacity:1.0; 
stroke:#000000; stroke-width:0; stroke-opacity:1; 
stroke-linecap:round; stroke-linejoin:round;">
<circle cx="30900" cy="13700" r="206.693" /> 
</g>
<g style="fill:#000000; fill-opacity:1.0; 
stroke:#000000; stroke-width:39.3701; stroke-opacity:1; 
stroke-linecap:round; stroke-linejoin:round;">
</g>
<g style="fill:#000000; fill-opacity:1.0; 
stroke:#000000; stroke-width:0; stroke-opacity:1; 
stroke-linecap:round; stroke-linejoin:round;">
<circle cx="28900" cy="14200" r="206.693" /> 
</g>
<g style="fill:#000000; fill-opacity:1.0; 
stroke:#000000; stroke-width:39.3701; stroke-opacity:1; 
stroke-linecap:round; stroke-linejoin:round;">
</g>
<g style="fill:#000000; fill-opacity:1.0; 
stroke:#000000; stroke-width:0; stroke-opacity:1; 
stroke-linecap:round; stroke-linejoin:round;">
<circle cx="28900" cy="13700" r="206.693" /> 
</g>
<g style="fill:#000000; fill-opacity:1.0; 
stroke:#000000; stroke-width:39.3701; stroke-opacity:1; 
stroke-linecap:round; stroke-linejoin:round;">
</g>
<g style="fill:#000000; fill-opacity:1.0; 
stroke:#000000; stroke-width:0; stroke-opacity:1; 
stroke-linecap:round; stroke-linejoin:round;">
<circle cx="30900" cy="14200" r="206.693" /> 
</g>
<g style="fill:#000000; fill-opacity:1.0; 
stroke:#000000; stroke-width:39.3701; stroke-opacity:1; 
stroke-linecap:round; stroke-linejoin:round;">
</g>
<g style="fill:#000000; fill-opacity:1.0; 
stroke:#000000; stroke-width:0; stroke-opacity:1; 
stroke-linecap:round; stroke-linejoin:round;">
<circle cx="31400" cy="13700" r="206.693" /> 
</g>
<g style="fill:#000000; fill-opacity:1.0; 
stroke:#000000; stroke-width:39.3701; stroke-opacity:1; 
stroke-linecap:round; stroke-linejoin:round;">
</g>
<g style="fill:#000000; fill-opacity:1.0; 
stroke:#000000; stroke-width:0; stroke-opacity:1; 
stroke-linecap:round; stroke-linejoin:round;">
<circle cx="31400" cy="14200" r="206.693" /> 
</g>
<g style="fill:#000000; fill-opacity:1.0; 
stroke:#000000; stroke-width:39.3701; stroke-opacity:1; 
stroke-linecap:round; stroke-linejoin:round;">
</g>
<g style="fill:#000000; fill-opacity:1.0; 
stroke:#000000; stroke-width:0; stroke-opacity:1; 
stroke-linecap:round; stroke-linejoin:round;">
<circle cx="31400" cy="14200" r="206.693" /> 
</g>
<g style="fill:#000000; fill-opacity:1.0; 
stroke:#000000; stroke-width:39.3701; stroke-opacity:1; 
stroke-linecap:round; stroke-linejoin:round;">
</g>
<g style="fill:#000000; fill-opacity:1.0; 
stroke:#000000; stroke-width:0; stroke-opacity:1; 
stroke-linecap:round; stroke-linejoin:round;">
<circle cx="31400" cy="14200" r="206.693" /> 
</g>
<g style="fill:#000000; fill-opacity:1.0; 
stroke:#000000; stroke-width:39.3701; stroke-opacity:1; 
stroke-linecap:round; stroke-linejoin:round;">
</g>
<g style="fill:#000000; fill-opacity:1.0; 
stroke:#000000; stroke-width:0; stroke-opacity:1; 
stroke-linecap:round; stroke-linejoin:round;">
<circle cx="31400" cy="14200" r="206.693" /> 
</g>
<g style="fill:#000000; fill-opacity:1.0; 
stroke:#000000; stroke-width:39.3701; stroke-opacity:1; 
stroke-linecap:round; stroke-linejoin:round;">
</g>
<g style="fill:#000000; fill-opacity:1.0; 
stroke:#000000; stroke-width:0; stroke-opacity:1; 
stroke-linecap:round; stroke-linejoin:round;">
<circle cx="31400" cy="14200" r="206.693" /> 
</g>
<g style="fill:#000000; fill-opacity:1.0; 
stroke:#000000; stroke-width:39.3701; stroke-opacity:1; 
stroke-linecap:round; stroke-linejoin:round;">
</g>
<g style="fill:#000000; fill-opacity:1.0; 
stroke:#000000; stroke-width:0; stroke-opacity:1; 
stroke-linecap:round; stroke-linejoin:round;">
<circle cx="31400" cy="14200" r="206.693" /> 
</g>
<g style="fill:#000000; fill-opacity:1.0; 
stroke:#000000; stroke-width:39.3701; stroke-opacity:1; 
stroke-linecap:round; stroke-linejoin:round;">
</g>
<g style="fill:#000000; fill-opacity:1.0; 
stroke:#000000; stroke-width:0; stroke-opacity:1; 
stroke-linecap:round; stroke-linejoin:round;">
<circle cx="31400" cy="14200" r="206.693" /> 
</g>
<g style="fill:#000000; fill-opacity:1.0; 
stroke:#000000; stroke-width:39.3701; stroke-opacity:1; 
stroke-linecap:round; stroke-linejoin:round;">
</g>
<g style="fill:#000000; fill-opacity:1.0; 
stroke:#000000; stroke-width:0; stroke-opacity:1; 
stroke-linecap:round; stroke-linejoin:round;">
<polyline style="fill-rule:evenodd;"
points="33606,14406
33193,14406
33193,13993
33606,13993
33606,14406
" /> 
<circle cx="32900" cy="14200" r="206.693" /> 
</g>
<g style="fill:#000000; fill-opacity:1.0; 
stroke:#000000; stroke-width:39.3701; stroke-opacity:1; 
stroke-linecap:round; stroke-linejoin:round;">
</g>
<g style="fill:#000000; fill-opacity:1.0; 
stroke:#000000; stroke-width:0; stroke-opacity:1; 
stroke-linecap:round; stroke-linejoin:round;">
<circle cx="32400" cy="14200" r="206.693" /> 
</g>
<g style="fill:#000000; fill-opacity:1.0; 
stroke:#000000; stroke-width:39.3701; stroke-opacity:1; 
stroke-linecap:round; stroke-linejoin:round;">
</g>
<g style="fill:#000000; fill-opacity:1.0; 
stroke:#000000; stroke-width:0; stroke-opacity:1; 
stroke-linecap:round; stroke-linejoin:round;">
<circle cx="31900" cy="14200" r="206.693" /> 
</g>
<g style="fill:#000000; fill-opacity:1.0; 
stroke:#000000; stroke-width:39.3701; stroke-opacity:1; 
stroke-linecap:round; stroke-linejoin:round;">
</g>
<g style="fill:#000000; fill-opacity:1.0; 
stroke:#000000; stroke-width:0; stroke-opacity:1; 
stroke-linecap:round; stroke-linejoin:round;">
<circle cx="31400" cy="14200" r="206.693" /> 
</g>
<g style="fill:#000000; fill-opacity:1.0; 
stroke:#000000; stroke-width:39.3701; stroke-opacity:1; 
stroke-linecap:round; stroke-linejoin:round;">
</g>
<g style="fill:#000000; fill-opacity:1.0; 
stroke:#000000; stroke-width:0; stroke-opacity:1; 
stroke-linecap:round; stroke-linejoin:round;">
<circle cx="32900" cy="13700" r="206.693" /> 
</g>
<g style="fill:#000000; fill-opacity:1.0; 
stroke:#000000; stroke-width:39.3701; stroke-opacity:1; 
stroke-linecap:round; stroke-linejoin:round;">
</g>
<g style="fill:#000000; fill-opacity:1.0; 
stroke:#000000; stroke-width:0; stroke-opacity:1; 
stroke-linecap:round; stroke-linejoin:round;">
<circle cx="32400" cy="13700" r="206.693" /> 
</g>
<g style="fill:#000000; fill-opacity:1.0; 
stroke:#000000; stroke-width:39.3701; stroke-opacity:1; 
stroke-linecap:round; stroke-linejoin:round;">
</g>
<g style="fill:#000000; fill-opacity:1.0; 
stroke:#000000; stroke-width:0; stroke-opacity:1; 
stroke-linecap:round; stroke-linejoin:round;">
<circle cx="31900" cy="13700" r="206.693" /> 
</g>
<g style="fill:#000000; fill-opacity:1.0; 
stroke:#000000; stroke-width:39.3701; stroke-opacity:1; 
stroke-linecap:round; stroke-linejoin:round;">
</g>
<g style="fill:#000000; fill-opacity:1.0; 
stroke:#000000; stroke-width:0; stroke-opacity:1; 
stroke-linecap:round; stroke-linejoin:round;">
<circle cx="31400" cy="13700" r="206.693" /> 
</g>
<g style="fill:#000000; fill-opacity:1.0; 
stroke:#000000; stroke-width:39.3701; stroke-opacity:1; 
stroke-linecap:round; stroke-linejoin:round;">
</g>
<g style="fill:#000000; fill-opacity:1.0; 
stroke:#000000; stroke-width:0; stroke-opacity:1; 
stroke-linecap:round; stroke-linejoin:round;">
<circle cx="33400" cy="13700" r="206.693" /> 
</g>
<g style="fill:#000000; fill-opacity:1.0; 
stroke:#000000; stroke-width:39.3701; stroke-opacity:1; 
stroke-linecap:round; stroke-linejoin:round;">
</g>
<g style="fill:#000000; fill-opacity:1.0; 
stroke:#000000; stroke-width:0; stroke-opacity:1; 
stroke-linecap:round; stroke-linejoin:round;">
<circle cx="25350" cy="40600" r="1259.84" /> 
</g>
<g style="fill:#000000; fill-opacity:1.0; 
stroke:#000000; stroke-width:39.3701; stroke-opacity:1; 
stroke-linecap:round; stroke-linejoin:round;">
</g>
<g style="fill:#000000; fill-opacity:1.0; 
stroke:#000000; stroke-width:0; stroke-opacity:1; 
stroke-linecap:round; stroke-linejoin:round;">
<circle cx="26500" cy="15500" r="1259.84" /> 
</g>
<g style="fill:#000000; fill-opacity:1.0; 
stroke:#000000; stroke-width:39.3701; stroke-opacity:1; 
stroke-linecap:round; stroke-linejoin:round;">
</g>
<g style="fill:#000000; fill-opacity:1.0; 
stroke:#000000; stroke-width:0; stroke-opacity:1; 
stroke-linecap:round; stroke-linejoin:round;">
<circle cx="39600" cy="15500" r="1259.84" /> 
</g>
<g style="fill:#000000; fill-opacity:1.0; 
stroke:#000000; stroke-width:39.3701; stroke-opacity:1; 
stroke-linecap:round; stroke-linejoin:round;">
</g>
<g style="fill:#000000; fill-opacity:1.0; 
stroke:#000000; stroke-width:0; stroke-opacity:1; 
stroke-linecap:round; stroke-linejoin:round;">
<circle cx="36318.9" cy="20078.7" r="1181.1" /> 
</g>
<g style="fill:#000000; fill-opacity:1.0; 
stroke:#000000; stroke-width:39.3701; stroke-opacity:1; 
stroke-linecap:round; stroke-linejoin:round;">
</g>
<g style="fill:#000000; fill-opacity:1.0; 
stroke:#000000; stroke-width:0; stroke-opacity:1; 
stroke-linecap:round; stroke-linejoin:round;">
<circle cx="30413.4" cy="31889.8" r="1181.1" /> 
</g>
<g style="fill:#000000; fill-opacity:1.0; 
stroke:#000000; stroke-width:39.3701; stroke-opacity:1; 
stroke-linecap:round; stroke-linejoin:round;">
</g>
<g style="fill:#000000; fill-opacity:1.0; 
stroke:#000000; stroke-width:0; stroke-opacity:1; 
stroke-linecap:round; stroke-linejoin:round;">
<circle cx="39300" cy="45800" r="1259.84" /> 
</g>
<g style="fill:#000000; fill-opacity:1.0; 
stroke:#000000; stroke-width:39.3701; stroke-opacity:1; 
stroke-linecap:round; stroke-linejoin:round;">
</g>
<g style="fill:#000000; fill-opacity:1.0; 
stroke:#000000; stroke-width:0; stroke-opacity:1; 
stroke-linecap:round; stroke-linejoin:round;">
<circle cx="32545.6" cy="14643" r="118.11" /> 
</g>
<g style="fill:#000000; fill-opacity:1.0; 
stroke:#000000; stroke-width:39.3701; stroke-opacity:1; 
stroke-linecap:round; stroke-linejoin:round;">
</g>
<g style="fill:#000000; fill-opacity:1.0; 
stroke:#000000; stroke-width:0; stroke-opacity:1; 
stroke-linecap:round; stroke-linejoin:round;">
<circle cx="34342.6" cy="19187.6" r="118.11" /> 
</g>
<g style="fill:#000000; fill-opacity:1.0; 
stroke:#000000; stroke-width:39.3701; stroke-opacity:1; 
stroke-linecap:round; stroke-linejoin:round;">
</g>
<g style="fill:#000000; fill-opacity:1.0; 
stroke:#000000; stroke-width:0; stroke-opacity:1; 
stroke-linecap:round; stroke-linejoin:round;">
<circle cx="40075.2" cy="43270.9" r="118.11" /> 
</g>
<g style="fill:#000000; fill-opacity:1.0; 
stroke:#000000; stroke-width:39.3701; stroke-opacity:1; 
stroke-linecap:round; stroke-linejoin:round;">
</g>
<g style="fill:#000000; fill-opacity:1.0; 
stroke:#000000; stroke-width:0; stroke-opacity:1; 
stroke-linecap:round; stroke-linejoin:round;">
<circle cx="23246.6" cy="28733.9" r="118.11" /> 
</g>
<g style="fill:#000000; fill-opacity:1.0; 
stroke:#000000; stroke-width:39.3701; stroke-opacity:1; 
stroke-linecap:round; stroke-linejoin:round;">
</g>
<g style="fill:#000000; fill-opacity:1.0; 
stroke:#000000; stroke-width:984.252; stroke-opacity:1; 
stroke-linecap:round; stroke-linejoin:round;">
</g>
<g style="fill:#000000; fill-opacity:0.0; 
stroke:#000000; stroke-width:984.252; stroke-opacity:1; 
stroke-linecap:round; stroke-linejoin:round;">
<path d="M39600 16897
L39600 15500
" />
<path d="M36418 20078
L39600 16897
" />
<path d="M36318 20078
L36418 20078
" />
<path d="M39600 14044
L43450 10194
" />
<path d="M39600 15500
L39600 14044
" />
<path d="M29921 31397
L29921 18110
" />
<path d="M30413 31889
L29921 31397
" />
<path d="M29921 32381
L29921 33858
" />
<path d="M30413 31889
L29921 32381
" />
<path d="M44552 26091
L43450 27194
" />
<path d="M44552 19797
L44552 26091
" />
<path d="M43450 18694
L44552 19797
" />
<path d="M44552 34591
L43450 35694
" />
<path d="M44552 28297
L44552 34591
" />
<path d="M43450 27194
L44552 28297
" />
<path d="M44552 43191
L43450 44294
" />
<path d="M44552 36797
L44552 43191
" />
<path d="M43450 35694
L44552 36797
" />
<path d="M43450 14131
L43450 12162
" />
<path d="M40693 29975
L36811 33858
" />
<path d="M40693 17686
L40693 29975
" />
<path d="M41796 16584
L40693 17686
" />
<path d="M41796 15785
L41796 16584
" />
<path d="M43450 14131
L41796 15785
" />
<path d="M43450 16100
L43450 17202
" />
<path d="M43366 17202
L43450 17202
" />
<path d="M42345 18223
L43366 17202
" />
<path d="M42345 23495
L42345 18223
" />
<path d="M43450 24600
L42345 23495
" />
<path d="M42347 31997
L43450 33100
" />
<path d="M42347 25702
L42347 31997
" />
<path d="M43450 24600
L42347 25702
" />
</g>
<g style="fill:#000000; fill-opacity:0.0; 
stroke:#000000; stroke-width:236.22; stroke-opacity:1; 
stroke-linecap:round; stroke-linejoin:round;">
<path d="M27200 40713
L27400 40913
" />
<path d="M27200 39550
L27200 40713
" />
<path d="M27400 41550
L27400 40913
" />
<path d="M28400 40840
L28400 41550
" />
<path d="M27700 40140
L28400 40840
" />
<path d="M27700 39550
L27700 40140
" />
<path d="M29297 40913
L29400 40913
" />
<path d="M28200 39816
L29297 40913
" />
<path d="M28200 39550
L28200 39816
" />
<path d="M29400 41550
L29400 40913
" />
<path d="M27700 38000
L28400 37300
" />
<path d="M27700 39050
L27700 38000
" />
<path d="M21800 10100
L21800 12068
" />
<path d="M21800 14037
L21800 16005
" />
<path d="M21800 16005
L21800 19100
" />
<path d="M21800 19100
L21800 21068
" />
<path d="M21800 21068
L21800 23037
" />
<path d="M21800 23037
L21800 25005
" />
<path d="M33400 14200
L33400 14643
" />
<path d="M33400 14643
L32545 14643
" />
<path d="M34342 14001
L34342 19187
" />
<path d="M33595 13253
L34342 14001
" />
<path d="M32706 13253
L33595 13253
" />
<path d="M32400 13560
L32706 13253
" />
<path d="M32400 13700
L32400 13560
" />
<path d="M31900 35095
L31900 14200
" />
<path d="M40075 43270
L31900 35095
" />
<path d="M43450 47822
L43450 48231
" />
<path d="M39868 44241
L43450 47822
" />
<path d="M39268 44241
L39868 44241
" />
<path d="M28992 33965
L39268 44241
" />
<path d="M28992 17344
L28992 33965
" />
<path d="M31400 14937
L28992 17344
" />
<path d="M31400 14200
L31400 14937
" />
<path d="M43450 45374
L43450 46262
" />
<path d="M34711 36635
L43450 45374
" />
<path d="M34711 13867
L34711 36635
" />
<path d="M33737 12894
L34711 13867
" />
<path d="M32071 12894
L33737 12894
" />
<path d="M31400 13565
L32071 12894
" />
<path d="M31400 13700
L31400 13565
" />
<path d="M28129 32438
L21800 38768
" />
<path d="M28129 17645
L28129 32438
" />
<path d="M30900 14875
L28129 17645
" />
<path d="M30900 14200
L30900 14875
" />
<path d="M21063 40000
L21800 40737
" />
<path d="M21063 26806
L21063 40000
" />
<path d="M22685 25184
L21063 26806
" />
<path d="M22685 21430
L22685 25184
" />
<path d="M28440 15675
L22685 21430
" />
<path d="M28440 13533
L28440 15675
" />
<path d="M28722 13250
L28440 13533
" />
<path d="M30590 13250
L28722 13250
" />
<path d="M30900 13560
L30590 13250
" />
<path d="M30900 13700
L30900 13560
" />
<path d="M27775 24205
L23246 28733
" />
<path d="M27775 17343
L27775 24205
" />
<path d="M29900 15218
L27775 17343
" />
<path d="M29900 14200
L29900 15218
" />
<path d="M22892 30844
L21800 31937
" />
<path d="M22892 28587
L22892 30844
" />
<path d="M23039 28439
L22892 28587
" />
<path d="M23039 21577
L23039 28439
" />
<path d="M29400 15217
L23039 21577
" />
<path d="M29400 14200
L29400 15217
" />
</g>
<g style="fill:#000000; fill-opacity:1.0; 
stroke:#000000; stroke-width:100; stroke-opacity:1; 
stroke-linecap:round; stroke-linejoin:round;">
<polyline style="fill-rule:evenodd;"
points="21002,9478
20975,9607
20975,10592
20998,10712
21069,10823
21178,10897
21307,10924
21356,10924
21356,11367
21337,11374
21107,11604
20982,11905
20982,12230
21106,12531
21336,12761
21636,12886
21961,12886
22262,12762
22492,12532
22617,12231
22617,11906
22493,11605
22263,11375
22243,11367
22243,10924
22292,10924
22412,10901
22523,10830
22597,10721
22598,10719
42995,10719
43046,10834
43322,10940
43617,10932
43853,10834
43904,10719
43450,10265
42995,10719
22598,10719
22624,10592
22624,10066
42704,10066
42712,10361
42809,10597
42925,10648
43379,10194
43520,10194
43974,10648
44090,10597
44195,10322
44187,10026
44090,9791
43974,9740
43520,10194
43379,10194
42925,9740
42809,9791
42704,10066
22624,10066
22624,9669
42995,9669
43450,10123
43904,9669
43853,9554
43577,9448
43282,9456
43046,9554
42995,9669
22624,9669
22624,9607
22601,9487
22548,9405
44944,9405
44944,50894
44197,50894
44247,50821
44274,50692
44274,49707
44251,49587
44180,49476
44071,49402
43942,49375
42957,49375
42837,49398
42726,49469
42652,49578
42625,49707
42625,50692
42648,50812
42701,50894
20255,50894
20255,46879
38291,46879
38436,47074
38989,47307
39590,47311
40146,47085
40163,47074
40308,46879
39300,45870
38291,46879
20255,46879
20255,46090
37788,46090
38014,46646
38025,46663
38220,46808
39229,45800
38220,44791
38025,44936
37792,45489
37788,46090
20255,46090
20255,43230
21345,43230
21396,43345
21672,43451
21967,43443
22203,43345
22254,43230
21800,42776
21345,43230
20255,43230
20255,42577
21054,42577
21062,42873
21159,43108
21275,43159
21729,42705
21870,42705
22324,43159
22440,43108
22545,42833
22537,42538
22440,42302
22324,42251
21870,42705
21729,42705
21275,42251
21159,42302
21054,42577
20255,42577
20255,42180
21345,42180
21800,42634
22254,42180
22203,42065
21927,41959
21632,41967
21396,42065
21345,42180
20255,42180
20255,41679
24341,41679
24486,41874
25039,42107
25640,42111
26196,41885
26213,41874
26358,41679
25350,40670
24341,41679
20255,41679
20255,26806
20620,26806
20620,40000
20653,40170
20749,40314
20990,40554
20982,40573
20982,40898
21106,41199
21336,41429
21636,41554
21961,41554
22262,41430
22492,41200
22617,40900
22617,40890
23838,40890
24064,41446
24075,41463
24270,41608
25279,40600
25420,40600
26429,41608
26624,41463
26728,41217
26728,41950
26750,42070
26822,42181
26930,42255
27060,42281
27740,42281
27860,42259
27971,42187
28001,42143
28145,42239
28400,42289
28654,42239
28870,42094
28900,42050
28929,42094
29145,42239
29400,42289
29654,42239
29870,42094
29900,42050
29929,42094
30145,42239
30400,42289
30654,42239
30870,42094
31014,41878
31065,41624
31065,41475
31014,41221
30870,41005
30654,40860
30400,40810
30145,40860
29929,41005
29900,41049
29870,41005
29843,40987
29843,40913
29809,40743
29713,40599
29569,40503
29501,40490
29057,40046
29138,39994
29212,39885
29238,39756
29238,39343
29215,39222
29209,39211
29232,39156
29232,38944
29151,38748
29001,38599
28806,38517
28594,38517
28449,38577
28306,38517
28143,38517
28143,38183
28306,38021
28400,38039
28654,37989
28870,37844
28900,37800
28929,37844
29145,37989
29400,38039
29654,37989
29797,37893
29822,37931
29930,38005
30060,38031
30740,38031
30860,38009
30971,37937
31045,37829
31071,37700
31071,36900
31049,36779
30977,36668
30869,36594
30740,36568
30060,36568
29939,36590
29828,36662
29798,36706
29654,36610
29400,36560
29145,36610
28929,36755
28900,36799
28870,36755
28654,36610
28400,36560
28145,36610
27929,36755
27900,36799
27870,36755
27654,36610
27400,36560
27145,36610
26929,36755
26785,36971
26734,37225
26734,37374
26785,37628
26929,37844
27145,37989
27256,38011
27256,38517
27094,38517
26898,38598
26749,38748
26667,38943
26667,39155
26727,39300
26667,39443
26667,39655
26748,39851
26756,39858
26756,40050
26635,39753
26624,39736
26429,39591
25420,40600
25279,40600
24270,39591
24075,39736
23842,40289
23838,40890
22617,40890
22617,40575
22493,40274
22263,40044
21963,39919
21638,39919
21617,39927
21507,39816
21507,39532
21636,39586
21961,39586
22120,39520
24341,39520
25350,40529
26358,39520
26213,39325
25660,39092
25059,39088
24503,39314
24486,39325
24341,39520
22120,39520
22262,39462
22492,39232
22617,38931
22617,38606
22609,38586
28443,32752
28539,32608
28548,32563
28548,33965
28582,34135
28678,34279
38780,44381
38453,44514
38436,44525
38291,44720
39300,45729
39305,45723
39376,45794
39370,45800
40379,46808
40574,46663
40807,46110
40809,45810
42762,47762
42757,47767
42632,48068
42632,48393
42756,48694
42986,48924
43286,49049
43611,49049
43912,48925
44142,48695
44267,48394
44267,48069
44143,47768
43913,47538
43707,47453
43335,47080
43611,47080
43912,46956
44142,46726
44267,46426
44267,46101
44143,45800
43913,45570
43893,45561
43893,45374
43859,45204
43859,45204
43763,45060
43700,44997
43853,44934
43904,44819
43450,44365
43444,44370
43373,44300
43379,44294
43520,44294
43974,44748
44090,44697
44195,44422
44187,44126
44090,43891
43974,43840
43520,44294
43379,44294
42925,43840
42809,43891
42750,44046
42472,43769
42995,43769
43450,44223
43904,43769
43853,43654
43577,43548
43282,43556
43046,43654
42995,43769
42472,43769
39810,41107
42625,41107
42625,42092
42648,42212
42719,42323
42828,42397
42957,42424
43942,42424
44062,42401
44173,42330
44247,42221
44274,42092
44274,41107
44251,40987
44180,40876
44071,40802
43942,40775
42957,40775
42837,40798
42726,40869
42652,40978
42625,41107
39810,41107
38496,39793
42632,39793
42756,40094
42986,40324
43286,40449
43611,40449
43912,40325
44142,40095
44267,39794
44267,39469
44143,39168
43913,38938
43613,38813
43288,38813
42987,38937
42757,39167
42632,39468
42632,39793
38496,39793
36528,37824
42632,37824
42756,38125
42986,38355
43286,38480
43611,38480
43912,38356
44142,38126
44267,37826
44267,37501
44143,37200
43913,36970
43613,36845
43288,36845
42987,36969
42757,37199
42632,37499
42632,37824
36528,37824
35155,36451
35155,36219
42995,36219
43046,36334
43322,36440
43617,36432
43853,36334
43904,36219
43450,35765
42995,36219
35155,36219
35155,35566
42704,35566
42712,35861
42809,36097
42925,36148
43379,35694
43520,35694
43974,36148
44090,36097
44195,35822
44187,35526
44090,35291
43974,35240
43520,35694
43379,35694
42925,35240
42809,35291
42704,35566
35155,35566
35155,35169
42995,35169
43450,35623
43904,35169
43853,35054
43577,34948
43282,34956
43046,35054
42995,35169
35155,35169
35155,34020
35993,34020
36055,34170
36055,34171
36055,34171
36117,34320
36232,34435
36232,34436
36233,34436
36347,34550
36497,34613
36498,34613
36498,34613
36647,34675
36810,34675
36811,34675
36811,34675
36972,34676
37123,34613
37123,34613
37124,34613
37273,34551
37388,34436
37389,34436
37491,34334
37503,34322
37503,34321
41272,30553
41449,30288
41511,29975
41511,18025
41581,17955
41527,18223
41527,23495
41590,23808
41767,24073
42293,24600
41768,25124
41591,25389
41589,25401
41529,25702
41529,31997
41591,32310
41768,32575
42625,33432
42625,33592
42648,33712
42719,33823
42828,33897
42957,33924
43942,33924
44062,33901
44173,33830
44247,33721
44274,33592
44274,32607
44251,32487
44180,32376
44071,32302
43942,32275
43782,32275
43455,31949
43611,31949
43912,31825
44142,31595
44267,31294
44267,30969
44143,30668
43913,30438
43613,30313
43288,30313
43164,30364
43164,29929
43286,29980
43611,29980
43912,29856
44142,29626
44267,29326
44267,29001
44143,28700
43913,28470
43613,28345
43288,28345
43164,28396
43164,27879
43322,27940
43617,27932
43853,27834
43904,27719
43450,27265
43444,27270
43373,27200
43379,27194
43520,27194
43974,27648
44090,27597
44195,27322
44187,27026
44090,26791
43974,26740
43520,27194
43379,27194
43373,27188
43444,27118
43450,27123
43904,26669
43853,26554
43577,26448
43282,26456
43164,26505
43164,26041
43782,25424
43942,25424
44062,25401
44173,25330
44247,25221
44274,25092
44274,24107
44251,23987
44180,23876
44071,23802
43942,23775
43782,23775
43455,23449
43611,23449
43912,23325
44142,23095
44267,22794
44267,22469
44143,22168
43913,21938
43613,21813
43288,21813
43163,21865
43163,21429
43286,21480
43611,21480
43912,21356
44142,21126
44267,20826
44267,20501
44143,20200
43913,19970
43613,19845
43288,19845
43163,19896
43163,19379
43322,19440
43617,19432
43853,19334
43904,19219
43450,18765
43444,18770
43373,18700
43379,18694
43520,18694
43974,19148
44090,19097
44195,18822
44187,18526
44090,18291
43974,18240
43520,18694
43379,18694
43373,18688
43444,18618
43450,18623
43904,18169
43853,18054
43721,18003
43777,17948
44028,17780
44205,17515
44267,17202
44267,16623
44274,16592
44274,15607
44251,15487
44180,15376
44071,15302
43942,15275
43462,15275
44028,14709
44142,14595
44267,14294
44267,13969
44267,13969
44267,12163
44267,12001
44143,11700
43913,11470
43613,11345
43288,11345
42987,11469
42757,11699
42632,11999
42632,12324
42632,12325
42632,13792
41218,15206
41110,15367
41111,15209
40885,14653
40874,14636
40679,14491
39670,15500
39676,15505
39605,15576
39600,15570
38591,16579
38736,16774
39289,17007
39890,17011
40432,16791
40115,17108
39938,17373
39896,17585
39876,17686
39876,29636
36232,33280
36232,33280
36118,33394
36055,33544
36055,33545
36055,33545
35993,33694
35993,33857
35993,33858
35993,33858
35993,34020
35155,34020
35155,21101
35367,21101
35502,21287
36027,21508
36596,21511
37123,21296
37135,21287
37270,21101
36318,20149
35367,21101
35155,21101
35155,20928
35296,21030
36248,20078
36389,20078
37341,21030
37528,20895
37748,20370
37751,19801
37536,19274
37528,19262
37341,19127
36389,20078
36248,20078
35296,19127
35155,19229
35155,19056
35367,19056
36318,20008
37270,19056
37135,18869
37125,18865
37273,18803
37503,18573
37628,18273
37628,17948
37504,17647
37274,17417
36974,17292
36649,17292
36348,17416
36118,17646
35993,17946
35993,18272
36117,18572
36191,18646
36041,18646
35514,18861
35502,18869
35367,19056
35155,19056
35155,15790
38088,15790
38314,16346
38325,16363
38520,16508
39529,15500
38520,14491
38325,14636
38092,15189
38088,15790
35155,15790
35155,14420
38591,14420
39600,15429
40608,14420
40463,14225
39910,13992
39309,13988
38753,14214
38736,14225
38591,14420
35155,14420
35155,13867
35121,13698
35025,13554
34051,12580
33907,12484
33737,12450
32071,12450
31901,12484
31757,12580
31152,13185
30904,12937
30760,12840
30590,12807
28722,12807
28552,12840
28408,12937
28126,13219
28030,13363
27996,13533
27996,15172
27785,14653
27774,14636
27579,14491
26570,15500
26576,15505
26505,15576
26500,15570
25491,16579
25636,16774
26189,17007
26478,17009
22607,20881
22493,20605
22263,20375
22243,20367
22243,19924
22292,19924
22412,19901
22523,19830
22597,19721
22624,19592
22624,18607
22601,18487
22530,18376
22421,18302
22292,18275
22243,18275
22243,16706
22262,16699
22492,16469
22617,16168
22617,15843
22595,15790
24988,15790
25214,16346
25225,16363
25420,16508
26429,15500
25420,14491
25225,14636
24992,15189
24988,15790
22595,15790
22493,15542
22263,15312
22243,15304
22243,14738
22262,14730
22492,14500
22526,14420
25491,14420
26500,15429
27508,14420
27363,14225
26810,13992
26209,13988
25653,14214
25636,14225
25491,14420
22526,14420
22617,14200
22617,13875
22493,13574
22263,13344
21963,13219
21638,13219
21337,13343
21107,13573
20982,13873
20982,14198
21106,14499
21336,14729
21356,14738
21356,15304
21337,15311
21107,15541
20982,15842
20982,16167
21106,16468
21336,16698
21356,16706
21356,18275
21307,18275
21187,18298
21076,18369
21002,18478
20975,18607
20975,19592
20998,19712
21069,19823
21178,19897
21307,19924
21356,19924
21356,20367
21337,20374
21107,20604
20982,20905
20982,21230
21106,21531
21336,21761
21356,21769
21356,22335
21337,22343
21107,22573
20982,22873
20982,23198
21106,23499
21336,23729
21356,23738
21356,24304
21337,24311
21107,24541
20982,24842
20982,25167
21106,25468
21336,25698
21483,25759
20749,26492
20653,26636
20620,26806
20255,26806
20255,9405
21052,9405
21002,9478
" /> 
<polyline style="fill-rule:evenodd;"
points="33898,19187
33898,19275
33966,19438
34090,19563
34253,19631
34267,19631
34267,36635
34301,36805
34397,36949
43006,45558
43006,45561
42987,45569
42757,45799
42632,46099
42632,46377
40182,43927
40038,43831
39868,43797
39452,43797
30203,34548
30324,34498
30375,34383
29921,33928
29915,33934
29844,33863
29850,33858
29991,33858
30446,34312
30561,34261
30666,33985
30659,33690
30561,33455
30446,33404
29991,33858
29850,33858
29844,33852
29915,33781
29921,33787
30375,33333
30369,33320
30690,33322
31217,33107
31230,33098
31364,32912
30413,31960
30407,31966
30337,31895
30342,31889
30337,31884
30407,31813
30413,31819
31364,30867
31230,30680
30705,30460
30135,30457
29608,30672
29596,30680
29461,30867
29436,30841
29436,18666
29467,18635
29518,18750
29793,18855
30088,18848
30324,18750
30375,18635
29921,18180
29915,18186
29844,18115
29850,18110
29991,18110
30446,18564
30561,18513
30666,18237
30659,17942
30561,17706
30446,17656
29991,18110
29850,18110
29844,18104
29915,18033
29921,18039
30375,17585
30324,17470
30048,17364
29753,17372
29518,17470
29467,17585
29436,17554
29436,17528
31456,15508
31456,30953
31435,30938
30484,31889
31435,32841
31456,32826
31456,35095
31490,35265
31586,35409
39761,43584
39823,43646
39986,43714
40163,43714
40326,43647
40451,43522
40518,43359
40519,43182
40451,43019
40326,42894
40326,42894
32343,34911
32343,15039
32456,15086
32633,15086
32633,15086
33400,15086
33569,15052
33713,14956
33809,14812
33843,14643
33843,14636
33898,14555
33898,19187
" /> 
<polyline style="fill-rule:evenodd;"
points="27686,32254
22617,37323
22624,37292
22624,36307
22601,36187
22530,36076
22421,36002
22292,35975
21507,35975
21507,34588
21672,34651
21967,34643
22203,34545
22254,34430
21800,33976
21794,33981
21723,33911
21729,33905
21870,33905
22324,34359
22440,34308
22545,34033
22537,33738
22440,33502
22324,33451
21870,33905
21729,33905
21723,33899
21794,33829
21800,33834
22254,33380
22203,33265
21927,33159
21632,33167
21507,33219
21507,32700
21636,32754
21961,32754
22262,32630
22492,32400
22617,32100
22617,31775
22609,31754
23205,31158
23302,31014
23311,30968
23335,30844
23335,29177
23497,29110
23622,28985
23622,28985
27686,24921
27686,32254
" /> 
</g> 
</svg>
