<?xml version="1.0" standalone="no"?>
 <!DOCTYPE svg PUBLIC "-//W3C//DTD SVG 1.1//EN" 
 "http://www.w3.org/Graphics/SVG/1.1/DTD/svg11.dtd"> 
<svg xmlns="http://www.w3.org/2000/svg" version="1.1" 
    width="29.7002cm" height="21.0007cm" viewBox="0 0 116930 82680 ">
<title>SVG Picture created as alligator-adaptor-F.SilkS.svg date 2016/08/18 14:21:08 </title>
  <desc>Picture generated by PCBNEW </desc>
<g style="fill:#000000; fill-opacity:1;stroke:#000000; stroke-opacity:1;
stroke-linecap:round; stroke-linejoin:round; "
 transform="translate(0 0) scale(1 1)">
</g>
<g style="fill:#000000; fill-opacity:0.0; 
stroke:#000000; stroke-width:-0.000393701; stroke-opacity:1; 
stroke-linecap:round; stroke-linejoin:round;">
</g>
<g style="fill:#000000; fill-opacity:0.0; 
stroke:#000000; stroke-width:59.0551; stroke-opacity:1; 
stroke-linecap:round; stroke-linejoin:round;">
<path d="M45064 11178
L45261 11178
" />
<circle cx="43489.4" cy="10194.5" r="787.402" /> 
<circle cx="43489.4" cy="12163" r="787.402" /> 
<path d="M45064 13147
L45261 13147
" />
<path d="M45064 15115
L45261 15115
" />
<circle cx="43489.4" cy="14131.5" r="787.402" /> 
<circle cx="43489.4" cy="16100" r="787.402" /> 
<path d="M44473 17084
L44473 9210
" />
<path d="M42544 17084
L42544 9210
" />
<path d="M45064 17084
L45064 9210
" />
<path d="M45261 17084
L45261 9210
" />
<path d="M45261 9210
L41402 9210
" />
<path d="M41402 9210
L41402 17084
" />
<path d="M41402 17084
L45261 17084
" />
<path d="M27900 42050
L30900 42050
" />
<path d="M27900 41050
L30900 41050
" />
<path d="M26789 40939
L27400 40939
" />
<path d="M30900 42050
L30900 41050
" />
<path d="M27900 41050
L27900 42050
" />
<path d="M27400 42160
L26789 42160
" />
<path d="M26789 42160
L26789 40939
" />
<path d="M29900 36800
L26900 36800
" />
<path d="M29900 37800
L26900 37800
" />
<path d="M31010 37910
L30400 37910
" />
<path d="M26900 36800
L26900 37800
" />
<path d="M29900 37800
L29900 36800
" />
<path d="M30400 36689
L31010 36689
" />
<path d="M31010 36689
L31010 37910
" />
<path d="M45064 19678
L45261 19678
" />
<circle cx="43489.4" cy="18694.5" r="787.402" /> 
<circle cx="43489.4" cy="20663" r="787.402" /> 
<path d="M45064 21647
L45261 21647
" />
<path d="M45064 23615
L45261 23615
" />
<circle cx="43489.4" cy="22631.5" r="787.402" /> 
<circle cx="43489.4" cy="24600" r="787.402" /> 
<path d="M44473 25584
L44473 17710
" />
<path d="M42544 25584
L42544 17710
" />
<path d="M45064 25584
L45064 17710
" />
<path d="M45261 25584
L45261 17710
" />
<path d="M45261 17710
L41402 17710
" />
<path d="M41402 17710
L41402 25584
" />
<path d="M41402 25584
L45261 25584
" />
<path d="M45064 28178
L45261 28178
" />
<circle cx="43489.4" cy="27194.5" r="787.402" /> 
<circle cx="43489.4" cy="29163" r="787.402" /> 
<path d="M45064 30147
L45261 30147
" />
<path d="M45064 32115
L45261 32115
" />
<circle cx="43489.4" cy="31131.5" r="787.402" /> 
<circle cx="43489.4" cy="33100" r="787.402" /> 
<path d="M44473 34084
L44473 26210
" />
<path d="M42544 34084
L42544 26210
" />
<path d="M45064 34084
L45064 26210
" />
<path d="M45261 34084
L45261 26210
" />
<path d="M45261 26210
L41402 26210
" />
<path d="M41402 26210
L41402 34084
" />
<path d="M41402 34084
L45261 34084
" />
<path d="M45064 36678
L45261 36678
" />
<circle cx="43489.4" cy="35694.5" r="787.402" /> 
<circle cx="43489.4" cy="37663" r="787.402" /> 
<path d="M45064 38647
L45261 38647
" />
<path d="M45064 40615
L45261 40615
" />
<circle cx="43489.4" cy="39631.5" r="787.402" /> 
<circle cx="43489.4" cy="41600" r="787.402" /> 
<path d="M44473 42584
L44473 34710
" />
<path d="M42544 42584
L42544 34710
" />
<path d="M45064 42584
L45064 34710
" />
<path d="M45261 42584
L45261 34710
" />
<path d="M45261 34710
L41402 34710
" />
<path d="M41402 34710
L41402 42584
" />
<path d="M41402 42584
L45261 42584
" />
<path d="M45064 45278
L45261 45278
" />
<circle cx="43489.4" cy="44294.5" r="787.402" /> 
<circle cx="43489.4" cy="46263" r="787.402" /> 
<path d="M45064 47247
L45261 47247
" />
<path d="M45064 49215
L45261 49215
" />
<circle cx="43489.4" cy="48231.5" r="787.402" /> 
<circle cx="43489.4" cy="50200" r="787.402" /> 
<path d="M44473 51184
L44473 43310
" />
<path d="M42544 51184
L42544 43310
" />
<path d="M45064 51184
L45064 43310
" />
<path d="M45261 51184
L45261 43310
" />
<path d="M45261 43310
L41402 43310
" />
<path d="M41402 43310
L41402 51184
" />
<path d="M41402 51184
L45261 51184
" />
<path d="M20185 41721
L19988 41721
" />
<circle cx="21760.6" cy="42705.5" r="787.402" /> 
<circle cx="21760.6" cy="40737" r="787.402" /> 
<path d="M20185 39752
L19988 39752
" />
<path d="M20185 37784
L19988 37784
" />
<circle cx="21760.6" cy="38768.5" r="787.402" /> 
<circle cx="21760.6" cy="36800" r="787.402" /> 
<path d="M20776 35815
L20776 43689
" />
<path d="M22705 35815
L22705 43689
" />
<path d="M20185 35815
L20185 43689
" />
<path d="M19988 35815
L19988 43689
" />
<path d="M19988 43689
L23847 43689
" />
<path d="M23847 43689
L23847 35815
" />
<path d="M23847 35815
L19988 35815
" />
<path d="M20185 32921
L19988 32921
" />
<circle cx="21760.6" cy="33905.5" r="787.402" /> 
<circle cx="21760.6" cy="31937" r="787.402" /> 
<path d="M20185 30952
L19988 30952
" />
<path d="M20185 28984
L19988 28984
" />
<circle cx="21760.6" cy="29968.5" r="787.402" /> 
<circle cx="21760.6" cy="28000" r="787.402" /> 
<path d="M20776 27015
L20776 34889
" />
<path d="M22705 27015
L22705 34889
" />
<path d="M20185 27015
L20185 34889
" />
<path d="M19988 27015
L19988 34889
" />
<path d="M19988 34889
L23847 34889
" />
<path d="M23847 34889
L23847 27015
" />
<path d="M23847 27015
L19988 27015
" />
<path d="M20185 24021
L19988 24021
" />
<circle cx="21760.6" cy="25005.5" r="787.402" /> 
<circle cx="21760.6" cy="23037" r="787.402" /> 
<path d="M20185 22052
L19988 22052
" />
<path d="M20185 20084
L19988 20084
" />
<circle cx="21760.6" cy="21068.5" r="787.402" /> 
<circle cx="21760.6" cy="19100" r="787.402" /> 
<path d="M20776 18115
L20776 25989
" />
<path d="M22705 18115
L22705 25989
" />
<path d="M20185 18115
L20185 25989
" />
<path d="M19988 18115
L19988 25989
" />
<path d="M19988 25989
L23847 25989
" />
<path d="M23847 25989
L23847 18115
" />
<path d="M23847 18115
L19988 18115
" />
<path d="M20185 15021
L19988 15021
" />
<circle cx="21760.6" cy="16005.5" r="787.402" /> 
<circle cx="21760.6" cy="14037" r="787.402" /> 
<path d="M20185 13052
L19988 13052
" />
<path d="M20185 11084
L19988 11084
" />
<circle cx="21760.6" cy="12068.5" r="787.402" /> 
<circle cx="21760.6" cy="10100" r="787.402" /> 
<path d="M20776 9115
L20776 16989
" />
<path d="M22705 9115
L22705 16989
" />
<path d="M20185 9115
L20185 16989
" />
<path d="M19988 9115
L19988 16989
" />
<path d="M19988 16989
L23847 16989
" />
<path d="M23847 16989
L23847 9115
" />
<path d="M23847 9115
L19988 9115
" />
<path d="M45950 13437
L45557 13437
L45557 13287
L45575 13250
L45594 13231
L45632 13212
L45688 13212
L45725 13231
L45744 13250
L45763 13287
L45763 13437
" />
<path d="M45950 12837
L45950 13062
" />
<path d="M45950 12950
L45557 12950
L45613 12987
L45650 13025
L45669 13062
" />
<path d="M25570 41840
L25176 41840
L25176 41690
L25195 41653
L25214 41634
L25251 41615
L25307 41615
L25345 41634
L25364 41653
L25382 41690
L25382 41840
" />
<path d="M25214 41465
L25195 41446
L25176 41409
L25176 41315
L25195 41278
L25214 41259
L25251 41240
L25289 41240
L25345 41259
L25570 41484
L25570 41240
" />
<path d="M32585 37590
L32192 37590
L32192 37440
L32211 37403
L32229 37384
L32267 37365
L32323 37365
L32361 37384
L32379 37403
L32398 37440
L32398 37590
" />
<path d="M32361 37140
L32342 37178
L32323 37196
L32286 37215
L32267 37215
L32229 37196
L32211 37178
L32192 37140
L32192 37065
L32211 37028
L32229 37009
L32267 36990
L32286 36990
L32323 37009
L32342 37028
L32361 37065
L32361 37140
L32379 37178
L32398 37196
L32435 37215
L32510 37215
L32548 37196
L32567 37178
L32585 37140
L32585 37065
L32567 37028
L32548 37009
L32510 36990
L32435 36990
L32398 37009
L32379 37028
L32361 37065
" />
<path d="M36520 16788
L36520 16394
L36670 16394
L36707 16413
L36726 16432
L36745 16469
L36745 16525
L36726 16563
L36707 16582
L36670 16600
L36520 16600
" />
<path d="M36932 16788
L37007 16788
L37045 16769
L37064 16750
L37101 16694
L37120 16619
L37120 16469
L37101 16432
L37082 16413
L37045 16394
L36970 16394
L36932 16413
L36914 16432
L36895 16469
L36895 16563
L36914 16600
L36932 16619
L36970 16638
L37045 16638
L37082 16619
L37101 16600
L37120 16563
" />
<path d="M29443 16788
L29443 16394
L29593 16394
L29630 16413
L29649 16432
L29668 16469
L29668 16525
L29649 16563
L29630 16582
L29593 16600
L29443 16600
" />
<path d="M30043 16788
L29818 16788
" />
<path d="M29930 16788
L29930 16394
L29893 16450
L29855 16488
L29818 16507
" />
<path d="M30286 16394
L30324 16394
L30361 16413
L30380 16432
L30399 16469
L30418 16544
L30418 16638
L30399 16713
L30380 16750
L30361 16769
L30324 16788
L30286 16788
L30249 16769
L30230 16750
L30211 16713
L30193 16638
L30193 16544
L30211 16469
L30230 16432
L30249 16413
L30286 16394
" />
<path d="M36332 32536
L36332 32142
L36482 32142
L36520 32161
L36539 32180
L36557 32217
L36557 32273
L36539 32311
L36520 32330
L36482 32348
L36332 32348
" />
<path d="M36932 32536
L36707 32536
" />
<path d="M36820 32536
L36820 32142
L36782 32198
L36745 32236
L36707 32255
" />
<path d="M37082 32180
L37101 32161
L37139 32142
L37232 32142
L37270 32161
L37289 32180
L37307 32217
L37307 32255
L37289 32311
L37064 32536
L37307 32536
" />
<path d="M29443 32536
L29443 32142
L29593 32142
L29630 32161
L29649 32180
L29668 32217
L29668 32273
L29649 32311
L29630 32330
L29593 32348
L29443 32348
" />
<path d="M30043 32536
L29818 32536
" />
<path d="M29930 32536
L29930 32142
L29893 32198
L29855 32236
L29818 32255
" />
<path d="M30174 32142
L30418 32142
L30286 32292
L30343 32292
L30380 32311
L30399 32330
L30418 32367
L30418 32461
L30399 32498
L30380 32517
L30343 32536
L30230 32536
L30193 32517
L30174 32498
" />
<path d="M45950 22125
L45557 22125
L45557 21975
L45575 21937
L45594 21919
L45632 21900
L45688 21900
L45725 21919
L45744 21937
L45763 21975
L45763 22125
" />
<path d="M45950 21525
L45950 21750
" />
<path d="M45950 21637
L45557 21637
L45613 21675
L45650 21712
L45669 21750
" />
<path d="M45688 21187
L45950 21187
" />
<path d="M45538 21281
L45819 21375
L45819 21131
" />
<path d="M45950 30625
L45557 30625
L45557 30475
L45575 30437
L45594 30419
L45632 30400
L45688 30400
L45725 30419
L45744 30437
L45763 30475
L45763 30625
" />
<path d="M45950 30025
L45950 30250
" />
<path d="M45950 30137
L45557 30137
L45613 30175
L45650 30212
L45669 30250
" />
<path d="M45557 29669
L45557 29856
L45744 29875
L45725 29856
L45707 29819
L45707 29725
L45725 29687
L45744 29669
L45782 29650
L45875 29650
L45913 29669
L45932 29687
L45950 29725
L45950 29819
L45932 29856
L45913 29875
" />
<path d="M45950 39125
L45557 39125
L45557 38975
L45575 38937
L45594 38919
L45632 38900
L45688 38900
L45725 38919
L45744 38937
L45763 38975
L45763 39125
" />
<path d="M45950 38525
L45950 38750
" />
<path d="M45950 38637
L45557 38637
L45613 38675
L45650 38712
L45669 38750
" />
<path d="M45557 38187
L45557 38262
L45575 38300
L45594 38319
L45650 38356
L45725 38375
L45875 38375
L45913 38356
L45932 38337
L45950 38300
L45950 38225
L45932 38187
L45913 38169
L45875 38150
L45782 38150
L45744 38169
L45725 38187
L45707 38225
L45707 38300
L45725 38337
L45744 38356
L45782 38375
" />
<path d="M45950 47725
L45557 47725
L45557 47575
L45575 47537
L45594 47519
L45632 47500
L45688 47500
L45725 47519
L45744 47537
L45763 47575
L45763 47725
" />
<path d="M45950 47125
L45950 47350
" />
<path d="M45950 47237
L45557 47237
L45613 47275
L45650 47312
L45669 47350
" />
<path d="M45557 46994
L45557 46731
L45950 46900
" />
<path d="M19655 40230
L19261 40230
L19261 40080
L19280 40043
L19299 40024
L19336 40005
L19392 40005
L19430 40024
L19449 40043
L19467 40080
L19467 40230
" />
<path d="M19655 39630
L19655 39855
" />
<path d="M19655 39743
L19261 39743
L19317 39780
L19355 39818
L19374 39855
" />
<path d="M19430 39405
L19411 39443
L19392 39462
L19355 39480
L19336 39480
L19299 39462
L19280 39443
L19261 39405
L19261 39330
L19280 39293
L19299 39274
L19336 39255
L19355 39255
L19392 39274
L19411 39293
L19430 39330
L19430 39405
L19449 39443
L19467 39462
L19505 39480
L19580 39480
L19617 39462
L19636 39443
L19655 39405
L19655 39330
L19636 39293
L19617 39274
L19580 39255
L19505 39255
L19467 39274
L19449 39293
L19430 39330
" />
<path d="M19655 31430
L19261 31430
L19261 31280
L19280 31243
L19299 31224
L19336 31205
L19392 31205
L19430 31224
L19449 31243
L19467 31280
L19467 31430
" />
<path d="M19655 30830
L19655 31055
" />
<path d="M19655 30943
L19261 30943
L19317 30980
L19355 31018
L19374 31055
" />
<path d="M19655 30643
L19655 30568
L19636 30530
L19617 30512
L19561 30474
L19486 30455
L19336 30455
L19299 30474
L19280 30493
L19261 30530
L19261 30605
L19280 30643
L19299 30662
L19336 30680
L19430 30680
L19467 30662
L19486 30643
L19505 30605
L19505 30530
L19486 30493
L19467 30474
L19430 30455
" />
<path d="M19655 22530
L19261 22530
L19261 22380
L19280 22343
L19299 22324
L19336 22305
L19392 22305
L19430 22324
L19449 22343
L19467 22380
L19467 22530
" />
<path d="M19299 22155
L19280 22137
L19261 22099
L19261 22005
L19280 21968
L19299 21949
L19336 21930
L19374 21930
L19430 21949
L19655 22174
L19655 21930
" />
<path d="M19261 21687
L19261 21649
L19280 21612
L19299 21593
L19336 21574
L19411 21555
L19505 21555
L19580 21574
L19617 21593
L19636 21612
L19655 21649
L19655 21687
L19636 21724
L19617 21743
L19580 21762
L19505 21780
L19411 21780
L19336 21762
L19299 21743
L19280 21724
L19261 21687
" />
<path d="M19655 13530
L19261 13530
L19261 13380
L19280 13343
L19299 13324
L19336 13305
L19392 13305
L19430 13324
L19449 13343
L19467 13380
L19467 13530
" />
<path d="M19299 13155
L19280 13137
L19261 13099
L19261 13005
L19280 12968
L19299 12949
L19336 12930
L19374 12930
L19430 12949
L19655 13174
L19655 12930
" />
<path d="M19655 12555
L19655 12780
" />
<path d="M19655 12668
L19261 12668
L19317 12705
L19355 12743
L19374 12780
" />
<path d="M25059 39124
L25059 38730
L25209 38730
L25246 38749
L25265 38768
L25284 38805
L25284 38862
L25265 38899
L25246 38918
L25209 38937
L25059 38937
" />
<path d="M25415 38730
L25659 38730
L25528 38880
L25584 38880
L25621 38899
L25640 38918
L25659 38955
L25659 39049
L25640 39087
L25621 39105
L25584 39124
L25471 39124
L25434 39105
L25415 39087
" />
<path d="M26209 14024
L26209 13630
L26359 13630
L26396 13649
L26415 13668
L26434 13705
L26434 13762
L26415 13799
L26396 13818
L26359 13837
L26209 13837
" />
<path d="M26771 13630
L26696 13630
L26659 13649
L26640 13668
L26603 13724
L26584 13799
L26584 13949
L26603 13987
L26621 14005
L26659 14024
L26734 14024
L26771 14005
L26790 13987
L26809 13949
L26809 13855
L26790 13818
L26771 13799
L26734 13780
L26659 13780
L26621 13799
L26603 13818
L26584 13855
" />
<path d="M39309 14024
L39309 13630
L39459 13630
L39496 13649
L39515 13668
L39534 13705
L39534 13762
L39515 13799
L39496 13818
L39459 13837
L39309 13837
" />
<path d="M39665 13630
L39928 13630
L39759 14024
" />
<path d="M35840 18682
L35840 18288
L35990 18288
L36028 18307
L36047 18325
L36065 18363
L36065 18419
L36047 18457
L36028 18475
L35990 18494
L35840 18494
" />
<path d="M36215 18325
L36234 18307
L36272 18288
L36365 18288
L36403 18307
L36422 18325
L36440 18363
L36440 18400
L36422 18457
L36197 18682
L36440 18682
" />
<path d="M36590 18325
L36609 18307
L36646 18288
L36740 18288
L36778 18307
L36796 18325
L36815 18363
L36815 18400
L36796 18457
L36571 18682
L36815 18682
" />
<path d="M29935 30493
L29935 30099
L30085 30099
L30122 30118
L30141 30136
L30160 30174
L30160 30230
L30141 30268
L30122 30286
L30085 30305
L29935 30305
" />
<path d="M30310 30136
L30329 30118
L30366 30099
L30460 30099
L30497 30118
L30516 30136
L30535 30174
L30535 30211
L30516 30268
L30291 30493
L30535 30493
" />
<path d="M30666 30099
L30910 30099
L30778 30249
L30835 30249
L30872 30268
L30891 30286
L30910 30324
L30910 30418
L30891 30455
L30872 30474
L30835 30493
L30722 30493
L30685 30474
L30666 30455
" />
<path d="M39009 44324
L39009 43930
L39159 43930
L39196 43949
L39215 43968
L39234 44005
L39234 44062
L39215 44099
L39196 44118
L39159 44137
L39009 44137
" />
<path d="M39571 44062
L39571 44324
" />
<path d="M39478 43912
L39384 44193
L39628 44193
" />
</g> 
</svg>
