G04 #@! TF.FileFunction,Legend,Top*
%FSLAX46Y46*%
G04 Gerber Fmt 4.6, Leading zero omitted, Abs format (unit mm)*
G04 Created by KiCad (PCBNEW 4.0.3+e1-6302~38~ubuntu16.04.1-stable) date Thu Aug 18 14:21:30 2016*
%MOMM*%
%LPD*%
G01*
G04 APERTURE LIST*
%ADD10C,0.100000*%
%ADD11C,0.150000*%
G04 APERTURE END LIST*
D10*
D11*
X114463000Y-28394000D02*
X114963000Y-28394000D01*
X112463000Y-25894000D02*
G75*
G03X112463000Y-25894000I-2000000J0D01*
G01*
X112463000Y-30894000D02*
G75*
G03X112463000Y-30894000I-2000000J0D01*
G01*
X114463000Y-33394000D02*
X114963000Y-33394000D01*
X114463000Y-38394000D02*
X114963000Y-38394000D01*
X112463000Y-35894000D02*
G75*
G03X112463000Y-35894000I-2000000J0D01*
G01*
X112463000Y-40894000D02*
G75*
G03X112463000Y-40894000I-2000000J0D01*
G01*
X112963000Y-43394000D02*
X112963000Y-23394000D01*
X108063000Y-43394000D02*
X108063000Y-23394000D01*
X114463000Y-43394000D02*
X114463000Y-23394000D01*
X114963000Y-43394000D02*
X114963000Y-23394000D01*
X114963000Y-23394000D02*
X105163000Y-23394000D01*
X105163000Y-23394000D02*
X105163000Y-43394000D01*
X105163000Y-43394000D02*
X114963000Y-43394000D01*
X70866000Y-106807000D02*
X78486000Y-106807000D01*
X70866000Y-104267000D02*
X78486000Y-104267000D01*
X68046000Y-103987000D02*
X69596000Y-103987000D01*
X78486000Y-106807000D02*
X78486000Y-104267000D01*
X70866000Y-104267000D02*
X70866000Y-106807000D01*
X69596000Y-107087000D02*
X68046000Y-107087000D01*
X68046000Y-107087000D02*
X68046000Y-103987000D01*
X75946000Y-93472000D02*
X68326000Y-93472000D01*
X75946000Y-96012000D02*
X68326000Y-96012000D01*
X78766000Y-96292000D02*
X77216000Y-96292000D01*
X68326000Y-93472000D02*
X68326000Y-96012000D01*
X75946000Y-96012000D02*
X75946000Y-93472000D01*
X77216000Y-93192000D02*
X78766000Y-93192000D01*
X78766000Y-93192000D02*
X78766000Y-96292000D01*
X114463000Y-49984000D02*
X114963000Y-49984000D01*
X112463000Y-47484000D02*
G75*
G03X112463000Y-47484000I-2000000J0D01*
G01*
X112463000Y-52484000D02*
G75*
G03X112463000Y-52484000I-2000000J0D01*
G01*
X114463000Y-54984000D02*
X114963000Y-54984000D01*
X114463000Y-59984000D02*
X114963000Y-59984000D01*
X112463000Y-57484000D02*
G75*
G03X112463000Y-57484000I-2000000J0D01*
G01*
X112463000Y-62484000D02*
G75*
G03X112463000Y-62484000I-2000000J0D01*
G01*
X112963000Y-64984000D02*
X112963000Y-44984000D01*
X108063000Y-64984000D02*
X108063000Y-44984000D01*
X114463000Y-64984000D02*
X114463000Y-44984000D01*
X114963000Y-64984000D02*
X114963000Y-44984000D01*
X114963000Y-44984000D02*
X105163000Y-44984000D01*
X105163000Y-44984000D02*
X105163000Y-64984000D01*
X105163000Y-64984000D02*
X114963000Y-64984000D01*
X114463000Y-71574000D02*
X114963000Y-71574000D01*
X112463000Y-69074000D02*
G75*
G03X112463000Y-69074000I-2000000J0D01*
G01*
X112463000Y-74074000D02*
G75*
G03X112463000Y-74074000I-2000000J0D01*
G01*
X114463000Y-76574000D02*
X114963000Y-76574000D01*
X114463000Y-81574000D02*
X114963000Y-81574000D01*
X112463000Y-79074000D02*
G75*
G03X112463000Y-79074000I-2000000J0D01*
G01*
X112463000Y-84074000D02*
G75*
G03X112463000Y-84074000I-2000000J0D01*
G01*
X112963000Y-86574000D02*
X112963000Y-66574000D01*
X108063000Y-86574000D02*
X108063000Y-66574000D01*
X114463000Y-86574000D02*
X114463000Y-66574000D01*
X114963000Y-86574000D02*
X114963000Y-66574000D01*
X114963000Y-66574000D02*
X105163000Y-66574000D01*
X105163000Y-66574000D02*
X105163000Y-86574000D01*
X105163000Y-86574000D02*
X114963000Y-86574000D01*
X114463000Y-93164000D02*
X114963000Y-93164000D01*
X112463000Y-90664000D02*
G75*
G03X112463000Y-90664000I-2000000J0D01*
G01*
X112463000Y-95664000D02*
G75*
G03X112463000Y-95664000I-2000000J0D01*
G01*
X114463000Y-98164000D02*
X114963000Y-98164000D01*
X114463000Y-103164000D02*
X114963000Y-103164000D01*
X112463000Y-100664000D02*
G75*
G03X112463000Y-100664000I-2000000J0D01*
G01*
X112463000Y-105664000D02*
G75*
G03X112463000Y-105664000I-2000000J0D01*
G01*
X112963000Y-108164000D02*
X112963000Y-88164000D01*
X108063000Y-108164000D02*
X108063000Y-88164000D01*
X114463000Y-108164000D02*
X114463000Y-88164000D01*
X114963000Y-108164000D02*
X114963000Y-88164000D01*
X114963000Y-88164000D02*
X105163000Y-88164000D01*
X105163000Y-88164000D02*
X105163000Y-108164000D01*
X105163000Y-108164000D02*
X114963000Y-108164000D01*
X114463000Y-115008000D02*
X114963000Y-115008000D01*
X112463000Y-112508000D02*
G75*
G03X112463000Y-112508000I-2000000J0D01*
G01*
X112463000Y-117508000D02*
G75*
G03X112463000Y-117508000I-2000000J0D01*
G01*
X114463000Y-120008000D02*
X114963000Y-120008000D01*
X114463000Y-125008000D02*
X114963000Y-125008000D01*
X112463000Y-122508000D02*
G75*
G03X112463000Y-122508000I-2000000J0D01*
G01*
X112463000Y-127508000D02*
G75*
G03X112463000Y-127508000I-2000000J0D01*
G01*
X112963000Y-130008000D02*
X112963000Y-110008000D01*
X108063000Y-130008000D02*
X108063000Y-110008000D01*
X114463000Y-130008000D02*
X114463000Y-110008000D01*
X114963000Y-130008000D02*
X114963000Y-110008000D01*
X114963000Y-110008000D02*
X105163000Y-110008000D01*
X105163000Y-110008000D02*
X105163000Y-130008000D01*
X105163000Y-130008000D02*
X114963000Y-130008000D01*
X51272000Y-105972000D02*
X50772000Y-105972000D01*
X57272000Y-108472000D02*
G75*
G03X57272000Y-108472000I-2000000J0D01*
G01*
X57272000Y-103472000D02*
G75*
G03X57272000Y-103472000I-2000000J0D01*
G01*
X51272000Y-100972000D02*
X50772000Y-100972000D01*
X51272000Y-95972000D02*
X50772000Y-95972000D01*
X57272000Y-98472000D02*
G75*
G03X57272000Y-98472000I-2000000J0D01*
G01*
X57272000Y-93472000D02*
G75*
G03X57272000Y-93472000I-2000000J0D01*
G01*
X52772000Y-90972000D02*
X52772000Y-110972000D01*
X57672000Y-90972000D02*
X57672000Y-110972000D01*
X51272000Y-90972000D02*
X51272000Y-110972000D01*
X50772000Y-90972000D02*
X50772000Y-110972000D01*
X50772000Y-110972000D02*
X60572000Y-110972000D01*
X60572000Y-110972000D02*
X60572000Y-90972000D01*
X60572000Y-90972000D02*
X50772000Y-90972000D01*
X51272000Y-83620000D02*
X50772000Y-83620000D01*
X57272000Y-86120000D02*
G75*
G03X57272000Y-86120000I-2000000J0D01*
G01*
X57272000Y-81120000D02*
G75*
G03X57272000Y-81120000I-2000000J0D01*
G01*
X51272000Y-78620000D02*
X50772000Y-78620000D01*
X51272000Y-73620000D02*
X50772000Y-73620000D01*
X57272000Y-76120000D02*
G75*
G03X57272000Y-76120000I-2000000J0D01*
G01*
X57272000Y-71120000D02*
G75*
G03X57272000Y-71120000I-2000000J0D01*
G01*
X52772000Y-68620000D02*
X52772000Y-88620000D01*
X57672000Y-68620000D02*
X57672000Y-88620000D01*
X51272000Y-68620000D02*
X51272000Y-88620000D01*
X50772000Y-68620000D02*
X50772000Y-88620000D01*
X50772000Y-88620000D02*
X60572000Y-88620000D01*
X60572000Y-88620000D02*
X60572000Y-68620000D01*
X60572000Y-68620000D02*
X50772000Y-68620000D01*
X51272000Y-61014000D02*
X50772000Y-61014000D01*
X57272000Y-63514000D02*
G75*
G03X57272000Y-63514000I-2000000J0D01*
G01*
X57272000Y-58514000D02*
G75*
G03X57272000Y-58514000I-2000000J0D01*
G01*
X51272000Y-56014000D02*
X50772000Y-56014000D01*
X51272000Y-51014000D02*
X50772000Y-51014000D01*
X57272000Y-53514000D02*
G75*
G03X57272000Y-53514000I-2000000J0D01*
G01*
X57272000Y-48514000D02*
G75*
G03X57272000Y-48514000I-2000000J0D01*
G01*
X52772000Y-46014000D02*
X52772000Y-66014000D01*
X57672000Y-46014000D02*
X57672000Y-66014000D01*
X51272000Y-46014000D02*
X51272000Y-66014000D01*
X50772000Y-46014000D02*
X50772000Y-66014000D01*
X50772000Y-66014000D02*
X60572000Y-66014000D01*
X60572000Y-66014000D02*
X60572000Y-46014000D01*
X60572000Y-46014000D02*
X50772000Y-46014000D01*
X51272000Y-38154000D02*
X50772000Y-38154000D01*
X57272000Y-40654000D02*
G75*
G03X57272000Y-40654000I-2000000J0D01*
G01*
X57272000Y-35654000D02*
G75*
G03X57272000Y-35654000I-2000000J0D01*
G01*
X51272000Y-33154000D02*
X50772000Y-33154000D01*
X51272000Y-28154000D02*
X50772000Y-28154000D01*
X57272000Y-30654000D02*
G75*
G03X57272000Y-30654000I-2000000J0D01*
G01*
X57272000Y-25654000D02*
G75*
G03X57272000Y-25654000I-2000000J0D01*
G01*
X52772000Y-23154000D02*
X52772000Y-43154000D01*
X57672000Y-23154000D02*
X57672000Y-43154000D01*
X51272000Y-23154000D02*
X51272000Y-43154000D01*
X50772000Y-23154000D02*
X50772000Y-43154000D01*
X50772000Y-43154000D02*
X60572000Y-43154000D01*
X60572000Y-43154000D02*
X60572000Y-23154000D01*
X60572000Y-23154000D02*
X50772000Y-23154000D01*
X116715381Y-34132095D02*
X115715381Y-34132095D01*
X115715381Y-33751142D01*
X115763000Y-33655904D01*
X115810619Y-33608285D01*
X115905857Y-33560666D01*
X116048714Y-33560666D01*
X116143952Y-33608285D01*
X116191571Y-33655904D01*
X116239190Y-33751142D01*
X116239190Y-34132095D01*
X116715381Y-32608285D02*
X116715381Y-33179714D01*
X116715381Y-32894000D02*
X115715381Y-32894000D01*
X115858238Y-32989238D01*
X115953476Y-33084476D01*
X116001095Y-33179714D01*
X64948381Y-106275095D02*
X63948381Y-106275095D01*
X63948381Y-105894142D01*
X63996000Y-105798904D01*
X64043619Y-105751285D01*
X64138857Y-105703666D01*
X64281714Y-105703666D01*
X64376952Y-105751285D01*
X64424571Y-105798904D01*
X64472190Y-105894142D01*
X64472190Y-106275095D01*
X64043619Y-105322714D02*
X63996000Y-105275095D01*
X63948381Y-105179857D01*
X63948381Y-104941761D01*
X63996000Y-104846523D01*
X64043619Y-104798904D01*
X64138857Y-104751285D01*
X64234095Y-104751285D01*
X64376952Y-104798904D01*
X64948381Y-105370333D01*
X64948381Y-104751285D01*
X82768381Y-95480095D02*
X81768381Y-95480095D01*
X81768381Y-95099142D01*
X81816000Y-95003904D01*
X81863619Y-94956285D01*
X81958857Y-94908666D01*
X82101714Y-94908666D01*
X82196952Y-94956285D01*
X82244571Y-95003904D01*
X82292190Y-95099142D01*
X82292190Y-95480095D01*
X82196952Y-94337238D02*
X82149333Y-94432476D01*
X82101714Y-94480095D01*
X82006476Y-94527714D01*
X81958857Y-94527714D01*
X81863619Y-94480095D01*
X81816000Y-94432476D01*
X81768381Y-94337238D01*
X81768381Y-94146761D01*
X81816000Y-94051523D01*
X81863619Y-94003904D01*
X81958857Y-93956285D01*
X82006476Y-93956285D01*
X82101714Y-94003904D01*
X82149333Y-94051523D01*
X82196952Y-94146761D01*
X82196952Y-94337238D01*
X82244571Y-94432476D01*
X82292190Y-94480095D01*
X82387429Y-94527714D01*
X82577905Y-94527714D01*
X82673143Y-94480095D01*
X82720762Y-94432476D01*
X82768381Y-94337238D01*
X82768381Y-94146761D01*
X82720762Y-94051523D01*
X82673143Y-94003904D01*
X82577905Y-93956285D01*
X82387429Y-93956285D01*
X82292190Y-94003904D01*
X82244571Y-94051523D01*
X82196952Y-94146761D01*
X92761905Y-42642381D02*
X92761905Y-41642381D01*
X93142858Y-41642381D01*
X93238096Y-41690000D01*
X93285715Y-41737619D01*
X93333334Y-41832857D01*
X93333334Y-41975714D01*
X93285715Y-42070952D01*
X93238096Y-42118571D01*
X93142858Y-42166190D01*
X92761905Y-42166190D01*
X93809524Y-42642381D02*
X94000000Y-42642381D01*
X94095239Y-42594762D01*
X94142858Y-42547143D01*
X94238096Y-42404286D01*
X94285715Y-42213810D01*
X94285715Y-41832857D01*
X94238096Y-41737619D01*
X94190477Y-41690000D01*
X94095239Y-41642381D01*
X93904762Y-41642381D01*
X93809524Y-41690000D01*
X93761905Y-41737619D01*
X93714286Y-41832857D01*
X93714286Y-42070952D01*
X93761905Y-42166190D01*
X93809524Y-42213810D01*
X93904762Y-42261429D01*
X94095239Y-42261429D01*
X94190477Y-42213810D01*
X94238096Y-42166190D01*
X94285715Y-42070952D01*
X74785714Y-42642381D02*
X74785714Y-41642381D01*
X75166667Y-41642381D01*
X75261905Y-41690000D01*
X75309524Y-41737619D01*
X75357143Y-41832857D01*
X75357143Y-41975714D01*
X75309524Y-42070952D01*
X75261905Y-42118571D01*
X75166667Y-42166190D01*
X74785714Y-42166190D01*
X76309524Y-42642381D02*
X75738095Y-42642381D01*
X76023809Y-42642381D02*
X76023809Y-41642381D01*
X75928571Y-41785238D01*
X75833333Y-41880476D01*
X75738095Y-41928095D01*
X76928571Y-41642381D02*
X77023810Y-41642381D01*
X77119048Y-41690000D01*
X77166667Y-41737619D01*
X77214286Y-41832857D01*
X77261905Y-42023333D01*
X77261905Y-42261429D01*
X77214286Y-42451905D01*
X77166667Y-42547143D01*
X77119048Y-42594762D01*
X77023810Y-42642381D01*
X76928571Y-42642381D01*
X76833333Y-42594762D01*
X76785714Y-42547143D01*
X76738095Y-42451905D01*
X76690476Y-42261429D01*
X76690476Y-42023333D01*
X76738095Y-41832857D01*
X76785714Y-41737619D01*
X76833333Y-41690000D01*
X76928571Y-41642381D01*
X92285714Y-82642381D02*
X92285714Y-81642381D01*
X92666667Y-81642381D01*
X92761905Y-81690000D01*
X92809524Y-81737619D01*
X92857143Y-81832857D01*
X92857143Y-81975714D01*
X92809524Y-82070952D01*
X92761905Y-82118571D01*
X92666667Y-82166190D01*
X92285714Y-82166190D01*
X93809524Y-82642381D02*
X93238095Y-82642381D01*
X93523809Y-82642381D02*
X93523809Y-81642381D01*
X93428571Y-81785238D01*
X93333333Y-81880476D01*
X93238095Y-81928095D01*
X94190476Y-81737619D02*
X94238095Y-81690000D01*
X94333333Y-81642381D01*
X94571429Y-81642381D01*
X94666667Y-81690000D01*
X94714286Y-81737619D01*
X94761905Y-81832857D01*
X94761905Y-81928095D01*
X94714286Y-82070952D01*
X94142857Y-82642381D01*
X94761905Y-82642381D01*
X74785714Y-82642381D02*
X74785714Y-81642381D01*
X75166667Y-81642381D01*
X75261905Y-81690000D01*
X75309524Y-81737619D01*
X75357143Y-81832857D01*
X75357143Y-81975714D01*
X75309524Y-82070952D01*
X75261905Y-82118571D01*
X75166667Y-82166190D01*
X74785714Y-82166190D01*
X76309524Y-82642381D02*
X75738095Y-82642381D01*
X76023809Y-82642381D02*
X76023809Y-81642381D01*
X75928571Y-81785238D01*
X75833333Y-81880476D01*
X75738095Y-81928095D01*
X76642857Y-81642381D02*
X77261905Y-81642381D01*
X76928571Y-82023333D01*
X77071429Y-82023333D01*
X77166667Y-82070952D01*
X77214286Y-82118571D01*
X77261905Y-82213810D01*
X77261905Y-82451905D01*
X77214286Y-82547143D01*
X77166667Y-82594762D01*
X77071429Y-82642381D01*
X76785714Y-82642381D01*
X76690476Y-82594762D01*
X76642857Y-82547143D01*
X116715381Y-56198286D02*
X115715381Y-56198286D01*
X115715381Y-55817333D01*
X115763000Y-55722095D01*
X115810619Y-55674476D01*
X115905857Y-55626857D01*
X116048714Y-55626857D01*
X116143952Y-55674476D01*
X116191571Y-55722095D01*
X116239190Y-55817333D01*
X116239190Y-56198286D01*
X116715381Y-54674476D02*
X116715381Y-55245905D01*
X116715381Y-54960191D02*
X115715381Y-54960191D01*
X115858238Y-55055429D01*
X115953476Y-55150667D01*
X116001095Y-55245905D01*
X116048714Y-53817333D02*
X116715381Y-53817333D01*
X115667762Y-54055429D02*
X116382048Y-54293524D01*
X116382048Y-53674476D01*
X116715381Y-77788286D02*
X115715381Y-77788286D01*
X115715381Y-77407333D01*
X115763000Y-77312095D01*
X115810619Y-77264476D01*
X115905857Y-77216857D01*
X116048714Y-77216857D01*
X116143952Y-77264476D01*
X116191571Y-77312095D01*
X116239190Y-77407333D01*
X116239190Y-77788286D01*
X116715381Y-76264476D02*
X116715381Y-76835905D01*
X116715381Y-76550191D02*
X115715381Y-76550191D01*
X115858238Y-76645429D01*
X115953476Y-76740667D01*
X116001095Y-76835905D01*
X115715381Y-75359714D02*
X115715381Y-75835905D01*
X116191571Y-75883524D01*
X116143952Y-75835905D01*
X116096333Y-75740667D01*
X116096333Y-75502571D01*
X116143952Y-75407333D01*
X116191571Y-75359714D01*
X116286810Y-75312095D01*
X116524905Y-75312095D01*
X116620143Y-75359714D01*
X116667762Y-75407333D01*
X116715381Y-75502571D01*
X116715381Y-75740667D01*
X116667762Y-75835905D01*
X116620143Y-75883524D01*
X116715381Y-99378286D02*
X115715381Y-99378286D01*
X115715381Y-98997333D01*
X115763000Y-98902095D01*
X115810619Y-98854476D01*
X115905857Y-98806857D01*
X116048714Y-98806857D01*
X116143952Y-98854476D01*
X116191571Y-98902095D01*
X116239190Y-98997333D01*
X116239190Y-99378286D01*
X116715381Y-97854476D02*
X116715381Y-98425905D01*
X116715381Y-98140191D02*
X115715381Y-98140191D01*
X115858238Y-98235429D01*
X115953476Y-98330667D01*
X116001095Y-98425905D01*
X115715381Y-96997333D02*
X115715381Y-97187810D01*
X115763000Y-97283048D01*
X115810619Y-97330667D01*
X115953476Y-97425905D01*
X116143952Y-97473524D01*
X116524905Y-97473524D01*
X116620143Y-97425905D01*
X116667762Y-97378286D01*
X116715381Y-97283048D01*
X116715381Y-97092571D01*
X116667762Y-96997333D01*
X116620143Y-96949714D01*
X116524905Y-96902095D01*
X116286810Y-96902095D01*
X116191571Y-96949714D01*
X116143952Y-96997333D01*
X116096333Y-97092571D01*
X116096333Y-97283048D01*
X116143952Y-97378286D01*
X116191571Y-97425905D01*
X116286810Y-97473524D01*
X116715381Y-121222286D02*
X115715381Y-121222286D01*
X115715381Y-120841333D01*
X115763000Y-120746095D01*
X115810619Y-120698476D01*
X115905857Y-120650857D01*
X116048714Y-120650857D01*
X116143952Y-120698476D01*
X116191571Y-120746095D01*
X116239190Y-120841333D01*
X116239190Y-121222286D01*
X116715381Y-119698476D02*
X116715381Y-120269905D01*
X116715381Y-119984191D02*
X115715381Y-119984191D01*
X115858238Y-120079429D01*
X115953476Y-120174667D01*
X116001095Y-120269905D01*
X115715381Y-119365143D02*
X115715381Y-118698476D01*
X116715381Y-119127048D01*
X49924381Y-102186286D02*
X48924381Y-102186286D01*
X48924381Y-101805333D01*
X48972000Y-101710095D01*
X49019619Y-101662476D01*
X49114857Y-101614857D01*
X49257714Y-101614857D01*
X49352952Y-101662476D01*
X49400571Y-101710095D01*
X49448190Y-101805333D01*
X49448190Y-102186286D01*
X49924381Y-100662476D02*
X49924381Y-101233905D01*
X49924381Y-100948191D02*
X48924381Y-100948191D01*
X49067238Y-101043429D01*
X49162476Y-101138667D01*
X49210095Y-101233905D01*
X49352952Y-100091048D02*
X49305333Y-100186286D01*
X49257714Y-100233905D01*
X49162476Y-100281524D01*
X49114857Y-100281524D01*
X49019619Y-100233905D01*
X48972000Y-100186286D01*
X48924381Y-100091048D01*
X48924381Y-99900571D01*
X48972000Y-99805333D01*
X49019619Y-99757714D01*
X49114857Y-99710095D01*
X49162476Y-99710095D01*
X49257714Y-99757714D01*
X49305333Y-99805333D01*
X49352952Y-99900571D01*
X49352952Y-100091048D01*
X49400571Y-100186286D01*
X49448190Y-100233905D01*
X49543429Y-100281524D01*
X49733905Y-100281524D01*
X49829143Y-100233905D01*
X49876762Y-100186286D01*
X49924381Y-100091048D01*
X49924381Y-99900571D01*
X49876762Y-99805333D01*
X49829143Y-99757714D01*
X49733905Y-99710095D01*
X49543429Y-99710095D01*
X49448190Y-99757714D01*
X49400571Y-99805333D01*
X49352952Y-99900571D01*
X49924381Y-79834286D02*
X48924381Y-79834286D01*
X48924381Y-79453333D01*
X48972000Y-79358095D01*
X49019619Y-79310476D01*
X49114857Y-79262857D01*
X49257714Y-79262857D01*
X49352952Y-79310476D01*
X49400571Y-79358095D01*
X49448190Y-79453333D01*
X49448190Y-79834286D01*
X49924381Y-78310476D02*
X49924381Y-78881905D01*
X49924381Y-78596191D02*
X48924381Y-78596191D01*
X49067238Y-78691429D01*
X49162476Y-78786667D01*
X49210095Y-78881905D01*
X49924381Y-77834286D02*
X49924381Y-77643810D01*
X49876762Y-77548571D01*
X49829143Y-77500952D01*
X49686286Y-77405714D01*
X49495810Y-77358095D01*
X49114857Y-77358095D01*
X49019619Y-77405714D01*
X48972000Y-77453333D01*
X48924381Y-77548571D01*
X48924381Y-77739048D01*
X48972000Y-77834286D01*
X49019619Y-77881905D01*
X49114857Y-77929524D01*
X49352952Y-77929524D01*
X49448190Y-77881905D01*
X49495810Y-77834286D01*
X49543429Y-77739048D01*
X49543429Y-77548571D01*
X49495810Y-77453333D01*
X49448190Y-77405714D01*
X49352952Y-77358095D01*
X49924381Y-57228286D02*
X48924381Y-57228286D01*
X48924381Y-56847333D01*
X48972000Y-56752095D01*
X49019619Y-56704476D01*
X49114857Y-56656857D01*
X49257714Y-56656857D01*
X49352952Y-56704476D01*
X49400571Y-56752095D01*
X49448190Y-56847333D01*
X49448190Y-57228286D01*
X49019619Y-56275905D02*
X48972000Y-56228286D01*
X48924381Y-56133048D01*
X48924381Y-55894952D01*
X48972000Y-55799714D01*
X49019619Y-55752095D01*
X49114857Y-55704476D01*
X49210095Y-55704476D01*
X49352952Y-55752095D01*
X49924381Y-56323524D01*
X49924381Y-55704476D01*
X48924381Y-55085429D02*
X48924381Y-54990190D01*
X48972000Y-54894952D01*
X49019619Y-54847333D01*
X49114857Y-54799714D01*
X49305333Y-54752095D01*
X49543429Y-54752095D01*
X49733905Y-54799714D01*
X49829143Y-54847333D01*
X49876762Y-54894952D01*
X49924381Y-54990190D01*
X49924381Y-55085429D01*
X49876762Y-55180667D01*
X49829143Y-55228286D01*
X49733905Y-55275905D01*
X49543429Y-55323524D01*
X49305333Y-55323524D01*
X49114857Y-55275905D01*
X49019619Y-55228286D01*
X48972000Y-55180667D01*
X48924381Y-55085429D01*
X49924381Y-34368286D02*
X48924381Y-34368286D01*
X48924381Y-33987333D01*
X48972000Y-33892095D01*
X49019619Y-33844476D01*
X49114857Y-33796857D01*
X49257714Y-33796857D01*
X49352952Y-33844476D01*
X49400571Y-33892095D01*
X49448190Y-33987333D01*
X49448190Y-34368286D01*
X49019619Y-33415905D02*
X48972000Y-33368286D01*
X48924381Y-33273048D01*
X48924381Y-33034952D01*
X48972000Y-32939714D01*
X49019619Y-32892095D01*
X49114857Y-32844476D01*
X49210095Y-32844476D01*
X49352952Y-32892095D01*
X49924381Y-33463524D01*
X49924381Y-32844476D01*
X49924381Y-31892095D02*
X49924381Y-32463524D01*
X49924381Y-32177810D02*
X48924381Y-32177810D01*
X49067238Y-32273048D01*
X49162476Y-32368286D01*
X49210095Y-32463524D01*
X63650905Y-99376381D02*
X63650905Y-98376381D01*
X64031858Y-98376381D01*
X64127096Y-98424000D01*
X64174715Y-98471619D01*
X64222334Y-98566857D01*
X64222334Y-98709714D01*
X64174715Y-98804952D01*
X64127096Y-98852571D01*
X64031858Y-98900190D01*
X63650905Y-98900190D01*
X64555667Y-98376381D02*
X65174715Y-98376381D01*
X64841381Y-98757333D01*
X64984239Y-98757333D01*
X65079477Y-98804952D01*
X65127096Y-98852571D01*
X65174715Y-98947810D01*
X65174715Y-99185905D01*
X65127096Y-99281143D01*
X65079477Y-99328762D01*
X64984239Y-99376381D01*
X64698524Y-99376381D01*
X64603286Y-99328762D01*
X64555667Y-99281143D01*
X66571905Y-35622381D02*
X66571905Y-34622381D01*
X66952858Y-34622381D01*
X67048096Y-34670000D01*
X67095715Y-34717619D01*
X67143334Y-34812857D01*
X67143334Y-34955714D01*
X67095715Y-35050952D01*
X67048096Y-35098571D01*
X66952858Y-35146190D01*
X66571905Y-35146190D01*
X68000477Y-34622381D02*
X67810000Y-34622381D01*
X67714762Y-34670000D01*
X67667143Y-34717619D01*
X67571905Y-34860476D01*
X67524286Y-35050952D01*
X67524286Y-35431905D01*
X67571905Y-35527143D01*
X67619524Y-35574762D01*
X67714762Y-35622381D01*
X67905239Y-35622381D01*
X68000477Y-35574762D01*
X68048096Y-35527143D01*
X68095715Y-35431905D01*
X68095715Y-35193810D01*
X68048096Y-35098571D01*
X68000477Y-35050952D01*
X67905239Y-35003333D01*
X67714762Y-35003333D01*
X67619524Y-35050952D01*
X67571905Y-35098571D01*
X67524286Y-35193810D01*
X99845905Y-35622381D02*
X99845905Y-34622381D01*
X100226858Y-34622381D01*
X100322096Y-34670000D01*
X100369715Y-34717619D01*
X100417334Y-34812857D01*
X100417334Y-34955714D01*
X100369715Y-35050952D01*
X100322096Y-35098571D01*
X100226858Y-35146190D01*
X99845905Y-35146190D01*
X100750667Y-34622381D02*
X101417334Y-34622381D01*
X100988762Y-35622381D01*
X91035714Y-47452381D02*
X91035714Y-46452381D01*
X91416667Y-46452381D01*
X91511905Y-46500000D01*
X91559524Y-46547619D01*
X91607143Y-46642857D01*
X91607143Y-46785714D01*
X91559524Y-46880952D01*
X91511905Y-46928571D01*
X91416667Y-46976190D01*
X91035714Y-46976190D01*
X91988095Y-46547619D02*
X92035714Y-46500000D01*
X92130952Y-46452381D01*
X92369048Y-46452381D01*
X92464286Y-46500000D01*
X92511905Y-46547619D01*
X92559524Y-46642857D01*
X92559524Y-46738095D01*
X92511905Y-46880952D01*
X91940476Y-47452381D01*
X92559524Y-47452381D01*
X92940476Y-46547619D02*
X92988095Y-46500000D01*
X93083333Y-46452381D01*
X93321429Y-46452381D01*
X93416667Y-46500000D01*
X93464286Y-46547619D01*
X93511905Y-46642857D01*
X93511905Y-46738095D01*
X93464286Y-46880952D01*
X92892857Y-47452381D01*
X93511905Y-47452381D01*
X76035714Y-77452381D02*
X76035714Y-76452381D01*
X76416667Y-76452381D01*
X76511905Y-76500000D01*
X76559524Y-76547619D01*
X76607143Y-76642857D01*
X76607143Y-76785714D01*
X76559524Y-76880952D01*
X76511905Y-76928571D01*
X76416667Y-76976190D01*
X76035714Y-76976190D01*
X76988095Y-76547619D02*
X77035714Y-76500000D01*
X77130952Y-76452381D01*
X77369048Y-76452381D01*
X77464286Y-76500000D01*
X77511905Y-76547619D01*
X77559524Y-76642857D01*
X77559524Y-76738095D01*
X77511905Y-76880952D01*
X76940476Y-77452381D01*
X77559524Y-77452381D01*
X77892857Y-76452381D02*
X78511905Y-76452381D01*
X78178571Y-76833333D01*
X78321429Y-76833333D01*
X78416667Y-76880952D01*
X78464286Y-76928571D01*
X78511905Y-77023810D01*
X78511905Y-77261905D01*
X78464286Y-77357143D01*
X78416667Y-77404762D01*
X78321429Y-77452381D01*
X78035714Y-77452381D01*
X77940476Y-77404762D01*
X77892857Y-77357143D01*
X99083905Y-112584381D02*
X99083905Y-111584381D01*
X99464858Y-111584381D01*
X99560096Y-111632000D01*
X99607715Y-111679619D01*
X99655334Y-111774857D01*
X99655334Y-111917714D01*
X99607715Y-112012952D01*
X99560096Y-112060571D01*
X99464858Y-112108190D01*
X99083905Y-112108190D01*
X100512477Y-111917714D02*
X100512477Y-112584381D01*
X100274381Y-111536762D02*
X100036286Y-112251048D01*
X100655334Y-112251048D01*
M02*
