G04 #@! TF.FileFunction,Copper,L1,Top,Signal*
%FSLAX46Y46*%
G04 Gerber Fmt 4.6, Leading zero omitted, Abs format (unit mm)*
G04 Created by KiCad (PCBNEW 4.0.3+e1-6302~38~ubuntu16.04.1-stable) date Thu Aug 18 14:21:30 2016*
%MOMM*%
%LPD*%
G01*
G04 APERTURE LIST*
%ADD10C,0.100000*%
%ADD11C,2.500000*%
%ADD12R,2.500000X2.500000*%
%ADD13R,1.727200X2.032000*%
%ADD14O,1.727200X2.032000*%
%ADD15R,1.050000X1.050000*%
%ADD16C,1.050000*%
%ADD17C,2.499360*%
%ADD18C,6.400000*%
%ADD19C,6.000000*%
%ADD20C,0.600000*%
%ADD21C,2.500000*%
%ADD22C,0.600000*%
%ADD23C,0.254000*%
G04 APERTURE END LIST*
D10*
D11*
X110363000Y-25894000D03*
X110363000Y-30894000D03*
D12*
X110363000Y-40894000D03*
D11*
X110363000Y-35894000D03*
D13*
X69596000Y-105537000D03*
D14*
X72136000Y-105537000D03*
X74676000Y-105537000D03*
X77216000Y-105537000D03*
D15*
X72898000Y-100457000D03*
D16*
X71628000Y-100457000D03*
X70358000Y-100457000D03*
X69088000Y-100457000D03*
X71628000Y-99187000D03*
X70358000Y-99187000D03*
X69088000Y-99187000D03*
X72898000Y-99187000D03*
D13*
X77216000Y-94742000D03*
D14*
X74676000Y-94742000D03*
X72136000Y-94742000D03*
X69596000Y-94742000D03*
D17*
X93500000Y-46000000D03*
X76000000Y-46000000D03*
X93500000Y-86000000D03*
X76000000Y-86000000D03*
D11*
X110363000Y-47484000D03*
X110363000Y-52484000D03*
D12*
X110363000Y-62484000D03*
D11*
X110363000Y-57484000D03*
X110363000Y-69074000D03*
X110363000Y-74074000D03*
D12*
X110363000Y-84074000D03*
D11*
X110363000Y-79074000D03*
X110363000Y-90664000D03*
X110363000Y-95664000D03*
D12*
X110363000Y-105664000D03*
D11*
X110363000Y-100664000D03*
X110363000Y-112508000D03*
X110363000Y-117508000D03*
D12*
X110363000Y-127508000D03*
D11*
X110363000Y-122508000D03*
X55372000Y-108472000D03*
X55372000Y-103472000D03*
D12*
X55372000Y-93472000D03*
D11*
X55372000Y-98472000D03*
X55372000Y-86120000D03*
X55372000Y-81120000D03*
D12*
X55372000Y-71120000D03*
D11*
X55372000Y-76120000D03*
X55372000Y-63514000D03*
X55372000Y-58514000D03*
D12*
X55372000Y-48514000D03*
D11*
X55372000Y-53514000D03*
X55372000Y-40654000D03*
X55372000Y-35654000D03*
D12*
X55372000Y-25654000D03*
D11*
X55372000Y-30654000D03*
D16*
X74676000Y-36068000D03*
X74676000Y-34798000D03*
X75946000Y-36068000D03*
X75946000Y-34798000D03*
X77216000Y-36068000D03*
X77216000Y-34798000D03*
X78486000Y-34798000D03*
X73406000Y-36068000D03*
X73406000Y-34798000D03*
X78486000Y-36068000D03*
X79756000Y-34798000D03*
X79756000Y-36068000D03*
X79756000Y-36068000D03*
X79756000Y-36068000D03*
X79756000Y-36068000D03*
X79756000Y-36068000D03*
X79756000Y-36068000D03*
X79756000Y-36068000D03*
D15*
X84836000Y-36068000D03*
D16*
X83566000Y-36068000D03*
X82296000Y-36068000D03*
X81026000Y-36068000D03*
X79756000Y-36068000D03*
X83566000Y-34798000D03*
X82296000Y-34798000D03*
X81026000Y-34798000D03*
X79756000Y-34798000D03*
X84836000Y-34798000D03*
D18*
X64389000Y-103124000D03*
X67310000Y-39370000D03*
X100584000Y-39370000D03*
D19*
X92250000Y-51000000D03*
X77250000Y-81000000D03*
D18*
X99822000Y-116332000D03*
D20*
X82665700Y-37193300D03*
X87230300Y-48736500D03*
X101791100Y-109908000D03*
X59046300Y-72984000D03*
D21*
X100584000Y-42919100D02*
X100584000Y-39370000D01*
X92503100Y-51000000D02*
X100584000Y-42919100D01*
X92250000Y-51000000D02*
X92503100Y-51000000D01*
X100584000Y-35673000D02*
X110363000Y-25894000D01*
X100584000Y-39370000D02*
X100584000Y-35673000D01*
X76000000Y-79750000D02*
X76000000Y-46000000D01*
X77250000Y-81000000D02*
X76000000Y-79750000D01*
X76000000Y-82250000D02*
X76000000Y-86000000D01*
X77250000Y-81000000D02*
X76000000Y-82250000D01*
X113163400Y-66273600D02*
X110363000Y-69074000D01*
X113163400Y-50284400D02*
X113163400Y-66273600D01*
X110363000Y-47484000D02*
X113163400Y-50284400D01*
X113163400Y-87863600D02*
X110363000Y-90664000D01*
X113163400Y-71874400D02*
X113163400Y-87863600D01*
X110363000Y-69074000D02*
X113163400Y-71874400D01*
X113163400Y-109707600D02*
X110363000Y-112508000D01*
X113163400Y-93464400D02*
X113163400Y-109707600D01*
X110363000Y-90664000D02*
X113163400Y-93464400D01*
X110363000Y-35894000D02*
X110363000Y-30894000D01*
X103362400Y-76137600D02*
X93500000Y-86000000D01*
X103362400Y-44923600D02*
X103362400Y-76137600D01*
X106162600Y-42123400D02*
X103362400Y-44923600D01*
X106162600Y-40094400D02*
X106162600Y-42123400D01*
X110363000Y-35894000D02*
X106162600Y-40094400D01*
X110363000Y-40894000D02*
X110363000Y-43694300D01*
X110151400Y-43694300D02*
X110363000Y-43694300D01*
X107558100Y-46287600D02*
X110151400Y-43694300D01*
X107558100Y-59679100D02*
X107558100Y-46287600D01*
X110363000Y-62484000D02*
X107558100Y-59679100D01*
X107561600Y-81272600D02*
X110363000Y-84074000D01*
X107561600Y-65285400D02*
X107561600Y-81272600D01*
X110363000Y-62484000D02*
X107561600Y-65285400D01*
D22*
X69088000Y-103412700D02*
X69596000Y-103920700D01*
X69088000Y-100457000D02*
X69088000Y-103412700D01*
X69596000Y-105537000D02*
X69596000Y-103920700D01*
X72136000Y-103735100D02*
X72136000Y-105537000D01*
X70358000Y-101957100D02*
X72136000Y-103735100D01*
X70358000Y-100457000D02*
X70358000Y-101957100D01*
X74416000Y-103920700D02*
X74676000Y-103920700D01*
X71628000Y-101132700D02*
X74416000Y-103920700D01*
X71628000Y-100457000D02*
X71628000Y-101132700D01*
X74676000Y-105537000D02*
X74676000Y-103920700D01*
X70358000Y-96520000D02*
X72136000Y-94742000D01*
X70358000Y-99187000D02*
X70358000Y-96520000D01*
X55372000Y-25654000D02*
X55372000Y-30654000D01*
X55372000Y-35654000D02*
X55372000Y-40654000D01*
X55372000Y-40654000D02*
X55372000Y-48514000D01*
X55372000Y-48514000D02*
X55372000Y-53514000D01*
X55372000Y-53514000D02*
X55372000Y-58514000D01*
X55372000Y-58514000D02*
X55372000Y-63514000D01*
X84836000Y-36068000D02*
X84836000Y-37193300D01*
X84836000Y-37193300D02*
X82665700Y-37193300D01*
X87230300Y-35563500D02*
X87230300Y-48736500D01*
X85331500Y-33664700D02*
X87230300Y-35563500D01*
X83075000Y-33664700D02*
X85331500Y-33664700D01*
X82296000Y-34443700D02*
X83075000Y-33664700D01*
X82296000Y-34798000D02*
X82296000Y-34443700D01*
X81026000Y-89142900D02*
X81026000Y-36068000D01*
X101791100Y-109908000D02*
X81026000Y-89142900D01*
X110363000Y-121470100D02*
X110363000Y-122508000D01*
X101266800Y-112373900D02*
X110363000Y-121470100D01*
X99742200Y-112373900D02*
X101266800Y-112373900D01*
X73640600Y-86272300D02*
X99742200Y-112373900D01*
X73640600Y-44056100D02*
X73640600Y-86272300D01*
X79756000Y-37940700D02*
X73640600Y-44056100D01*
X79756000Y-36068000D02*
X79756000Y-37940700D01*
X110363000Y-115250900D02*
X110363000Y-117508000D01*
X88166700Y-93054600D02*
X110363000Y-115250900D01*
X88166700Y-35224600D02*
X88166700Y-93054600D01*
X85694200Y-32752100D02*
X88166700Y-35224600D01*
X81461100Y-32752100D02*
X85694200Y-32752100D01*
X79756000Y-34457200D02*
X81461100Y-32752100D01*
X79756000Y-34798000D02*
X79756000Y-34457200D01*
X71449600Y-82394400D02*
X55372000Y-98472000D01*
X71449600Y-44819800D02*
X71449600Y-82394400D01*
X78486000Y-37783400D02*
X71449600Y-44819800D01*
X78486000Y-36068000D02*
X78486000Y-37783400D01*
X53501900Y-101601900D02*
X55372000Y-103472000D01*
X53501900Y-68088500D02*
X53501900Y-101601900D01*
X57621200Y-63969200D02*
X53501900Y-68088500D01*
X57621200Y-54433400D02*
X57621200Y-63969200D01*
X72238000Y-39816600D02*
X57621200Y-54433400D01*
X72238000Y-34374500D02*
X72238000Y-39816600D01*
X72955200Y-33657300D02*
X72238000Y-34374500D01*
X77700600Y-33657300D02*
X72955200Y-33657300D01*
X78486000Y-34442700D02*
X77700600Y-33657300D01*
X78486000Y-34798000D02*
X78486000Y-34442700D01*
X70549200Y-61481100D02*
X59046300Y-72984000D01*
X70549200Y-44052000D02*
X70549200Y-61481100D01*
X75946000Y-38655200D02*
X70549200Y-44052000D01*
X75946000Y-36068000D02*
X75946000Y-38655200D01*
X58146000Y-78346000D02*
X55372000Y-81120000D01*
X58146000Y-72611000D02*
X58146000Y-78346000D01*
X58521500Y-72235500D02*
X58146000Y-72611000D01*
X58521500Y-54806400D02*
X58521500Y-72235500D01*
X74676000Y-38651900D02*
X58521500Y-54806400D01*
X74676000Y-36068000D02*
X74676000Y-38651900D01*
D23*
G36*
X53345231Y-24075948D02*
X53278799Y-24404000D01*
X53278799Y-26904000D01*
X53336465Y-27210468D01*
X53517587Y-27491939D01*
X53793948Y-27680769D01*
X54122000Y-27747201D01*
X54245000Y-27747201D01*
X54245000Y-28872349D01*
X54197011Y-28892178D01*
X53612232Y-29475938D01*
X53295361Y-30239047D01*
X53294640Y-31065328D01*
X53610178Y-31828989D01*
X54193938Y-32413768D01*
X54957047Y-32730639D01*
X55783328Y-32731360D01*
X56546989Y-32415822D01*
X57131768Y-31832062D01*
X57448639Y-31068953D01*
X57449360Y-30242672D01*
X57133822Y-29479011D01*
X56550062Y-28894232D01*
X56499000Y-28873029D01*
X56499000Y-27747201D01*
X56622000Y-27747201D01*
X56928468Y-27689535D01*
X57209939Y-27508413D01*
X57398769Y-27232052D01*
X57399727Y-27227320D01*
X109209285Y-27227320D01*
X109338533Y-27520123D01*
X110038806Y-27788388D01*
X110788435Y-27768250D01*
X111387467Y-27520123D01*
X111516715Y-27227320D01*
X110363000Y-26073605D01*
X109209285Y-27227320D01*
X57399727Y-27227320D01*
X57465201Y-26904000D01*
X57465201Y-25569806D01*
X108468612Y-25569806D01*
X108488750Y-26319435D01*
X108736877Y-26918467D01*
X109029680Y-27047715D01*
X110183395Y-25894000D01*
X110542605Y-25894000D01*
X111696320Y-27047715D01*
X111989123Y-26918467D01*
X112257388Y-26218194D01*
X112237250Y-25468565D01*
X111989123Y-24869533D01*
X111696320Y-24740285D01*
X110542605Y-25894000D01*
X110183395Y-25894000D01*
X109029680Y-24740285D01*
X108736877Y-24869533D01*
X108468612Y-25569806D01*
X57465201Y-25569806D01*
X57465201Y-24560680D01*
X109209285Y-24560680D01*
X110363000Y-25714395D01*
X111516715Y-24560680D01*
X111387467Y-24267877D01*
X110687194Y-23999612D01*
X109937565Y-24019750D01*
X109338533Y-24267877D01*
X109209285Y-24560680D01*
X57465201Y-24560680D01*
X57465201Y-24404000D01*
X57407535Y-24097532D01*
X57273348Y-23889000D01*
X114160000Y-23889000D01*
X114160000Y-129273000D01*
X112262032Y-129273000D01*
X112389769Y-129086052D01*
X112456201Y-128758000D01*
X112456201Y-126258000D01*
X112398535Y-125951532D01*
X112217413Y-125670061D01*
X111941052Y-125481231D01*
X111613000Y-125414799D01*
X109113000Y-125414799D01*
X108806532Y-125472465D01*
X108525061Y-125653587D01*
X108336231Y-125929948D01*
X108269799Y-126258000D01*
X108269799Y-128758000D01*
X108327465Y-129064468D01*
X108461652Y-129273000D01*
X51448000Y-129273000D01*
X51448000Y-119072910D01*
X97260695Y-119072910D01*
X97627640Y-119568343D01*
X99033171Y-120161736D01*
X100558793Y-120172087D01*
X101972246Y-119597819D01*
X102016360Y-119568343D01*
X102383305Y-119072910D01*
X99822000Y-116511605D01*
X97260695Y-119072910D01*
X51448000Y-119072910D01*
X51448000Y-117068793D01*
X95981913Y-117068793D01*
X96556181Y-118482246D01*
X96585657Y-118526360D01*
X97081090Y-118893305D01*
X99642395Y-116332000D01*
X97081090Y-113770695D01*
X96585657Y-114137640D01*
X95992264Y-115543171D01*
X95981913Y-117068793D01*
X51448000Y-117068793D01*
X51448000Y-109805320D01*
X54218285Y-109805320D01*
X54347533Y-110098123D01*
X55047806Y-110366388D01*
X55797435Y-110346250D01*
X56396467Y-110098123D01*
X56525715Y-109805320D01*
X55372000Y-108651605D01*
X54218285Y-109805320D01*
X51448000Y-109805320D01*
X51448000Y-108147806D01*
X53477612Y-108147806D01*
X53497750Y-108897435D01*
X53745877Y-109496467D01*
X54038680Y-109625715D01*
X55192395Y-108472000D01*
X55551605Y-108472000D01*
X56705320Y-109625715D01*
X56998123Y-109496467D01*
X57266388Y-108796194D01*
X57246250Y-108046565D01*
X56998123Y-107447533D01*
X56705320Y-107318285D01*
X55551605Y-108472000D01*
X55192395Y-108472000D01*
X54038680Y-107318285D01*
X53745877Y-107447533D01*
X53477612Y-108147806D01*
X51448000Y-108147806D01*
X51448000Y-107138680D01*
X54218285Y-107138680D01*
X55372000Y-108292395D01*
X56525715Y-107138680D01*
X56396467Y-106845877D01*
X55696194Y-106577612D01*
X54946565Y-106597750D01*
X54347533Y-106845877D01*
X54218285Y-107138680D01*
X51448000Y-107138680D01*
X51448000Y-105864910D01*
X61827695Y-105864910D01*
X62194640Y-106360343D01*
X63600171Y-106953736D01*
X65125793Y-106964087D01*
X66539246Y-106389819D01*
X66583360Y-106360343D01*
X66950305Y-105864910D01*
X64389000Y-103303605D01*
X61827695Y-105864910D01*
X51448000Y-105864910D01*
X51448000Y-68088500D01*
X52374900Y-68088500D01*
X52374900Y-101601900D01*
X52460688Y-102033184D01*
X52704991Y-102398809D01*
X53315274Y-103009092D01*
X53295361Y-103057047D01*
X53294640Y-103883328D01*
X53610178Y-104646989D01*
X54193938Y-105231768D01*
X54957047Y-105548639D01*
X55783328Y-105549360D01*
X56546989Y-105233822D01*
X57131768Y-104650062D01*
X57448639Y-103886953D01*
X57448661Y-103860793D01*
X60548913Y-103860793D01*
X61123181Y-105274246D01*
X61152657Y-105318360D01*
X61648090Y-105685305D01*
X64209395Y-103124000D01*
X64568605Y-103124000D01*
X67129910Y-105685305D01*
X67625343Y-105318360D01*
X67889199Y-104693382D01*
X67889199Y-106553000D01*
X67946865Y-106859468D01*
X68127987Y-107140939D01*
X68404348Y-107329769D01*
X68732400Y-107396201D01*
X70459600Y-107396201D01*
X70766068Y-107338535D01*
X71047539Y-107157413D01*
X71124938Y-107044136D01*
X71489035Y-107287418D01*
X72136000Y-107416107D01*
X72782965Y-107287418D01*
X73331435Y-106920942D01*
X73406000Y-106809348D01*
X73480565Y-106920942D01*
X74029035Y-107287418D01*
X74676000Y-107416107D01*
X75322965Y-107287418D01*
X75871435Y-106920942D01*
X75946000Y-106809348D01*
X76020565Y-106920942D01*
X76569035Y-107287418D01*
X77216000Y-107416107D01*
X77862965Y-107287418D01*
X78411435Y-106920942D01*
X78777911Y-106372472D01*
X78906600Y-105725507D01*
X78906600Y-105348493D01*
X78777911Y-104701528D01*
X78411435Y-104153058D01*
X77862965Y-103786582D01*
X77216000Y-103657893D01*
X76569035Y-103786582D01*
X76020565Y-104153058D01*
X75946000Y-104264652D01*
X75871435Y-104153058D01*
X75803000Y-104107331D01*
X75803000Y-103920700D01*
X75717212Y-103489416D01*
X75472909Y-103123791D01*
X75107284Y-102879488D01*
X74934173Y-102845054D01*
X73806856Y-101717737D01*
X74010939Y-101586413D01*
X74199769Y-101310052D01*
X74266201Y-100982000D01*
X74266201Y-99932000D01*
X74208535Y-99625532D01*
X74191088Y-99598419D01*
X74249765Y-99457109D01*
X74250234Y-98919250D01*
X74044838Y-98422154D01*
X73664846Y-98041499D01*
X73168109Y-97835235D01*
X72630250Y-97834766D01*
X72262709Y-97986631D01*
X71898109Y-97835235D01*
X71485000Y-97834875D01*
X71485000Y-96986818D01*
X71898044Y-96573775D01*
X72136000Y-96621107D01*
X72782965Y-96492418D01*
X73331435Y-96125942D01*
X73406000Y-96014348D01*
X73480565Y-96125942D01*
X74029035Y-96492418D01*
X74676000Y-96621107D01*
X75322965Y-96492418D01*
X75686107Y-96249774D01*
X75747987Y-96345939D01*
X76024348Y-96534769D01*
X76352400Y-96601201D01*
X78079600Y-96601201D01*
X78386068Y-96543535D01*
X78667539Y-96362413D01*
X78856369Y-96086052D01*
X78922801Y-95758000D01*
X78922801Y-93726000D01*
X78865135Y-93419532D01*
X78684013Y-93138061D01*
X78407652Y-92949231D01*
X78079600Y-92882799D01*
X76352400Y-92882799D01*
X76045932Y-92940465D01*
X75764461Y-93121587D01*
X75687062Y-93234864D01*
X75322965Y-92991582D01*
X74676000Y-92862893D01*
X74029035Y-92991582D01*
X73480565Y-93358058D01*
X73406000Y-93469652D01*
X73331435Y-93358058D01*
X72782965Y-92991582D01*
X72136000Y-92862893D01*
X71489035Y-92991582D01*
X70940565Y-93358058D01*
X70866000Y-93469652D01*
X70791435Y-93358058D01*
X70242965Y-92991582D01*
X69596000Y-92862893D01*
X68949035Y-92991582D01*
X68400565Y-93358058D01*
X68034089Y-93906528D01*
X67905400Y-94553493D01*
X67905400Y-94930507D01*
X68034089Y-95577472D01*
X68400565Y-96125942D01*
X68949035Y-96492418D01*
X69231000Y-96548504D01*
X69231000Y-97835124D01*
X68820250Y-97834766D01*
X68323154Y-98040162D01*
X67942499Y-98420154D01*
X67736235Y-98916891D01*
X67735766Y-99454750D01*
X67887631Y-99822291D01*
X67736235Y-100186891D01*
X67735766Y-100724750D01*
X67941162Y-101221846D01*
X67961000Y-101241719D01*
X67961000Y-101727361D01*
X67654819Y-100973754D01*
X67625343Y-100929640D01*
X67129910Y-100562695D01*
X64568605Y-103124000D01*
X64209395Y-103124000D01*
X61648090Y-100562695D01*
X61152657Y-100929640D01*
X60559264Y-102335171D01*
X60548913Y-103860793D01*
X57448661Y-103860793D01*
X57449360Y-103060672D01*
X57133822Y-102297011D01*
X56550062Y-101712232D01*
X55786953Y-101395361D01*
X54960672Y-101394640D01*
X54909572Y-101415754D01*
X54628900Y-101135082D01*
X54628900Y-100412380D01*
X54957047Y-100548639D01*
X55783328Y-100549360D01*
X56185732Y-100383090D01*
X61827695Y-100383090D01*
X64389000Y-102944395D01*
X66950305Y-100383090D01*
X66583360Y-99887657D01*
X65177829Y-99294264D01*
X63652207Y-99283913D01*
X62238754Y-99858181D01*
X62194640Y-99887657D01*
X61827695Y-100383090D01*
X56185732Y-100383090D01*
X56546989Y-100233822D01*
X57131768Y-99650062D01*
X57448639Y-98886953D01*
X57449360Y-98060672D01*
X57428246Y-98009572D01*
X72246509Y-83191309D01*
X72490812Y-82825684D01*
X72513600Y-82711121D01*
X72513600Y-86272300D01*
X72599388Y-86703584D01*
X72843691Y-87069209D01*
X98502955Y-112728474D01*
X97671754Y-113066181D01*
X97627640Y-113095657D01*
X97260695Y-113591090D01*
X99822000Y-116152395D01*
X99836143Y-116138253D01*
X100015748Y-116317858D01*
X100001605Y-116332000D01*
X102562910Y-118893305D01*
X103058343Y-118526360D01*
X103651736Y-117120829D01*
X103656913Y-116357831D01*
X108616137Y-121317056D01*
X108603232Y-121329938D01*
X108286361Y-122093047D01*
X108285640Y-122919328D01*
X108601178Y-123682989D01*
X109184938Y-124267768D01*
X109948047Y-124584639D01*
X110774328Y-124585360D01*
X111537989Y-124269822D01*
X112122768Y-123686062D01*
X112439639Y-122922953D01*
X112440360Y-122096672D01*
X112124822Y-121333011D01*
X111541062Y-120748232D01*
X111017583Y-120530864D01*
X110071466Y-119584747D01*
X110774328Y-119585360D01*
X111537989Y-119269822D01*
X112122768Y-118686062D01*
X112439639Y-117922953D01*
X112440360Y-117096672D01*
X112124822Y-116333011D01*
X111541062Y-115748232D01*
X111490000Y-115727029D01*
X111490000Y-115250900D01*
X111404212Y-114819616D01*
X111404212Y-114819615D01*
X111159909Y-114453990D01*
X111000379Y-114294460D01*
X111387467Y-114134123D01*
X111516715Y-113841320D01*
X110363000Y-112687605D01*
X110348858Y-112701748D01*
X110169253Y-112522143D01*
X110183395Y-112508000D01*
X110542605Y-112508000D01*
X111696320Y-113661715D01*
X111989123Y-113532467D01*
X112257388Y-112832194D01*
X112237250Y-112082565D01*
X111989123Y-111483533D01*
X111696320Y-111354285D01*
X110542605Y-112508000D01*
X110183395Y-112508000D01*
X109029680Y-111354285D01*
X108736877Y-111483533D01*
X108585252Y-111879333D01*
X107880599Y-111174680D01*
X109209285Y-111174680D01*
X110363000Y-112328395D01*
X111516715Y-111174680D01*
X111387467Y-110881877D01*
X110687194Y-110613612D01*
X109937565Y-110633750D01*
X109338533Y-110881877D01*
X109209285Y-111174680D01*
X107880599Y-111174680D01*
X101119919Y-104414000D01*
X108269799Y-104414000D01*
X108269799Y-106914000D01*
X108327465Y-107220468D01*
X108508587Y-107501939D01*
X108784948Y-107690769D01*
X109113000Y-107757201D01*
X111613000Y-107757201D01*
X111919468Y-107699535D01*
X112200939Y-107518413D01*
X112389769Y-107242052D01*
X112456201Y-106914000D01*
X112456201Y-104414000D01*
X112398535Y-104107532D01*
X112217413Y-103826061D01*
X111941052Y-103637231D01*
X111613000Y-103570799D01*
X109113000Y-103570799D01*
X108806532Y-103628465D01*
X108525061Y-103809587D01*
X108336231Y-104085948D01*
X108269799Y-104414000D01*
X101119919Y-104414000D01*
X97781247Y-101075328D01*
X108285640Y-101075328D01*
X108601178Y-101838989D01*
X109184938Y-102423768D01*
X109948047Y-102740639D01*
X110774328Y-102741360D01*
X111537989Y-102425822D01*
X112122768Y-101842062D01*
X112439639Y-101078953D01*
X112440360Y-100252672D01*
X112124822Y-99489011D01*
X111541062Y-98904232D01*
X110777953Y-98587361D01*
X109951672Y-98586640D01*
X109188011Y-98902178D01*
X108603232Y-99485938D01*
X108286361Y-100249047D01*
X108285640Y-101075328D01*
X97781247Y-101075328D01*
X92781247Y-96075328D01*
X108285640Y-96075328D01*
X108601178Y-96838989D01*
X109184938Y-97423768D01*
X109948047Y-97740639D01*
X110774328Y-97741360D01*
X111537989Y-97425822D01*
X112122768Y-96842062D01*
X112439639Y-96078953D01*
X112440360Y-95252672D01*
X112124822Y-94489011D01*
X111541062Y-93904232D01*
X110777953Y-93587361D01*
X109951672Y-93586640D01*
X109188011Y-93902178D01*
X108603232Y-94485938D01*
X108286361Y-95249047D01*
X108285640Y-96075328D01*
X92781247Y-96075328D01*
X89293700Y-92587782D01*
X89293700Y-91997320D01*
X109209285Y-91997320D01*
X109338533Y-92290123D01*
X110038806Y-92558388D01*
X110788435Y-92538250D01*
X111387467Y-92290123D01*
X111516715Y-91997320D01*
X110363000Y-90843605D01*
X109209285Y-91997320D01*
X89293700Y-91997320D01*
X89293700Y-90339806D01*
X108468612Y-90339806D01*
X108488750Y-91089435D01*
X108736877Y-91688467D01*
X109029680Y-91817715D01*
X110183395Y-90664000D01*
X110542605Y-90664000D01*
X111696320Y-91817715D01*
X111989123Y-91688467D01*
X112257388Y-90988194D01*
X112237250Y-90238565D01*
X111989123Y-89639533D01*
X111696320Y-89510285D01*
X110542605Y-90664000D01*
X110183395Y-90664000D01*
X109029680Y-89510285D01*
X108736877Y-89639533D01*
X108468612Y-90339806D01*
X89293700Y-90339806D01*
X89293700Y-89330680D01*
X109209285Y-89330680D01*
X110363000Y-90484395D01*
X111516715Y-89330680D01*
X111387467Y-89037877D01*
X110687194Y-88769612D01*
X109937565Y-88789750D01*
X109338533Y-89037877D01*
X109209285Y-89330680D01*
X89293700Y-89330680D01*
X89293700Y-86411265D01*
X91422960Y-86411265D01*
X91580782Y-86793223D01*
X91581102Y-86794834D01*
X91582007Y-86796188D01*
X91738449Y-87174808D01*
X92030426Y-87467295D01*
X92031339Y-87468661D01*
X92032693Y-87469566D01*
X92322119Y-87759497D01*
X92703799Y-87917985D01*
X92705166Y-87918898D01*
X92706764Y-87919216D01*
X93085110Y-88076319D01*
X93498390Y-88076680D01*
X93500000Y-88077000D01*
X93501596Y-88076682D01*
X93911265Y-88077040D01*
X94293223Y-87919218D01*
X94294834Y-87918898D01*
X94296188Y-87917993D01*
X94674808Y-87761551D01*
X94967295Y-87469574D01*
X94968661Y-87468661D01*
X95227365Y-87209957D01*
X95259497Y-87177881D01*
X95259537Y-87177785D01*
X104831061Y-77606261D01*
X105281298Y-76932434D01*
X105439400Y-76137600D01*
X105439400Y-45783922D01*
X105616519Y-45606803D01*
X105481100Y-46287600D01*
X105481100Y-59679100D01*
X105639202Y-60473934D01*
X106089439Y-61147761D01*
X107425678Y-62484000D01*
X106092939Y-63816739D01*
X105642702Y-64490566D01*
X105636940Y-64519535D01*
X105484600Y-65285400D01*
X105484600Y-81272600D01*
X105642702Y-82067434D01*
X106092939Y-82741261D01*
X108269799Y-84918121D01*
X108269799Y-85324000D01*
X108327465Y-85630468D01*
X108508587Y-85911939D01*
X108784948Y-86100769D01*
X109113000Y-86167201D01*
X111613000Y-86167201D01*
X111919468Y-86109535D01*
X112200939Y-85928413D01*
X112389769Y-85652052D01*
X112456201Y-85324000D01*
X112456201Y-82824000D01*
X112398535Y-82517532D01*
X112217413Y-82236061D01*
X111941052Y-82047231D01*
X111613000Y-81980799D01*
X111207121Y-81980799D01*
X110377336Y-81151014D01*
X110774328Y-81151360D01*
X111537989Y-80835822D01*
X112122768Y-80252062D01*
X112439639Y-79488953D01*
X112440360Y-78662672D01*
X112124822Y-77899011D01*
X111541062Y-77314232D01*
X110777953Y-76997361D01*
X109951672Y-76996640D01*
X109638600Y-77125999D01*
X109638600Y-76022145D01*
X109948047Y-76150639D01*
X110774328Y-76151360D01*
X111537989Y-75835822D01*
X112122768Y-75252062D01*
X112439639Y-74488953D01*
X112440360Y-73662672D01*
X112124822Y-72899011D01*
X111541062Y-72314232D01*
X110777953Y-71997361D01*
X109951672Y-71996640D01*
X109638600Y-72125999D01*
X109638600Y-70815075D01*
X110038806Y-70968388D01*
X110788435Y-70948250D01*
X111387467Y-70700123D01*
X111516715Y-70407320D01*
X110363000Y-69253605D01*
X110348858Y-69267748D01*
X110169253Y-69088143D01*
X110183395Y-69074000D01*
X110542605Y-69074000D01*
X111696320Y-70227715D01*
X111989123Y-70098467D01*
X112257388Y-69398194D01*
X112237250Y-68648565D01*
X111989123Y-68049533D01*
X111696320Y-67920285D01*
X110542605Y-69074000D01*
X110183395Y-69074000D01*
X110169253Y-69059858D01*
X110348858Y-68880253D01*
X110363000Y-68894395D01*
X111516715Y-67740680D01*
X111387467Y-67447877D01*
X110687194Y-67179612D01*
X109937565Y-67199750D01*
X109638600Y-67323585D01*
X109638600Y-66145722D01*
X111207121Y-64577201D01*
X111613000Y-64577201D01*
X111919468Y-64519535D01*
X112200939Y-64338413D01*
X112389769Y-64062052D01*
X112456201Y-63734000D01*
X112456201Y-61234000D01*
X112398535Y-60927532D01*
X112217413Y-60646061D01*
X111941052Y-60457231D01*
X111613000Y-60390799D01*
X111207121Y-60390799D01*
X110377336Y-59561014D01*
X110774328Y-59561360D01*
X111537989Y-59245822D01*
X112122768Y-58662062D01*
X112439639Y-57898953D01*
X112440360Y-57072672D01*
X112124822Y-56309011D01*
X111541062Y-55724232D01*
X110777953Y-55407361D01*
X109951672Y-55406640D01*
X109635100Y-55537445D01*
X109635100Y-54430692D01*
X109948047Y-54560639D01*
X110774328Y-54561360D01*
X111537989Y-54245822D01*
X112122768Y-53662062D01*
X112439639Y-52898953D01*
X112440360Y-52072672D01*
X112124822Y-51309011D01*
X111541062Y-50724232D01*
X110777953Y-50407361D01*
X109951672Y-50406640D01*
X109635100Y-50537445D01*
X109635100Y-49223734D01*
X110038806Y-49378388D01*
X110788435Y-49358250D01*
X111387467Y-49110123D01*
X111516715Y-48817320D01*
X110363000Y-47663605D01*
X110348858Y-47677748D01*
X110169253Y-47498143D01*
X110183395Y-47484000D01*
X110542605Y-47484000D01*
X111696320Y-48637715D01*
X111989123Y-48508467D01*
X112257388Y-47808194D01*
X112237250Y-47058565D01*
X111989123Y-46459533D01*
X111696320Y-46330285D01*
X110542605Y-47484000D01*
X110183395Y-47484000D01*
X110169253Y-47469858D01*
X110348858Y-47290253D01*
X110363000Y-47304395D01*
X111516715Y-46150680D01*
X111387467Y-45857877D01*
X111053199Y-45729823D01*
X111193970Y-45589052D01*
X111831661Y-45162961D01*
X112281898Y-44489133D01*
X112440000Y-43694300D01*
X112440000Y-42224003D01*
X112456201Y-42144000D01*
X112456201Y-39644000D01*
X112398535Y-39337532D01*
X112217413Y-39056061D01*
X111941052Y-38867231D01*
X111613000Y-38800799D01*
X110393523Y-38800799D01*
X111831239Y-37363083D01*
X112122768Y-37072062D01*
X112439639Y-36308953D01*
X112440360Y-35482672D01*
X112440000Y-35481801D01*
X112440000Y-30895239D01*
X112440360Y-30482672D01*
X112124822Y-29719011D01*
X111541062Y-29134232D01*
X110777953Y-28817361D01*
X109951672Y-28816640D01*
X109188011Y-29132178D01*
X108603232Y-29715938D01*
X108286361Y-30479047D01*
X108285640Y-31305328D01*
X108286000Y-31306199D01*
X108286000Y-35033678D01*
X104693939Y-38625739D01*
X104421370Y-39033667D01*
X104424087Y-38633207D01*
X103849819Y-37219754D01*
X103820343Y-37175640D01*
X103324910Y-36808695D01*
X100763605Y-39370000D01*
X100777748Y-39384143D01*
X100598143Y-39563748D01*
X100584000Y-39549605D01*
X98022695Y-42110910D01*
X98389640Y-42606343D01*
X99795171Y-43199736D01*
X101320793Y-43210087D01*
X102698224Y-42650454D01*
X101893739Y-43454939D01*
X101443502Y-44128766D01*
X101336459Y-44666911D01*
X101285400Y-44923600D01*
X101285400Y-75277278D01*
X92031339Y-84531339D01*
X92030434Y-84532693D01*
X91740503Y-84822119D01*
X91582015Y-85203799D01*
X91581102Y-85205166D01*
X91580784Y-85206764D01*
X91423681Y-85585110D01*
X91423320Y-85998390D01*
X91423000Y-86000000D01*
X91423318Y-86001596D01*
X91422960Y-86411265D01*
X89293700Y-86411265D01*
X89293700Y-53596630D01*
X89832975Y-53596630D01*
X90175566Y-54071277D01*
X91508800Y-54631342D01*
X92954875Y-54638568D01*
X94293639Y-54091854D01*
X94324434Y-54071277D01*
X94667025Y-53596630D01*
X92250000Y-51179605D01*
X89832975Y-53596630D01*
X89293700Y-53596630D01*
X89293700Y-53157422D01*
X89653370Y-53417025D01*
X92070395Y-51000000D01*
X92429605Y-51000000D01*
X94846630Y-53417025D01*
X95321277Y-53074434D01*
X95881342Y-51741200D01*
X95888568Y-50295125D01*
X95341854Y-48956361D01*
X95321277Y-48925566D01*
X94846630Y-48582975D01*
X92429605Y-51000000D01*
X92070395Y-51000000D01*
X89653370Y-48582975D01*
X89293700Y-48842578D01*
X89293700Y-48403370D01*
X89832975Y-48403370D01*
X92250000Y-50820395D01*
X94667025Y-48403370D01*
X94324434Y-47928723D01*
X94297551Y-47917430D01*
X94674808Y-47761551D01*
X95259497Y-47177881D01*
X95576319Y-46414890D01*
X95577040Y-45588735D01*
X95261551Y-44825192D01*
X94677881Y-44240503D01*
X93914890Y-43923681D01*
X93088735Y-43922960D01*
X92325192Y-44238449D01*
X91740503Y-44822119D01*
X91423681Y-45585110D01*
X91422960Y-46411265D01*
X91738449Y-47174808D01*
X91926651Y-47363338D01*
X91545125Y-47361432D01*
X90206361Y-47908146D01*
X90175566Y-47928723D01*
X89832975Y-48403370D01*
X89293700Y-48403370D01*
X89293700Y-40106793D01*
X96743913Y-40106793D01*
X97318181Y-41520246D01*
X97347657Y-41564360D01*
X97843090Y-41931305D01*
X100404395Y-39370000D01*
X97843090Y-36808695D01*
X97347657Y-37175640D01*
X96754264Y-38581171D01*
X96743913Y-40106793D01*
X89293700Y-40106793D01*
X89293700Y-36629090D01*
X98022695Y-36629090D01*
X100584000Y-39190395D01*
X103145305Y-36629090D01*
X102778360Y-36133657D01*
X101372829Y-35540264D01*
X99847207Y-35529913D01*
X98433754Y-36104181D01*
X98389640Y-36133657D01*
X98022695Y-36629090D01*
X89293700Y-36629090D01*
X89293700Y-35224600D01*
X89207912Y-34793316D01*
X88963609Y-34427691D01*
X86491109Y-31955191D01*
X86125484Y-31710888D01*
X85694200Y-31625100D01*
X81461100Y-31625100D01*
X81029816Y-31710888D01*
X80664191Y-31955190D01*
X79128250Y-33491132D01*
X78497509Y-32860391D01*
X78131884Y-32616088D01*
X77700600Y-32530300D01*
X72955200Y-32530300D01*
X72523916Y-32616088D01*
X72158291Y-32860391D01*
X71441091Y-33577591D01*
X71196788Y-33943216D01*
X71111000Y-34374500D01*
X71111000Y-38537002D01*
X70575819Y-37219754D01*
X70546343Y-37175640D01*
X70050910Y-36808695D01*
X67489605Y-39370000D01*
X67503748Y-39384143D01*
X67324143Y-39563748D01*
X67310000Y-39549605D01*
X64748695Y-42110910D01*
X65115640Y-42606343D01*
X66521171Y-43199736D01*
X67256060Y-43204722D01*
X57422680Y-53038102D01*
X57133822Y-52339011D01*
X56550062Y-51754232D01*
X56499000Y-51733029D01*
X56499000Y-50607201D01*
X56622000Y-50607201D01*
X56928468Y-50549535D01*
X57209939Y-50368413D01*
X57398769Y-50092052D01*
X57465201Y-49764000D01*
X57465201Y-47264000D01*
X57407535Y-46957532D01*
X57226413Y-46676061D01*
X56950052Y-46487231D01*
X56622000Y-46420799D01*
X56499000Y-46420799D01*
X56499000Y-42435651D01*
X56546989Y-42415822D01*
X57131768Y-41832062D01*
X57448639Y-41068953D01*
X57449360Y-40242672D01*
X57393216Y-40106793D01*
X63469913Y-40106793D01*
X64044181Y-41520246D01*
X64073657Y-41564360D01*
X64569090Y-41931305D01*
X67130395Y-39370000D01*
X64569090Y-36808695D01*
X64073657Y-37175640D01*
X63480264Y-38581171D01*
X63469913Y-40106793D01*
X57393216Y-40106793D01*
X57133822Y-39479011D01*
X56550062Y-38894232D01*
X56499000Y-38873029D01*
X56499000Y-37435651D01*
X56546989Y-37415822D01*
X57131768Y-36832062D01*
X57216049Y-36629090D01*
X64748695Y-36629090D01*
X67310000Y-39190395D01*
X69871305Y-36629090D01*
X69504360Y-36133657D01*
X68098829Y-35540264D01*
X66573207Y-35529913D01*
X65159754Y-36104181D01*
X65115640Y-36133657D01*
X64748695Y-36629090D01*
X57216049Y-36629090D01*
X57448639Y-36068953D01*
X57449360Y-35242672D01*
X57133822Y-34479011D01*
X56550062Y-33894232D01*
X55786953Y-33577361D01*
X54960672Y-33576640D01*
X54197011Y-33892178D01*
X53612232Y-34475938D01*
X53295361Y-35239047D01*
X53294640Y-36065328D01*
X53610178Y-36828989D01*
X54193938Y-37413768D01*
X54245000Y-37434971D01*
X54245000Y-38872349D01*
X54197011Y-38892178D01*
X53612232Y-39475938D01*
X53295361Y-40239047D01*
X53294640Y-41065328D01*
X53610178Y-41828989D01*
X54193938Y-42413768D01*
X54245000Y-42434971D01*
X54245000Y-46420799D01*
X54122000Y-46420799D01*
X53815532Y-46478465D01*
X53534061Y-46659587D01*
X53345231Y-46935948D01*
X53278799Y-47264000D01*
X53278799Y-49764000D01*
X53336465Y-50070468D01*
X53517587Y-50351939D01*
X53793948Y-50540769D01*
X54122000Y-50607201D01*
X54245000Y-50607201D01*
X54245000Y-51732349D01*
X54197011Y-51752178D01*
X53612232Y-52335938D01*
X53295361Y-53099047D01*
X53294640Y-53925328D01*
X53610178Y-54688989D01*
X54193938Y-55273768D01*
X54245000Y-55294971D01*
X54245000Y-56732349D01*
X54197011Y-56752178D01*
X53612232Y-57335938D01*
X53295361Y-58099047D01*
X53294640Y-58925328D01*
X53610178Y-59688989D01*
X54193938Y-60273768D01*
X54245000Y-60294971D01*
X54245000Y-61732349D01*
X54197011Y-61752178D01*
X53612232Y-62335938D01*
X53295361Y-63099047D01*
X53294640Y-63925328D01*
X53610178Y-64688989D01*
X54193938Y-65273768D01*
X54567639Y-65428943D01*
X52704991Y-67291591D01*
X52460688Y-67657216D01*
X52374900Y-68088500D01*
X51448000Y-68088500D01*
X51448000Y-23889000D01*
X53472968Y-23889000D01*
X53345231Y-24075948D01*
X53345231Y-24075948D01*
G37*
X53345231Y-24075948D02*
X53278799Y-24404000D01*
X53278799Y-26904000D01*
X53336465Y-27210468D01*
X53517587Y-27491939D01*
X53793948Y-27680769D01*
X54122000Y-27747201D01*
X54245000Y-27747201D01*
X54245000Y-28872349D01*
X54197011Y-28892178D01*
X53612232Y-29475938D01*
X53295361Y-30239047D01*
X53294640Y-31065328D01*
X53610178Y-31828989D01*
X54193938Y-32413768D01*
X54957047Y-32730639D01*
X55783328Y-32731360D01*
X56546989Y-32415822D01*
X57131768Y-31832062D01*
X57448639Y-31068953D01*
X57449360Y-30242672D01*
X57133822Y-29479011D01*
X56550062Y-28894232D01*
X56499000Y-28873029D01*
X56499000Y-27747201D01*
X56622000Y-27747201D01*
X56928468Y-27689535D01*
X57209939Y-27508413D01*
X57398769Y-27232052D01*
X57399727Y-27227320D01*
X109209285Y-27227320D01*
X109338533Y-27520123D01*
X110038806Y-27788388D01*
X110788435Y-27768250D01*
X111387467Y-27520123D01*
X111516715Y-27227320D01*
X110363000Y-26073605D01*
X109209285Y-27227320D01*
X57399727Y-27227320D01*
X57465201Y-26904000D01*
X57465201Y-25569806D01*
X108468612Y-25569806D01*
X108488750Y-26319435D01*
X108736877Y-26918467D01*
X109029680Y-27047715D01*
X110183395Y-25894000D01*
X110542605Y-25894000D01*
X111696320Y-27047715D01*
X111989123Y-26918467D01*
X112257388Y-26218194D01*
X112237250Y-25468565D01*
X111989123Y-24869533D01*
X111696320Y-24740285D01*
X110542605Y-25894000D01*
X110183395Y-25894000D01*
X109029680Y-24740285D01*
X108736877Y-24869533D01*
X108468612Y-25569806D01*
X57465201Y-25569806D01*
X57465201Y-24560680D01*
X109209285Y-24560680D01*
X110363000Y-25714395D01*
X111516715Y-24560680D01*
X111387467Y-24267877D01*
X110687194Y-23999612D01*
X109937565Y-24019750D01*
X109338533Y-24267877D01*
X109209285Y-24560680D01*
X57465201Y-24560680D01*
X57465201Y-24404000D01*
X57407535Y-24097532D01*
X57273348Y-23889000D01*
X114160000Y-23889000D01*
X114160000Y-129273000D01*
X112262032Y-129273000D01*
X112389769Y-129086052D01*
X112456201Y-128758000D01*
X112456201Y-126258000D01*
X112398535Y-125951532D01*
X112217413Y-125670061D01*
X111941052Y-125481231D01*
X111613000Y-125414799D01*
X109113000Y-125414799D01*
X108806532Y-125472465D01*
X108525061Y-125653587D01*
X108336231Y-125929948D01*
X108269799Y-126258000D01*
X108269799Y-128758000D01*
X108327465Y-129064468D01*
X108461652Y-129273000D01*
X51448000Y-129273000D01*
X51448000Y-119072910D01*
X97260695Y-119072910D01*
X97627640Y-119568343D01*
X99033171Y-120161736D01*
X100558793Y-120172087D01*
X101972246Y-119597819D01*
X102016360Y-119568343D01*
X102383305Y-119072910D01*
X99822000Y-116511605D01*
X97260695Y-119072910D01*
X51448000Y-119072910D01*
X51448000Y-117068793D01*
X95981913Y-117068793D01*
X96556181Y-118482246D01*
X96585657Y-118526360D01*
X97081090Y-118893305D01*
X99642395Y-116332000D01*
X97081090Y-113770695D01*
X96585657Y-114137640D01*
X95992264Y-115543171D01*
X95981913Y-117068793D01*
X51448000Y-117068793D01*
X51448000Y-109805320D01*
X54218285Y-109805320D01*
X54347533Y-110098123D01*
X55047806Y-110366388D01*
X55797435Y-110346250D01*
X56396467Y-110098123D01*
X56525715Y-109805320D01*
X55372000Y-108651605D01*
X54218285Y-109805320D01*
X51448000Y-109805320D01*
X51448000Y-108147806D01*
X53477612Y-108147806D01*
X53497750Y-108897435D01*
X53745877Y-109496467D01*
X54038680Y-109625715D01*
X55192395Y-108472000D01*
X55551605Y-108472000D01*
X56705320Y-109625715D01*
X56998123Y-109496467D01*
X57266388Y-108796194D01*
X57246250Y-108046565D01*
X56998123Y-107447533D01*
X56705320Y-107318285D01*
X55551605Y-108472000D01*
X55192395Y-108472000D01*
X54038680Y-107318285D01*
X53745877Y-107447533D01*
X53477612Y-108147806D01*
X51448000Y-108147806D01*
X51448000Y-107138680D01*
X54218285Y-107138680D01*
X55372000Y-108292395D01*
X56525715Y-107138680D01*
X56396467Y-106845877D01*
X55696194Y-106577612D01*
X54946565Y-106597750D01*
X54347533Y-106845877D01*
X54218285Y-107138680D01*
X51448000Y-107138680D01*
X51448000Y-105864910D01*
X61827695Y-105864910D01*
X62194640Y-106360343D01*
X63600171Y-106953736D01*
X65125793Y-106964087D01*
X66539246Y-106389819D01*
X66583360Y-106360343D01*
X66950305Y-105864910D01*
X64389000Y-103303605D01*
X61827695Y-105864910D01*
X51448000Y-105864910D01*
X51448000Y-68088500D01*
X52374900Y-68088500D01*
X52374900Y-101601900D01*
X52460688Y-102033184D01*
X52704991Y-102398809D01*
X53315274Y-103009092D01*
X53295361Y-103057047D01*
X53294640Y-103883328D01*
X53610178Y-104646989D01*
X54193938Y-105231768D01*
X54957047Y-105548639D01*
X55783328Y-105549360D01*
X56546989Y-105233822D01*
X57131768Y-104650062D01*
X57448639Y-103886953D01*
X57448661Y-103860793D01*
X60548913Y-103860793D01*
X61123181Y-105274246D01*
X61152657Y-105318360D01*
X61648090Y-105685305D01*
X64209395Y-103124000D01*
X64568605Y-103124000D01*
X67129910Y-105685305D01*
X67625343Y-105318360D01*
X67889199Y-104693382D01*
X67889199Y-106553000D01*
X67946865Y-106859468D01*
X68127987Y-107140939D01*
X68404348Y-107329769D01*
X68732400Y-107396201D01*
X70459600Y-107396201D01*
X70766068Y-107338535D01*
X71047539Y-107157413D01*
X71124938Y-107044136D01*
X71489035Y-107287418D01*
X72136000Y-107416107D01*
X72782965Y-107287418D01*
X73331435Y-106920942D01*
X73406000Y-106809348D01*
X73480565Y-106920942D01*
X74029035Y-107287418D01*
X74676000Y-107416107D01*
X75322965Y-107287418D01*
X75871435Y-106920942D01*
X75946000Y-106809348D01*
X76020565Y-106920942D01*
X76569035Y-107287418D01*
X77216000Y-107416107D01*
X77862965Y-107287418D01*
X78411435Y-106920942D01*
X78777911Y-106372472D01*
X78906600Y-105725507D01*
X78906600Y-105348493D01*
X78777911Y-104701528D01*
X78411435Y-104153058D01*
X77862965Y-103786582D01*
X77216000Y-103657893D01*
X76569035Y-103786582D01*
X76020565Y-104153058D01*
X75946000Y-104264652D01*
X75871435Y-104153058D01*
X75803000Y-104107331D01*
X75803000Y-103920700D01*
X75717212Y-103489416D01*
X75472909Y-103123791D01*
X75107284Y-102879488D01*
X74934173Y-102845054D01*
X73806856Y-101717737D01*
X74010939Y-101586413D01*
X74199769Y-101310052D01*
X74266201Y-100982000D01*
X74266201Y-99932000D01*
X74208535Y-99625532D01*
X74191088Y-99598419D01*
X74249765Y-99457109D01*
X74250234Y-98919250D01*
X74044838Y-98422154D01*
X73664846Y-98041499D01*
X73168109Y-97835235D01*
X72630250Y-97834766D01*
X72262709Y-97986631D01*
X71898109Y-97835235D01*
X71485000Y-97834875D01*
X71485000Y-96986818D01*
X71898044Y-96573775D01*
X72136000Y-96621107D01*
X72782965Y-96492418D01*
X73331435Y-96125942D01*
X73406000Y-96014348D01*
X73480565Y-96125942D01*
X74029035Y-96492418D01*
X74676000Y-96621107D01*
X75322965Y-96492418D01*
X75686107Y-96249774D01*
X75747987Y-96345939D01*
X76024348Y-96534769D01*
X76352400Y-96601201D01*
X78079600Y-96601201D01*
X78386068Y-96543535D01*
X78667539Y-96362413D01*
X78856369Y-96086052D01*
X78922801Y-95758000D01*
X78922801Y-93726000D01*
X78865135Y-93419532D01*
X78684013Y-93138061D01*
X78407652Y-92949231D01*
X78079600Y-92882799D01*
X76352400Y-92882799D01*
X76045932Y-92940465D01*
X75764461Y-93121587D01*
X75687062Y-93234864D01*
X75322965Y-92991582D01*
X74676000Y-92862893D01*
X74029035Y-92991582D01*
X73480565Y-93358058D01*
X73406000Y-93469652D01*
X73331435Y-93358058D01*
X72782965Y-92991582D01*
X72136000Y-92862893D01*
X71489035Y-92991582D01*
X70940565Y-93358058D01*
X70866000Y-93469652D01*
X70791435Y-93358058D01*
X70242965Y-92991582D01*
X69596000Y-92862893D01*
X68949035Y-92991582D01*
X68400565Y-93358058D01*
X68034089Y-93906528D01*
X67905400Y-94553493D01*
X67905400Y-94930507D01*
X68034089Y-95577472D01*
X68400565Y-96125942D01*
X68949035Y-96492418D01*
X69231000Y-96548504D01*
X69231000Y-97835124D01*
X68820250Y-97834766D01*
X68323154Y-98040162D01*
X67942499Y-98420154D01*
X67736235Y-98916891D01*
X67735766Y-99454750D01*
X67887631Y-99822291D01*
X67736235Y-100186891D01*
X67735766Y-100724750D01*
X67941162Y-101221846D01*
X67961000Y-101241719D01*
X67961000Y-101727361D01*
X67654819Y-100973754D01*
X67625343Y-100929640D01*
X67129910Y-100562695D01*
X64568605Y-103124000D01*
X64209395Y-103124000D01*
X61648090Y-100562695D01*
X61152657Y-100929640D01*
X60559264Y-102335171D01*
X60548913Y-103860793D01*
X57448661Y-103860793D01*
X57449360Y-103060672D01*
X57133822Y-102297011D01*
X56550062Y-101712232D01*
X55786953Y-101395361D01*
X54960672Y-101394640D01*
X54909572Y-101415754D01*
X54628900Y-101135082D01*
X54628900Y-100412380D01*
X54957047Y-100548639D01*
X55783328Y-100549360D01*
X56185732Y-100383090D01*
X61827695Y-100383090D01*
X64389000Y-102944395D01*
X66950305Y-100383090D01*
X66583360Y-99887657D01*
X65177829Y-99294264D01*
X63652207Y-99283913D01*
X62238754Y-99858181D01*
X62194640Y-99887657D01*
X61827695Y-100383090D01*
X56185732Y-100383090D01*
X56546989Y-100233822D01*
X57131768Y-99650062D01*
X57448639Y-98886953D01*
X57449360Y-98060672D01*
X57428246Y-98009572D01*
X72246509Y-83191309D01*
X72490812Y-82825684D01*
X72513600Y-82711121D01*
X72513600Y-86272300D01*
X72599388Y-86703584D01*
X72843691Y-87069209D01*
X98502955Y-112728474D01*
X97671754Y-113066181D01*
X97627640Y-113095657D01*
X97260695Y-113591090D01*
X99822000Y-116152395D01*
X99836143Y-116138253D01*
X100015748Y-116317858D01*
X100001605Y-116332000D01*
X102562910Y-118893305D01*
X103058343Y-118526360D01*
X103651736Y-117120829D01*
X103656913Y-116357831D01*
X108616137Y-121317056D01*
X108603232Y-121329938D01*
X108286361Y-122093047D01*
X108285640Y-122919328D01*
X108601178Y-123682989D01*
X109184938Y-124267768D01*
X109948047Y-124584639D01*
X110774328Y-124585360D01*
X111537989Y-124269822D01*
X112122768Y-123686062D01*
X112439639Y-122922953D01*
X112440360Y-122096672D01*
X112124822Y-121333011D01*
X111541062Y-120748232D01*
X111017583Y-120530864D01*
X110071466Y-119584747D01*
X110774328Y-119585360D01*
X111537989Y-119269822D01*
X112122768Y-118686062D01*
X112439639Y-117922953D01*
X112440360Y-117096672D01*
X112124822Y-116333011D01*
X111541062Y-115748232D01*
X111490000Y-115727029D01*
X111490000Y-115250900D01*
X111404212Y-114819616D01*
X111404212Y-114819615D01*
X111159909Y-114453990D01*
X111000379Y-114294460D01*
X111387467Y-114134123D01*
X111516715Y-113841320D01*
X110363000Y-112687605D01*
X110348858Y-112701748D01*
X110169253Y-112522143D01*
X110183395Y-112508000D01*
X110542605Y-112508000D01*
X111696320Y-113661715D01*
X111989123Y-113532467D01*
X112257388Y-112832194D01*
X112237250Y-112082565D01*
X111989123Y-111483533D01*
X111696320Y-111354285D01*
X110542605Y-112508000D01*
X110183395Y-112508000D01*
X109029680Y-111354285D01*
X108736877Y-111483533D01*
X108585252Y-111879333D01*
X107880599Y-111174680D01*
X109209285Y-111174680D01*
X110363000Y-112328395D01*
X111516715Y-111174680D01*
X111387467Y-110881877D01*
X110687194Y-110613612D01*
X109937565Y-110633750D01*
X109338533Y-110881877D01*
X109209285Y-111174680D01*
X107880599Y-111174680D01*
X101119919Y-104414000D01*
X108269799Y-104414000D01*
X108269799Y-106914000D01*
X108327465Y-107220468D01*
X108508587Y-107501939D01*
X108784948Y-107690769D01*
X109113000Y-107757201D01*
X111613000Y-107757201D01*
X111919468Y-107699535D01*
X112200939Y-107518413D01*
X112389769Y-107242052D01*
X112456201Y-106914000D01*
X112456201Y-104414000D01*
X112398535Y-104107532D01*
X112217413Y-103826061D01*
X111941052Y-103637231D01*
X111613000Y-103570799D01*
X109113000Y-103570799D01*
X108806532Y-103628465D01*
X108525061Y-103809587D01*
X108336231Y-104085948D01*
X108269799Y-104414000D01*
X101119919Y-104414000D01*
X97781247Y-101075328D01*
X108285640Y-101075328D01*
X108601178Y-101838989D01*
X109184938Y-102423768D01*
X109948047Y-102740639D01*
X110774328Y-102741360D01*
X111537989Y-102425822D01*
X112122768Y-101842062D01*
X112439639Y-101078953D01*
X112440360Y-100252672D01*
X112124822Y-99489011D01*
X111541062Y-98904232D01*
X110777953Y-98587361D01*
X109951672Y-98586640D01*
X109188011Y-98902178D01*
X108603232Y-99485938D01*
X108286361Y-100249047D01*
X108285640Y-101075328D01*
X97781247Y-101075328D01*
X92781247Y-96075328D01*
X108285640Y-96075328D01*
X108601178Y-96838989D01*
X109184938Y-97423768D01*
X109948047Y-97740639D01*
X110774328Y-97741360D01*
X111537989Y-97425822D01*
X112122768Y-96842062D01*
X112439639Y-96078953D01*
X112440360Y-95252672D01*
X112124822Y-94489011D01*
X111541062Y-93904232D01*
X110777953Y-93587361D01*
X109951672Y-93586640D01*
X109188011Y-93902178D01*
X108603232Y-94485938D01*
X108286361Y-95249047D01*
X108285640Y-96075328D01*
X92781247Y-96075328D01*
X89293700Y-92587782D01*
X89293700Y-91997320D01*
X109209285Y-91997320D01*
X109338533Y-92290123D01*
X110038806Y-92558388D01*
X110788435Y-92538250D01*
X111387467Y-92290123D01*
X111516715Y-91997320D01*
X110363000Y-90843605D01*
X109209285Y-91997320D01*
X89293700Y-91997320D01*
X89293700Y-90339806D01*
X108468612Y-90339806D01*
X108488750Y-91089435D01*
X108736877Y-91688467D01*
X109029680Y-91817715D01*
X110183395Y-90664000D01*
X110542605Y-90664000D01*
X111696320Y-91817715D01*
X111989123Y-91688467D01*
X112257388Y-90988194D01*
X112237250Y-90238565D01*
X111989123Y-89639533D01*
X111696320Y-89510285D01*
X110542605Y-90664000D01*
X110183395Y-90664000D01*
X109029680Y-89510285D01*
X108736877Y-89639533D01*
X108468612Y-90339806D01*
X89293700Y-90339806D01*
X89293700Y-89330680D01*
X109209285Y-89330680D01*
X110363000Y-90484395D01*
X111516715Y-89330680D01*
X111387467Y-89037877D01*
X110687194Y-88769612D01*
X109937565Y-88789750D01*
X109338533Y-89037877D01*
X109209285Y-89330680D01*
X89293700Y-89330680D01*
X89293700Y-86411265D01*
X91422960Y-86411265D01*
X91580782Y-86793223D01*
X91581102Y-86794834D01*
X91582007Y-86796188D01*
X91738449Y-87174808D01*
X92030426Y-87467295D01*
X92031339Y-87468661D01*
X92032693Y-87469566D01*
X92322119Y-87759497D01*
X92703799Y-87917985D01*
X92705166Y-87918898D01*
X92706764Y-87919216D01*
X93085110Y-88076319D01*
X93498390Y-88076680D01*
X93500000Y-88077000D01*
X93501596Y-88076682D01*
X93911265Y-88077040D01*
X94293223Y-87919218D01*
X94294834Y-87918898D01*
X94296188Y-87917993D01*
X94674808Y-87761551D01*
X94967295Y-87469574D01*
X94968661Y-87468661D01*
X95227365Y-87209957D01*
X95259497Y-87177881D01*
X95259537Y-87177785D01*
X104831061Y-77606261D01*
X105281298Y-76932434D01*
X105439400Y-76137600D01*
X105439400Y-45783922D01*
X105616519Y-45606803D01*
X105481100Y-46287600D01*
X105481100Y-59679100D01*
X105639202Y-60473934D01*
X106089439Y-61147761D01*
X107425678Y-62484000D01*
X106092939Y-63816739D01*
X105642702Y-64490566D01*
X105636940Y-64519535D01*
X105484600Y-65285400D01*
X105484600Y-81272600D01*
X105642702Y-82067434D01*
X106092939Y-82741261D01*
X108269799Y-84918121D01*
X108269799Y-85324000D01*
X108327465Y-85630468D01*
X108508587Y-85911939D01*
X108784948Y-86100769D01*
X109113000Y-86167201D01*
X111613000Y-86167201D01*
X111919468Y-86109535D01*
X112200939Y-85928413D01*
X112389769Y-85652052D01*
X112456201Y-85324000D01*
X112456201Y-82824000D01*
X112398535Y-82517532D01*
X112217413Y-82236061D01*
X111941052Y-82047231D01*
X111613000Y-81980799D01*
X111207121Y-81980799D01*
X110377336Y-81151014D01*
X110774328Y-81151360D01*
X111537989Y-80835822D01*
X112122768Y-80252062D01*
X112439639Y-79488953D01*
X112440360Y-78662672D01*
X112124822Y-77899011D01*
X111541062Y-77314232D01*
X110777953Y-76997361D01*
X109951672Y-76996640D01*
X109638600Y-77125999D01*
X109638600Y-76022145D01*
X109948047Y-76150639D01*
X110774328Y-76151360D01*
X111537989Y-75835822D01*
X112122768Y-75252062D01*
X112439639Y-74488953D01*
X112440360Y-73662672D01*
X112124822Y-72899011D01*
X111541062Y-72314232D01*
X110777953Y-71997361D01*
X109951672Y-71996640D01*
X109638600Y-72125999D01*
X109638600Y-70815075D01*
X110038806Y-70968388D01*
X110788435Y-70948250D01*
X111387467Y-70700123D01*
X111516715Y-70407320D01*
X110363000Y-69253605D01*
X110348858Y-69267748D01*
X110169253Y-69088143D01*
X110183395Y-69074000D01*
X110542605Y-69074000D01*
X111696320Y-70227715D01*
X111989123Y-70098467D01*
X112257388Y-69398194D01*
X112237250Y-68648565D01*
X111989123Y-68049533D01*
X111696320Y-67920285D01*
X110542605Y-69074000D01*
X110183395Y-69074000D01*
X110169253Y-69059858D01*
X110348858Y-68880253D01*
X110363000Y-68894395D01*
X111516715Y-67740680D01*
X111387467Y-67447877D01*
X110687194Y-67179612D01*
X109937565Y-67199750D01*
X109638600Y-67323585D01*
X109638600Y-66145722D01*
X111207121Y-64577201D01*
X111613000Y-64577201D01*
X111919468Y-64519535D01*
X112200939Y-64338413D01*
X112389769Y-64062052D01*
X112456201Y-63734000D01*
X112456201Y-61234000D01*
X112398535Y-60927532D01*
X112217413Y-60646061D01*
X111941052Y-60457231D01*
X111613000Y-60390799D01*
X111207121Y-60390799D01*
X110377336Y-59561014D01*
X110774328Y-59561360D01*
X111537989Y-59245822D01*
X112122768Y-58662062D01*
X112439639Y-57898953D01*
X112440360Y-57072672D01*
X112124822Y-56309011D01*
X111541062Y-55724232D01*
X110777953Y-55407361D01*
X109951672Y-55406640D01*
X109635100Y-55537445D01*
X109635100Y-54430692D01*
X109948047Y-54560639D01*
X110774328Y-54561360D01*
X111537989Y-54245822D01*
X112122768Y-53662062D01*
X112439639Y-52898953D01*
X112440360Y-52072672D01*
X112124822Y-51309011D01*
X111541062Y-50724232D01*
X110777953Y-50407361D01*
X109951672Y-50406640D01*
X109635100Y-50537445D01*
X109635100Y-49223734D01*
X110038806Y-49378388D01*
X110788435Y-49358250D01*
X111387467Y-49110123D01*
X111516715Y-48817320D01*
X110363000Y-47663605D01*
X110348858Y-47677748D01*
X110169253Y-47498143D01*
X110183395Y-47484000D01*
X110542605Y-47484000D01*
X111696320Y-48637715D01*
X111989123Y-48508467D01*
X112257388Y-47808194D01*
X112237250Y-47058565D01*
X111989123Y-46459533D01*
X111696320Y-46330285D01*
X110542605Y-47484000D01*
X110183395Y-47484000D01*
X110169253Y-47469858D01*
X110348858Y-47290253D01*
X110363000Y-47304395D01*
X111516715Y-46150680D01*
X111387467Y-45857877D01*
X111053199Y-45729823D01*
X111193970Y-45589052D01*
X111831661Y-45162961D01*
X112281898Y-44489133D01*
X112440000Y-43694300D01*
X112440000Y-42224003D01*
X112456201Y-42144000D01*
X112456201Y-39644000D01*
X112398535Y-39337532D01*
X112217413Y-39056061D01*
X111941052Y-38867231D01*
X111613000Y-38800799D01*
X110393523Y-38800799D01*
X111831239Y-37363083D01*
X112122768Y-37072062D01*
X112439639Y-36308953D01*
X112440360Y-35482672D01*
X112440000Y-35481801D01*
X112440000Y-30895239D01*
X112440360Y-30482672D01*
X112124822Y-29719011D01*
X111541062Y-29134232D01*
X110777953Y-28817361D01*
X109951672Y-28816640D01*
X109188011Y-29132178D01*
X108603232Y-29715938D01*
X108286361Y-30479047D01*
X108285640Y-31305328D01*
X108286000Y-31306199D01*
X108286000Y-35033678D01*
X104693939Y-38625739D01*
X104421370Y-39033667D01*
X104424087Y-38633207D01*
X103849819Y-37219754D01*
X103820343Y-37175640D01*
X103324910Y-36808695D01*
X100763605Y-39370000D01*
X100777748Y-39384143D01*
X100598143Y-39563748D01*
X100584000Y-39549605D01*
X98022695Y-42110910D01*
X98389640Y-42606343D01*
X99795171Y-43199736D01*
X101320793Y-43210087D01*
X102698224Y-42650454D01*
X101893739Y-43454939D01*
X101443502Y-44128766D01*
X101336459Y-44666911D01*
X101285400Y-44923600D01*
X101285400Y-75277278D01*
X92031339Y-84531339D01*
X92030434Y-84532693D01*
X91740503Y-84822119D01*
X91582015Y-85203799D01*
X91581102Y-85205166D01*
X91580784Y-85206764D01*
X91423681Y-85585110D01*
X91423320Y-85998390D01*
X91423000Y-86000000D01*
X91423318Y-86001596D01*
X91422960Y-86411265D01*
X89293700Y-86411265D01*
X89293700Y-53596630D01*
X89832975Y-53596630D01*
X90175566Y-54071277D01*
X91508800Y-54631342D01*
X92954875Y-54638568D01*
X94293639Y-54091854D01*
X94324434Y-54071277D01*
X94667025Y-53596630D01*
X92250000Y-51179605D01*
X89832975Y-53596630D01*
X89293700Y-53596630D01*
X89293700Y-53157422D01*
X89653370Y-53417025D01*
X92070395Y-51000000D01*
X92429605Y-51000000D01*
X94846630Y-53417025D01*
X95321277Y-53074434D01*
X95881342Y-51741200D01*
X95888568Y-50295125D01*
X95341854Y-48956361D01*
X95321277Y-48925566D01*
X94846630Y-48582975D01*
X92429605Y-51000000D01*
X92070395Y-51000000D01*
X89653370Y-48582975D01*
X89293700Y-48842578D01*
X89293700Y-48403370D01*
X89832975Y-48403370D01*
X92250000Y-50820395D01*
X94667025Y-48403370D01*
X94324434Y-47928723D01*
X94297551Y-47917430D01*
X94674808Y-47761551D01*
X95259497Y-47177881D01*
X95576319Y-46414890D01*
X95577040Y-45588735D01*
X95261551Y-44825192D01*
X94677881Y-44240503D01*
X93914890Y-43923681D01*
X93088735Y-43922960D01*
X92325192Y-44238449D01*
X91740503Y-44822119D01*
X91423681Y-45585110D01*
X91422960Y-46411265D01*
X91738449Y-47174808D01*
X91926651Y-47363338D01*
X91545125Y-47361432D01*
X90206361Y-47908146D01*
X90175566Y-47928723D01*
X89832975Y-48403370D01*
X89293700Y-48403370D01*
X89293700Y-40106793D01*
X96743913Y-40106793D01*
X97318181Y-41520246D01*
X97347657Y-41564360D01*
X97843090Y-41931305D01*
X100404395Y-39370000D01*
X97843090Y-36808695D01*
X97347657Y-37175640D01*
X96754264Y-38581171D01*
X96743913Y-40106793D01*
X89293700Y-40106793D01*
X89293700Y-36629090D01*
X98022695Y-36629090D01*
X100584000Y-39190395D01*
X103145305Y-36629090D01*
X102778360Y-36133657D01*
X101372829Y-35540264D01*
X99847207Y-35529913D01*
X98433754Y-36104181D01*
X98389640Y-36133657D01*
X98022695Y-36629090D01*
X89293700Y-36629090D01*
X89293700Y-35224600D01*
X89207912Y-34793316D01*
X88963609Y-34427691D01*
X86491109Y-31955191D01*
X86125484Y-31710888D01*
X85694200Y-31625100D01*
X81461100Y-31625100D01*
X81029816Y-31710888D01*
X80664191Y-31955190D01*
X79128250Y-33491132D01*
X78497509Y-32860391D01*
X78131884Y-32616088D01*
X77700600Y-32530300D01*
X72955200Y-32530300D01*
X72523916Y-32616088D01*
X72158291Y-32860391D01*
X71441091Y-33577591D01*
X71196788Y-33943216D01*
X71111000Y-34374500D01*
X71111000Y-38537002D01*
X70575819Y-37219754D01*
X70546343Y-37175640D01*
X70050910Y-36808695D01*
X67489605Y-39370000D01*
X67503748Y-39384143D01*
X67324143Y-39563748D01*
X67310000Y-39549605D01*
X64748695Y-42110910D01*
X65115640Y-42606343D01*
X66521171Y-43199736D01*
X67256060Y-43204722D01*
X57422680Y-53038102D01*
X57133822Y-52339011D01*
X56550062Y-51754232D01*
X56499000Y-51733029D01*
X56499000Y-50607201D01*
X56622000Y-50607201D01*
X56928468Y-50549535D01*
X57209939Y-50368413D01*
X57398769Y-50092052D01*
X57465201Y-49764000D01*
X57465201Y-47264000D01*
X57407535Y-46957532D01*
X57226413Y-46676061D01*
X56950052Y-46487231D01*
X56622000Y-46420799D01*
X56499000Y-46420799D01*
X56499000Y-42435651D01*
X56546989Y-42415822D01*
X57131768Y-41832062D01*
X57448639Y-41068953D01*
X57449360Y-40242672D01*
X57393216Y-40106793D01*
X63469913Y-40106793D01*
X64044181Y-41520246D01*
X64073657Y-41564360D01*
X64569090Y-41931305D01*
X67130395Y-39370000D01*
X64569090Y-36808695D01*
X64073657Y-37175640D01*
X63480264Y-38581171D01*
X63469913Y-40106793D01*
X57393216Y-40106793D01*
X57133822Y-39479011D01*
X56550062Y-38894232D01*
X56499000Y-38873029D01*
X56499000Y-37435651D01*
X56546989Y-37415822D01*
X57131768Y-36832062D01*
X57216049Y-36629090D01*
X64748695Y-36629090D01*
X67310000Y-39190395D01*
X69871305Y-36629090D01*
X69504360Y-36133657D01*
X68098829Y-35540264D01*
X66573207Y-35529913D01*
X65159754Y-36104181D01*
X65115640Y-36133657D01*
X64748695Y-36629090D01*
X57216049Y-36629090D01*
X57448639Y-36068953D01*
X57449360Y-35242672D01*
X57133822Y-34479011D01*
X56550062Y-33894232D01*
X55786953Y-33577361D01*
X54960672Y-33576640D01*
X54197011Y-33892178D01*
X53612232Y-34475938D01*
X53295361Y-35239047D01*
X53294640Y-36065328D01*
X53610178Y-36828989D01*
X54193938Y-37413768D01*
X54245000Y-37434971D01*
X54245000Y-38872349D01*
X54197011Y-38892178D01*
X53612232Y-39475938D01*
X53295361Y-40239047D01*
X53294640Y-41065328D01*
X53610178Y-41828989D01*
X54193938Y-42413768D01*
X54245000Y-42434971D01*
X54245000Y-46420799D01*
X54122000Y-46420799D01*
X53815532Y-46478465D01*
X53534061Y-46659587D01*
X53345231Y-46935948D01*
X53278799Y-47264000D01*
X53278799Y-49764000D01*
X53336465Y-50070468D01*
X53517587Y-50351939D01*
X53793948Y-50540769D01*
X54122000Y-50607201D01*
X54245000Y-50607201D01*
X54245000Y-51732349D01*
X54197011Y-51752178D01*
X53612232Y-52335938D01*
X53295361Y-53099047D01*
X53294640Y-53925328D01*
X53610178Y-54688989D01*
X54193938Y-55273768D01*
X54245000Y-55294971D01*
X54245000Y-56732349D01*
X54197011Y-56752178D01*
X53612232Y-57335938D01*
X53295361Y-58099047D01*
X53294640Y-58925328D01*
X53610178Y-59688989D01*
X54193938Y-60273768D01*
X54245000Y-60294971D01*
X54245000Y-61732349D01*
X54197011Y-61752178D01*
X53612232Y-62335938D01*
X53295361Y-63099047D01*
X53294640Y-63925328D01*
X53610178Y-64688989D01*
X54193938Y-65273768D01*
X54567639Y-65428943D01*
X52704991Y-67291591D01*
X52460688Y-67657216D01*
X52374900Y-68088500D01*
X51448000Y-68088500D01*
X51448000Y-23889000D01*
X53472968Y-23889000D01*
X53345231Y-24075948D01*
G36*
X86103300Y-48736090D02*
X86103105Y-48959691D01*
X86274319Y-49374060D01*
X86591072Y-49691367D01*
X87005142Y-49863304D01*
X87039700Y-49863334D01*
X87039700Y-93054600D01*
X87125488Y-93485884D01*
X87369791Y-93851509D01*
X109236000Y-115717719D01*
X109236000Y-115726349D01*
X109188011Y-115746178D01*
X108603232Y-116329938D01*
X108286361Y-117093047D01*
X108285745Y-117799026D01*
X102063709Y-111576991D01*
X101698084Y-111332688D01*
X101266800Y-111246900D01*
X100209019Y-111246900D01*
X76715766Y-87753648D01*
X77024275Y-87625859D01*
X77153483Y-87333089D01*
X76000000Y-86179605D01*
X75985858Y-86193748D01*
X75806252Y-86014142D01*
X75820395Y-86000000D01*
X76179605Y-86000000D01*
X77333089Y-87153483D01*
X77625859Y-87024275D01*
X77894071Y-86324117D01*
X77873928Y-85574616D01*
X77625859Y-84975725D01*
X77333089Y-84846517D01*
X76179605Y-86000000D01*
X75820395Y-86000000D01*
X75806252Y-85985858D01*
X75985858Y-85806252D01*
X76000000Y-85820395D01*
X77153483Y-84666911D01*
X77139176Y-84634492D01*
X77954875Y-84638568D01*
X79293639Y-84091854D01*
X79324434Y-84071277D01*
X79667025Y-83596630D01*
X77250000Y-81179605D01*
X77235858Y-81193748D01*
X77056253Y-81014143D01*
X77070395Y-81000000D01*
X77056253Y-80985858D01*
X77235858Y-80806253D01*
X77250000Y-80820395D01*
X79667025Y-78403370D01*
X79324434Y-77928723D01*
X77991200Y-77368658D01*
X76545125Y-77361432D01*
X75206361Y-77908146D01*
X75175566Y-77928723D01*
X74832976Y-78403368D01*
X74767600Y-78337992D01*
X74767600Y-47412008D01*
X74846518Y-47333090D01*
X74975725Y-47625859D01*
X75675883Y-47894071D01*
X76425384Y-47873928D01*
X77024275Y-47625859D01*
X77153483Y-47333089D01*
X76000000Y-46179605D01*
X75985858Y-46193748D01*
X75806252Y-46014142D01*
X75820395Y-46000000D01*
X76179605Y-46000000D01*
X77333089Y-47153483D01*
X77625859Y-47024275D01*
X77894071Y-46324117D01*
X77873928Y-45574616D01*
X77625859Y-44975725D01*
X77333089Y-44846517D01*
X76179605Y-46000000D01*
X75820395Y-46000000D01*
X75806252Y-45985858D01*
X75985858Y-45806252D01*
X76000000Y-45820395D01*
X77153483Y-44666911D01*
X77024275Y-44374141D01*
X76324117Y-44105929D01*
X75574616Y-44126072D01*
X74975725Y-44374141D01*
X74846518Y-44666910D01*
X74767600Y-44587992D01*
X74767600Y-44522918D01*
X79899000Y-39391519D01*
X79899000Y-78620775D01*
X79846630Y-78582975D01*
X77429605Y-81000000D01*
X79846630Y-83417025D01*
X79899000Y-83379225D01*
X79899000Y-89142900D01*
X79984788Y-89574184D01*
X80229091Y-89939809D01*
X100993496Y-110704214D01*
X101151872Y-110862867D01*
X101565942Y-111034804D01*
X102014291Y-111035195D01*
X102428660Y-110863981D01*
X102745967Y-110547228D01*
X102917904Y-110133158D01*
X102918295Y-109684809D01*
X102747081Y-109270440D01*
X102430328Y-108953133D01*
X102429854Y-108952936D01*
X82153000Y-88676082D01*
X82153000Y-38200706D01*
X82440542Y-38320104D01*
X82888891Y-38320495D01*
X82889363Y-38320300D01*
X84836000Y-38320300D01*
X85267284Y-38234512D01*
X85632909Y-37990209D01*
X85877212Y-37624584D01*
X85963000Y-37193300D01*
X85963000Y-37176834D01*
X86103300Y-36971499D01*
X86103300Y-48736090D01*
X86103300Y-48736090D01*
G37*
X86103300Y-48736090D02*
X86103105Y-48959691D01*
X86274319Y-49374060D01*
X86591072Y-49691367D01*
X87005142Y-49863304D01*
X87039700Y-49863334D01*
X87039700Y-93054600D01*
X87125488Y-93485884D01*
X87369791Y-93851509D01*
X109236000Y-115717719D01*
X109236000Y-115726349D01*
X109188011Y-115746178D01*
X108603232Y-116329938D01*
X108286361Y-117093047D01*
X108285745Y-117799026D01*
X102063709Y-111576991D01*
X101698084Y-111332688D01*
X101266800Y-111246900D01*
X100209019Y-111246900D01*
X76715766Y-87753648D01*
X77024275Y-87625859D01*
X77153483Y-87333089D01*
X76000000Y-86179605D01*
X75985858Y-86193748D01*
X75806252Y-86014142D01*
X75820395Y-86000000D01*
X76179605Y-86000000D01*
X77333089Y-87153483D01*
X77625859Y-87024275D01*
X77894071Y-86324117D01*
X77873928Y-85574616D01*
X77625859Y-84975725D01*
X77333089Y-84846517D01*
X76179605Y-86000000D01*
X75820395Y-86000000D01*
X75806252Y-85985858D01*
X75985858Y-85806252D01*
X76000000Y-85820395D01*
X77153483Y-84666911D01*
X77139176Y-84634492D01*
X77954875Y-84638568D01*
X79293639Y-84091854D01*
X79324434Y-84071277D01*
X79667025Y-83596630D01*
X77250000Y-81179605D01*
X77235858Y-81193748D01*
X77056253Y-81014143D01*
X77070395Y-81000000D01*
X77056253Y-80985858D01*
X77235858Y-80806253D01*
X77250000Y-80820395D01*
X79667025Y-78403370D01*
X79324434Y-77928723D01*
X77991200Y-77368658D01*
X76545125Y-77361432D01*
X75206361Y-77908146D01*
X75175566Y-77928723D01*
X74832976Y-78403368D01*
X74767600Y-78337992D01*
X74767600Y-47412008D01*
X74846518Y-47333090D01*
X74975725Y-47625859D01*
X75675883Y-47894071D01*
X76425384Y-47873928D01*
X77024275Y-47625859D01*
X77153483Y-47333089D01*
X76000000Y-46179605D01*
X75985858Y-46193748D01*
X75806252Y-46014142D01*
X75820395Y-46000000D01*
X76179605Y-46000000D01*
X77333089Y-47153483D01*
X77625859Y-47024275D01*
X77894071Y-46324117D01*
X77873928Y-45574616D01*
X77625859Y-44975725D01*
X77333089Y-44846517D01*
X76179605Y-46000000D01*
X75820395Y-46000000D01*
X75806252Y-45985858D01*
X75985858Y-45806252D01*
X76000000Y-45820395D01*
X77153483Y-44666911D01*
X77024275Y-44374141D01*
X76324117Y-44105929D01*
X75574616Y-44126072D01*
X74975725Y-44374141D01*
X74846518Y-44666910D01*
X74767600Y-44587992D01*
X74767600Y-44522918D01*
X79899000Y-39391519D01*
X79899000Y-78620775D01*
X79846630Y-78582975D01*
X77429605Y-81000000D01*
X79846630Y-83417025D01*
X79899000Y-83379225D01*
X79899000Y-89142900D01*
X79984788Y-89574184D01*
X80229091Y-89939809D01*
X100993496Y-110704214D01*
X101151872Y-110862867D01*
X101565942Y-111034804D01*
X102014291Y-111035195D01*
X102428660Y-110863981D01*
X102745967Y-110547228D01*
X102917904Y-110133158D01*
X102918295Y-109684809D01*
X102747081Y-109270440D01*
X102430328Y-108953133D01*
X102429854Y-108952936D01*
X82153000Y-88676082D01*
X82153000Y-38200706D01*
X82440542Y-38320104D01*
X82888891Y-38320495D01*
X82889363Y-38320300D01*
X84836000Y-38320300D01*
X85267284Y-38234512D01*
X85632909Y-37990209D01*
X85877212Y-37624584D01*
X85963000Y-37193300D01*
X85963000Y-37176834D01*
X86103300Y-36971499D01*
X86103300Y-48736090D01*
G36*
X70322600Y-81927582D02*
X57449209Y-94800973D01*
X57465201Y-94722000D01*
X57465201Y-92222000D01*
X57407535Y-91915532D01*
X57226413Y-91634061D01*
X56950052Y-91445231D01*
X56622000Y-91378799D01*
X54628900Y-91378799D01*
X54628900Y-87853911D01*
X55047806Y-88014388D01*
X55797435Y-87994250D01*
X56396467Y-87746123D01*
X56525715Y-87453320D01*
X55372000Y-86299605D01*
X55357858Y-86313748D01*
X55178253Y-86134143D01*
X55192395Y-86120000D01*
X55551605Y-86120000D01*
X56705320Y-87273715D01*
X56998123Y-87144467D01*
X57266388Y-86444194D01*
X57246250Y-85694565D01*
X56998123Y-85095533D01*
X56705320Y-84966285D01*
X55551605Y-86120000D01*
X55192395Y-86120000D01*
X55178253Y-86105858D01*
X55357858Y-85926253D01*
X55372000Y-85940395D01*
X56525715Y-84786680D01*
X56396467Y-84493877D01*
X55696194Y-84225612D01*
X54946565Y-84245750D01*
X54628900Y-84377331D01*
X54628900Y-83060380D01*
X54957047Y-83196639D01*
X55783328Y-83197360D01*
X56546989Y-82881822D01*
X57131768Y-82298062D01*
X57448639Y-81534953D01*
X57449360Y-80708672D01*
X57428246Y-80657572D01*
X58942909Y-79142910D01*
X59187212Y-78777285D01*
X59210731Y-78659047D01*
X59273000Y-78346000D01*
X59273000Y-74109745D01*
X59683860Y-73939981D01*
X60001167Y-73623228D01*
X60001364Y-73622754D01*
X70322600Y-63301518D01*
X70322600Y-81927582D01*
X70322600Y-81927582D01*
G37*
X70322600Y-81927582D02*
X57449209Y-94800973D01*
X57465201Y-94722000D01*
X57465201Y-92222000D01*
X57407535Y-91915532D01*
X57226413Y-91634061D01*
X56950052Y-91445231D01*
X56622000Y-91378799D01*
X54628900Y-91378799D01*
X54628900Y-87853911D01*
X55047806Y-88014388D01*
X55797435Y-87994250D01*
X56396467Y-87746123D01*
X56525715Y-87453320D01*
X55372000Y-86299605D01*
X55357858Y-86313748D01*
X55178253Y-86134143D01*
X55192395Y-86120000D01*
X55551605Y-86120000D01*
X56705320Y-87273715D01*
X56998123Y-87144467D01*
X57266388Y-86444194D01*
X57246250Y-85694565D01*
X56998123Y-85095533D01*
X56705320Y-84966285D01*
X55551605Y-86120000D01*
X55192395Y-86120000D01*
X55178253Y-86105858D01*
X55357858Y-85926253D01*
X55372000Y-85940395D01*
X56525715Y-84786680D01*
X56396467Y-84493877D01*
X55696194Y-84225612D01*
X54946565Y-84245750D01*
X54628900Y-84377331D01*
X54628900Y-83060380D01*
X54957047Y-83196639D01*
X55783328Y-83197360D01*
X56546989Y-82881822D01*
X57131768Y-82298062D01*
X57448639Y-81534953D01*
X57449360Y-80708672D01*
X57428246Y-80657572D01*
X58942909Y-79142910D01*
X59187212Y-78777285D01*
X59210731Y-78659047D01*
X59273000Y-78346000D01*
X59273000Y-74109745D01*
X59683860Y-73939981D01*
X60001167Y-73623228D01*
X60001364Y-73622754D01*
X70322600Y-63301518D01*
X70322600Y-81927582D01*
M02*
